<?xml version="1.0" encoding="UTF-8" standalone="no"?>
<!-- Created with Inkscape (http://www.inkscape.org/) -->

<svg
   width="512mm"
   height="512mm"
   viewBox="0 0 512 512"
   version="1.1"
   id="svg1"
   xml:space="preserve"
   sodipodi:docname="pl_home_ylw.svg"
   inkscape:export-filename="pl_home_ylw.svg"
   inkscape:export-xdpi="96"
   inkscape:export-ydpi="96"
   inkscape:version="1.4.3 (0d15f75, 2025-12-25)"
   xmlns:inkscape="http://www.inkscape.org/namespaces/inkscape"
   xmlns:sodipodi="http://sodipodi.sourceforge.net/DTD/sodipodi-0.dtd"
   xmlns="http://www.w3.org/2000/svg"
   xmlns:svg="http://www.w3.org/2000/svg"><sodipodi:namedview
     id="namedview1"
     pagecolor="#ffffff"
     bordercolor="#000000"
     borderopacity="0.25"
     inkscape:showpageshadow="2"
     inkscape:pageopacity="0.0"
     inkscape:pagecheckerboard="0"
     inkscape:deskcolor="#d1d1d1"
     inkscape:document-units="mm"
     inkscape:zoom="0.25"
     inkscape:cx="1052"
     inkscape:cy="930"
     inkscape:window-width="1920"
     inkscape:window-height="1009"
     inkscape:window-x="1912"
     inkscape:window-y="-8"
     inkscape:window-maximized="1"
     inkscape:current-layer="svg1"><inkscape:page
       x="0"
       y="0"
       width="512"
       height="512"
       id="page2"
       margin="0"
       bleed="0" /></sodipodi:namedview><defs
     id="defs1" /><rect
     style="display:none;fill:#ebe2ca;fill-opacity:1;stroke-width:0.264583"
     id="rect2"
     width="128"
     height="128"
     x="-0.002112448"
     y="0.04319331" /><rect
     style="display:inline;fill:#f4e5c3;fill-opacity:1;stroke-width:0.313665"
     id="rect162"
     width="395.58142"
     height="58.209351"
     x="58.209351"
     y="453.79065" /><rect
     style="display:inline;fill:#e7c033;fill-opacity:1;stroke-width:0.817688"
     id="rect161"
     width="395.5813"
     height="395.5813"
     x="58.209351"
     y="58.209351" /><path
     id="path4"
     style="display:none;fill:#33302e;fill-opacity:1;stroke-width:0.238604"
     d="m 19.74792,6.2838907 -9.623702,18.4800063 42.416016,40.5691 -24.109639,35.467083 8.073409,13.1501 28.245304,-36.93986 46.740812,44.70579 6.38566,-13.72319 L 75.022066,63.575482 100.75073,29.926889 88.452254,12.504701 62.534456,50.631569 Z" /><path
     id="path3"
     style="display:none;fill:#33302e;fill-opacity:1;stroke-width:0.28315"
     d="m 75.49878,21.717569 -49.185629,1.725477 2.80448,82.839384 7.277075,-0.28835 -3.429248,-75.456894 34.671786,-1.00769 -28.62461,5.039485 1.003557,29.325859 0.01654,0.486792 1.293461,37.792008 24.832593,2.64118 h 0.0026 l 0.001,-0.0656 0.459404,0.0475 6.072498,-0.24029 1.162202,-34.327103 -6.768062,-0.0098 h -0.24908 l -18.754928,-0.02687 -0.914156,-6.888469 19.837032,-1.637109 0.196371,-0.01602 6.962882,-0.574642 z m -8.876978,83.079161 -0.460437,0.0181 v 5.2e-4 z m -0.463021,0.0181 -24.708569,0.97875 -5.055506,0.20051 29.766142,-1.17874 z m 22.818762,-58.352508 -5.112866,5.404838 4.67465,9.349817 -21.353218,1.762167 -0.205156,0.01705 -12.920658,1.066085 0.155546,4.555794 12.893787,0.0186 21.575428,0.03049 -5.843054,6.720004 3.651973,7.158219 15.192875,-16.653764 z" /><path
     id="rect12"
     style="display:none;fill:#33302e;fill-opacity:1;stroke:#9f9f9f;stroke-width:0"
     d="M 57.932647,23.077963 35.731317,42.35434 v 3.698966 l 22.20133,-17.660325 21.972797,17.96505 V 42.659065 Z M 85.64815,27.51328 v 3.12329 h 9.751314 V 27.51328 Z M 57.932647,32.092651 38.702392,47.209432 v 4.069145 4.647636 L 24.195067,59.813788 V 104.92204 H 38.702392 52.263155 V 88.591269 H 63.726709 V 104.92204 H 77.162917 104.56665 V 73.480821 L 77.162917,67.016779 v -2.693292 l 0.0027,7.02e-4 0.0027,-2.692588 -0.0054,-0.0014 V 47.209432 Z m 29.7529,0.448296 -1.359667,28.557204 8.569696,2.021201 L 93.36208,32.540947 Z M 54.318134,41.302768 H 61.67173 V 53.094279 H 54.318134 Z M 36.322977,50.849645 20.385998,56.23269 v 2.323819 l 15.936979,-4.316507 z m 43.466369,10.180955 -0.0027,3.911493 27.827374,6.759613 v -2.693292 z"
     sodipodi:nodetypes="ccccccccccccccccccccccccccccccccccccccccccccccccccccc"
     inkscape:label="red" /><path
     id="path13"
     style="display:none;fill:#33302e;fill-opacity:1;stroke:#9f9f9f;stroke-width:0"
     d="m 34.585965,21.677939 v 4.160634 h 11.871036 v -4.160634 z m 20.695495,4.416099 v 4.15993 h 11.871743 v -4.15993 z m -19.934025,1.67847 V 53.309874 H 45.69553 V 27.772508 Z m 20.696203,4.416098 V 53.309874 H 66.391733 V 32.188606 Z M 24.23787,55.244512 v 4.15993 h 0.761471 60.117357 0.76147 v -4.15993 h -0.76147 -60.117357 z m 0.761471,6.094568 v 33.501124 1.934638 h -2.593363 v 9.547218 h 17.884669 5.404883 v -9.547218 -1.934638 -5.653311 h 10.348108 10.348095 v 5.653311 1.934638 9.547218 h 18.724965 2.593349 14.870463 3.01351 v -9.546514 h -3.01351 V 96.774842 94.840204 72.476798 H 85.116698 V 70.542864 61.33908 Z m 4.433685,4.440731 h 7.380343 v 14.221597 h -7.380343 z m 11.070167,0 h 7.379634 v 14.221597 h -7.379634 z m 11.070153,0 h 7.379634 v 14.221597 h -7.379634 z m 11.070153,0 h 7.379634 v 14.221597 h -7.379634 z m 11.069458,0 H 81.0933 v 14.221597 h -7.380343 z m 13.338372,0.603123 v 4.15993 h 16.290651 v -4.15993 z"
     inkscape:label="blu" /><path
     id="path75"
     style="display:none;fill:#33302e;fill-opacity:1;stroke:#9f9f9f;stroke-width:0"
     d="m 92.370333,19.190849 -1.676355,10.224236 0.419439,6.094568 2.437131,8.532395 z m -3.752443,3.174665 -5.063559,0.646052 -0.700241,33.452563 h 2.046535 l 0.269539,-5.333099 3.340044,0.107669 0.538384,5.925666 1.993042,0.26954 z m -47.430662,0.431405 -7.657631,0.871255 -0.02887,1.914229 7.44228,-0.975411 z m 45.964729,1.513789 v 4.951661 l -1.676368,-0.03801 -0.418731,-4.494216 z m -47.370141,1.662282 -4.928436,0.637608 0.418731,6.76103 4.509705,-0.72417 z m 1.432145,0.728394 -0.15201,1.561645 11.312958,-0.418738 0.228725,2.209105 1.904371,0.266726 -0.952186,-3.618738 z m 52.505485,0.835364 v 0.612974 l 3.410425,2.551838 0.93952,0.06756 z m 0.01621,3.043764 0.134416,2.612361 1.238611,-0.457445 -0.02669,-1.589796 z m 10.756974,0.776952 -0.20971,0.952188 0.80369,0.0035 -0.0893,-0.936705 z m -8.818107,0.138642 0.135096,0.619308 7.939821,-0.107668 0.10772,-0.403959 z m -10.427628,0.05208 2.0951,0.228723 0.57145,8.570399 -2.475835,0.07601 z m -36.384437,1.023269 -18.16125,2.919903 -11.224274,6.746954 v 6.791292 l 11.224274,-7.502089 18.16125,-2.918496 18.16125,2.918496 11.224288,7.502089 V 42.238309 L 67.023704,35.491355 Z m 49.411052,0.296284 -0.938825,0.06756 -3.410425,2.538465 V 36.08674 Z M 48.862454,40.958873 33.4508,43.241872 23.9261,49.22032 h 49.872709 l -9.524701,-5.978448 z m 36.384437,1.597537 2.475835,0.03801 0.57145,6.513306 -2.780564,-0.07601 z M 23.9261,51.067693 v 1.846667 h 1.615833 V 65.057049 H 23.9261 l 3.232375,43.752101 h 8.723109 V 87.846229 h 29.786674 v 20.962921 h 8.130551 27.797851 L 105.15206,71.273367 94.863082,66.775632 78.216316,65.057049 H 73.798809 72.182975 V 52.91436 h 1.615834 v -1.846667 z m 4.515329,1.846667 h 8.036241 v 12.142689 h -8.036241 z m 10.935737,0 h 8.035547 v 12.142689 h -8.035547 z m 10.935043,0 h 8.035533 v 12.142689 h -8.035533 z m 10.935029,0 h 8.036242 v 12.142689 h -8.036242 z m 14.607966,4.916473 v 5.310578 h 2.39208 l 16.893781,1.762921 13.382005,5.806027 v -5.8947 L 95.141759,59.593753 78.247992,57.830833 Z m 5.278202,15.312427 h 5.027675 v 5.789839 h -5.027675 z m 8.45639,0 h 5.027674 v 5.789839 h -5.027674 z m -8.45639,9.44658 h 5.027675 v 5.789841 h -5.027675 z m 8.45639,0 h 5.027674 v 5.789841 h -5.027674 z"
     inkscape:label="grn" /><path
     id="rect104"
     style="display:inline;opacity:1;fill:#33302e;fill-opacity:1;stroke:#9f9f9f;stroke-width:0"
     d="m 312.63026,79.97395 v 20.5104 h 18.46948 v -20.5104 z m 0,23.10025 v 7.74699 h 18.46948 v -7.74699 z m -174.51863,2.45189 v 57.35932 h 3.73836 v -57.35932 z m 5.84683,0 v 57.35932 h 3.7412 v -57.35932 z m 195.97484,1.95365 v 20.5104 h 18.46952 v -20.5104 z m -113.71083,2.77563 V 146.713 h 3.7384 v -36.45763 z m 5.84683,0 V 146.713 h 3.7412 v -36.45763 z m -50.47083,1.41315 v 34.08736 h 3.74115 v -34.08736 z m 5.8496,0 v 34.08736 h 3.73843 v -34.08736 z m 125.18219,1.74252 v 57.82098 h 18.46948 v -57.82098 z m -164.23811,9.91457 v 0.75724 h 32.95292 v -0.75724 z m 43.94288,0 v 0.75724 h 32.95287 v -0.75724 z m -43.42773,1.44413 v 0.51233 h 1.82697 l 2.95864,1.25831 v 1.12321 l -2.95864,1.2555 h -1.82697 v 0.51234 h 8.95185 22.97075 v -0.43067 h -1.82695 l -2.9586,-1.25833 v -1.1232 l 2.9586,-1.25552 h 1.82695 v -0.59397 h -22.97075 z m 43.94284,0 v 0.51233 h 1.82696 l 2.95861,1.25831 v 1.12321 l -2.95861,1.2555 h -1.82696 v 0.51234 h 31.92261 v -0.51234 h -1.82696 l -2.95865,-1.25831 v -1.12321 l 2.95865,-1.2555 h 1.82696 v -0.51233 z m -29.07936,0.51233 h 1.82696 l 2.95861,1.25831 v 1.12321 l -2.95861,1.2555 h -1.82696 l -2.95579,-1.25831 v -1.12321 z m 43.94281,0 h 1.82695 l 2.95861,1.25831 v 1.12321 l -2.95861,1.2555 h -1.82695 l -2.9586,-1.25831 v -1.12321 z m -59.32144,4.83624 v 0.75724 h 32.95292 v -0.75724 z m 43.94288,0 v 0.75724 h 32.95287 v -0.75724 z m 147.59827,0.61368 v 7.747 h 18.46952 v -7.747 z m 0,10.18483 v 30.31519 h 18.46952 v -30.31519 z m -169.07144,10.51982 v 16.37791 h -37.62584 v 27.16235 h 108.86613 v -27.16235 -16.37791 z m 126.63188,29.73529 v 15.1956 h 42.43956 l 29.40316,8.85049 v 9.94556 87.04956 l -47.04216,34.30692 v 30.01964 h 6.48304 v 25.85617 h -6.89408 l -0.003,39.63015 h 54.99184 41.6458 L 376.8723,215.16358 h -0.0756 l -6.53932,-33.99165 z m -40.73932,13.80497 v 237.04912 h 27.90552 V 385.93254 194.9769 Z m -139.84571,11.20387 -23.426765,6.5675 v 23.59287 h 23.849085 v 37.11352 H 93.481945 v 18.69752 H 250.29111 v -18.69752 h -31.96764 v -37.11352 h 31.96764 v -30.16037 z m 174.21463,0 v 85.97141 h 67.27948 v -79.40391 l -23.4268,-6.5675 z m -161.43992,30.16037 h 31.96761 v 37.11352 h -31.96761 z m 44.32004,0 h 31.9676 v 37.11352 h -31.9676 z m -37.59207,62.25748 v 0.003 H 93.481945 l 42.929445,31.47216 h 113.87972 v -31.475 z m 154.71195,0 v 31.475 h 24.35008 l 42.9294,-31.475 z m -154.71195,37.92144 v 30.01964 h 113.87972 v -30.01964 z m 154.71195,0 v 30.01964 h 24.35008 v -30.01964 z m -161.17536,36.48297 v 6.46615 6.46336 h 6.46341 30.8106 v 46.09348 h 27.90832 v -46.09348 h 30.81348 24.34732 V 373.00303 H 136.41139 Z m 161.17536,0 v 12.92951 h 24.35008 6.46336 v -6.46336 -6.46615 h -6.46336 z m -154.71195,19.39284 v 39.63015 h 24.34727 v -39.63015 z m 154.71195,0 v 39.63015 h 24.34728 v -39.63015 z"
     inkscape:label="ylw" /></svg>
