<?xml version="1.0" encoding="UTF-8" standalone="no"?>
<!-- Created with Inkscape (http://www.inkscape.org/) -->

<svg
   width="512mm"
   height="512mm"
   viewBox="0 0 512 512"
   version="1.1"
   id="svg1"
   xml:space="preserve"
   xmlns="http://www.w3.org/2000/svg"
   xmlns:svg="http://www.w3.org/2000/svg"><defs
     id="defs1" /><g
     id="layer1"><path
       style="display:none;fill:#4c738c;fill-opacity:1;stroke:#e9d5d7;stroke-width:1.53201;stroke-opacity:0"
       d="M 475.76268,344.87517 V 204.97242 L 43.006639,168.72821 90.849117,344.15017 Z"
       id="path34" /><path
       id="path29"
       style="display:none;fill:#ffffff;fill-opacity:1;stroke:#e9d5d7;stroke-width:1.53201;stroke-opacity:0"
       d="m 114.91585,174.02926 282.42978,28.87195 V 338.01792 L 153.78481,319.08908 Z" /><path
       style="display:none;fill:#33302e;fill-opacity:1;stroke:#e9d5d7;stroke-width:1.53201;stroke-opacity:0"
       d="m 376.84276,315.72793 -1.53768,-95.85072 -234.75736,-28.70397 29.21646,112.25302 z"
       id="path35" /><g
       id="g2"
       transform="translate(357.69137,-31.888745)"
       style="display:none"><path
         id="path25"
         style="fill:#f4e5c3;fill-opacity:1;stroke:#e9d5d7;stroke-width:2.10113;stroke-opacity:0"
         d="m -219.37259,225.31352 v 0 h 202.650904 z m 0,0 11.6905,125.15045 H 15.784829 L -16.721686,225.31352 Z" /><path
         style="fill:#33302e;fill-opacity:1;stroke:#e9d5d7;stroke-width:1.53201;stroke-opacity:0"
         d="m -12.135711,334.93537 -23.19629,-93.14764 -163.461459,-1.81225 7.97371,94.235 z"
         id="path38" /></g><g
       id="g6"
       style="display:none"><path
         style="fill:#33302e;fill-opacity:1;stroke:#9f9f9f;stroke-width:0"
         d="M 512.00001,292.78986 H 19.715736 L 6.3463813e-7,219.21015 H 500.0682 Z"
         id="path52" /></g><path
       style="display:none;fill:#33302e;fill-opacity:1;stroke:#9f9f9f;stroke-width:0"
       d="M 426.81812,342.26133 V 218.17827 L 85.181892,169.73869 104.05067,322.79483 Z"
       id="path45" /><circle
       style="display:none;fill:#ffffff;fill-opacity:1;stroke:#9f9f9f;stroke-width:0"
       id="circle91"
       cx="256"
       cy="256"
       r="180.2648" /><path
       id="path109"
       style="display:none;fill:#f4e5c3;fill-opacity:1;stroke:#9f9f9f;stroke-width:0"
       d="m 164.88724,91.887174 -12.70904,91.328246 37.85786,1.4347 18.3552,-53.34589 90.05548,6.88316 20.6495,51.05133 45.31445,2.58072 -16.52675,-91.830128 z M 63.843593,200.99718 l 20.6498,213.37963 230.659227,4.14106 28.10667,-205.8512 z m 319.513767,13.35429 -32.08579,204.82884 52.14412,0.93253 44.74073,-203.05474 z" /><path
       id="path125"
       style="display:none;fill:#ffffff;fill-opacity:1;stroke:#9f9f9f;stroke-width:0"
       d="M 256,1.696494e-5 196.6893,102.73828 256,86.842736 315.31071,102.73828 Z" /><g
       id="g10"
       style="display:none"><path
         style="fill:#f4e5c3;fill-opacity:1;stroke:#9f9f9f;stroke-width:0"
         d="M 28.90379,495.51539 4e-5,88.77947 511.99996,6.68151 358.59403,505.31849 Z"
         id="path88-8" /><path
         style="display:inline;fill:#398239;fill-opacity:1;stroke:#9f9f9f;stroke-width:0"
         d="M 340.22728,480.50243 476.27392,36.73097 28.14302,108.32112 47.53981,474.74066 Z"
         id="path102-2" /></g><g
       id="g8"
       style="display:none"><path
         id="rect24"
         style="fill:#f4e5c3;fill-opacity:1;stroke-width:0.305958"
         d="m 23.3212,52.63205 28.9037,406.7359 h 407.5503 l 28.9037,-406.7359 z" /><path
         id="path26"
         style="display:inline;fill:#b14646;fill-opacity:1;stroke-width:0.27723"
         d="m 43.1299,73.4915 26.443,365.017 h 372.8542 l 26.443,-365.017 z" /></g><g
       id="g28"
       transform="matrix(1,0,0,-1,1180.4635,475.85273)"
       style="display:none"><path
         id="path27"
         style="opacity:1;fill:#f4e5c3;fill-opacity:1;stroke-width:0.305958"
         d="m -1157.1423,16.484782 28.9037,406.735898 h 407.55029 l 28.90366,-406.735898 z" /><path
         id="path28"
         style="opacity:1;fill:#e7c033;fill-opacity:1;stroke-width:0.27723"
         d="m -1137.3336,37.344233 26.443,365.016997 h 372.85422 l 26.443,-365.016997 z" /></g><g
       id="g33"
       style="display:none"><path
         id="path32"
         style="fill:#f4e5c3;fill-opacity:1;stroke-width:0.264583"
         d="M 512.00014,77.681176 -1.3e-4,156.02472 v 278.29412 h 401.9982 z" /><path
         style="fill:#b14646;fill-opacity:1;stroke-width:0.264583"
         d="M -1.3e-4,186.65019 471.98044,114.30809 379.47217,409.19519 0,408.224 Z"
         id="path33" /></g><path
       id="path8"
       style="fill:#ffffff;stroke-width:0.236771"
       d="M 270.54077,142.34673 A 114.57978,114.57978 0 0 0 142.34655,241.459 114.57978,114.57978 0 0 0 241.45924,369.65327 114.57978,114.57978 0 0 0 369.65352,270.54058 114.57978,114.57978 0 0 0 270.54077,142.34673 Z m -12.20732,25.30619 -5.92961,46.3469 a 42.153955,42.153955 0 0 0 -36.00713,27.55908 l -46.39372,-5.9356 a 88.377943,88.377943 0 0 1 88.33046,-67.97038 z m 18.43499,2.44402 a 88.377943,88.377943 0 0 1 67.58863,87.83316 l -46.39372,-5.93559 a 42.153955,42.153955 0 0 0 -27.13678,-35.45487 z m -17.86569,63.21463 a 22.87336,22.87336 0 0 1 19.78593,25.591 22.87336,22.87336 0 0 1 -25.59143,19.78587 22.87336,22.87336 0 0 1 -19.78544,-25.59137 22.87336,22.87336 0 0 1 25.59094,-19.7855 z m -91.25975,20.7579 46.39371,5.93559 a 42.153955,42.153955 0 0 0 27.90906,35.73694 l -5.92967,46.34734 A 88.377943,88.377943 0 0 1 167.643,254.06947 Z m 127.96035,16.37121 46.39372,5.93559 a 88.377943,88.377943 0 0 1 -87.5244,67.98848 l 5.94186,-46.44268 a 42.153955,42.153955 0 0 0 35.18882,-27.48139 z" /></g></svg>
