<?xml version="1.0" encoding="UTF-8" standalone="no"?>
<!-- Created with Inkscape (http://www.inkscape.org/) -->

<svg
   width="256mm"
   height="256mm"
   viewBox="0 0 256 256"
   version="1.1"
   id="svg1"
   inkscape:export-filename="invuln.svg"
   inkscape:export-xdpi="96"
   inkscape:export-ydpi="96"
   sodipodi:docname="ico_health_cluster_invuln.svg"
   inkscape:version="1.4.3 (0d15f75, 2025-12-25)"
   xml:space="preserve"
   xmlns:inkscape="http://www.inkscape.org/namespaces/inkscape"
   xmlns:sodipodi="http://sodipodi.sourceforge.net/DTD/sodipodi-0.dtd"
   xmlns="http://www.w3.org/2000/svg"
   xmlns:svg="http://www.w3.org/2000/svg"><sodipodi:namedview
     id="namedview1"
     pagecolor="#ffffff"
     bordercolor="#111111"
     borderopacity="1"
     inkscape:showpageshadow="0"
     inkscape:pageopacity="0"
     inkscape:pagecheckerboard="1"
     inkscape:deskcolor="#d1d1d1"
     inkscape:document-units="mm"
     inkscape:zoom="0.42529702"
     inkscape:cx="175.1717"
     inkscape:cy="452.62485"
     inkscape:window-width="1920"
     inkscape:window-height="1009"
     inkscape:window-x="1912"
     inkscape:window-y="-8"
     inkscape:window-maximized="1"
     inkscape:current-layer="layer1"><inkscape:page
       x="0"
       y="0"
       width="256"
       height="256"
       id="page2"
       margin="0"
       bleed="0" /></sodipodi:namedview><defs
     id="defs1"><style
       id="style1" /></defs><g
     inkscape:label="Layer 1"
     inkscape:groupmode="layer"
     id="layer1"><path
       id="path18"
       style="fill:#32302f;fill-opacity:1;stroke-width:0.286402"
       d="m 0,11.305798 18.094797,45.62122 4.285964,80.949992 18.962953,55.43168 5.6e-4,5.7e-4 65.338466,52.44153 44.64237,0.93991 66.41965,-54.23085 v -5.6e-4 l 18.05537,-53.41709 2.28898,-77.829779 17.9109,-51.9031148 z"
       sodipodi:nodetypes="ccccccccccccc" /><path
       style="fill:#ebe2ca;fill-opacity:1;stroke-width:0.277003"
       d="M 128.55588,196.93986 94.532708,179.34956 81.445475,164.69802 68.514526,118.9702 65.128652,64.195588 H 191.98341 l -2.12594,54.010052 -13.15007,48.99107 -13.26819,14.60472 z"
       id="path20" /><path
       id="path15"
       style="fill:#ebe2ca;fill-opacity:1;stroke-width:0.186811"
       d="m 24.523743,27.252512 13.656683,24.312297 v 0.0051 l 90.375534,6.048007 46.92184,-3.139796 6.0676,-0.406108 22.18105,-1.484593 4.48008,-0.299828 10.72497,-0.717682 2.10774,-3.756791 11.54894,-20.560541 z m 179.623367,3.70365 -0.35465,18.229607 -21.20159,0.734733 6.06759,-18.627481 z m 5.89249,0.841865 14.89897,-0.504968 -8.04293,16.648651 -8.3781,0.867597 z m -171.88994,30.640554 1.373275,56.728319 15.475785,57.75702 43.620393,42.31815 29.913347,8.01479 29.91337,-8.01479 43.62039,-42.31815 8.05002,-30.0437 1.62444,-6.0631 0.75013,-2.79858 2.19892,-8.20721 2.85227,-10.64443 1.37327,-56.728319 -17.67749,0.167814 -1.17861,56.903965 -14.47842,51.85333 -35.01769,30.47162 -22.0306,5.90369 -22.03058,-5.90369 L 71.484183,171.36369 57.005772,119.51036 55.82716,62.606395 Z m 162.51448,66.317459 11.33721,0.73252 -2.34045,8.81582 -11.87953,1.58857 z m 6.70555,18.17901 -7.74963,29.19232 -10.70604,-4.04964 6.52488,-24.49814 z"
       sodipodi:nodetypes="ccccccccccccccccccccccccccccccccccccccccccccccccccccccc" /><path
       id="path17"
       style="fill:#32302f;fill-opacity:1;stroke-width:0.286402"
       d="m 145.55996,42.740478 -17.00401,15.151905 -14.14166,-13.804919 -31.046102,10.506259 4.951065,18.955682 -19.1923,-1.683172 7.239486,32.997217 10.438015,1.68373 0.37926,57.15066 8.791203,27.51417 31.234053,13.99064 24.52878,-9.19284 18.81583,-23.32387 0.63266,-64.808 9.28514,-0.71433 7.00846,-34.960631 h -17.34019 l 5.33815,-17.725047 z m -17.11085,32.578803 3.2142,3.869226 -6.01165,-0.357443 z m -0.55322,22.559199 2.65258,9.64259 5.68496,0.83291 1.26309,53.21318 -8.33756,9.88031 -9.18891,-8.502 v -55.06753 h 6.40992 z" /><path
       id="path7"
       style="opacity:0.5;fill:#ebe2ca;fill-opacity:1;stroke-width:0.117962"
       d="M 106.86589,52.240403 A 13.706024,13.706024 0 0 0 93.15956,65.946297 13.706024,13.706024 0 0 0 106.86589,79.652622 13.706024,13.706024 0 0 0 120.57178,65.946297 13.706024,13.706024 0 0 0 106.86589,52.240403 Z m 43.38025,0 a 13.706024,13.706024 0 0 0 -13.70633,13.705894 13.706024,13.706024 0 0 0 13.70633,13.706325 13.706024,13.706024 0 0 0 13.70589,-13.706325 13.706024,13.706024 0 0 0 -13.70589,-13.705894 z m -71.939332,27.412219 5.20716,20.483878 h 9.645592 v 61.40712 a 35.396162,35.396162 0 0 0 35.39624,35.39624 35.396162,35.396162 0 0 0 35.39623,-35.39624 V 100.1365 h 9.6456 l 5.20759,-20.483878 -42.26541,4.812568 v 15.67131 h 6.25749 v 61.40712 a 14.241591,14.241591 0 0 1 -14.2415,14.24152 14.241591,14.241591 0 0 1 -14.24151,-14.24152 14.241591,14.241591 0 0 1 0,-0.0137 V 100.1365 h 6.25749 V 84.46519 Z" /></g></svg>
