<?xml version="1.0" encoding="UTF-8" standalone="no"?>
<!-- Created with Inkscape (http://www.inkscape.org/) -->

<svg
   width="256mm"
   height="256mm"
   viewBox="0 0 256 256"
   version="1.1"
   id="svg1"
   inkscape:export-filename="invuln.svg"
   inkscape:export-xdpi="96"
   inkscape:export-ydpi="96"
   sodipodi:docname="ico_health_cluster_invuln.svg"
   inkscape:version="1.4.3 (0d15f75, 2025-12-25)"
   xmlns:inkscape="http://www.inkscape.org/namespaces/inkscape"
   xmlns:sodipodi="http://sodipodi.sourceforge.net/DTD/sodipodi-0.dtd"
   xmlns="http://www.w3.org/2000/svg"
   xmlns:svg="http://www.w3.org/2000/svg">
  <sodipodi:namedview
     id="namedview1"
     pagecolor="#ffffff"
     bordercolor="#111111"
     borderopacity="1"
     inkscape:showpageshadow="0"
     inkscape:pageopacity="0"
     inkscape:pagecheckerboard="1"
     inkscape:deskcolor="#d1d1d1"
     inkscape:document-units="mm"
     inkscape:zoom="0.42529702"
     inkscape:cx="342.11385"
     inkscape:cy="433.81447"
     inkscape:window-width="1920"
     inkscape:window-height="1009"
     inkscape:window-x="1912"
     inkscape:window-y="-8"
     inkscape:window-maximized="1"
     inkscape:current-layer="layer1">
    <inkscape:page
       x="0"
       y="0"
       width="256"
       height="256"
       id="page2"
       margin="0"
       bleed="0" />
  </sodipodi:namedview>
  <defs
     id="defs1" />
  <g
     inkscape:label="Layer 1"
     inkscape:groupmode="layer"
     id="layer1">
    <path
       id="path6"
       style="display:inline;opacity:0.5;fill:#ffffff;fill-opacity:1;stroke-width:0.264583"
       d="M 129.5399,9.4464518 10.98641,49.66255 l 19.135422,146.08209 80.062138,50.80879 101.2278,-53.4479 33.6017,-134.609944 z M 128.45107,27.19562 223.96138,68.743879 197.83237,185.70135 110.21628,227.19151 41.134845,187.4517 32.332787,54.987432 Z"
       sodipodi:nodetypes="cccccccccccccc" />
    <path
       id="path13"
       style="fill:#ffffff;fill-opacity:1;stroke:none;stroke-width:0.264583;stroke-opacity:0"
       d="m 128.76533,42.005512 -61.458264,16.954004 -1.199927,15.452803 18.169433,9.270752 -9.424231,-12.135693 27.502199,-21.121192 21.1801,22.200196 -11.86594,16.586584 13.52424,1.403532 -0.12764,4.210596 1.91409,-3.955314 16.07602,-0.638204 -14.0348,-16.84135 24.8698,-21.99504 z m -44.488758,41.677559 -19.346106,0.143661 -11.768273,30.303578 2.647383,-32.656923 -8.002095,-3.925859 0.05788,1.709973 2.30787,68.169489 0.229443,6.77219 0.211873,6.25647 0.577226,17.04857 59.711597,36.49028 69.18958,-32.82384 1.36322,-16.81654 -10.16889,-4.98884 11.51196,-0.7674 6.90759,-18.61126 -1.53531,19.76261 1.38803,0.70849 4.32945,-20.10575 0.93793,-4.35633 10.81433,-50.227425 0.92397,-4.289661 2.07068,-9.6175 -52.95853,-19.795691 23.28695,20.745503 -13.53251,14.976347 13.71338,-1.263488 -6.85695,28.689725 -9.02167,-0.90227 -3.24786,54.85298 -10.64586,22.5547 -36.80913,15.1567 -5.4131,-3.06752 -24.359238,-18.40456 -3.969784,-22.73505 5.232756,-44.56782 -13.171806,-7.21764 2.165242,-25.080648 14.976347,2.706294 z m 18.889798,-24.172168 -18.051606,16.373161 13.411585,14.944824 1.761131,0.993738 17.57309,-15.938562 z m 51.86351,0 -18.05213,16.373161 14.69367,16.373161 2.5616,-2.323373 3.36931,-3.055627 12.12122,-10.994161 -0.008,-0.0093 -2.40192,-2.676322 z m -92.577815,0.788066 -15.087968,4.16202 0.30024,8.866125 10.205062,-0.680062 z m 17.730184,31.958256 0.101285,2.453597 0.255799,6.218738 0.372587,9.03977 h 8.610327 l -0.0052,0.0444 -0.155029,1.51205 -0.08113,0.79272 -2.088245,20.36051 -0.201538,1.96784 -0.04754,0.46664 -0.119372,1.16168 -0.07545,0.73639 0.04238,27.46448 6.196004,17.0496 22.013123,16.09308 10.0552,-3.38998 17.47128,-9.40407 10.59005,-20.34863 2.14716,-20.93671 0.36432,-3.55275 0.48989,-4.77594 0.0811,-0.7891 0.48318,-4.70979 0.15554,-1.52084 1.86449,-18.17718 0.005,-0.0444 h 8.64392 l 3.93619,-17.609269 -17.50229,1.72806 -1.0418,0.102836 -3.34398,0.330212 -17.41599,1.719275 -0.15399,2.377116 0.9462,11.35177 h 8.61033 l -0.15968,1.55597 0.0202,5.2e-4 -1.16737,13.03176 -1.34204,14.98152 -0.83922,9.36842 -6.02702,18.37355 -14.64871,9.84798 -11.58432,-9.26248 -3.00188,-18.95905 1.52343,-14.09682 0.28679,-2.65306 2.19419,-20.30419 0.20361,-1.88412 h 8.64391 l 3.52381,-13.591427 -13.11599,-1.391646 -3.49643,-0.371553 h -5.2e-4 l -12.791975,-1.35754 -6.795451,-0.720887 z m 41.976251,18.567345 -1.75028,5.38934 -6.29781,0.0543 -4.04368,31.26114 2.33267,14.93087 5.75469,5.1325 9.02064,-6.99905 3.57704,-16.64137 1.39992,-27.83964 -7.50291,0.0646 -0.002,-5.31389 z m 66.23368,55.05711 -0.98805,0.007 -5.62343,14.48077 3.88917,-1.84485 2.68097,-12.45247 z" />
  </g>
</svg>
