<?xml version="1.0" encoding="UTF-8" standalone="no"?>
<svg
   id="ico_health_cluster_bubble.svg"
   width="256"
   height="256"
   viewBox="0 0 256 256"
   version="1.1"
   sodipodi:docname="ico_health_cluster_bubble.svg"
   inkscape:version="1.4.3 (0d15f75, 2025-12-25)"
   xmlns:inkscape="http://www.inkscape.org/namespaces/inkscape"
   xmlns:sodipodi="http://sodipodi.sourceforge.net/DTD/sodipodi-0.dtd"
   xmlns="http://www.w3.org/2000/svg"
   xmlns:svg="http://www.w3.org/2000/svg">
  <sodipodi:namedview
     id="namedview1"
     pagecolor="#ffffff"
     bordercolor="#000000"
     borderopacity="0.25"
     inkscape:showpageshadow="2"
     inkscape:pageopacity="0.0"
     inkscape:pagecheckerboard="0"
     inkscape:deskcolor="#d1d1d1"
     inkscape:zoom="1.4142136"
     inkscape:cx="-23.688077"
     inkscape:cy="136.82516"
     inkscape:window-width="1920"
     inkscape:window-height="1009"
     inkscape:window-x="1912"
     inkscape:window-y="-8"
     inkscape:window-maximized="1"
     inkscape:current-layer="ico_health_cluster_bubble.svg"
     showguides="false" />
  <defs
     id="defs1">
    <style
       id="style1">
      .cls-1, .cls-2, .cls-3, .cls-4, .cls-5 {
        fill: #ece3cb;
        fill-rule: evenodd;
      }

      .cls-1 {
        opacity: 0.61;
      }

      .cls-2 {
        opacity: 0.4;
      }

      .cls-3 {
        opacity: 0.19;
      }

      .cls-4 {
        opacity: 0.08;
      }
    </style>
  </defs>
  <path
     id="path28"
     style="opacity:1;fill:#32302f;fill-opacity:1"
     d="M 103.49023 -0.00390625 L 103.48047 0 L 103.5 0 L 103.49023 -0.00390625 z M 103.5 0 L 30.759766 30.759766 L 10.783203 86.089844 L 0 94.398438 L 0 147.94336 L -0.00390625 147.95312 L 0 147.96289 L 0 162.10352 L 7.0917969 166.40625 L 32.054688 231.39258 L 94.044922 256 L 127.98438 256 L 128 256.00391 L 128.01367 256 L 161.57422 256 L 225.25 226.5 L 247.44727 168.03125 L 256 164.57812 L 256 145.50195 L 256 145.5 L 256 97.591797 L 246.3125 89.232422 L 225.56641 28.285156 L 151.75 0 L 103.5 0 z " />
  <path
     id="path24"
     style="opacity:0.5;fill:#ebe2ca;fill-opacity:1;stroke-width:0.967391"
     d="m 128.11354,114.61362 -59.201002,8.01521 -27.258347,16.82252 20.487612,49.46311 65.890497,27.29342 0.19756,-0.0831 0.0296,0.013 65.8314,-27.26758 22.95625,-55.41958 -14.41112,-9.965 z" />
  <path
     id="path23"
     style="fill:#ebe2ca;fill-opacity:1;stroke-width:0.945355"
     d="M 128.03784,15.550781 48.524631,48.486796 23.906631,102.23478 44.665664,88.072923 59.039858,59.053721 127.97321,30.50105 l 68.93151,28.552671 0.17726,0.07386 12.57395,24.676479 19.34654,10.788492 -21.45142,-46.105751 z m 95.7781,116.400509 -2.83606,6.84644 0.12002,0.0905 -24.01792,57.98423 -68.87243,28.52682 -0.0295,-0.0129 -0.2068,0.0868 -68.933402,-28.55265 -24.010537,-57.9676 -11.661837,15.17815 25.157147,53.38223 79.513209,32.93601 79.51321,-32.93601 27.72917,-59.58981 z"
     sodipodi:nodetypes="ccccccccccccccccccccccccccc" />
  <path
     id="path21"
     style="fill:#ebe2ca;fill-opacity:1;stroke-width:1.10607"
     d="M 129.55742,75.328954 67.28217,84.453844 13.238154,116.0388 v 0 l 5.781067,35.51198 5.306542,-13.46392 48.964581,-28.59144 54.740106,-5.37487 68.9075,5.94725 37.66834,20.22174 4.62891,17.694 4.91141,-37.94603 v 0 L 191.83267,83.129978 Z"
     sodipodi:nodetypes="ccccccccccccccc" />
  <path
     id="path6"
     style="fill:#32302f;fill-opacity:1;stroke-width:0.982025"
     d="m 109.29974,38.239131 -21.873495,9.744752 2.681525,9.900109 -17.067167,-0.328391 8.315606,32.318986 H 88.2727 l -0.09935,52.523553 16.61701,18.9414 23.32263,7.01775 24.42367,-8.15894 15.02122,-20.48537 -0.91855,-51.632441 8.25963,0.65678 6.60544,-30.853327 -15.69035,0.82188 0.11537,-10.516165 -17.12509,-10.162745 -21.2814,5.003276 z m 19.25731,20.385098 4.5887,4.474088 -4.49542,2.217085 -4.0838,-2.750492 z m -0.41162,18.867845 2.01359,10.74631 5.13317,-0.0037 -1.03818,40.068636 v 0 l -5.87945,4.95156 -6.02802,-4.92254 v 0 -40.088586 l 4.83633,-0.0037 z"
     sodipodi:nodetypes="ccccccccccccccccccccccccccccccccccc" />
  <path
     id="path4"
     style="opacity:0.5;fill:#ebe2ca;fill-opacity:1;stroke-width:0.0968677"
     d="M 109.21753,44.872613 A 11.892576,10.65191 0 0 0 97.324693,55.524419 11.892576,10.65191 0 0 0 109.21753,66.176565 11.892576,10.65191 0 0 0 121.10999,55.524419 11.892576,10.65191 0 0 0 109.21753,44.872613 Z m 37.64061,0 A 11.892576,10.65191 0 0 0 134.9653,55.524419 11.892576,10.65191 0 0 0 146.85814,66.176565 11.892576,10.65191 0 0 0 158.75059,55.524419 11.892576,10.65191 0 0 0 146.85814,44.872613 Z m -62.421028,21.303952 4.5182,15.919452 h 8.369381 v 47.723763 a 30.712887,27.508832 0 0 0 30.712957,27.5089 30.712887,27.508832 0 0 0 30.71294,-27.5089 V 82.096017 h 8.36939 l 4.51858,-15.919452 -36.67326,3.740182 v 12.17927 h 5.42955 v 47.723763 a 12.357281,11.068135 0 0 1 -12.3572,11.06808 12.357281,11.068135 0 0 1 -12.35722,-11.06808 12.357281,11.068135 0 0 1 0,-0.0107 V 82.096044 h 5.42956 V 69.916747 Z" />
</svg>
