<?xml version="1.0" encoding="UTF-8" standalone="no"?>
<svg
   id="ico_health_cluster_bubble.svg"
   width="256"
   height="256"
   viewBox="0 0 256 256"
   version="1.1"
   sodipodi:docname="ico_health_cluster_bubble.svg"
   inkscape:version="1.4.3 (0d15f75, 2025-12-25)"
   xmlns:inkscape="http://www.inkscape.org/namespaces/inkscape"
   xmlns:sodipodi="http://sodipodi.sourceforge.net/DTD/sodipodi-0.dtd"
   xmlns="http://www.w3.org/2000/svg"
   xmlns:svg="http://www.w3.org/2000/svg">
  <sodipodi:namedview
     id="namedview1"
     pagecolor="#ffffff"
     bordercolor="#000000"
     borderopacity="0.25"
     inkscape:showpageshadow="2"
     inkscape:pageopacity="0.0"
     inkscape:pagecheckerboard="0"
     inkscape:deskcolor="#d1d1d1"
     inkscape:zoom="0.50000001"
     inkscape:cx="121"
     inkscape:cy="372.99999"
     inkscape:window-width="1920"
     inkscape:window-height="1009"
     inkscape:window-x="1912"
     inkscape:window-y="-8"
     inkscape:window-maximized="1"
     inkscape:current-layer="ico_health_cluster_bubble.svg"
     showguides="false" />
  <defs
     id="defs1">
    <style
       id="style1">
      .cls-1, .cls-2, .cls-3, .cls-4, .cls-5 {
        fill: #ece3cb;
        fill-rule: evenodd;
      }

      .cls-1 {
        opacity: 0.61;
      }

      .cls-2 {
        opacity: 0.4;
      }

      .cls-3 {
        opacity: 0.19;
      }

      .cls-4 {
        opacity: 0.08;
      }
    </style>
  </defs>
  <path
     id="path13"
     style="opacity:0.5;fill:#ffffff;fill-opacity:1;stroke-width:0.335638"
     d="M 867.52344 -144.24609 L 876.60547 -120.17383 L 859.38281 -125.7168 L 783.88281 -144.11719 L 641.76562 -139.04102 L 507.26367 -109.85547 L 286.89648 -26.949219 L 251.52539 -2.1894531 L 195.17773 36.957031 L 224.85352 65.798828 L 224.85547 65.800781 L 234.75977 91.927734 L 329.96484 -0.03125 L 517.11328 -78.951172 L 666.20312 -122.58203 L 775.61719 -131.40039 L 839.80273 -119.18945 L 866.90039 -109.64062 L 835.01367 -103.79492 L 877.60938 -99.433594 L 876.26562 -112.7168 L 893.83008 -114.62891 L 867.52344 -144.24609 z M 57.908203 91.148438 L 48.277344 99.146484 L 43.363281 127.01953 L 48.277344 154.89258 L 59.402344 174.16211 L 58.894531 170.44531 L 61.625 136 L 69.361328 105.67969 L 57.908203 104.69336 L 57.908203 91.148438 z M 111.31445 103.30078 L 109.83789 108.05078 L 97.595703 107.85352 L 87.375 141 L 87.875 168 L 91.6875 180.75 C 91.6875 180.75 103.91375 189.85923 105.09961 190.98047 L 123.85742 181.30469 L 132.93945 154.45117 L 135.20312 135.69727 L 133.91992 134.47461 L 122 110.16797 L 111.31445 103.30078 z M 134.35156 107.38867 L 134.05469 107.70117 L 137.6582 115.35938 L 138.46875 108.64258 L 134.35156 107.38867 z M 166.0625 124.91797 L 164.4043 144.51367 L 179.85938 148.125 L 179.87891 148.125 L 166.0918 124.94727 L 166.0625 124.91797 z M 163.39453 156.44727 L 161.37305 180.31641 L 147.64453 204.13281 L 165.60352 197.5957 L 187.28516 179.40234 L 188.28906 177.66602 L 185.44336 157.91797 L 175.73828 159.75391 L 163.39453 156.44727 z " />
  <path
     id="path8"
     style="fill:#ffffff;fill-opacity:1;stroke-width:0.335638"
     d="M 92.726562 21.017578 L 59.841797 21.798828 L 45.951172 29.425781 L 71.925781 34.6875 L 43.775391 40.390625 L 39.224609 62.851562 L 51.056641 56.355469 L 64.775391 55.900391 L 93.259766 31.84375 L 117.09375 58.025391 L 108.74414 66.466797 L 137.44531 83.111328 L 154.78125 81.236328 L 135.17578 58.212891 L 149.48828 45.683594 L 144.7207 42.638672 L 147.37305 42.871094 L 150.84961 44.492188 L 162.33203 34.439453 L 151.04297 29.175781 L 114.27734 25.958984 L 110.76367 26.900391 L 92.726562 21.017578 z M 169.61914 37.837891 L 187.2168 58.884766 L 182.64648 62.673828 L 198.97266 79.001953 L 212.49023 107.98633 L 212.7207 110.63867 L 198.72852 88.734375 L 187.95312 77.958984 L 180.92188 107.25977 L 167.69141 105.67969 L 167.2207 111.24219 L 169.33789 113.35938 L 189.36719 144.71289 L 198.14648 171.625 L 202.74609 148.91797 L 211.7168 193.20117 L 232.51953 197.41602 L 233.56055 195.51758 L 234.3418 162.63281 L 228.45898 144.5957 L 229.40039 141.08203 L 226.18359 104.31641 L 210.58594 70.869141 L 184.49023 44.773438 L 169.61914 37.837891 z M 32.369141 40.390625 L 21.558594 60.083984 L 20.980469 84.353516 L 30.005859 67.912109 L 37.150391 63.990234 L 32.369141 40.390625 z M 93.054688 42.496094 L 74.888672 58.292969 L 87.328125 73.298828 L 105.88867 57.896484 L 93.054688 42.496094 z M 163.93945 43.482422 L 144.98438 57.896484 L 159.5957 73.890625 L 176.37891 57.501953 L 163.93945 43.482422 z M 177.19141 67.197266 L 161.07617 80.556641 L 187.67383 77.679688 L 177.19141 67.197266 z M 54.673828 68.541016 L 36.744141 73.322266 L 27.228516 86.910156 L 17.677734 122.55859 L 20.894531 159.32422 L 36.490234 192.77148 L 62.587891 218.86914 L 96.035156 234.46484 L 132.80078 237.68164 L 168.44727 228.13086 L 180.78125 219.49414 L 183.79297 209.12109 L 174.06836 207.15039 L 162.45703 215.2793 L 131.56445 223.55859 L 123.0293 222.8125 L 102.5332 232.44531 L 63.832031 206.57812 L 62.849609 199.38477 L 48.105469 184.64062 L 34.587891 155.6543 L 31.800781 123.79492 L 40.080078 92.902344 L 56.820312 68.994141 L 54.673828 68.541016 z M 64.029297 83.619141 L 65.285156 100.0957 L 76.46875 100.94141 L 68.5 142.625 L 68.175781 178.14453 L 70.826172 196.98828 L 78.583984 207.63672 L 102.73047 222.49414 L 136.94336 202.82031 L 149.51562 179.58203 L 154.87891 149.48828 L 154.87891 149.48633 L 160.58398 100.34961 L 174.20703 99.757812 L 177.95898 85.541016 L 135.31055 89.09375 L 135.31055 100.74414 L 147 100.41602 L 140.36133 157.24219 L 137.05078 173.18555 L 131.74609 187.35742 L 103.82031 202.29688 L 86.927734 185.4043 L 82.732422 169.44141 L 82.820312 141.50977 L 91.953125 101.07227 L 104.6582 101.49219 L 109.12695 87.529297 L 64.029297 83.619141 z M 226.64258 208.11914 L 211.7168 211.14258 L 208.60938 226.48047 L 219.99219 220.23242 L 226.64258 208.11914 z M 194.17188 213.10352 L 187.44727 225.35352 L 171.00586 234.37891 L 195.27539 233.80078 L 198.05664 232.27344 L 194.17188 213.10352 z " />
  <path
     sodipodi:type="star"
     style="opacity:1;fill:#ffffff;fill-opacity:1"
     id="path1"
     inkscape:flatsided="false"
     sodipodi:sides="4"
     sodipodi:cx="34"
     sodipodi:cy="-83.5"
     sodipodi:r1="54.520638"
     sodipodi:r2="12.988806"
     sodipodi:arg1="1.5707963"
     sodipodi:arg2="2.3561945"
     inkscape:rounded="0"
     inkscape:randomized="0"
     d="m 34.000001,-28.979362 -9.184473,-45.336165 -45.336166,-9.184472 45.336165,-9.184473 9.184472,-45.336168 9.184473,45.336167 45.336166,9.184472 -45.336165,9.184473 z"
     transform="matrix(0.25073554,0,0,0.25073554,29.547219,55.624257)" />
  <path
     sodipodi:type="star"
     style="opacity:1;fill:#ffffff;fill-opacity:1"
     id="path2"
     inkscape:flatsided="false"
     sodipodi:sides="4"
     sodipodi:cx="34"
     sodipodi:cy="-83.5"
     sodipodi:r1="54.520638"
     sodipodi:r2="12.988806"
     sodipodi:arg1="1.5707963"
     sodipodi:arg2="2.3561945"
     inkscape:rounded="0"
     inkscape:randomized="0"
     d="m 34.000001,-28.979362 -9.184474,-45.336165 -45.336165,-9.184472 45.336165,-9.184474 9.184472,-45.336167 9.184474,45.336167 45.336165,9.184472 -45.336165,9.184474 z"
     transform="matrix(0.48799091,0,0,0.48799091,186.15392,242.91958)" />
  <path
     style="fill:#ffffff;fill-opacity:1"
     d="m 120.11293,193.58081 13.472,-11.13598 0.94213,4.6733 -9.8111,9.19239 z"
     id="path5" />
</svg>
