<?xml version="1.0" encoding="UTF-8" standalone="no"?>
<svg
   id="ico_health_cluster_kritz.svg"
   width="256"
   height="256"
   viewBox="0 0 256 256"
   version="1.1"
   sodipodi:docname="ico_health_cluster_kritz.svg"
   inkscape:version="1.4.3 (0d15f75, 2025-12-25)"
   xmlns:inkscape="http://www.inkscape.org/namespaces/inkscape"
   xmlns:sodipodi="http://sodipodi.sourceforge.net/DTD/sodipodi-0.dtd"
   xmlns="http://www.w3.org/2000/svg"
   xmlns:svg="http://www.w3.org/2000/svg">
  <sodipodi:namedview
     id="namedview1"
     pagecolor="#ffffff"
     bordercolor="#000000"
     borderopacity="0.25"
     inkscape:showpageshadow="2"
     inkscape:pageopacity="0.0"
     inkscape:pagecheckerboard="0"
     inkscape:deskcolor="#d1d1d1"
     showguides="false"
     inkscape:zoom="0.30279915"
     inkscape:cx="87.516758"
     inkscape:cy="298.87799"
     inkscape:window-width="1920"
     inkscape:window-height="1009"
     inkscape:window-x="1912"
     inkscape:window-y="-8"
     inkscape:window-maximized="1"
     inkscape:current-layer="ico_health_cluster_kritz.svg" />
  <defs
     id="defs1">
    <style
       id="style1">
      .cls-1, .cls-2, .cls-3, .cls-4, .cls-5 {
        fill: #ece3cb;
        fill-rule: evenodd;
      }

      .cls-1 {
        opacity: 0.61;
      }

      .cls-2 {
        opacity: 0.4;
      }

      .cls-3 {
        opacity: 0.19;
      }

      .cls-4 {
        opacity: 0.08;
      }
    </style>
  </defs>
  <path
     id="path3"
     style="opacity:1;fill:#32302f;fill-opacity:1"
     d="M 8.6113281,0 0,13.865234 45.501214,83.905348 v 0 0 L 0,88.59375 4.0859375,104.93945 42.764714,124.05913 39.991277,134.12944 0,155.43945 l 4.2324219,13.57227 35.7578121,-3.93945 -17.076172,30.0664 4.125,6.72852 L 0,250.16602 6.3984375,256 76.78396,214.87026 86.07107,216.31557 87.517578,256 h 12.177734 l 24.149468,-35.97059 h 8.04883 L 155.01172,256 h 12.97851 l 0.14649,-36.92578 15.17969,29.48242 40.28125,-7.58984 L 247.38867,256 256,242.71875 218.19926,171.20118 256,171.05558 V 153.10352 L 214.69624,125.95667 256,99.488281 v -9.701172 l -12.23367,-0.412896 -0.82405,-5.778836 -23.53172,-9.082686 v 0 0 L 256,7.6367188 246.03711,0 183.70218,37.772242 171.3183,35.089354 165.74609,0 H 153.98047 L 129.00391,46.474407 99.685547,0 H 88.009766 L 88.593742,32.83877 77.93786,36.195656 58.234375,0 Z"
     sodipodi:nodetypes="ccccccccccccccccccccccccccccccccccccccccccccccccccccc" />
  <path
     id="path2"
     style="fill:#ebe2ca;opacity:0.5;fill-opacity:1"
     d="M 10.699219 10.699219 L 45.707031 63.496094 L 41.384766 52.117188 L 65.742188 65.205078 L 81.294922 73.560547 L 99.964844 45.589844 L 99.945312 45.585938 L 107.94922 33.576172 L 96.568359 10.699219 L 98.716797 45.318359 L 92.197266 43.900391 L 76.132812 49.892578 L 74.035156 52.695312 L 10.699219 10.699219 z M 159.43164 10.699219 L 150.75195 28.142578 L 157.54688 41.099609 L 159.43164 10.699219 z M 245.30078 10.699219 L 185.92969 50.064453 L 165.76367 45.677734 L 160.89844 47.492188 L 165.43555 56.142578 L 215.05273 56.318359 L 245.30078 10.699219 z M 115.52539 48.804688 L 113.25977 92.095703 L 124.85547 67.550781 L 121.1875 60.179688 L 121.07617 59.669922 L 120.79102 59.384766 L 115.52539 48.804688 z M 206.48047 72.574219 L 149.89258 123.33008 L 162.44141 127.81641 L 176.01758 132.66992 L 163.51172 156.91797 L 161.71484 160.40234 L 162.0625 160.80273 L 206.61328 211.98047 L 168.32422 194.25781 L 245.30078 245.30078 L 185.92188 155.75 L 245.30078 159.43164 L 182.12695 128 L 245.30078 96.568359 L 179.36719 117.85938 L 175.0332 115.58789 L 245.30078 96.568359 L 207.07617 98.9375 L 210.32227 90.236328 L 206.48047 72.574219 z M 10.699219 96.568359 L 63.492188 122.83398 L 57.603516 130.70117 L 63.882812 132.30664 L 65.017578 134.37109 L 55.933594 132.93164 L 55.636719 137.07227 L 10.699219 159.43164 L 54.230469 156.73242 L 53.693359 164.24805 L 58.548828 173.13867 L 10.699219 245.30078 L 81.158203 198.58203 L 96.292969 206.84766 L 98.962891 206.65625 L 96.568359 245.30078 L 106.89062 224.55664 L 59.417969 99.589844 L 10.699219 96.568359 z M 112.0918 151.49805 L 110.71094 205.81641 L 110.72656 205.81445 L 110.43555 217.42969 L 116.41602 205.4082 L 127.60938 204.60742 L 136.04297 198.29297 L 159.43164 245.30078 L 155.91211 188.51367 L 151.70703 186.56836 L 116.61523 170.32617 L 123.33008 153.83398 L 112.0918 151.49805 z " />
  <path
     style="fill:#ebe2ca;stroke-width:0.727047;fill-opacity:1"
     d="M 108.10703,211.38604 62.180952,71.494821 c 0,0 21.481968,8.557001 21.481968,8.557001 l 22.93179,-26.738853 0.78386,71.019141 40.19774,-79.718144 14.94138,19.370404 31.30136,-0.194542 -56.79486,62.230672 27.89048,10.89719 -12.00854,25.55629 34.18478,35.69502 -64.55558,-31.50375 8.71082,-16.41222 -23.68724,-4.3424 z"
     id="path1" />
  <path
     style="opacity:1;fill:#ebe2ca;fill-opacity:1"
     d="m 52.737103,173.17585 -5.366593,-3.81854 -16.306189,21.9824 z"
     id="path9" />
  <path
     style="opacity:1;fill:#ebe2ca;fill-opacity:1"
     d="m 189.44583,239.36146 -18.38996,-34.4447 1.75142,-0.36488 34.8386,30.75261 z"
     id="path10" />
  <path
     style="opacity:1;fill:#ebe2ca;fill-opacity:1"
     d="M 69.765107,43.201824 71.954389,42.472063 52.104902,7.7354617 20.141391,5.9840364 Z"
     id="path11" />
  <path
     style="opacity:1;fill:#ebe2ca;fill-opacity:1"
     d="m 214.45734,93.089759 1.23844,-3.715334 17.95745,1.032038 z"
     id="path12" />
</svg>
