<svg id="ico_spywalk_active" xmlns="http://www.w3.org/2000/svg" width="128" height="128" viewBox="0 0 128 128">
  <defs>
    <style>
      .cls-1, .cls-2, .cls-3 {
        fill: #fff;
        fill-rule: evenodd;
      }

      .cls-1 {
        opacity: 0.33;
      }

      .cls-2 {
        opacity: 0.66;
      }
    </style>
  </defs>
  <path id="_3" data-name="3" class="cls-1" d="M76.9,65.8l-4.1-3.322L82.5,58.4a3.97,3.97,0,0,1,5.187,2.076,3.884,3.884,0,0,1,.218.7ZM62.727,46.966a11.473,11.473,0,0,0,3.719,7.439,7.935,7.935,0,0,1-1.808,1.456L50.774,44.624C51.332,40.252,54.6,37,58.856,37a9.365,9.365,0,0,1,6.231,2.526A9.56,9.56,0,0,0,62.727,46.966ZM29.978,55.481a3.9,3.9,0,0,0-1.964,3.309l-6.08,3.476a3.977,3.977,0,0,1-5.4-1.434,3.9,3.9,0,0,1,1.448-5.352L38.027,44.018l4.964,4.023Zm12.1,2.856-0.525-.425,7.03-4.019,5.5,4.444L36.7,80.03,32.747,91h-12L24.7,80.03ZM63.7,74.815l4.248-5.259,2.826,2.285Z"/>
  <path id="_2" data-name="2" class="cls-2" d="M97.59,65.615L74.881,75.161l-6.93-5.6L55.692,84.732,54.9,91H32.747L36.7,80.03,54.076,58.337l-5.5-4.444L33.934,62.267a3.977,3.977,0,0,1-5.4-1.434,3.9,3.9,0,0,1,1.448-5.352L50.027,44.018,76.9,65.8l17.6-7.4a3.97,3.97,0,0,1,5.187,2.076A3.9,3.9,0,0,1,97.59,65.615ZM72.677,56.932c-4.992,0-9.447-4.462-9.95-9.966S65.864,37,70.856,37s9.447,4.462,9.95,9.966S77.669,56.932,72.677,56.932Z"/>
  <path id="_1" data-name="1" class="cls-3" d="M109.59,65.615L86.881,75.161l-6.93-5.6L67.692,84.732,66.9,91H44.747L48.7,80.03,66.076,58.337l-5.5-4.444L45.934,62.267a3.977,3.977,0,0,1-5.4-1.434,3.9,3.9,0,0,1,1.448-5.352L62.027,44.018,88.9,65.8l17.6-7.4a3.971,3.971,0,0,1,5.188,2.076A3.9,3.9,0,0,1,109.59,65.615ZM84.677,56.932c-4.992,0-9.447-4.462-9.95-9.966S77.864,37,82.856,37s9.447,4.462,9.95,9.966S89.669,56.932,84.677,56.932Z"/>
</svg>
