<?xml version="1.0" encoding="UTF-8" standalone="no"?>
<svg
   id="ico_dynamite_inactive"
   width="128"
   height="128"
   viewBox="0 0 128 128"
   version="1.1"
   sodipodi:docname="ico_dynamite_inactive.svg"
   inkscape:version="1.4.3 (0d15f75042, 2025-12-25)"
   xml:space="preserve"
   xmlns:inkscape="http://www.inkscape.org/namespaces/inkscape"
   xmlns:sodipodi="http://sodipodi.sourceforge.net/DTD/sodipodi-0.dtd"
   xmlns="http://www.w3.org/2000/svg"
   xmlns:svg="http://www.w3.org/2000/svg"><sodipodi:namedview
     id="namedview1"
     pagecolor="#ffffff"
     bordercolor="#000000"
     borderopacity="0.25"
     inkscape:showpageshadow="2"
     inkscape:pageopacity="0.0"
     inkscape:pagecheckerboard="0"
     inkscape:deskcolor="#d1d1d1"
     inkscape:zoom="2.2345679"
     inkscape:cx="74.063535"
     inkscape:cy="80.328729"
     inkscape:window-width="1920"
     inkscape:window-height="1048"
     inkscape:window-x="0"
     inkscape:window-y="0"
     inkscape:window-maximized="1"
     inkscape:current-layer="ico_dynamite_inactive" /><defs
     id="defs1"><style
       id="style1">
      .cls-1 {
        fill: #fff;
        fill-rule: evenodd;
      }
    </style><style
       id="style1-3">
      .cls-1 {
        fill: #fff;
        fill-rule: evenodd;
      }
    </style></defs><path
     id="path2"
     style="fill:#33302e;stroke:#9f9f9f;stroke-width:0"
     d="M 56.515625 0 L 33.283203 18.509766 L 37.794922 40.111328 L 21.140625 44.150391 L 22.564453 67.085938 L 17.660156 68.035156 L 20.033203 97.146484 L 24.779297 97.621094 L 27.787109 120.53711 L 45.744141 122.98242 L 45.744141 128 L 47.089844 128 L 81.896484 128 L 82.291016 122.8418 L 102.11523 119.58008 L 103.52734 96.761719 L 107.97266 94.361328 L 110.03125 72.449219 L 106.71875 70.392578 L 109.74414 42.876953 L 88.832031 39.605469 L 89.615234 31.884766 L 81.894531 31.326172 L 82.583984 10.994141 L 56.515625 0 z " /><path
     id="path12-1"
     style="fill:#ebe2ca;fill-opacity:1;stroke:#9f9f9f;stroke-width:0"
     d="M 57.759766 3.9921875 L 39.646484 19.880859 L 45.013672 43.527344 L 45.355469 45.035156 L 48.341797 58.201172 L 49.525391 63.408203 L 45.107422 63.408203 L 48.40625 102.13477 L 81.234375 102.13477 L 84.539062 63.408203 L 56.488281 63.408203 L 55.494141 58.201172 L 51.826172 38.988281 L 48.591797 22.046875 L 58.775391 13.679688 L 68.134766 19.275391 L 68.728516 36.527344 L 56.998047 36.527344 L 60.5625 58.201172 L 80.605469 58.201172 L 81.824219 36.527344 L 76.914062 36.527344 L 75.619141 36.527344 L 76.914062 15.666016 L 57.759766 3.9921875 z M 85.416016 45.660156 L 84.796875 58.201172 L 89.841797 58.201172 L 88.71875 69.568359 L 101.33008 68.896484 L 103.13477 48.228516 L 85.416016 45.660156 z M 41.146484 46.107422 L 26.507812 48.228516 L 28.3125 68.896484 L 40.927734 69.568359 L 39.804688 58.201172 L 43.464844 58.201172 L 41.146484 46.107422 z M 49.363281 66.777344 L 80.28125 67.865234 L 80.044922 70.287109 L 79.154297 79.427734 L 50.488281 80.269531 L 49.363281 66.777344 z M 25.869141 73.150391 L 26.853516 90.847656 L 43.466797 90.056641 L 41.787109 74.337891 L 25.869141 73.150391 z M 103.13477 73.150391 L 101.11914 73.302734 L 87.216797 74.337891 L 85.537109 90.056641 L 99.716797 90.732422 L 102.14648 90.847656 L 103.13477 73.150391 z M 75.539062 83.224609 L 75.195312 87.875 L 69.234375 87.964844 L 69.400391 83.417969 L 75.539062 83.224609 z M 67.009766 83.490234 L 66.902344 88 L 62.050781 88.072266 L 61.923828 83.652344 L 67.009766 83.490234 z M 59.933594 83.710938 L 60.167969 88.101562 L 54.529297 88.1875 L 54.369141 83.886719 L 59.933594 83.710938 z M 75.046875 89.851562 L 74.740234 93.917969 L 69.017578 93.869141 L 69.164062 89.925781 L 75.046875 89.851562 z M 66.855469 89.955078 L 66.763672 93.851562 L 62.212891 93.8125 L 62.105469 90.013672 L 66.855469 89.955078 z M 60.269531 90.03125 L 60.462891 93.796875 L 54.738281 93.75 L 54.603516 90.105469 L 60.269531 90.03125 z M 30.140625 95.326172 L 31.960938 116.08203 L 47.820312 118.45508 L 47.271484 107.33984 L 43.994141 107.33984 L 42.820312 95.498047 L 30.140625 95.326172 z M 99.501953 95.326172 L 86.820312 95.498047 L 85.648438 107.33984 L 82.373047 107.33984 L 81.824219 118.45508 L 97.683594 116.08203 L 99.501953 95.326172 z M 54.800781 95.449219 L 60.556641 95.505859 L 60.740234 98.998047 L 54.935547 98.998047 L 54.800781 95.449219 z M 62.259766 95.521484 L 66.71875 95.564453 L 66.638672 98.996094 L 62.361328 98.996094 L 62.259766 95.521484 z M 68.953125 95.585938 L 74.615234 95.640625 L 74.365234 98.996094 L 68.828125 98.996094 L 68.953125 95.585938 z M 51.794922 107.33984 L 52.728516 124.00781 L 76.914062 124.00781 L 77.849609 107.33984 L 51.794922 107.33984 z " /></svg>
