<?xml version="1.0" encoding="UTF-8" standalone="no"?>
<!-- Created with Inkscape (http://www.inkscape.org/) -->

<svg
   width="512mm"
   height="512mm"
   viewBox="0 0 512 512"
   version="1.1"
   id="svg1"
   sodipodi:docname="ico_metal.svg"
   inkscape:export-filename="ico_mine_active.svg"
   inkscape:export-xdpi="96"
   inkscape:export-ydpi="96"
   inkscape:version="1.4.3 (0d15f75, 2025-12-25)"
   xml:space="preserve"
   xmlns:inkscape="http://www.inkscape.org/namespaces/inkscape"
   xmlns:sodipodi="http://sodipodi.sourceforge.net/DTD/sodipodi-0.dtd"
   xmlns="http://www.w3.org/2000/svg"
   xmlns:svg="http://www.w3.org/2000/svg"><sodipodi:namedview
     id="namedview1"
     pagecolor="#ffffff"
     bordercolor="#000000"
     borderopacity="0.25"
     inkscape:showpageshadow="2"
     inkscape:pageopacity="0.0"
     inkscape:pagecheckerboard="0"
     inkscape:deskcolor="#d1d1d1"
     inkscape:document-units="mm"
     inkscape:zoom="0.14780736"
     inkscape:cx="500.65166"
     inkscape:cy="1572.9934"
     inkscape:window-width="1920"
     inkscape:window-height="1009"
     inkscape:window-x="1912"
     inkscape:window-y="-8"
     inkscape:window-maximized="1"
     inkscape:current-layer="svg1"><inkscape:page
       x="0"
       y="0"
       width="512"
       height="512"
       id="page2"
       margin="0"
       bleed="0" /></sodipodi:namedview><defs
     id="defs1"><style
       id="style1">
      .cls-1 {
        fill: #fff;
        fill-rule: evenodd;
      }
    </style><style
       id="style1-3">
      .cls-1 {
        fill: #fff;
        fill-rule: evenodd;
      }
    </style></defs><path
     style="opacity:1;fill:#33302e;fill-opacity:1;stroke-width:0.264583"
     d="m 124.40883,378.14914 10.74034,18.3481 -46.093924,69.36463 24.491494,24.52328 133.17375,-39.90549 7.17885,-101.17539 102.76914,-100.4866 86.12666,-16.29586 50.49925,-86.60823 L 465.86185,71.602206 402.76242,130.67403 388.44197,112.77348 440.80108,46.541435 377.70164,25.955801 277.01104,63.099444 257.76795,151.70718 157.2707,264.54387 59.519335,271.19336 23.270718,405.895 l 22.37569,27.74586 z"
     id="path13"
     sodipodi:nodetypes="ccccccccccccccccccccc" /><path
     id="path1"
     style="opacity:1;fill:#ebe2ca;fill-opacity:1;stroke-width:0.283315"
     d="m 82.471308,320.44866 a 77.130932,72.047305 45 0 0 -16.720612,71.81237 l 48.767974,-48.76801 41.14795,12.84015 12.84056,41.14835 -48.76839,48.76841 A 77.130932,72.047305 45 0 0 191.55113,429.52849 77.130932,72.047305 45 0 0 187.9573,324.0425 77.130932,72.047305 45 0 0 82.471308,320.44866 Z M 320.44785,82.472113 a 77.130932,72.047305 45 0 0 3.59465,105.485187 77.130932,72.047305 45 0 0 105.48517,3.59465 77.130932,72.047305 45 0 0 16.72185,-71.81276 l -48.768,48.76799 -41.14875,-12.84017 -12.83975,-41.14834 48.7684,-48.768384 A 77.130932,72.047305 45 0 0 320.44785,82.472113 Z M 227.50164,226.83243 c -19.44051,19.43745 -53.20661,60.73586 -54.82533,62.71824 l -8e-4,8e-4 -0.4,0.4 c 8.77517,4.0591 21.77244,10.89397 30.57372,19.1991 l 4.1e-4,4.1e-4 4.1e-4,4e-4 c 9.39456,8.86535 15.90874,21.58957 19.60071,30.29762 l -0.006,0.006 c 7.1e-4,-5.9e-4 0.002,-0.002 0.006,-0.005 0.002,0.006 0.005,0.0126 0.008,0.0178 l 0.12841,-0.12825 c 2.70104,-2.20669 43.39903,-35.51524 62.65103,-54.77026 19.91715,-19.91962 54.87028,-62.79153 54.87028,-62.79153 l -0.66721,0.66719 c -8.70792,-3.69273 -21.42613,-10.20487 -30.28828,-19.59627 -8.29651,-8.79196 -15.12584,-21.77085 -19.18655,-30.54578 l -0.002,0.001 -57.23336,57.21394 57.56251,-57.55604 c 0,0 -42.87151,34.95354 -62.79113,54.87068 z" /></svg>
