<?xml version="1.0" encoding="UTF-8" standalone="no"?>
<svg
   id="ico_chekov_tier_0"
   width="128"
   height="128"
   viewBox="0 0 128 128"
   version="1.1"
   sodipodi:docname="ico_chekov_tier_0.svg"
   xml:space="preserve"
   inkscape:version="1.4.3 (0d15f75042, 2025-12-25)"
   xmlns:inkscape="http://www.inkscape.org/namespaces/inkscape"
   xmlns:sodipodi="http://sodipodi.sourceforge.net/DTD/sodipodi-0.dtd"
   xmlns="http://www.w3.org/2000/svg"
   xmlns:svg="http://www.w3.org/2000/svg"><sodipodi:namedview
     id="namedview1"
     pagecolor="#ffffff"
     bordercolor="#000000"
     borderopacity="0.25"
     inkscape:showpageshadow="2"
     inkscape:pageopacity="0.0"
     inkscape:pagecheckerboard="0"
     inkscape:deskcolor="#d1d1d1"
     inkscape:zoom="4.4691358"
     inkscape:cx="69.252762"
     inkscape:cy="41.730663"
     inkscape:window-width="1920"
     inkscape:window-height="1012"
     inkscape:window-x="0"
     inkscape:window-y="0"
     inkscape:window-maximized="1"
     inkscape:current-layer="ico_chekov_tier_0" /><defs
     id="defs1"><style
       id="style1">
      .cls-1 {
        fill: #fff;
        fill-rule: evenodd;
      }
    </style></defs><path
     id="path7"
     style="opacity:1;fill:#ebe2ca;fill-opacity:1;stroke:#9f9f9f;stroke-width:0"
     d="M 15.973913,37.45035 4.9569417,42.74915 1.0255742,53.748233 17.943572,62.35431 21.284638,48.0877 20.241177,66.001459 10.420708,74.903682 23.377525,88.120868 20.706262,89.154392 66.358225,74.842068 63.418643,39.451809 52.198941,38.978773 56.074657,47.561001 38.083384,46.934923 30.90039,38.080402 Z m 18.933371,2.186302 4.481918,5.600906 13.580907,0.393535 -2.685176,-5.346502 z m 55.212063,0.614151 -22.520894,2.452633 3.275478,29.046008 31.522489,0.465088 L 88.094036,64.369683 128,53.153957 83.242434,48.026086 Z M 0,56.614276 1.5025854,72.961849 5.2769368,75.994845 17.331408,64.82682 l 0.08347,-0.443223 z m 8.6855794,19.960932 -1.5761246,1.542337 9.1447032,12.432105 4.442167,-1.391283 z" /></svg>
