<?xml version="1.0" encoding="UTF-8" standalone="no"?>
<svg
   id="ico_sandvich_inactive"
   width="128"
   height="128"
   viewBox="0 0 128 128"
   version="1.1"
   sodipodi:docname="ico_sandvich_inactive.svg"
   inkscape:version="1.4.3 (0d15f75042, 2025-12-25)"
   xml:space="preserve"
   xmlns:inkscape="http://www.inkscape.org/namespaces/inkscape"
   xmlns:sodipodi="http://sodipodi.sourceforge.net/DTD/sodipodi-0.dtd"
   xmlns="http://www.w3.org/2000/svg"
   xmlns:svg="http://www.w3.org/2000/svg"><sodipodi:namedview
     id="namedview1"
     pagecolor="#ffffff"
     bordercolor="#000000"
     borderopacity="0.25"
     inkscape:showpageshadow="2"
     inkscape:pageopacity="0.0"
     inkscape:pagecheckerboard="0"
     inkscape:deskcolor="#d1d1d1"
     inkscape:zoom="2.3340048"
     inkscape:cx="54.412914"
     inkscape:cy="125.74953"
     inkscape:window-width="1920"
     inkscape:window-height="1048"
     inkscape:window-x="0"
     inkscape:window-y="0"
     inkscape:window-maximized="1"
     inkscape:current-layer="ico_sandvich_inactive" /><defs
     id="defs1"><style
       id="style1">
      .cls-1 {
        fill: #fff;
        fill-rule: evenodd;
      }
    </style></defs><path
     id="path2"
     style="fill:#33302e;stroke:#9f9f9f;stroke-width:0"
     d="M 112.92773 18.03125 L 92.009766 19.5 L 9.8535156 113.97266 L 44.773438 114.29492 L 94.794922 128.00586 L 98.007812 112.78125 L 114.59375 113.46289 L 113.08008 66.001953 L 128 36.78125 L 112.625 28.625 L 112.92773 18.03125 z " /><path
     id="path1-2"
     style="fill:#ebe2ca;fill-opacity:1;stroke:#9f9f9f;stroke-width:0"
     d="M 98.763672 23.390625 L 96.867188 25.285156 L 102.35352 27.917969 L 107.87109 35.332031 L 107.63867 23.445312 L 98.763672 23.390625 z M 93.835938 28.316406 L 89.123047 33.527344 L 95.253906 37.033203 L 101.88672 46.916016 L 90.855469 57.544922 L 97.511719 99.15625 L 29.794922 99.087891 L 23.242188 106.33008 L 106.66211 106.48633 L 104.0918 93.789062 L 99.171875 61.349609 L 109.80469 47.011719 L 99.453125 31.017578 L 93.835938 28.316406 z M 112.06055 34.533203 L 111.48047 37.636719 L 115.38477 50.125 L 122.00586 38.533203 L 112.06055 34.533203 z M 85.869141 37.121094 L 34.349609 94.054688 L 91.458984 94.169922 L 85.736328 55.441406 L 96.490234 46.724609 L 92.378906 41.154297 L 85.869141 37.121094 z M 108.30273 57.650391 L 103.40625 62.398438 L 109.13281 100.37695 L 108.30273 57.650391 z M 75.994141 62.71875 L 80.669922 66.628906 L 82.191406 73.71875 L 79.976562 81.283203 L 74.871094 86.431641 L 68.824219 87.199219 L 64.146484 83.291016 L 62.625 76.201172 L 64.841797 68.636719 L 69.949219 63.488281 L 75.994141 62.71875 z M 74.699219 67.136719 L 70.835938 67.626953 L 67.572266 70.917969 L 66.15625 75.753906 L 67.128906 80.285156 L 70.117188 82.783203 L 73.982422 82.292969 L 77.246094 79 L 78.662109 74.166016 L 77.689453 69.634766 L 74.699219 67.136719 z M 57.339844 110.85352 L 90.740234 119.9707 L 92.917969 110.85352 L 57.339844 110.85352 z " /></svg>
