<?xml version="1.0" encoding="UTF-8" standalone="no"?>
<!-- Created with Inkscape (http://www.inkscape.org/) -->

<svg
   width="512mm"
   height="512mm"
   viewBox="0 0 512 512"
   version="1.1"
   id="svg1"
   sodipodi:docname="ico_mine_inactive.svg"
   inkscape:export-filename="ico_mine_active.svg"
   inkscape:export-xdpi="96"
   inkscape:export-ydpi="96"
   inkscape:version="1.4.3 (0d15f75, 2025-12-25)"
   xmlns:inkscape="http://www.inkscape.org/namespaces/inkscape"
   xmlns:sodipodi="http://sodipodi.sourceforge.net/DTD/sodipodi-0.dtd"
   xmlns="http://www.w3.org/2000/svg"
   xmlns:svg="http://www.w3.org/2000/svg">
  <sodipodi:namedview
     id="namedview1"
     pagecolor="#ffffff"
     bordercolor="#000000"
     borderopacity="0.25"
     inkscape:showpageshadow="2"
     inkscape:pageopacity="0.0"
     inkscape:pagecheckerboard="0"
     inkscape:deskcolor="#d1d1d1"
     inkscape:document-units="mm"
     inkscape:zoom="0.14780736"
     inkscape:cx="1721.8358"
     inkscape:cy="1444.4477"
     inkscape:window-width="1920"
     inkscape:window-height="1009"
     inkscape:window-x="1912"
     inkscape:window-y="-8"
     inkscape:window-maximized="1"
     inkscape:current-layer="svg1">
    <inkscape:page
       x="0"
       y="0"
       width="512"
       height="512"
       id="page2"
       margin="0"
       bleed="0" />
  </sodipodi:namedview>
  <defs
     id="defs1" />
  <g
     id="g66"
     transform="translate(0,8e-5)"
     style="display:none">
    <path
       id="path47"
       style="fill:#ebe2ca;fill-opacity:1;stroke:#9f9f9f;stroke-width:0"
       d="m 84.132714,254.21003 34.905886,71.64613 h 273.92281 l 34.90588,-71.64613 H 392.96141 119.0386 Z" />
    <path
       id="path48"
       style="fill:#ebe2ca;fill-opacity:1;stroke:#9f9f9f;stroke-width:0"
       d="m 200.75777,186.14368 -15.48691,50.16541 h 26.40304 88.65247 26.40304 L 311.2425,186.14368 Z" />
  </g>
  <path
     id="path26"
     style="fill:#33302e;fill-opacity:1;stroke-width:0.264583"
     d="M 190.5739 217.02603 L 173.57287 276.41104 L 127.47542 276.98309 L 122.27936 285.2105 L 117.08278 293.4379 L 0 295.96901 L 0 334.57493 L 49.364429 485.63754 L 476.60243 441.58597 L 512.00027 349.13114 L 512.00027 285.85129 L 411.88287 287.73954 L 407.89138 273.50217 L 338.99171 274.54965 L 325.72275 225.02968 L 190.5739 217.02603 z " />
  <path
     id="path20"
     style="fill:#ebe2ca;fill-opacity:1;stroke-width:0.264583"
     d="M 206.67162 241.8395 L 195.14054 284.59451 L 213.61849 284.42295 L 220.71676 257.74034 L 297.76994 257.89847 L 302.35157 283.59974 L 320.46054 283.4318 L 312.73233 244.07709 L 206.67162 241.8395 z M 352.42603 298.69081 L 323.69135 299.88557 L 189.51195 305.46353 L 158.65285 306.74613 L 153.1736 319.47249 L 25.977743 321.20468 L 35.870679 344.86164 L 176.32981 342.7274 L 182.90253 322.13589 L 337.64141 315.49082 L 343.01627 340.19474 L 479.25137 338.12458 L 486.02201 314.93943 L 359.17963 316.66698 L 352.42603 298.69081 z M 474.85525 353.17689 L 445.04725 353.63216 L 434.08823 396.721 L 83.223861 396.49931 L 72.117045 359.32742 L 42.111641 359.78579 L 67.14939 419.65811 L 456.48635 416.07796 L 474.85525 353.17689 z " />
</svg>
