<?xml version="1.0" encoding="UTF-8" standalone="no"?>
<svg
   id="ico_boost_active"
   width="128"
   height="128"
   viewBox="0 0 128 128"
   version="1.1"
   sodipodi:docname="ico_boost_active.svg"
   inkscape:version="1.4.3 (0d15f75042, 2025-12-25)"
   xmlns:inkscape="http://www.inkscape.org/namespaces/inkscape"
   xmlns:sodipodi="http://sodipodi.sourceforge.net/DTD/sodipodi-0.dtd"
   xmlns="http://www.w3.org/2000/svg"
   xmlns:svg="http://www.w3.org/2000/svg">
  <sodipodi:namedview
     id="namedview1"
     pagecolor="#ffffff"
     bordercolor="#000000"
     borderopacity="0.25"
     inkscape:showpageshadow="2"
     inkscape:pageopacity="0.0"
     inkscape:pagecheckerboard="0"
     inkscape:deskcolor="#d1d1d1"
     inkscape:zoom="3.1601562"
     inkscape:cx="102.05192"
     inkscape:cy="65.344871"
     inkscape:window-width="1920"
     inkscape:window-height="1012"
     inkscape:window-x="0"
     inkscape:window-y="0"
     inkscape:window-maximized="1"
     inkscape:current-layer="ico_boost_active" />
  <defs
     id="defs1">
    <style
       id="style1">
      .cls-1 {
        fill: #fff;
        fill-rule: evenodd;
      }
    </style>
  </defs>
  <path
     style="fill:#33302e;stroke:#9f9f9f;stroke-width:0"
     d="M 49.522869,128 22.309024,93.033376 0,96.039557 37.577257,0 64.403502,12.45003 66.989315,8.50248 90.343636,27.213845 94.932017,24.365884 128,69.142152 Z"
     id="path1"
     sodipodi:nodetypes="cccccccccc" />
  <g
     id="g4"
     transform="matrix(1.141127,0,0,1.141127,-8.8293043,5.5395299)"
     style="fill:#ebe2ca;fill-opacity:1">
    <path
       id="path2"
       style="fill:#ebe2ca;fill-opacity:1;stroke:#9f9f9f;stroke-width:0"
       d="m 67.607422,12.03125 -9.41211,12.179688 -12.890624,16.679687 -0.08398,0.05469 -0.04297,0.107422 -0.560546,0.728516 -22.986329,29.748047 14.714844,-11.212891 -0.357422,-0.289062 5.400391,-6.984375 0.763672,2.849609 7.234375,-5.513672 1.923828,-5.013672 5.599609,-3.634765 3.580078,0.1875 7.40625,-5.640625 -1.30664,-1.058594 -10.986328,-0.572266 5.958984,-7.710937 2.626953,2.126953 7.96875,0.419922 5.847656,-3.800781 1.919922,1.429687 3.625,-2.761719 -3.394531,-2.623047 z" />
    <path
       id="path3"
       style="display:inline;fill:#ebe2ca;fill-opacity:1;stroke:#9f9f9f;stroke-width:0"
       d="m 44.691406,2.4941406 -5.9375,14.1992184 -8.136718,19.449219 -0.06641,0.07422 -0.01172,0.115234 -0.355468,0.847657 -14.503906,34.683593 0.236328,0.09961 11.308593,-14.634766 -0.652343,-0.291016 3.408203,-8.144531 1.609375,2.78711 5.376953,-6.958985 0.609375,-5.810547 4.46875,-4.960937 3.884766,-0.826172 5.548828,-7.181641 -1.769532,-0.787109 -10.757812,2.291015 3.759766,-8.990234 3.08789,1.373047 7.804688,-1.65625 4.666015,-5.183594 2.462891,0.978516 2.783203,-3.601563 -4.193359,-1.7539059 z" />
    <path
       id="path4"
       style="fill:#ebe2ca;fill-opacity:1;stroke:#9f9f9f;stroke-width:0"
       d="M 89.179688,24.490234 76.9375,33.818359 60.167969,46.59375 l -0.0957,0.03125 -0.06836,0.09375 -0.730468,0.556641 -29.902344,22.785156 8.880859,11.65625 4.513672,5.923828 L 52.15625,99.966797 65.634766,89.695312 82.060547,77.179688 111.96484,54.394531 102.69141,42.220703 h -0.002 l -3.898434,-5.117187 z m -9.695313,12.832032 1.986328,2.734375 7.587891,2.466797 6.632812,-2.15625 2.837891,3.591796 -4.320313,5.949219 v 7.978516 l 2.28125,3.138672 -7.457031,5.68164 V 56.035156 L 82.195312,46.625 71.732422,43.228516 Z m -8.324219,13.085937 6.347656,2.0625 3.921876,5.400391 v 6.675781 l -3.921876,5.398437 -6.347656,2.0625 -6.349609,-2.0625 -3.921875,-5.398437 v -6.675781 l 3.921875,-5.400391 z m -17.919922,6.910156 v 10.347657 l 6.832032,9.408203 10.761718,3.498047 -7.613281,5.800781 -2.179687,-3.001953 -7.585938,-2.464844 -7.58789,2.464844 -0.314454,0.433594 -2.800781,-3.548829 0.863281,-0.28125 4.689454,-6.453125 v -7.978515 l -2.087891,-2.875 z" />
  </g>
</svg>
