<?xml version="1.0" encoding="UTF-8" standalone="no"?>
<svg
   id="ico_chekov_tier_2"
   width="128"
   height="128"
   viewBox="0 0 128 128"
   version="1.1"
   sodipodi:docname="ico_chekov_tier_2.svg"
   xml:space="preserve"
   inkscape:version="1.4.3 (0d15f75042, 2025-12-25)"
   xmlns:inkscape="http://www.inkscape.org/namespaces/inkscape"
   xmlns:sodipodi="http://sodipodi.sourceforge.net/DTD/sodipodi-0.dtd"
   xmlns="http://www.w3.org/2000/svg"
   xmlns:svg="http://www.w3.org/2000/svg"><sodipodi:namedview
     id="namedview1"
     pagecolor="#ffffff"
     bordercolor="#000000"
     borderopacity="0.25"
     inkscape:showpageshadow="2"
     inkscape:pageopacity="0.0"
     inkscape:pagecheckerboard="0"
     inkscape:deskcolor="#d1d1d1"
     inkscape:zoom="4.4691358"
     inkscape:cx="42.513812"
     inkscape:cy="53.366022"
     inkscape:window-width="1920"
     inkscape:window-height="1012"
     inkscape:window-x="0"
     inkscape:window-y="0"
     inkscape:window-maximized="1"
     inkscape:current-layer="ico_chekov_tier_2" /><defs
     id="defs1"><style
       id="style1">
      .cls-1, .cls-2 {
        fill: #fff;
        fill-rule: evenodd;
      }

      .cls-1 {
        opacity: 0.5;
      }
    </style><style
       id="style1-3">
      .cls-1 {
        fill: #fff;
        fill-rule: evenodd;
      }
    </style><style
       id="style1-7">
      .cls-1 {
        fill: #fff;
        fill-rule: evenodd;
      }
    </style></defs><path
     style="fill:#33302e;stroke:#9f9f9f;stroke-width:0"
     d="M 71.673671,75.708282 66.53152,73.730532 67.559951,53.399258 75.18232,47.995856 83.573204,21.145027 86.03453,24.948895 91.014905,0 101.57726,27.372064 102.9708,22.074023 128,56.945168 v 41.731627 l -3.03177,2.349445 -1.67818,11.63536 -8.61464,4.47514 -34.011046,-4.02762 z"
     id="path2"
     sodipodi:nodetypes="cccccccccccccccc" /><path
     style="fill:#33302e;stroke:#9f9f9f;stroke-width:0"
     d="M 15.189122,118.11125 3.8763906,111.22868 2.0568603,100.15328 0,98.808405 V 55.603591 L 9.2859115,45.758287 11.523481,45.870165 23.606353,25.396409 26.067679,28.305248 37.031768,0 l 5.593922,24.61326 2.796962,-2.461326 8.61464,25.508287 7.943371,5.817679 0.895027,20.921271 -5.482044,3.803867 -9.845304,36.248622 z"
     id="path1" /><path
     id="path105"
     style="display:inline;fill:#ebe2ca;fill-opacity:1;stroke-width:0.312079"
     d="M 36.316406 15.433594 L 26.173828 43.003906 L 23.888672 35.097656 L 14.933594 48.279297 L 24.048828 48.779297 L 42.205078 44.375 L 48.544922 47.378906 L 44.320312 32.140625 L 40.203125 38.591797 L 36.316406 15.433594 z M 92.304688 15.433594 L 88.416016 38.591797 L 84.300781 32.140625 L 80.076172 47.378906 L 86.416016 44.375 L 104.57227 48.779297 L 113.6875 48.279297 L 104.72852 35.097656 L 102.44727 43.003906 L 92.304688 15.433594 z M 41.626953 48.484375 L 36.365234 56.433594 L 49.25 60.716797 L 52.994141 71.652344 L 55.824219 69.785156 L 56.576172 58.275391 L 41.626953 48.484375 z M 86.373047 48.484375 L 71.423828 58.275391 L 72.175781 69.785156 L 75.013672 71.652344 L 78.761719 60.716797 L 91.634766 56.433594 L 86.373047 48.484375 z M 39.708984 49.025391 L 26.083984 52.84375 L 10.542969 52.5625 L 3.6601562 59.441406 L 4.5332031 68.609375 L 0.65625 74.921875 L 4.4589844 83.287109 L 1.6445312 88.916016 L 2.7832031 96.060547 L 9.0585938 98.914062 L 6.8144531 100.7793 L 7.4238281 107.4707 L 14.875 112.56641 L 31.005859 110.40039 L 30.78125 100.30469 L 24.53125 100.13477 L 24.515625 98.802734 L 30.099609 98.099609 L 31.222656 87.310547 L 23.433594 86.240234 L 23.214844 84.800781 L 29.164062 84.037109 L 28.080078 72.099609 L 22.240234 71.470703 L 22.039062 70.089844 L 29.900391 70.132812 L 32.671875 58.34375 L 28.869141 57.353516 L 34.492188 55.751953 L 39.708984 49.025391 z M 88.291016 49.025391 L 93.503906 55.751953 L 99.130859 57.353516 L 95.324219 58.34375 L 98.099609 70.132812 L 105.95898 70.089844 L 105.75977 71.470703 L 99.919922 72.099609 L 98.833984 84.037109 L 104.7832 84.800781 L 104.56641 86.240234 L 96.773438 87.310547 L 97.896484 98.099609 L 103.48242 98.802734 L 103.46484 100.13477 L 97.21875 100.30469 L 96.994141 110.40039 L 113.12109 112.56641 L 120.57617 107.4707 L 121.18359 100.7793 L 118.93945 98.914062 L 125.21289 96.060547 L 126.35547 88.916016 L 123.54102 83.287109 L 127.34375 74.921875 L 123.46484 68.609375 L 124.33984 59.441406 L 117.45703 52.5625 L 101.91406 52.84375 L 88.291016 49.025391 z M 34.796875 58.904297 L 32.224609 70.001953 L 50.392578 71.537109 L 47.199219 62.144531 L 34.796875 58.904297 z M 93.199219 58.904297 L 80.800781 62.144531 L 77.603516 71.537109 L 95.775391 70.001953 L 93.199219 58.904297 z M 30.837891 72.132812 L 31.757812 84.990234 L 50.621094 85.416016 L 52.294922 73.779297 L 30.837891 72.132812 z M 97.162109 72.132812 L 75.705078 73.779297 L 77.378906 85.416016 L 96.242188 84.990234 L 97.162109 72.132812 z M 34.111328 87.007812 L 32.216797 98.748047 L 46.210938 98.650391 L 49.9375 88.152344 L 34.111328 87.007812 z M 93.888672 87.007812 L 78.0625 88.150391 L 81.789062 98.650391 L 95.78125 98.746094 L 93.888672 87.007812 z M 33.035156 100.36328 L 33.162109 110.11328 L 42.636719 108.8418 L 45.601562 100.70312 L 33.035156 100.36328 z M 94.964844 100.36328 L 82.398438 100.70312 L 85.363281 108.8418 L 94.837891 110.11328 L 94.964844 100.36328 z " /></svg>
