<?xml version="1.0" encoding="UTF-8" standalone="no"?>
<svg
   id="ico_invis_active"
   width="128"
   height="128"
   viewBox="0 0 128 128"
   version="1.1"
   sodipodi:docname="ico_invis_active.svg"
   inkscape:version="1.4.3 (0d15f75, 2025-12-25)"
   xml:space="preserve"
   xmlns:inkscape="http://www.inkscape.org/namespaces/inkscape"
   xmlns:sodipodi="http://sodipodi.sourceforge.net/DTD/sodipodi-0.dtd"
   xmlns="http://www.w3.org/2000/svg"
   xmlns:svg="http://www.w3.org/2000/svg"><sodipodi:namedview
     id="namedview1"
     pagecolor="#acacac"
     bordercolor="#000000"
     borderopacity="0.25"
     inkscape:showpageshadow="2"
     inkscape:pageopacity="0.0"
     inkscape:pagecheckerboard="0"
     inkscape:deskcolor="#4e4e4e"
     inkscape:zoom="8"
     inkscape:cx="93.125"
     inkscape:cy="24.9375"
     inkscape:window-width="1920"
     inkscape:window-height="1009"
     inkscape:window-x="1912"
     inkscape:window-y="-8"
     inkscape:window-maximized="1"
     inkscape:current-layer="ico_invis_active"
     showguides="false" /><defs
     id="defs1"><rect
       x="-98.994949"
       y="-89.095454"
       width="350.72496"
       height="330.92597"
       id="rect84" /><rect
       x="-172.53405"
       y="-271.529"
       width="612.35447"
       height="261.62951"
       id="rect83" /><style
       id="style1">
      .cls-1 {
        fill: #fff;
        fill-rule: evenodd;
      }
    </style></defs><path
     id="path126"
     style="opacity:1;fill:#33302e;fill-opacity:1"
     d="M 60,0 14.25,28.375 22.539062,98.376953 45.962891,128 H 65.054688 74.375 L 109,97.5 112.61328,34.828125 121.625,37.6875 125,22.375 116.51072,23.147748 128,16.670495 119.46828,0 102.04492,20.445312 76.625,2.625 Z"
     sodipodi:nodetypes="cccccccccccccccc" /><path
     id="path86"
     style="opacity:1;fill:#ebe2ca;fill-opacity:1"
     d="M 119.15039 4.3535156 L 102.60352 26.21875 L 124.05078 15.162109 L 119.15039 4.3535156 z M 62.53125 6.0351562 L 51.265625 11.431641 L 43.441406 15.179688 L 40 16.828125 L 34.677734 22.125 L 29.716797 27.0625 L 23.96875 32.785156 L 23.28125 34.910156 L 24.017578 42.361328 L 25.246094 54.814453 L 26.09375 63.410156 L 26.966797 72.253906 L 28.001953 82.736328 L 28.90625 91.910156 L 34.28125 99.638672 L 39.626953 107.32617 L 44.152344 113.83398 L 53.173828 120.06445 L 54.583984 121.03906 L 62.53125 121.96484 L 65.46875 121.96484 L 73.416016 121.03906 L 83.847656 113.83398 L 90.113281 104.82617 L 96.128906 96.173828 L 99.09375 91.910156 L 99.693359 85.824219 L 100.30469 79.636719 L 100.51172 77.539062 L 101.11328 71.453125 L 101.90625 63.410156 L 102.63867 55.986328 L 103.56445 46.603516 L 104.71875 34.910156 L 104.03125 32.785156 L 98.361328 27.140625 L 89.839844 18.658203 L 88 16.828125 L 80.134766 13.060547 L 79.798828 12.900391 L 71.46875 8.9082031 L 65.46875 6.0351562 L 62.53125 6.0351562 z M 62.822266 13.802734 L 65.177734 13.802734 L 69.570312 16.074219 L 77.285156 20.066406 L 83.244141 23.148438 L 85.003906 25.041016 L 91.916016 32.470703 L 96.097656 36.96875 L 96.648438 38.808594 L 95.955078 46.400391 L 95.177734 54.912109 L 94.394531 63.488281 L 93.753906 70.482422 L 93.056641 78.125 L 92.380859 85.519531 L 92.138672 88.169922 L 88.947266 93.126953 L 84.296875 100.34961 L 79.914062 107.1543 L 78.392578 108.29102 L 71.550781 113.39453 L 65.177734 114.19727 L 62.822266 114.19727 L 56.449219 113.39453 L 50.041016 108.61328 L 48.085938 107.1543 L 44.953125 102.28906 L 40.28125 95.033203 L 37.048828 90.013672 L 35.861328 88.169922 L 35.027344 79.03125 L 34.382812 71.988281 L 33.605469 63.488281 L 32.673828 53.279297 L 31.941406 45.255859 L 31.351562 38.808594 L 31.902344 36.96875 L 36.289062 32.251953 L 41.445312 26.708984 L 44.755859 23.148438 L 46.585938 22.203125 L 46.585938 22.201172 L 53.789062 18.476562 L 62.822266 13.802734 z M 121.34375 25.84375 L 105.28125 28 L 119.46875 32.8125 L 121.34375 25.84375 z M 55 26.125 L 60.375 85.261719 L 65 85.761719 L 73.875 27.011719 L 55 26.125 z M 70.5 90.386719 L 55.75 91.136719 L 57.5 102.01172 L 68 101.63672 L 70.5 90.386719 z " /></svg>
