<svg id="ico_invis_active" xmlns="http://www.w3.org/2000/svg" width="128" height="128" viewBox="0 0 128 128">
  <defs>
    <style>
      .cls-1 {
        fill: #fff;
        fill-rule: evenodd;
      }
    </style>
  </defs>
  <path id="Outline" class="cls-1" d="M96.382,68.465L93.3,69.792l-1.079-3.539,2.707-1.172a2.288,2.288,0,0,0,1.18-2.978,2.211,2.211,0,0,0-2.92-1.2l-2.3.994-1.123-3.686,1.969-.849a5.9,5.9,0,0,1,7.786,3.2A6.068,6.068,0,0,1,96.382,68.465Zm-18.513,4,9.985-4.323,1.077,3.532L77.354,76.669Zm1.181-9.636,6.35-2.738,1.125,3.692-8.018,3.471Zm-2.8-9.889a8.039,8.039,0,0,0,.848-4.686L81.5,48a12.746,12.746,0,0,1-1.644,7.945ZM72.826,41.732L73.944,37.4a11.959,11.959,0,0,1,5.934,5.422l-3.665,2.4A7.569,7.569,0,0,0,72.826,41.732Zm0.839,13.727,1.714,4.494a8.191,8.191,0,0,1-2.748.718l2,1.6-0.779,4.769-7.448-6.251,2.175-5.7a5.435,5.435,0,0,0,4.276.681A5.068,5.068,0,0,0,73.665,55.459Zm-8.328-10.6-3.626-2.378a9.876,9.876,0,0,1,6.265-5.473C68,37,68.029,37,68.055,36.993l1.113,4.315c-0.034.009-.069,0.012-0.1,0.022A5.734,5.734,0,0,0,65.337,44.86Zm-0.561,3.383a9.027,9.027,0,0,0,.284,1.916,8.841,8.841,0,0,0,1.1,2.522l-4.725,3.938L53.12,49.637l0.8-3.9,7.026,5.609A13.9,13.9,0,0,1,60.522,48ZM52.408,65.629l-3.37-2.772,2.544-3.289-0.422-.339L52.125,54.5l5.4,4.385ZM39.467,54.042L37.747,50.7l12.008-7.042L48.79,48.574ZM36.907,65.12A5.888,5.888,0,0,1,28.8,62.912a6.084,6.084,0,0,1,2.174-8.24l2.27-1.331,1.72,3.345-2.134,1.252a2.282,2.282,0,0,0-.815,3.09,2.208,2.208,0,0,0,3.042.828L37.023,60.7l1.72,3.345Zm3.006,17.888L36.866,91H32.454l3.115-9.651ZM41.53,58.055l6.1-3.579L46.668,59.4l-3.418,2ZM42.7,78.415l-4.4-1.679,7.516-9.718,3.406,2.8Zm16.326-.532,3.264,2.685-3.859,4.965L57.691,91H53.237l1.485-7.57Zm8.46-10.9,5.628,4.571-0.768,4.7-4.127-3.316-2.7,3.476-3.266-2.687Z"/>
</svg>
