<?xml version="1.0" encoding="UTF-8" standalone="no"?>
<svg
   id="ico_chekov_tier_1"
   width="128"
   height="128"
   viewBox="0 0 128 128"
   version="1.1"
   sodipodi:docname="ico_chekov_tier_1.svg"
   inkscape:version="1.4.3 (0d15f75042, 2025-12-25)"
   xml:space="preserve"
   xmlns:inkscape="http://www.inkscape.org/namespaces/inkscape"
   xmlns:sodipodi="http://sodipodi.sourceforge.net/DTD/sodipodi-0.dtd"
   xmlns="http://www.w3.org/2000/svg"
   xmlns:svg="http://www.w3.org/2000/svg"><sodipodi:namedview
     id="namedview1"
     pagecolor="#ffffff"
     bordercolor="#000000"
     borderopacity="0.25"
     inkscape:showpageshadow="2"
     inkscape:pageopacity="0.0"
     inkscape:pagecheckerboard="0"
     inkscape:deskcolor="#d1d1d1"
     inkscape:zoom="0.79003908"
     inkscape:cx="132.90482"
     inkscape:cy="39.871446"
     inkscape:window-width="1920"
     inkscape:window-height="1012"
     inkscape:window-x="0"
     inkscape:window-y="0"
     inkscape:window-maximized="1"
     inkscape:current-layer="ico_chekov_tier_1" /><defs
     id="defs1"><style
       id="style1">
      .cls-1 {
        fill: #fff;
        fill-rule: evenodd;
      }
    </style><style
       id="style1-7">
      .cls-1 {
        fill: #fff;
        fill-rule: evenodd;
      }
    </style><style
       id="style1-5">
      .cls-1 {
        fill: #fff;
        fill-rule: evenodd;
      }
    </style></defs><path
     id="path10"
     style="fill:#33302e;fill-opacity:1;stroke:#9f9f9f;stroke-width:0"
     d="M 49.207031 2.2949219 L 12.816406 32.277344 L 0 39.902344 L 0 80.691406 L 3.4804688 82.986328 L 12.736328 97.304688 L 128 111.86133 L 106.33594 89.285156 L 128 76.894531 L 105.2168 65.1875 L 128 60.28125 L 128 45.25 L 95.722656 43.984375 L 118.16016 39.994141 L 107.0625 31.082031 L 128 5.3710938 L 46.878906 14.451172 L 49.207031 2.2949219 z " /><path
     id="path7"
     style="opacity:1;fill:#ebe2ca;fill-opacity:1;stroke:#9f9f9f;stroke-width:0"
     d="m 15.97391,37.45035 -11.01697,5.2988 -3.93137,10.999083 16.918,8.606077 3.34107,-14.26661 -1.04346,17.913759 -9.82047,8.902223 12.95682,13.217186 -2.67127,1.033524 45.65197,-14.312324 -2.93959,-35.390259 -11.2197,-0.473036 3.87572,8.582228 -17.99128,-0.626078 -7.18299,-8.854521 z m 18.93337,2.186302 4.48192,5.600906 13.58091,0.393535 -2.68518,-5.346502 z m 55.212067,0.614151 -22.520897,2.452633 3.27548,29.046008 31.52249,0.465088 L 88.094036,64.369683 128,53.153957 83.242434,48.026086 Z M 0,56.614276 1.50259,72.961849 5.27694,75.994845 17.33141,64.82682 l 0.0835,-0.443223 z m 8.68558,19.960932 -1.57613,1.542337 9.14471,12.432105 4.44217,-1.391283 z" /><path
     id="path5"
     style="fill:#ebe2ca;fill-opacity:1;stroke:#9f9f9f;stroke-width:0"
     d="M 117.55664 10.443359 L 39.712891 23.416016 L 41.927734 15.664062 L 19.460938 33.859375 L 35.283203 28.480469 L 35.125 30.0625 L 84.964844 25.947266 L 67.560547 38.605469 L 104.10938 35.916016 L 92.558594 31.486328 L 117.55664 10.443359 z " /><path
     id="path6"
     style="fill:#ebe2ca;fill-opacity:1;stroke:#9f9f9f;stroke-width:0"
     d="M 92.875 77.607422 L 69.458984 83.224609 L 76.894531 90.818359 L 25.992188 93.574219 L 111.22852 103.85352 L 95.763672 86.996094 L 112.49414 78.001953 L 92.875 77.607422 z " /></svg>
