<?xml version="1.0" encoding="UTF-8" standalone="no"?>
<svg
   id="ico_harvester_inactive"
   width="128"
   height="128"
   viewBox="0 0 128 128"
   version="1.1"
   sodipodi:docname="ico_harvester_inactive.svg"
   inkscape:version="1.4.3 (0d15f75042, 2025-12-25)"
   xml:space="preserve"
   xmlns:inkscape="http://www.inkscape.org/namespaces/inkscape"
   xmlns:sodipodi="http://sodipodi.sourceforge.net/DTD/sodipodi-0.dtd"
   xmlns="http://www.w3.org/2000/svg"
   xmlns:svg="http://www.w3.org/2000/svg"><sodipodi:namedview
     id="namedview1"
     pagecolor="#ffffff"
     bordercolor="#000000"
     borderopacity="0.25"
     inkscape:showpageshadow="2"
     inkscape:pageopacity="0.0"
     inkscape:pagecheckerboard="0"
     inkscape:deskcolor="#d1d1d1"
     inkscape:zoom="9.3360192"
     inkscape:cx="65.284785"
     inkscape:cy="25.54622"
     inkscape:window-width="1920"
     inkscape:window-height="1048"
     inkscape:window-x="0"
     inkscape:window-y="0"
     inkscape:window-maximized="1"
     inkscape:current-layer="ico_harvester_inactive" /><defs
     id="defs1"><style
       id="style1">
      .cls-1 {
        fill: #fff;
        fill-rule: evenodd;
      }
    </style><style
       id="style1-7">
      .cls-1 {
        fill: #fff;
        fill-rule: evenodd;
      }
    </style></defs><path
     id="path2"
     style="fill:#33302e;stroke:#9f9f9f;stroke-width:0"
     d="M 64.158876,5.7829738 41.4996,28.021696 l 4.927959,6.287554 -7.87564,5.680984 -6.741372,29.689454 -17.419922,19.574689 10.148437,15.267103 20.904297,-0.15234 4.847657,15.60156 h 26.433593 l 4.47461,-16.70117 H 103.46094 L 111.94336,88.464844 96.341797,69.908203 88.236328,40.21683 l -7.724609,-5.300814 5.75517,-6.135423 z"
     sodipodi:nodetypes="cccccccccccccccccc" /><path
     id="path1"
     style="opacity:1;fill:#ebe2ca;fill-opacity:1;stroke:#9f9f9f;stroke-width:0"
     d="m 64.000002,14.993162 -13.677734,13.677733 7.019531,7.019532 -11.173828,7.189453 v 0.002 l -6.960938,28.982423 -11.285156,13.761718 71.927735,-0.002 -11.28516,-13.761718 -6.96093,-28.982422 -10.767582,-7.367188 6.841792,-6.841797 z m 0,9.013672 4.664062,4.664062 -4.664062,4.664063 -4.664062,-4.664063 z m -40.595703,66.240233 4.517578,7.802734 h 72.156243 l 4.51758,-7.802734 z m 29.089844,13.138673 2.554687,9.6211 h 17.087891 l 2.554687,-9.6211 z" /></svg>
