<?xml version="1.0" encoding="UTF-8" standalone="no"?>
<svg
   id="ico_shock_inactive"
   width="128"
   height="128"
   viewBox="0 0 128 128"
   version="1.1"
   sodipodi:docname="ico_shock_inactive.svg"
   xml:space="preserve"
   inkscape:version="1.4.3 (0d15f75042, 2025-12-25)"
   xmlns:inkscape="http://www.inkscape.org/namespaces/inkscape"
   xmlns:sodipodi="http://sodipodi.sourceforge.net/DTD/sodipodi-0.dtd"
   xmlns="http://www.w3.org/2000/svg"
   xmlns:svg="http://www.w3.org/2000/svg"><sodipodi:namedview
     id="namedview1"
     pagecolor="#ffffff"
     bordercolor="#000000"
     borderopacity="0.25"
     inkscape:showpageshadow="2"
     inkscape:pageopacity="0.0"
     inkscape:pagecheckerboard="0"
     inkscape:deskcolor="#d1d1d1"
     inkscape:zoom="0.82519531"
     inkscape:cx="-28.478106"
     inkscape:cy="1.8177515"
     inkscape:window-width="1920"
     inkscape:window-height="1048"
     inkscape:window-x="0"
     inkscape:window-y="0"
     inkscape:window-maximized="1"
     inkscape:current-layer="ico_shock_inactive" /><defs
     id="defs1"><style
       id="style1">
      .cls-1 {
        fill: #fff;
        fill-rule: evenodd;
      }
    </style></defs><path
     id="rect1"
     style="fill:#ebe2ca;stroke:#9f9f9f;stroke-width:0;fill-opacity:1"
     d="M 5.9980467,29.37207 0,35.370117 l 5.9980467,6 3.0000002,-3 55.0000001,16.693359 v -5.15039 L 8.9980469,32.372071 Z m 71.1054693,15.542969 -8.482422,0.15039 0.302736,40.142581 8.9375,-0.302735 z M 128,45.82324 l -6.58984,1.589846 0.83398,34.61328 L 128,84.223632 Z m -46.916016,2.886721 0.849609,31.597655 36.673827,-2.357424 V 50.85254 Z m 3.896485,3.626953 29.613281,1.742189 0.30274,20.525392 -29.386725,1.816403 z M 64.189453,72.506836 9.359375,89.993163 5.9980474,86.631836 0,92.629883 5.9980467,98.62793 9.53125,95.094727 64.189453,78.504883 Z" /></svg>
