<?xml version="1.0" encoding="UTF-8" standalone="no"?>
<svg
   id="ico_harvester_active"
   width="128"
   height="128"
   viewBox="0 0 128 128"
   version="1.1"
   sodipodi:docname="ico_harvester_active.svg"
   xml:space="preserve"
   inkscape:version="1.4.3 (0d15f75042, 2025-12-25)"
   xmlns:inkscape="http://www.inkscape.org/namespaces/inkscape"
   xmlns:sodipodi="http://sodipodi.sourceforge.net/DTD/sodipodi-0.dtd"
   xmlns="http://www.w3.org/2000/svg"
   xmlns:svg="http://www.w3.org/2000/svg"><sodipodi:namedview
     id="namedview1"
     pagecolor="#ffffff"
     bordercolor="#000000"
     borderopacity="0.25"
     inkscape:showpageshadow="2"
     inkscape:pageopacity="0.0"
     inkscape:pagecheckerboard="0"
     inkscape:deskcolor="#d1d1d1"
     inkscape:zoom="4.469136"
     inkscape:cx="63.323202"
     inkscape:cy="84.468228"
     inkscape:window-width="1920"
     inkscape:window-height="1048"
     inkscape:window-x="0"
     inkscape:window-y="0"
     inkscape:window-maximized="1"
     inkscape:current-layer="ico_harvester_active" /><defs
     id="defs1"><style
       id="style1">
      .cls-1 {
        fill: #fff;
        fill-rule: evenodd;
      }
    </style><style
       id="style1-7">
      .cls-1 {
        fill: #fff;
        fill-rule: evenodd;
      }
    </style><style
       id="style1-2">
      .cls-1 {
        fill: #fff;
        fill-rule: evenodd;
      }
    </style></defs><path
     id="path1"
     style="fill:#33302e;stroke:#9f9f9f;stroke-width:0"
     d="M 0,8.4648438 2.9277344,54.822266 29.535156,55.828125 5.0351562,65.560137 7.3840534,84.580272 43.632812,100.80273 l 5.81836,19.08768 27.50618,0.11132 1.483103,-2.96055 16.555521,-11.63301 -8.513554,-23.289029 6.152344,-29.871094 -4.921875,-10.070313 8.615234,-3.019531 -13.089844,-28.082031 -28.097656,11.787109 2.292969,6.882813 -8.384766,1.582031 -8.30664,9.175781 -9.652344,-28.953125 z"
     sodipodi:nodetypes="ccccccccccccccccccccc" /><path
     id="path4"
     style="fill:#ebe2ca;fill-opacity:1;stroke:#9f9f9f;stroke-width:0"
     d="M 7.0901106,14.879885 34.836204,45.983401 23.435814,17.340823 Z m 74.1132814,3.941406 -18.111328,6.796875 3.488281,9.294922 -13.144531,1.925782 -0.0039,0.002 -18.322265,23.509765 -15.964844,7.863282 65.492188,29.738281 -4.585938,-17.195313 5.646488,-29.267578 -6.757816,-11.160156 9.058596,-3.40039 z m -3.726563,8.207032 2.31836,6.175781 -6.177735,2.316406 -2.318359,-6.173828 z m -70.6542974,14.0625 1.423829,6.96289 25.3144534,2.53125 z m 6.3007824,29.46289 0.886718,8.972657 65.699219,29.83594 7.339842,-5.23633 z m 39.40039,32.943367 2.554688,9.62304 h 17.08789 l 0.556641,-2.10156 z" /></svg>
