<?xml version="1.0" encoding="UTF-8" standalone="no"?>
<!-- Created with Inkscape (http://www.inkscape.org/) -->

<svg
   width="512mm"
   height="512mm"
   viewBox="0 0 512 512"
   version="1.1"
   id="svg1"
   sodipodi:docname="ico_stickybomb_inactive.svg"
   inkscape:export-filename="ico_mine_inactive.svg"
   inkscape:export-xdpi="96"
   inkscape:export-ydpi="96"
   inkscape:version="1.4.3 (0d15f75, 2025-12-25)"
   xml:space="preserve"
   xmlns:inkscape="http://www.inkscape.org/namespaces/inkscape"
   xmlns:sodipodi="http://sodipodi.sourceforge.net/DTD/sodipodi-0.dtd"
   xmlns="http://www.w3.org/2000/svg"
   xmlns:svg="http://www.w3.org/2000/svg"><sodipodi:namedview
     id="namedview1"
     pagecolor="#ffffff"
     bordercolor="#000000"
     borderopacity="0.25"
     inkscape:showpageshadow="2"
     inkscape:pageopacity="0.0"
     inkscape:pagecheckerboard="0"
     inkscape:deskcolor="#d1d1d1"
     inkscape:document-units="mm"
     inkscape:zoom="0.20903117"
     inkscape:cx="545.3732"
     inkscape:cy="1681.5674"
     inkscape:window-width="1920"
     inkscape:window-height="1009"
     inkscape:window-x="1912"
     inkscape:window-y="-8"
     inkscape:window-maximized="1"
     inkscape:current-layer="svg1"><inkscape:page
       x="0"
       y="0"
       width="512"
       height="512"
       id="page2"
       margin="0"
       bleed="0" /></sodipodi:namedview><defs
     id="defs1"><style
       id="style1">
      .cls-1 {
        fill: #fff;
        fill-rule: evenodd;
      }
    </style><style
       id="style1-7">
      .cls-1 {
        fill: #fff;
        fill-rule: evenodd;
      }
    </style></defs><path
     style="fill:#33302e;stroke-width:0.264583"
     d="M 82.34254,201.3812 34.45856,90.39778 52.35911,61.7569 178.558,109.64088 224.2044,0 h 30.43094 l 51.46408,89.05524 124.85634,-70.25966 25.06078,20.58563 -48.33149,120.38121 96.72037,46.55648 -0.94933,34.49196 -98.72929,47.78245 62.65513,140.8158 -12.34117,14.87268 -146.19528,-52.52902 -34.49199,120.24725 H 243.34238 L 186.06674,408.84051 67.57458,484.65742 47.43646,464.96681 94.87292,335.63533 11.63536,298.93921 0,264.92816 Z"
     id="path2" /><path
     id="path6"
     style="fill:#ebe2ca;fill-opacity:1;stroke-width:0.264583"
     d="m 244.92446,32.909995 -26.74049,75.561275 c 7.32509,-2.52822 14.75184,-4.52478 22.21932,-5.97534 l 7.68584,-29.398207 15.77526,26.656768 c 6.02069,-0.23657 12.00703,-0.10951 17.92707,0.382409 z m 186.0827,15.187703 -98.48029,66.406802 c 6.62135,3.41832 12.88118,7.38181 18.7296,11.84682 l -0.002,-0.002 33.21968,-26.354469 -17.95859,40.133469 c 3.95316,4.20967 7.6239,8.70324 10.98796,13.45965 z M 68.968272,95.534596 122.47147,187.00446 c 3.6635,-6.13982 7.69083,-12.06322 12.05043,-17.73483 l -0.002,0.002 -19.96881,-32.56907 38.99917,11.41067 h 5.2e-4 c 4.42705,-4.21787 9.066,-8.21832 13.89734,-11.9786 z M 266.95826,121.89836 c -3.62553,0.1543 -7.26818,0.4584 -10.91923,0.89607 -3.68497,0.46705 -7.37494,1.09758 -11.06186,1.85002 -0.15336,0.0293 -0.30656,0.0586 -0.45992,0.0889 -3.36375,0.76594 -6.72365,1.581 -10.06864,2.56522 -3.66141,1.07 -7.30007,2.30929 -10.91302,3.67006 -3.64393,1.3872 -7.24865,2.94257 -10.8195,4.60747 -3.52836,1.68208 -7.00931,3.50384 -10.44536,5.43636 -3.36014,1.92899 -6.66643,3.97578 -9.91515,6.13554 -3.26516,2.20196 -6.46194,4.52311 -9.59167,6.9479 -3.14562,2.46694 -6.20283,5.05652 -9.19065,7.73286 -2.93953,2.67826 -5.78943,5.45885 -8.55607,8.32404 -2.74255,2.88657 -5.38887,5.8626 -7.94163,8.91677 -2.52691,3.07481 -4.94961,6.22787 -7.27191,9.44955 -2.27362,3.21023 -4.43801,6.48706 -6.49211,9.82369 -0.42292,0.69471 -0.84033,1.39224 -1.25212,2.09238 l 32.80317,-5.45652 a 94.719636,112.39428 42.552273 0 1 75.12513,-45.32229 94.719636,112.39428 42.552273 0 1 14.15107,-1.44901 94.719636,112.39428 42.552273 0 1 61.67324,21.66379 l 32.83004,-5.46065 c -0.4579,-0.63801 -0.92172,-1.27147 -1.39113,-1.90014 -2.03325,-2.64919 -4.17314,-5.20621 -6.42597,-7.65741 -2.31147,-2.47756 -4.74568,-4.83184 -7.2719,-7.08587 -2.52889,-2.20704 -5.16611,-4.28837 -7.88841,-6.26267 -2.74412,-1.94306 -5.58334,-3.75844 -8.50181,-5.45807 -2.94223,-1.66608 -5.96476,-3.2053 -9.06146,-4.61884 -3.11339,-1.38172 -6.30176,-2.62349 -9.55032,-3.74292 -3.23548,-1.07348 -6.5314,-2.01148 -9.88105,-2.81636 -3.42022,-0.79427 -6.89672,-1.43291 -10.4128,-1.94459 -3.52681,-0.4773 -7.09738,-0.79437 -10.69599,-0.9896 -3.51155,-0.14113 -7.04598,-0.16098 -10.60297,-0.0357 z m 114.35271,66.69722 -107.95517,15.56649 0.0739,0.046 c 2.66913,0.94681 5.21615,2.14477 7.58506,3.60753 2.82684,1.70774 5.39458,3.78766 7.69049,6.13657 1.25923,1.29812 2.42637,2.68809 3.4985,4.15582 l 66.66569,-7.99434 0.11989,77.13896 -89.6953,8.72195 v 5.1e-4 h -5.1e-4 c -2.11765,1.24278 -4.293,2.35575 -6.5133,3.31091 -3.96175,1.73091 -8.05242,2.97904 -12.15016,3.73673 -3.7527,0.69766 -7.50661,0.9496 -11.17968,0.81493 -3.42598,-0.16926 -6.78104,-0.6703 -9.98596,-1.54926 -1.86786,-0.52171 -3.68875,-1.15737 -5.44514,-1.91099 l -77.32138,7.51892 -15.06058,-70.5342 79.18276,-9.49502 c 2.07722,-2.94326 4.42982,-5.70961 6.97374,-8.27547 2.85817,-2.87009 5.99031,-5.45043 9.29194,-7.72614 0.67391,-0.45495 1.3549,-0.89666 2.04225,-1.3255 l -119.95599,17.29713 18.03715,101.57727 254.24546,-29.72946 z m 21.2416,14.18363 v 18.03714 l 34.02634,7.60781 -34.02634,14.09681 v 20.66902 l 76.22118,-37.56824 z m -152.56485,18.29087 a 31.765396,31.765396 0 0 0 -31.76551,31.76551 31.765396,31.765396 0 0 0 31.76551,31.7655 31.765396,31.765396 0 0 0 31.7655,-31.7655 31.765396,31.765396 0 0 0 -31.7655,-31.76551 z M 88.242031,247.29639 33.226268,275.61921 101.45622,304.10068 96.437916,282.52835 74.98806,274.9655 92.08314,263.80908 Z m 289.261939,71.37032 c -3.64724,6.11256 -7.65474,12.01074 -11.99204,17.65939 l 23.6306,38.65862 -39.87663,-20.19205 0.001,-0.002 c -5.27208,5.2436 -10.86363,10.17219 -16.74006,14.74587 l 98.48029,40.59959 z m -30.29996,2.49287 -37.1259,5.25808 a 94.719636,112.39428 42.552273 0 1 -60.09039,29.59716 94.719636,112.39428 42.552273 0 1 -64.95676,-11.88661 l -37.16776,5.26427 c 0.42511,0.4793 0.85439,0.95472 1.28778,1.42627 2.31147,2.47756 4.74569,4.83133 7.27191,7.08536 2.52889,2.20704 5.1661,4.28838 7.8884,6.26267 2.74412,1.94307 5.58282,3.75843 8.50129,5.45806 2.94223,1.66608 5.96528,3.2053 9.06198,4.61884 3.11339,1.38172 6.30176,2.6235 9.55032,3.74293 3.23548,1.07348 6.53089,2.012 9.88054,2.81688 3.42022,0.79426 6.89724,1.43238 10.41332,1.94406 3.52681,0.47729 7.09686,0.7949 10.69547,0.99013 3.51155,0.14113 7.04598,0.16044 10.60297,0.0351 3.62553,-0.1543 7.26818,-0.45789 10.91923,-0.89556 3.68497,-0.46705 7.37493,-1.09757 11.06185,-1.85001 3.61861,-0.77944 7.22962,-1.69139 10.82673,-2.7373 3.62621,-1.07919 7.23154,-2.3079 10.81175,-3.6587 3.60867,-1.38754 7.18007,-2.92789 10.71872,-4.57956 3.49423,-1.67408 6.94466,-3.47643 10.34924,-5.39295 3.36014,-1.92899 6.66644,-3.97528 9.91516,-6.13503 3.26516,-2.20196 6.46245,-4.52362 9.59218,-6.94841 3.14562,-2.46694 6.20283,-5.05652 9.19065,-7.73286 2.93953,-2.67826 5.78943,-5.45885 8.55607,-8.32404 2.74255,-2.88657 5.38887,-5.86209 7.94163,-8.91626 1.46961,-1.78826 2.9039,-3.60304 4.30362,-5.44256 z m -224.73254,30.92318 -53.503198,105.49072 98.480298,-66.4068 c -5.8077,-2.99827 -11.33726,-6.41602 -16.55506,-10.22367 l -39.50663,28.53056 21.94439,-44.06759 c -3.90446,-4.1703 -7.53205,-8.61814 -10.8598,-13.32322 z m 159.31999,45.11714 c -7.19192,2.48226 -14.48185,4.45208 -21.8121,5.89577 l -9.35861,32.32619 -9.29762,-29.80025 c -7.77741,0.57472 -15.51336,0.54632 -23.13916,-0.0873 l 34.9679,73.55571 z" /></svg>
