<?xml version="1.0" encoding="UTF-8" standalone="no"?>
<svg
   id="ico_sandvich_active"
   width="128"
   height="128"
   viewBox="0 0 128 128"
   version="1.1"
   sodipodi:docname="ico_sandvich_active.svg"
   inkscape:version="1.4.3 (0d15f75042, 2025-12-25)"
   xml:space="preserve"
   xmlns:inkscape="http://www.inkscape.org/namespaces/inkscape"
   xmlns:sodipodi="http://sodipodi.sourceforge.net/DTD/sodipodi-0.dtd"
   xmlns="http://www.w3.org/2000/svg"
   xmlns:svg="http://www.w3.org/2000/svg"><sodipodi:namedview
     id="namedview1"
     pagecolor="#ffffff"
     bordercolor="#000000"
     borderopacity="0.25"
     inkscape:showpageshadow="2"
     inkscape:pageopacity="0.0"
     inkscape:pagecheckerboard="0"
     inkscape:deskcolor="#d1d1d1"
     inkscape:zoom="2.3340048"
     inkscape:cx="-19.49439"
     inkscape:cy="51.199552"
     inkscape:window-width="1920"
     inkscape:window-height="1048"
     inkscape:window-x="0"
     inkscape:window-y="0"
     inkscape:window-maximized="1"
     inkscape:current-layer="ico_sandvich_active"
     showguides="false" /><defs
     id="defs1"><style
       id="style1">
      .cls-1 {
        fill: #fff;
        fill-rule: evenodd;
      }
    </style><style
       id="style1-6">
      .cls-1 {
        fill: #fff;
        fill-rule: evenodd;
      }
    </style><style
       id="style1-0">
      .cls-1 {
        fill: #fff;
        fill-rule: evenodd;
      }
    </style><style
       id="style1-7">
      .cls-1 {
        fill: #fff;
        fill-rule: evenodd;
      }
    </style></defs><path
     style="fill:#33302e;stroke:#9f9f9f;stroke-width:0"
     d="M 94.79415,128 44.77283,114.28854 9.8543071,113.9672 9.640083,99.721303 0,87.510531 11.891124,52.033136 7.8769231,47.03432 15.299408,35.597633 10.982249,14.466272 26.135336,16.388141 33.47251,1.6602365 81.512258,15.799025 92.009237,19.49439 112.92781,18.026036 112.62485,28.618821 128,36.775865 l -14.92071,29.221203 1.51479,47.460922 -16.586979,-0.68166 z"
     id="path2"
     sodipodi:nodetypes="cccccccccccccccccccc" /><path
     id="path1"
     style="fill:#ebe2ca;fill-opacity:1;stroke:#9f9f9f;stroke-width:0"
     d="M 36.462962,8.0348401 32.770215,15.920354 H 65.79287 Z M 16.411617,19.706489 19.61991,31.775042 22.604459,27.38577 31.682625,22.977043 Z m 62.578252,1.466982 -35.228964,0.12841 -17.829471,9.572348 -10.403118,15.95975 10.560712,14.372141 -7.611184,45.10871 9.796091,-11.109365 6.140311,-37.777699 -10.967342,-10.665774 6.663677,-9.860297 15.002515,-8.869987 33.666648,-0.426085 6.052759,3.463165 4.389272,-4.976841 z m 19.773124,2.212147 -1.895018,1.895014 5.484635,2.632395 5.51773,7.412733 -0.23153,-11.885666 z m -4.926257,4.926256 -4.714186,5.210315 6.130582,3.50597 6.634498,9.881698 -11.031552,10.628809 6.655899,41.612472 -67.716583,-0.06807 -6.552778,7.241522 83.419514,0.15564 -2.57014,-12.696975 -4.920423,-32.438976 10.632703,-14.33712 -10.35059,-15.99477 z m -15.062829,4.406782 -32.279435,0.280167 -13.521915,8.03338 -4.128561,5.554684 10.696904,8.753252 -4.906801,32.654936 47.116575,-53.43199 z m 33.287263,1.809408 -0.57979,3.103231 3.90287,12.488801 6.62087,-11.59188 z m -55.379541,2.151832 4.67722,3.90871 1.521459,7.089762 -2.216038,7.56449 -5.105252,5.150001 -6.046922,0.766567 -4.677221,-3.908709 -1.521457,-7.089764 2.216036,-7.564489 5.105253,-5.148056 z m 29.187879,0.435815 -51.519466,56.934068 57.109172,0.114791 -5.722007,-38.729097 10.753326,-8.716285 -4.11105,-5.57025 z m -30.481703,3.980696 -3.863959,0.490291 -3.264716,3.291954 -1.41445,4.834813 0.970854,4.5313 2.990385,2.49815 3.86396,-0.490291 3.26277,-3.291953 1.416396,-4.834815 -0.9728,-4.5313 z m -37.281571,16.28661 -2.441727,41.279782 6.334871,-36.269863 z m 90.196026,0.262656 -4.89512,4.747263 5.72589,37.978094 z m -32.308614,5.068286 4.677221,3.908709 1.521458,7.089763 -2.216038,7.56449 -5.105251,5.15 -6.046923,0.766566 -4.677221,-3.908708 -1.521458,-7.089763 2.216038,-7.564489 5.107198,-5.148056 z m -62.375909,0.82688 -7.622858,21.637008 6.31347,7.560599 z m 61.082086,3.58963 -3.86396,0.490291 -3.26277,3.291954 -1.416397,4.834814 0.972801,4.5313 2.98844,2.49815 3.86396,-0.490292 3.264716,-3.291953 1.416396,-4.834814 -0.972801,-4.5313 z m -17.360582,43.717611 33.400102,9.11708 2.179071,-9.11708 z" /></svg>
