<?xml version="1.0" encoding="UTF-8" standalone="no"?>
<!-- Created with Inkscape (http://www.inkscape.org/) -->

<svg
   width="512mm"
   height="512mm"
   viewBox="0 0 512 512"
   version="1.1"
   id="svg1"
   sodipodi:docname="ico_stickybomb_active.svg"
   inkscape:export-filename="ico_sticky_active.svg"
   inkscape:export-xdpi="96"
   inkscape:export-ydpi="96"
   inkscape:version="1.4.3 (0d15f75, 2025-12-25)"
   xml:space="preserve"
   xmlns:inkscape="http://www.inkscape.org/namespaces/inkscape"
   xmlns:sodipodi="http://sodipodi.sourceforge.net/DTD/sodipodi-0.dtd"
   xmlns="http://www.w3.org/2000/svg"
   xmlns:svg="http://www.w3.org/2000/svg"><sodipodi:namedview
     id="namedview1"
     pagecolor="#ffffff"
     bordercolor="#000000"
     borderopacity="0.25"
     inkscape:showpageshadow="2"
     inkscape:pageopacity="0.0"
     inkscape:pagecheckerboard="0"
     inkscape:deskcolor="#d1d1d1"
     inkscape:document-units="mm"
     inkscape:zoom="0.29561472"
     inkscape:cx="747.59471"
     inkscape:cy="850.76954"
     inkscape:window-width="1920"
     inkscape:window-height="1009"
     inkscape:window-x="1912"
     inkscape:window-y="-8"
     inkscape:window-maximized="1"
     inkscape:current-layer="svg1"><inkscape:page
       x="0"
       y="0"
       width="512"
       height="512"
       id="page2"
       margin="0"
       bleed="0" /></sodipodi:namedview><defs
     id="defs1"><style
       id="style1">
      .cls-1 {
        fill: #fff;
        fill-rule: evenodd;
      }
    </style><style
       id="style1-3">
      .cls-1 {
        fill: #fff;
        fill-rule: evenodd;
      }
    </style></defs><path
     style="fill:#33302e;stroke-width:0.264583"
     d="M 82.342537,201.3812 34.45856,90.397784 52.359112,61.7569 178.558,109.64088 224.2044,0 h 30.43094 l 51.46408,89.055243 124.85634,-70.259664 25.06078,20.585634 -48.33149,120.381207 96.72037,46.55648 -0.94933,34.49196 -98.72929,47.78245 62.65513,140.8158 -12.34117,14.87268 -146.19528,-52.52902 -34.49199,120.24725 H 243.34238 L 186.06674,408.84051 67.57458,484.65742 47.43646,464.96681 94.872923,335.63533 11.635358,298.93921 0,264.92816 Z"
     id="path1" /><path
     id="path9"
     style="fill:#ebe2ca;fill-opacity:1;stroke-width:0.264583"
     d="m 244.92445,32.910136 -26.74048,75.561284 c 10.45324,-3.60789 21.11356,-6.13324 31.80374,-7.53391 10.69018,-1.400708 21.35051,-1.669066 31.80375,-0.80047 z m 186.0827,15.187703 -98.48029,66.406801 c 17.99855,9.29189 33.32694,22.61184 44.9771,39.08392 z M 68.968269,95.534737 122.47146,187.00461 c 11.65016,-19.52502 26.97855,-36.86184 44.9771,-50.87028 z M 266.95825,121.8985 c -3.62553,0.1543 -7.26818,0.4584 -10.91923,0.89607 -3.68497,0.46705 -7.37494,1.09758 -11.06186,1.85002 -0.15336,0.0293 -0.30656,0.0586 -0.45992,0.0889 -3.36375,0.76594 -6.72364,1.581 -10.06863,2.56522 -3.66141,1.07 -7.30008,2.30929 -10.91303,3.67006 -3.64393,1.3872 -7.24864,2.94257 -10.81949,4.60747 -3.52836,1.68208 -7.00931,3.50384 -10.44536,5.43636 -3.36014,1.92899 -6.66644,3.97578 -9.91516,6.13554 -3.26516,2.20196 -6.46193,4.52311 -9.59166,6.9479 -3.14562,2.46694 -6.20284,5.05652 -9.19066,7.73286 -2.93953,2.67826 -5.78942,5.45885 -8.55606,8.32404 -2.74255,2.88657 -5.38888,5.8626 -7.94164,8.91677 -2.52691,3.07481 -4.9496,6.22787 -7.2719,9.44955 -2.27362,3.21023 -4.43801,6.48706 -6.49211,9.82369 -0.42292,0.69471 -0.84033,1.39224 -1.25212,2.09238 l 216.58264,-36.02467 c -0.4579,-0.63801 -0.92172,-1.27148 -1.39113,-1.90015 -2.03325,-2.64919 -4.17313,-5.20621 -6.42596,-7.65741 -2.31147,-2.47756 -4.74569,-4.83184 -7.27191,-7.08587 -2.52889,-2.20704 -5.16611,-4.28837 -7.88841,-6.26267 -2.74412,-1.94306 -5.58333,-3.75843 -8.5018,-5.45806 -2.94223,-1.66608 -5.96477,-3.2053 -9.06147,-4.61884 -3.11339,-1.38172 -6.30176,-2.6235 -9.55032,-3.74293 -3.23548,-1.07348 -6.5314,-2.01148 -9.88105,-2.81636 -3.42022,-0.79427 -6.89672,-1.43291 -10.4128,-1.94459 -3.52681,-0.4773 -7.09738,-0.79437 -10.69599,-0.9896 -3.51155,-0.14113 -7.04598,-0.16094 -10.60297,-0.0357 z m 114.35271,66.69722 -107.95517,15.5665 0.0739,0.046 c 2.66913,0.94681 5.21616,2.14477 7.58507,3.60753 2.82684,1.70774 5.39458,3.78767 7.69049,6.13658 2.40005,2.47416 4.46484,5.28112 6.17688,8.32662 1.60404,2.92236 2.90263,6.05328 3.79873,9.36377 1.05138,3.78141 1.59833,7.77864 1.65313,11.86697 0.054,3.74343 -0.33759,7.56357 -1.10226,11.36779 -0.75689,3.5558 -1.83366,7.09616 -3.26233,10.54612 -1.68434,4.02498 -3.79263,7.93483 -6.33243,11.58948 -2.19261,3.20291 -4.71267,6.20313 -7.45536,8.96947 -2.88582,2.89502 -6.04631,5.50183 -9.38547,7.78661 -3.19748,2.15246 -6.55174,4.0267 -10.01593,5.51697 -3.96175,1.73091 -8.05242,2.97904 -12.15016,3.73673 -3.7527,0.69766 -7.50661,0.9496 -11.17968,0.81493 -3.42598,-0.16926 -6.78103,-0.67029 -9.98595,-1.54925 -3.73608,-1.04353 -7.28473,-2.54281 -10.50375,-4.53048 -2.82684,-1.70776 -5.39405,-3.78766 -7.68997,-6.13657 -2.40005,-2.47415 -4.46537,-5.28061 -6.17741,-8.32611 -1.60404,-2.92236 -2.90263,-6.0538 -3.79873,-9.36429 -1.05138,-3.78141 -1.59781,-7.77813 -1.65261,-11.86646 -0.054,-3.74343 0.33707,-7.56407 1.10174,-11.36829 0.75689,-3.55581 1.83366,-7.09564 3.26233,-10.54561 1.68434,-4.02497 3.79263,-7.93587 6.33243,-11.59051 2.19261,-3.20291 4.71267,-6.20211 7.45536,-8.96845 2.85817,-2.87009 5.99031,-5.45043 9.29194,-7.72614 0.67391,-0.45495 1.3549,-0.89666 2.04225,-1.3255 l -119.95598,17.29714 18.03714,101.57726 254.24546,-29.72945 z m 21.2416,14.18363 v 60.41079 l 76.22119,-37.56825 z m -152.56485,18.29088 a 31.765396,31.765396 0 0 0 -31.7655,31.7655 31.765396,31.765396 0 0 0 31.7655,31.7655 31.765396,31.765396 0 0 0 31.7655,-31.7655 31.765396,31.765396 0 0 0 -31.7655,-31.7655 z m -161.745682,26.2263 -55.015763,28.32282 68.229945,28.48147 z m 289.261932,71.37032 c -11.65016,19.52502 -26.97855,36.86184 -44.9771,50.87028 l 98.48029,40.59959 z m -30.29996,2.49287 -199.3408,28.23291 c 0.42511,0.4793 0.85438,0.95472 1.28777,1.42627 2.31147,2.47756 4.74569,4.83132 7.27191,7.08535 2.52889,2.20704 5.16611,4.28838 7.88841,6.26267 2.74412,1.94307 5.58282,3.75843 8.50129,5.45806 2.94223,1.66608 5.96528,3.2053 9.06198,4.61884 3.11339,1.38172 6.30176,2.6235 9.55032,3.74293 3.23548,1.07348 6.53088,2.012 9.88053,2.81688 3.42022,0.79426 6.89724,1.43239 10.41332,1.94407 3.52681,0.47729 7.09686,0.79489 10.69547,0.99012 3.51155,0.14113 7.04598,0.16048 10.60297,0.0351 3.62553,-0.1543 7.26818,-0.45789 10.91923,-0.89556 3.68497,-0.46705 7.37494,-1.09757 11.06186,-1.85001 3.61861,-0.77944 7.22962,-1.69139 10.82673,-2.7373 3.62621,-1.07919 7.23153,-2.30789 10.81174,-3.65869 3.60867,-1.38754 7.18008,-2.9279 10.71873,-4.57957 3.49423,-1.67408 6.94466,-3.47643 10.34924,-5.39295 3.36014,-1.92899 6.66643,-3.97528 9.91515,-6.13503 3.26516,-2.20196 6.46245,-4.52362 9.59218,-6.94841 3.14562,-2.46694 6.20284,-5.05652 9.19066,-7.73286 2.93953,-2.67826 5.78942,-5.45885 8.55606,-8.32404 2.74255,-2.88657 5.38888,-5.86208 7.94164,-8.91625 1.46959,-1.78825 2.9039,-3.60306 4.30361,-5.44257 z M 122.47146,352.0829 68.968269,457.57362 167.44856,391.16682 c -17.99855,-9.29188 -33.32694,-22.61184 -44.9771,-39.08392 z m 159.32,45.11714 c -10.45324,3.60789 -21.11357,6.13323 -31.80375,7.53391 -10.69018,1.40071 -21.3505,1.66907 -31.80374,0.80047 l 34.96789,73.55572 z" /></svg>
