<svg id="ico_invis_inactive" xmlns="http://www.w3.org/2000/svg" xmlns:xlink="http://www.w3.org/1999/xlink" width="128" height="128" viewBox="0 0 128 128">
  <defs>
    <style>
      .cls-1, .cls-2 {
        fill-rule: evenodd;
      }

      .cls-1 {
        fill: url(#linear-gradient);
      }

      .cls-2 {
        fill: #fff;
      }
    </style>
    <linearGradient id="linear-gradient" x1="30.219" y1="65.063" x2="98.219" y2="65.063" gradientUnits="userSpaceOnUse">
      <stop offset="0.2" stop-color="#fff"/>
      <stop offset="0.5" stop-color="#fff"/>
      <stop offset="0.7" stop-color="#fff" stop-opacity="0"/>
    </linearGradient>
  </defs>
  <path id="Body" class="cls-1" d="M95.935,66.615l-21.442,9.17L67.949,70.4,56.375,84.979,55.627,91H34.709l3.735-10.538,16.4-20.839-5.189-4.269L35.83,63.4a3.72,3.72,0,0,1-5.1-1.378,3.779,3.779,0,0,1,1.367-5.141l18.93-11.011L76.4,66.793l16.617-7.107a3.725,3.725,0,0,1,4.9,1.994A3.774,3.774,0,0,1,95.935,66.615ZM72.411,58.274c-4.714,0-8.92-4.286-9.395-9.573s2.962-9.573,7.676-9.573,8.92,4.286,9.394,9.573S77.125,58.274,72.411,58.274Z"/>
  <path id="Outline" class="cls-2" d="M96.382,68.523l-21.95,9.388L68.221,72.96,58.433,85.452,58,91H53l1.722-7.633L67.488,67.053,75.5,73.51l19.43-8.343a2.262,2.262,0,0,0,1.18-2.954,2.217,2.217,0,0,0-2.92-1.193L75.61,68.569,50.593,47.744,32.825,58.08a2.253,2.253,0,0,0-.815,3.065,2.218,2.218,0,0,0,3.042.821l15.17-8.825,7.3,5.883L40.619,81.114,37,91H32l4.165-11.531L51.582,59.7l-2.2-1.751L36.907,65.205a5.914,5.914,0,0,1-8.112-2.19,6.008,6.008,0,0,1,2.174-8.173L50.654,43.39l10.289,8.147c-1.626-6.368,1.5-12.715,7.034-14.215,5.568-1.509,11.457,2.463,13.155,8.872s-1.44,12.828-7.007,14.337a9.124,9.124,0,0,1-1.494.26l4.009,3.175,15.1-6.459a5.922,5.922,0,0,1,7.786,3.17A6,6,0,0,1,96.382,68.523Zm-23.525-12.6c3.259-.883,5.051-4.8,4-8.759s-4.538-6.443-7.8-5.56-5.051,4.8-4,8.758S69.6,56.809,72.857,55.926Z"/>
</svg>
