<?xml version="1.0" encoding="UTF-8" standalone="no"?>
<!-- Created with Inkscape (http://www.inkscape.org/) -->

<svg
   width="512mm"
   height="512mm"
   viewBox="0 0 512 512"
   version="1.1"
   id="svg1"
   sodipodi:docname="dom_red.svg"
   inkscape:export-filename="ico_mine_active.svg"
   inkscape:export-xdpi="96"
   inkscape:export-ydpi="96"
   inkscape:version="1.4.3 (0d15f75042, 2025-12-25)"
   xmlns:inkscape="http://www.inkscape.org/namespaces/inkscape"
   xmlns:sodipodi="http://sodipodi.sourceforge.net/DTD/sodipodi-0.dtd"
   xmlns="http://www.w3.org/2000/svg"
   xmlns:svg="http://www.w3.org/2000/svg">
  <sodipodi:namedview
     id="namedview1"
     pagecolor="#ffffff"
     bordercolor="#000000"
     borderopacity="0.25"
     inkscape:showpageshadow="2"
     inkscape:pageopacity="0.0"
     inkscape:pagecheckerboard="0"
     inkscape:deskcolor="#d1d1d1"
     inkscape:document-units="mm"
     inkscape:zoom="0.14780736"
     inkscape:cx="331.51259"
     inkscape:cy="1038.5139"
     inkscape:window-width="1920"
     inkscape:window-height="1012"
     inkscape:window-x="0"
     inkscape:window-y="0"
     inkscape:window-maximized="1"
     inkscape:current-layer="svg1">
    <inkscape:page
       x="0"
       y="0"
       width="512"
       height="512"
       id="page2"
       margin="0"
       bleed="0" />
  </sodipodi:namedview>
  <defs
     id="defs1" />
  <path
     id="path91"
     style="display:inline;fill:#ebe2ca;fill-opacity:1;stroke-width:1.49946"
     d="m 332.21671,114.16103 -31.58514,16.09359 -16.0914,31.58576 2.48675,15.70349 4.44973,4.45192 42.97948,42.97917 15.70568,2.48737 31.58357,-16.09359 16.09359,-31.58357 -3.34301,-21.11154 -32.72315,32.72254 -26.33645,-15.7298 -14.83002,-25.43917 32.72254,-32.72285 z m -51.81726,77.53161 -49.36963,43.22055 -43.64758,49.12794 46.9023,34.76346 45.43147,-39.08921 37.29405,-44.46219 z m -118.56126,92.84722 -31.58357,16.09359 -16.09359,31.58357 3.34301,21.11154 32.72316,-32.72253 26.33707,15.7298 14.8319,25.43697 -32.72285,32.72285 21.10998,3.34332 31.58482,-16.0914 16.09453,-31.58576 -2.48769,-15.7035 -47.4314,-47.43107 z" />
</svg>
