<svg id="ico_spywalk_inactive" xmlns="http://www.w3.org/2000/svg" width="128" height="128" viewBox="0 0 128 128">
  <defs>
    <style>
      .cls-1 {
        fill: #fff;
        fill-rule: evenodd;
      }
    </style>
  </defs>
  <path id="_1" data-name="1" class="cls-1" d="M109.59,65.615L86.881,75.161l-6.93-5.6L67.692,84.732,66.9,91H44.747L48.7,80.03,66.076,58.337l-5.5-4.444L45.934,62.267a3.977,3.977,0,0,1-5.4-1.434,3.9,3.9,0,0,1,1.448-5.352L62.027,44.018,88.9,65.8l17.6-7.4a3.971,3.971,0,0,1,5.188,2.076A3.9,3.9,0,0,1,109.59,65.615ZM84.677,56.932c-4.992,0-9.447-4.462-9.95-9.966S77.864,37,82.856,37s9.447,4.462,9.95,9.966S89.669,56.932,84.677,56.932Z"/>
</svg>
