<?xml version="1.0" encoding="UTF-8" standalone="no"?>
<svg
   id="ico_invis_inactive"
   width="128"
   height="128"
   viewBox="0 0 128 128"
   version="1.1"
   sodipodi:docname="ico_invis_inactive.svg"
   inkscape:version="1.4.3 (0d15f75, 2025-12-25)"
   xmlns:inkscape="http://www.inkscape.org/namespaces/inkscape"
   xmlns:sodipodi="http://sodipodi.sourceforge.net/DTD/sodipodi-0.dtd"
   xmlns:xlink="http://www.w3.org/1999/xlink"
   xmlns="http://www.w3.org/2000/svg"
   xmlns:svg="http://www.w3.org/2000/svg">
  <sodipodi:namedview
     id="namedview3"
     pagecolor="#747474"
     bordercolor="#000000"
     borderopacity="0.25"
     inkscape:showpageshadow="2"
     inkscape:pageopacity="0.0"
     inkscape:pagecheckerboard="0"
     inkscape:deskcolor="#5d5d5d"
     inkscape:zoom="4.5796213"
     inkscape:cx="48.366445"
     inkscape:cy="66.926932"
     inkscape:window-width="1920"
     inkscape:window-height="1009"
     inkscape:window-x="1912"
     inkscape:window-y="-8"
     inkscape:window-maximized="1"
     inkscape:current-layer="ico_invis_inactive" />
  <defs
     id="defs3">
    <linearGradient
       id="linearGradient12"
       inkscape:collect="always">
      <stop
         style="stop-color:#ebe2ca;stop-opacity:1;"
         offset="0"
         id="stop12" />
      <stop
         style="stop-color:#ebe2ca;stop-opacity:0;"
         offset="1"
         id="stop13" />
    </linearGradient>
    <rect
       x="-151.93245"
       y="-211.84077"
       width="423.68154"
       height="153.16767"
       id="rect6" />
    <style
       id="style1">
      .cls-1, .cls-2 {
        fill-rule: evenodd;
      }

      .cls-1 {
        fill: url(#linear-gradient);
      }

      .cls-2 {
        fill: #fff;
      }
    </style>
    <linearGradient
       id="linear-gradient"
       x1="30.219"
       y1="65.063"
       x2="98.219"
       y2="65.063"
       gradientUnits="userSpaceOnUse">
      <stop
         offset="0.2"
         stop-color="#fff"
         id="stop1" />
      <stop
         offset="0.5"
         stop-color="#fff"
         id="stop2" />
      <stop
         offset="0.7"
         stop-color="#fff"
         stop-opacity="0"
         id="stop3" />
    </linearGradient>
    <linearGradient
       inkscape:collect="always"
       xlink:href="#linearGradient12"
       id="linearGradient11"
       x1="64.207901"
       y1="121.94716"
       x2="64.207901"
       y2="-31.880369"
       gradientUnits="userSpaceOnUse" />
  </defs>
  <path
     style="opacity:1;fill:#33302e;fill-opacity:1"
     d="M 65.05382,128 H 45.96194 L 22.53903,98.376229 14.25,28.374999 60,-9.9999999e-7 76.625,2.624999 l 36.375,25.5 -4,69.375 L 74.375,128 Z"
     id="path127"
     sodipodi:nodetypes="cccccccccc" />
  <path
     style="opacity:1;fill:url(#linearGradient11);fill-opacity:1"
     d="M 64,121.96484 44.152344,113.83398 35.861328,88.169922 23.676989,38.920314 40,16.828125 65.46875,6.0351562 96.015625,24.80664 103.38965,48.378342 94.880093,97.969379 69.442383,121.50195 Z"
     id="path7" />
  <path
     id="path86"
     style="fill:#ebe2ca;fill-opacity:1"
     d="M 62.53125 6.0351562 L 40 16.828125 L 23.96875 32.785156 L 23.28125 34.910156 L 28.90625 91.910156 L 44.152344 113.83398 L 54.583984 121.03906 L 62.53125 121.96484 L 65.46875 121.96484 L 73.416016 121.03906 L 83.847656 113.83398 L 99.09375 91.910156 L 104.71875 34.910156 L 104.03125 32.785156 L 88 16.828125 L 65.46875 6.0351562 L 62.53125 6.0351562 z M 62.822266 13.802734 L 65.177734 13.802734 L 83.244141 23.148438 L 96.097656 36.96875 L 96.648438 38.808594 L 92.138672 88.169922 L 79.914062 107.1543 L 71.550781 113.39453 L 65.177734 114.19727 L 62.822266 114.19727 L 56.449219 113.39453 L 48.085938 107.1543 L 35.861328 88.169922 L 31.351562 38.808594 L 31.902344 36.96875 L 44.755859 23.148438 L 62.822266 13.802734 z " />
  <path
     id="path127-2"
     style="fill:#33302e;fill-opacity:1"
     d="m 73.875,26.500003 -34.75,11 5,28 8.125,-7.5 -2.75,-14.5 20.125,-3.25 5.375,19.25 -18.125,7.875 3.5,17.375 4.625,0.5 3.75,-15.375 20.125,-7.125 z m -3.375,63.375 -14.75,0.75 L 57.5,101.5 68,101.125 Z" />
</svg>
