<?xml version="1.0" encoding="UTF-8" standalone="no"?>
<!-- Created with Inkscape (http://www.inkscape.org/) -->

<svg
   width="128mm"
   height="128mm"
   viewBox="0 0 128 128"
   version="1.1"
   id="svg1"
   xml:space="preserve"
   xmlns="http://www.w3.org/2000/svg"
   xmlns:svg="http://www.w3.org/2000/svg"><defs
     id="defs1" /><rect
     style="display:none;fill:#ebe2ca;fill-opacity:1;stroke-width:0.264583"
     id="rect2"
     width="128"
     height="128"
     x="-0.002112448"
     y="0.04319331" /><path
     id="path4"
     style="display:none;fill:#33302e;fill-opacity:1;stroke-width:0.238604"
     d="m 19.74792,6.2838907 -9.623702,18.4800063 42.416016,40.5691 -24.109639,35.467083 8.073409,13.1501 28.245304,-36.93986 46.740812,44.70579 6.38566,-13.72319 L 75.022066,63.575482 100.75073,29.926889 88.452254,12.504701 62.534456,50.631569 Z" /><path
     id="path3"
     style="display:none;fill:#33302e;fill-opacity:1;stroke-width:0.28315"
     d="m 75.49878,21.717569 -49.185629,1.725477 2.80448,82.839384 7.277075,-0.28835 -3.429248,-75.456894 34.671786,-1.00769 -28.62461,5.039485 1.003557,29.325859 0.01654,0.486792 1.293461,37.792008 24.832593,2.64118 h 0.0026 l 0.001,-0.0656 0.459404,0.0475 6.072498,-0.24029 1.162202,-34.327103 -6.768062,-0.0098 h -0.24908 l -18.754928,-0.02687 -0.914156,-6.888469 19.837032,-1.637109 0.196371,-0.01602 6.962882,-0.574642 z m -8.876978,83.079161 -0.460437,0.0181 v 5.2e-4 z m -0.463021,0.0181 -24.708569,0.97875 -5.055506,0.20051 29.766142,-1.17874 z m 22.818762,-58.352508 -5.112866,5.404838 4.67465,9.349817 -21.353218,1.762167 -0.205156,0.01705 -12.920658,1.066085 0.155546,4.555794 12.893787,0.0186 21.575428,0.03049 -5.843054,6.720004 3.651973,7.158219 15.192875,-16.653764 z" /><circle
     style="fill:#f4e4c3;fill-opacity:1;stroke-width:0.374177"
     id="circle1"
     cx="64"
     cy="64"
     r="64" /><circle
     style="fill:#666666;fill-opacity:1;stroke-width:0.264583"
     id="path1"
     cx="64"
     cy="64"
     r="45.254833" /><path
     style="fill:#34302e;fill-opacity:1;stroke-width:0.264583"
     d="M 52.8875,75.1125 64,52.8875 75.1125,75.1125 Z"
     id="path14" /></svg>
