<?xml version="1.0" encoding="UTF-8" standalone="no"?>
<!-- Created with Inkscape (http://www.inkscape.org/) -->

<svg
   width="1920mm"
   height="1080mm"
   viewBox="0 0 1920 1080"
   version="1.1"
   id="svg1"
   inkscape:export-filename="line_pattern_gradient.png"
   inkscape:export-xdpi="96"
   inkscape:export-ydpi="96"
   inkscape:version="1.4.3 (0d15f75042, 2025-12-25)"
   sodipodi:docname="line_pattern_gradient.svg"
   xmlns:inkscape="http://www.inkscape.org/namespaces/inkscape"
   xmlns:sodipodi="http://sodipodi.sourceforge.net/DTD/sodipodi-0.dtd"
   xmlns:xlink="http://www.w3.org/1999/xlink"
   xmlns="http://www.w3.org/2000/svg"
   xmlns:svg="http://www.w3.org/2000/svg">
  <sodipodi:namedview
     id="namedview1"
     pagecolor="#ffffff"
     bordercolor="#000000"
     borderopacity="0.25"
     inkscape:showpageshadow="2"
     inkscape:pageopacity="0.0"
     inkscape:pagecheckerboard="0"
     inkscape:deskcolor="#d1d1d1"
     inkscape:document-units="mm"
     inkscape:zoom="0.022521877"
     inkscape:cx="7548.2164"
     inkscape:cy="-5128.347"
     inkscape:window-width="1920"
     inkscape:window-height="1012"
     inkscape:window-x="0"
     inkscape:window-y="0"
     inkscape:window-maximized="1"
     inkscape:current-layer="layer1">
    <inkscape:page
       x="0"
       y="0"
       width="1920"
       height="1080"
       id="page2"
       margin="0"
       bleed="0" />
  </sodipodi:namedview>
  <defs
     id="defs1">
    <linearGradient
       id="linearGradient2"
       inkscape:collect="always">
      <stop
         style="stop-color:#f4e5c3;stop-opacity:1;"
         offset="0"
         id="stop2" />
      <stop
         style="stop-color:#f4e5c3;stop-opacity:0;"
         offset="1"
         id="stop3" />
    </linearGradient>
    <linearGradient
       inkscape:collect="always"
       xlink:href="#linearGradient2"
       id="linearGradient3"
       x1="0"
       y1="522.60071"
       x2="784.16809"
       y2="522.60071"
       gradientUnits="userSpaceOnUse"
       gradientTransform="translate(0,-2159.999)" />
  </defs>
  <g
     inkscape:label="Layer 1"
     inkscape:groupmode="layer"
     id="layer1">
    <path
       id="path41-0"
       style="fill:#f4e5c3;fill-opacity:1;stroke-width:0.666323"
       d="m 6.526134,-1079.9987 -6.5262,49.3991 v 118.35761 l 6.536,-49.46003 6.5237,-49.39798 v 0 l 9.1048,-68.8971 h -9.1048 -6.5263 v 0 z m 31.2668,0 -15.6285,118.29668 -9.1048,68.90638 v -0.0145 -0.0305 l -6.5314,49.43574 -6.5283,49.413 v 118.31629 l 6.5324,-49.43264 1.4304,-10.83138 14.2017,-107.46527 15.6306,-118.29717 15.629,-118.29663 z m 31.2617,0 -15.6306,118.29668 -15.6311,118.29717 -15.6285,118.29665 -9.1048,68.90639 v -0.0145 -0.0305 l -6.5314,49.43574 -6.5283,49.41301 v 118.30544 l 2.1544,-16.30443 v 0.008 l 4.377,-33.12511 15.6331,-118.29666 15.6306,-118.29717 15.629,-118.29665 15.6306,-118.29717 15.6311,-118.29669 z m 31.262206,0 -15.631106,118.29668 -7.8145,59.14884 -7.8166,59.14833 -15.6306,118.29665 -15.6311,118.29717 -15.6285,118.29666 -9.1048,68.90587 v -0.0145 -0.03 l -6.5314,49.43523 -6.5283,49.413 v 118.29872 l 2.1544,-16.30236 v 0.0129 l 4.377,-33.12511 15.6331,-118.29717 15.6306,-118.29666 15.629,-118.29666 15.6306,-118.29717 15.6311,-118.29665 15.629006,-118.29717 15.6347,-118.2967 z m 31.2611,0 -15.6306,118.29668 -15.6305,118.29717 -15.631106,118.29665 -7.8145,59.14885 -7.8166,59.14832 -15.6306,118.29666 -15.6311,118.29666 -15.6285,118.29717 -9.1048,68.90587 v -0.0145 -0.03 l -6.5314,49.43522 -6.5283,49.41301 V 0.00152 h 2.1544 2.3487 v 0 l 2.0252,-15.3282 15.6331,-118.29721 15.6306,-118.29665 15.629,-118.29717 15.6306,-118.29666 15.6311,-118.29666 15.629006,-118.29717 15.6347,-118.29665 15.6306,-118.29717 15.629,-118.29668 z m 31.2601,0 -15.629,118.29668 -15.6311,118.29717 -15.6306,118.29665 -15.6305,118.29717 -15.631106,118.29666 -7.8145,59.14833 -7.8166,59.14833 -15.6306,118.29717 -15.6311,118.29665 -15.6285,118.29721 -2.0257,15.3282 h 15.6306 l 2.0257,-15.3282 15.629,-118.29721 15.6306,-118.29665 15.6311,-118.29717 15.629006,-118.29666 15.6342,-118.29666 15.6311,-118.29717 15.6311,-118.29665 15.6326,-118.29717 15.629,-118.29668 z m 31.2617,0 -15.6306,118.29668 -15.6311,118.29717 -15.629,118.29665 -15.6311,118.29717 -15.6306,118.29666 -15.6305,118.29666 -15.631106,118.29717 -7.8145,59.14832 -7.8166,59.14833 -15.6306,118.29721 -2.0257,15.3282 h 15.629 l 2.0252,-15.3282 15.6311,-118.29721 15.629006,-118.29665 15.6347,-118.29717 15.6306,-118.29666 15.6311,-118.29666 15.6326,-118.29717 15.6291,-118.29665 15.631,-118.29717 15.6306,-118.29668 z m 31.2616,0 -15.6311,118.29668 -15.6285,118.29717 -15.631,118.29665 -15.6311,118.29717 -15.6285,118.29666 -15.6311,118.29666 -15.6311,118.29717 -15.6306,118.29665 -15.631106,118.29721 -2.0246,15.3282 h 15.626402 l 2.025704,-15.3282 15.6347,-118.29721 15.6306,-118.29665 15.6311,-118.29717 15.6326,-118.29666 15.629,-118.29666 15.6311,-118.29717 15.6306,-118.29665 15.6311,-118.29717 15.6305,-118.29668 z m 31.2617,0 -15.6311,118.29668 -15.6306,118.29717 -15.6311,118.29665 -15.6285,118.29717 -15.631,118.29666 -15.6311,118.29666 -15.6285,118.29717 -15.6311,118.29665 -15.6311,118.29721 -2.0247,15.3282 h 15.6306 l 2.0252,-15.3282 15.6311,-118.29721 15.6326,-118.29665 15.629,-118.29717 15.6311,-118.29666 15.6306,-118.29666 15.6311,-118.29717 15.6305,-118.29665 15.6332,-118.29717 15.6306,-118.29668 z m 31.2596,0 -15.6285,118.29668 -15.6311,118.29717 -15.6311,118.29665 -15.6306,118.29717 -15.6311,118.29666 -15.6285,118.29666 -15.631,118.29717 -15.6311,118.29665 -15.6285,118.29721 -2.0258,15.3282 h 15.6311 l 2.0252,-15.3282 15.6291,-118.29721 15.631,-118.29665 15.6306,-118.29717 15.6311,-118.29666 15.6311,-118.29666 15.6321,-118.29717 15.6311,-118.29665 15.6331,-118.29717 15.6291,-118.29668 z m 31.2616,0 -15.6305,118.29668 -15.6311,118.29717 -15.6285,118.29665 -15.6311,118.29717 -15.6311,118.29666 -15.6306,118.29666 -15.6311,118.29717 -15.6285,118.29665 -15.631,118.29721 -2.0252,15.3282 h 15.629 l 2.0252,-15.3282 15.6305,-118.29721 15.6311,-118.29665 15.6306,-118.29717 15.6332,-118.29666 15.631,-118.29666 15.6327,-118.29717 15.629,-118.29665 15.6306,-118.29717 15.6311,-118.29668 z m 31.2622,0 -15.6311,118.29668 -15.6285,118.29717 -15.6311,118.29665 -15.6311,118.29717 -15.6285,118.29666 -15.631,118.29666 -15.6306,118.29717 -15.6311,118.29665 -15.6311,118.29721 -2.0252,15.3282 h 15.6306 l 2.0257,-15.3282 15.6311,-118.29721 15.6321,-118.29665 15.6311,-118.29717 15.6331,-118.29666 15.6286,-118.29666 15.631,-118.29717 15.6311,-118.29665 15.6327,-118.29717 15.629,-118.29668 z m 31.2617,0 -15.6311,118.29668 -15.6306,118.29717 -15.6311,118.29665 -15.6285,118.29717 -15.6311,118.29666 -15.6311,118.29666 -15.6285,118.29717 -15.631,118.29665 -15.6306,118.29721 -2.0257,15.3282 h 15.6305 l 2.0258,-15.3282 15.631,-118.29721 15.6327,-118.29665 15.629,-118.29717 15.6306,-118.29666 15.6311,-118.29666 15.6331,-118.29717 15.6285,-118.29665 15.627,-118.29717 15.6311,-118.29668 z m 31.2596,0 -15.6285,118.29668 -15.6311,118.29717 -15.6311,118.29665 -15.6306,118.29717 -15.6311,118.29666 -15.6285,118.29666 -15.6311,118.29717 -15.6311,118.29665 -15.6285,118.29721 -2.0257,15.3282 h 15.6306 l 2.0257,-15.3282 15.629,-118.29721 15.6311,-118.29665 15.6306,-118.29717 15.6326,-118.29666 15.6291,-118.29666 15.6326,-118.29717 15.6311,-118.29665 15.629,-118.29717 15.6306,-118.29668 z m 31.2616,0 -15.6306,118.29668 -15.629,118.29717 -15.629,118.29665 -15.6306,118.29717 -15.631,118.29666 -15.6306,118.29666 -15.6311,118.29717 -15.629,118.29665 -15.6306,118.29721 -2.0257,15.3282 h 15.629 l 2.0257,-15.3282 15.6306,-118.29721 15.6326,-118.29665 15.6291,-118.29717 15.6331,-118.29666 15.6306,-118.29666 15.629,-118.29717 15.6306,-118.29665 15.6311,-118.29717 15.631,-118.29668 z m 31.2622,0 -15.6311,118.29668 -15.629,118.29717 -15.6306,118.29665 -15.6295,118.29717 -15.6285,118.29666 -15.6311,118.29666 -15.6306,118.29717 -15.6311,118.29665 -15.6311,118.29721 -2.0288,15.3282 h 15.6327 l 2.0257,-15.3282 15.6285,-118.29721 15.6331,-118.29665 15.6306,-118.29717 15.629,-118.29666 15.6311,-118.29666 15.6306,-118.29717 15.6306,-118.29665 15.631,-118.29717 15.6291,-118.29668 z m 31.2617,0 -15.6311,118.29668 -15.6306,118.29717 -15.6311,118.29665 -15.629,118.29717 -15.6306,118.29666 -15.6295,118.29666 -15.6285,118.29717 -15.6311,118.29665 -15.6306,118.29721 -2.0252,15.3282 h 15.6306 l 2.0252,-15.3282 15.6311,-118.29721 15.6285,-118.29665 15.6311,-118.29717 15.6311,-118.29666 15.6305,-118.29666 15.6311,-118.29717 15.6311,-118.29665 15.6228,-118.29717 15.6347,-118.29668 z m 31.2595,0 -15.629,118.29668 -15.6305,118.29717 -15.6311,118.29665 -15.6306,118.29717 -15.6311,118.29666 -15.629,118.29666 -15.6306,118.29717 -15.6295,118.29665 -15.6285,118.29721 -2.0257,15.3282 h 15.6274 l 2.0252,-15.3282 15.6311,-118.29721 15.6306,-118.29665 15.6311,-118.29717 15.6305,-118.29666 15.6311,-118.29666 15.6291,-118.29717 15.6347,-118.29665 15.6305,-118.29717 15.629,-118.29668 z m 31.2617,0 -15.6306,118.29668 -15.6311,118.29717 -15.629,118.29665 -15.6305,118.29717 -15.6311,118.29666 -15.6306,118.29666 -15.6311,118.29717 -15.629,118.29665 -15.6306,118.29721 -2.0257,15.3282 h 15.6311 l 2.0252,-15.3282 15.6306,-118.29721 15.631,-118.29665 15.6311,-118.29717 15.6291,-118.29666 15.6347,-118.29666 15.6305,-118.29717 15.629,-118.29665 15.6311,-118.29717 15.6311,-118.29668 z m 31.2617,0 -15.6311,118.29668 -15.629,118.29717 -15.6306,118.29665 -15.6311,118.29717 -15.6285,118.29666 -15.6311,118.29666 -15.6306,118.29717 -15.6311,118.29665 -15.631,118.29721 -2.0252,15.3282 h 15.631 l 2.0252,-15.3282 15.6311,-118.29721 15.6291,-118.29665 15.6347,-118.29717 15.6305,-118.29666 15.629,-118.29666 15.6311,-118.29717 15.6306,-118.29665 15.629,-118.29717 15.6285,-118.29668 z m 31.2616,0 -15.6311,118.29668 -15.6305,118.29717 -15.6311,118.29665 -15.629,118.29717 -15.6306,118.29666 -15.6311,118.29666 -15.6285,118.29717 -15.6311,118.29665 -15.6306,118.29721 -2.0252,15.3282 h 15.6265 l 2.0257,-15.3282 15.6347,-118.29721 15.6311,-118.29665 15.6285,-118.29717 15.6306,-118.29666 15.631,-118.29666 15.6291,-118.29717 15.6326,-118.29665 15.6311,-118.29717 15.6311,-118.29668 z m 31.2596,0 -15.6285,118.29668 -15.6311,118.29717 -15.6311,118.29665 -15.6305,118.29717 -15.6311,118.29666 -15.629,118.29666 -15.6306,118.29717 -15.6311,118.29665 -15.6285,118.29721 -2.0252,15.3282 h 15.6306 l 2.0257,-15.3282 15.6285,-118.29721 15.6306,-118.29665 15.631,-118.29717 15.6291,-118.29666 15.6326,-118.29666 15.6311,-118.29717 15.6311,-118.29665 15.6305,-118.29717 15.6311,-118.29668 z m 31.2617,0 -15.6306,118.29668 -15.6311,118.29717 -15.6285,118.29665 -15.6311,118.29717 -15.6311,118.29666 -15.6305,118.29666 -15.6311,118.29717 -15.629,118.29665 -15.6306,118.29721 -2.0252,15.3282 h 15.629 l 2.0252,-15.3282 15.6306,-118.29721 15.6295,-118.29665 15.6321,-118.29717 15.6311,-118.29666 15.6311,-118.29666 15.6306,-118.29717 15.6311,-118.29665 15.631,-118.29717 15.6306,-118.29668 z m 31.2621,0 -15.631,118.29668 -7.8146,59.14884 -7.8165,59.14833 -15.6306,118.29665 -15.6311,118.29717 -15.6285,118.29666 -15.6311,118.29666 -15.6311,118.29717 -15.6305,118.29665 -15.6311,118.29721 -2.0252,15.3282 h 15.629 l 2.0252,-15.3282 15.6326,-118.29721 15.6311,-118.29665 15.6311,-118.29717 15.6306,-118.29666 15.6311,-118.29666 15.631,-118.29717 15.6306,-118.29665 15.6311,-118.29717 15.6306,-118.29668 z m 31.2617,0 -15.6311,118.29668 -15.6306,118.29717 -15.631,118.29665 -7.8146,59.14885 -7.8165,59.14832 -15.6306,118.29666 -15.6311,118.29666 -15.6285,118.29717 -15.6311,118.29665 -15.6311,118.29721 -2.0247,15.3282 h 15.6306 l 2.0252,-15.3282 15.6311,-118.29721 15.6306,-118.29665 15.6311,-118.29717 15.631,-118.29666 15.6306,-118.29666 15.6311,-118.29717 15.6306,-118.29665 15.6311,-118.29717 15.6305,-118.29668 z m 31.2596,0 -15.6285,118.29668 -15.6311,118.29717 -15.6311,118.29665 -15.6306,118.29717 -15.631,118.29666 -7.8146,59.14833 -7.8165,59.14833 -15.6306,118.29717 -15.6311,118.29665 -15.6285,118.29721 -2.0252,15.3282 h 15.6285 l 2.0252,-15.3282 15.6311,-118.29721 15.6306,-118.29665 15.6311,-118.29717 15.631,-118.29666 15.6306,-118.29666 15.6311,-118.29717 15.6311,-118.29665 15.6321,-118.29717 15.6295,-118.29668 z m 31.2616,0 -15.6305,118.29668 -15.6311,118.29717 -15.6285,118.29665 -15.6311,118.29717 -15.6311,118.29666 -15.6306,118.29666 -15.631,118.29717 -7.8146,59.14832 -7.8165,59.14833 -15.6306,118.29721 -2.0252,15.3282 h 15.629 l 2.0252,-15.3282 15.6311,-118.29721 15.6306,-118.29665 15.6305,-118.29717 15.6311,-118.29666 15.6306,-118.29666 15.6332,-118.29717 15.629,-118.29665 15.6311,-118.29717 15.6321,-118.29668 z m 31.2622,0 -15.6311,118.29668 -15.629,118.29717 -15.6306,118.29665 -15.631,118.29717 -15.6291,118.29666 -15.6305,118.29666 -15.6311,118.29717 -15.6306,118.29665 -15.6311,118.29721 -2.0257,15.3282 h 15.629 l 2.0257,-15.3282 15.6306,-118.29721 15.6311,-118.29665 15.6311,-118.29717 15.6321,-118.29666 15.6295,-118.29666 15.6306,-118.29717 15.6326,-118.29665 15.6332,-118.29717 15.6306,-118.29668 z m 31.2617,0 -15.6311,118.29668 -15.6306,118.29717 -15.6311,118.29665 -15.629,118.29717 -15.6306,118.29666 -15.631,118.29666 -15.6291,118.29717 -15.6305,118.29665 -15.6311,118.29721 -2.0252,15.3282 h 15.6285 l 2.0257,-15.3282 15.6311,-118.29721 15.6321,-118.29665 15.6295,-118.29717 15.6306,-118.29666 15.6326,-118.29666 15.6332,-118.29717 15.6306,-118.29665 15.6331,-118.29717 15.6311,-118.29668 z m 31.2596,0 -15.6291,118.29668 -15.6305,118.29717 -15.6311,118.29665 -15.6306,118.29717 -15.6311,118.29666 -15.629,118.29666 -15.6306,118.29717 -15.631,118.29665 -15.6291,118.29721 -2.0252,15.3282 h 15.6311 l 2.0252,-15.3282 15.629,-118.29721 15.6306,-118.29665 15.6326,-118.29717 15.6332,-118.29666 15.6306,-118.29666 15.6331,-118.29717 15.6311,-118.29665 15.6311,-118.29717 15.6306,-118.29668 z m 31.2616,0 -15.6305,118.29668 -7.8146,59.14884 -7.815,59.14833 -15.6285,118.29665 -15.6311,118.29717 -15.6305,118.29666 -15.6311,118.29666 -15.6311,118.29717 -15.6285,118.29665 -15.6347,118.29721 -2.0257,15.3282 h 15.629 l 2.0252,-15.3282 15.6331,-118.29721 15.6327,-118.29665 15.6311,-118.29717 15.6326,-118.29666 15.6311,-118.29666 15.6306,-118.29717 15.631,-118.29665 15.6306,-118.29717 15.6311,-118.29668 z m 31.2617,0 -15.6306,118.29668 -15.629,118.29717 -15.6311,118.29665 -7.8145,59.14885 -7.8145,59.14832 -15.6285,118.29666 -15.6311,118.29666 -15.6306,118.29717 -15.6311,118.29665 -15.6311,118.29721 -2.0252,15.3282 h 15.6327 l 2.0257,-15.3282 15.6306,-118.29721 15.6331,-118.29665 15.6306,-118.29717 15.6311,-118.29666 15.6311,-118.29666 15.6305,-118.29717 15.6311,-118.29665 15.6327,-118.29717 15.6311,-118.29668 z m 31.26166,0 -15.63106,118.29668 -15.6306,118.29717 -15.6306,118.29665 -15.629,118.29717 -15.6311,118.29666 -7.8145,59.14833 -7.8145,59.14833 -15.6285,118.29717 -15.6311,118.29665 -15.6306,118.29721 -2.0257,15.3282 h 15.6311 l 2.0252,-15.3282 15.6311,-118.29721 15.6306,-118.29665 15.631,-118.29717 15.6306,-118.29666 15.6311,-118.29666 15.6326,-118.29717 15.6311,-118.29665 15.62906,-118.29717 15.6306,-118.29668 z m 31.2596,0 -15.6285,118.29668 -15.6311,118.29717 -15.63106,118.29665 -15.6306,118.29717 -15.6306,118.29666 -15.629,118.29666 -15.6311,118.29717 -7.8145,59.14832 -7.8145,59.14833 -15.6285,118.29721 -2.0257,15.3282 h 15.629 l 2.0252,-15.3282 15.6311,-118.29721 15.6311,-118.29665 15.6305,-118.29717 15.6327,-118.29666 15.6311,-118.29666 15.62906,-118.29717 15.6306,-118.29665 15.6331,-118.29717 15.6311,-118.29668 z m 31.2622,0 -15.6311,118.29668 -15.629,118.29717 -15.6285,118.29665 -15.6311,118.29717 -15.63066,118.29666 -15.6311,118.29666 -15.6326,118.29717 -15.629,118.29665 -15.6311,118.29721 -2.0252,15.3282 h 15.629 l 2.0252,-15.3282 15.6311,-118.29721 15.6326,-118.29665 15.6311,-118.29717 15.62856,-118.29666 15.6311,-118.29666 15.6285,-118.29717 15.6311,-118.29665 15.6311,-118.29717 15.6347,-118.29668 z m 31.2617,0 -15.6311,118.29668 -15.6285,118.29717 -15.6311,118.29665 -15.629,118.29717 -15.629,118.29666 -15.6306,118.29666 -15.63116,118.29717 -15.6347,118.29665 -15.6306,118.29721 -2.0257,15.3282 h 15.6326 l 2.0257,-15.3282 15.6311,-118.29721 15.62856,-118.29665 15.6311,-118.29717 15.6285,-118.29666 15.6311,-118.29666 15.6311,-118.29717 15.6306,-118.29665 15.629,-118.29717 15.6368,-118.29668 z m 31.2616,0 -15.6311,118.29668 -15.6305,118.29717 -15.6311,118.29665 -15.6285,118.29717 -15.6311,118.29666 -15.629,118.29666 -15.629,118.29717 -15.6306,118.29665 -15.63116,118.29721 -2.0252,15.3282 h 15.62696 l 2.0252,-15.3282 15.6311,-118.29721 15.6285,-118.29665 15.6311,-118.29717 15.6311,-118.29666 15.6306,-118.29666 15.629,-118.29717 15.6326,-118.29665 15.6291,-118.29717 15.6331,-118.29668 z m 31.2596,0 -15.6285,118.29668 -15.6311,118.29717 -15.6311,118.29665 -15.6305,118.29717 -15.6311,118.29666 -15.6285,118.29666 -15.6311,118.29717 -15.629,118.29665 -15.629,118.29721 -2.0252,15.3282 h 15.629 l 2.0252,-15.3282 15.6311,-118.29721 15.631,-118.29665 15.6306,-118.29717 15.629,-118.29666 15.6327,-118.29666 15.629,-118.29717 15.6326,-118.29665 15.6311,-118.29717 15.6249,-118.29668 z m 31.2622,0 -15.6311,118.29668 -15.6311,118.29717 -15.6285,118.29665 -15.6311,118.29717 -15.6311,118.29666 -15.6305,118.29666 -15.6311,118.29717 -15.6285,118.29665 -15.6311,118.29721 -2.0257,15.3282 h 15.6311 l 2.0257,-15.3282 15.6305,-118.29721 15.6291,-118.29665 15.6326,-118.29717 15.629,-118.29666 15.6327,-118.29666 15.6305,-118.29717 15.6296,-118.29665 15.629,-118.29717 15.6306,-118.29668 z m 31.2616,0 -15.631,118.29668 -7.8145,59.14884 -7.8161,59.14833 -15.6311,118.29665 -15.6311,118.29717 -15.6285,118.29666 -15.6311,118.29666 -15.6311,118.29717 -15.6305,118.29665 -15.6311,118.29721 -2.0252,15.3282 h 15.629 l 2.0252,-15.3282 15.6326,-118.29721 15.6291,-118.29665 15.6331,-118.29717 15.6306,-118.29666 15.629,-118.29666 15.6326,-118.29717 15.6311,-118.29665 15.6249,-118.29717 15.6352,-118.29668 z m 31.2617,0 -15.6306,118.29668 -15.6311,118.29717 -15.631,118.29665 -7.8145,59.14885 -7.8161,59.14832 -15.6311,118.29666 -15.6311,118.29666 -15.6285,118.29717 -15.6311,118.29665 -15.6311,118.29721 -2.0252,15.3282 h 15.6291 l 2.0252,-15.3282 15.6331,-118.29721 15.6306,-118.29665 15.629,-118.29717 15.6326,-118.29666 15.6311,-118.29666 15.629,-118.29717 15.6348,-118.29665 15.6305,-118.29717 15.627,-118.29668 z m 31.2596,0 -15.629,118.29668 -15.6306,118.29717 -15.6306,118.29665 -15.6311,118.29717 -15.631,118.29666 -7.8145,59.14833 -7.8161,59.14833 -15.6311,118.29717 -15.6311,118.29665 -15.6285,118.29721 -2.0257,15.3282 h 15.6306 l 2.0257,-15.3282 15.629,-118.29721 15.6326,-118.29665 15.6311,-118.29717 15.629,-118.29666 15.6348,-118.29666 15.6305,-118.29717 15.6311,-118.29665 15.6326,-118.29717 15.6291,-118.29668 z m 31.2617,0 -15.6306,118.29668 -15.6311,118.29717 -15.629,118.29665 -15.6306,118.29717 -15.6306,118.29666 -15.6311,118.29666 -15.631,118.29717 -7.8145,59.14832 -7.8161,59.14833 -15.6311,118.29721 -2.0257,15.3282 h 15.6311 l 2.0257,-15.3282 15.6306,-118.29721 15.6285,-118.29665 15.6352,-118.29717 15.6306,-118.29666 15.631,-118.29666 15.6332,-118.29717 15.6285,-118.29665 15.627,-118.29717 15.631,-118.29668 z m 31.2616,0 -15.6306,118.29668 -15.629,118.29717 -15.6311,118.29665 -15.6305,118.29717 -15.6291,118.29666 -15.631,118.29666 -15.6306,118.29717 -15.6311,118.29665 -15.6306,118.29721 -2.0252,15.3282 h 15.627 l 2.0252,-15.3282 15.6347,-118.29721 15.6306,-118.29665 15.631,-118.29717 15.6332,-118.29666 15.629,-118.29666 15.6321,-118.29717 15.6311,-118.29665 15.6311,-118.29717 15.6244,-118.29668 z m 31.2617,0 -15.6311,118.29668 -15.6306,118.29717 -15.6306,118.29665 -15.629,118.29717 -15.6311,118.29666 -15.6305,118.29666 -15.6291,118.29717 -15.631,118.29665 -15.6306,118.29721 -2.0252,15.3282 h 15.6306 l 2.0252,-15.3282 15.631,-118.29721 15.6332,-118.29665 15.629,-118.29717 15.6321,-118.29666 15.6311,-118.29666 15.6311,-118.29717 15.6306,-118.29665 15.6249,-118.29717 15.6311,-118.29668 z m 31.2601,0 -15.629,118.29668 -15.6311,118.29717 -15.6311,118.29665 -15.6306,118.29717 -15.6306,118.29666 -15.629,118.29666 -15.6311,118.29717 -15.6305,118.29665 -15.6291,118.29721 -2.0252,15.3282 h 15.6306 l 2.0257,-15.3282 15.6285,-118.29721 15.6332,-118.29665 15.6306,-118.29717 15.631,-118.29666 15.6311,-118.29666 15.6327,-118.29717 15.6311,-118.29665 15.6243,-118.29717 15.629,-118.29668 z m 31.2616,0 -15.6311,118.29668 -15.6305,118.29717 -15.629,118.29665 -15.6311,118.29717 -15.6311,118.29666 -15.6306,118.29666 -15.6306,118.29717 -15.629,118.29665 -15.6311,118.29721 -2.0252,15.3282 h 15.6311 l 2.0252,-15.3282 15.6311,-118.29721 15.6306,-118.29665 15.6311,-118.29717 15.6326,-118.29666 15.6306,-118.29666 15.6331,-118.29717 15.629,-118.29665 15.6249,-118.29717 15.6306,-118.29668 z m 31.2617,0 -15.6311,118.29668 -15.6285,118.29717 -15.6311,118.29665 -15.6311,118.29717 -15.6285,118.29666 -15.6311,118.29666 -15.6305,118.29717 -15.6311,118.29665 -15.6306,118.29721 -2.0257,15.3282 h 15.6311 l 2.0252,-15.3282 15.6311,-118.29721 15.6326,-118.29665 15.6306,-118.29717 15.6331,-118.29666 15.629,-118.29666 15.6327,-118.29717 15.6306,-118.29665 15.631,-118.29717 15.6229,-118.29668 z m 31.2617,0 -15.6311,118.29668 -15.6306,118.29717 -15.6311,118.29665 -15.6285,118.29717 -15.6311,118.29666 -15.6311,118.29666 -15.6285,118.29717 -15.6311,118.29665 -15.6305,118.29721 -2.0257,15.3282 h 15.631 l 2.0252,-15.3282 15.6311,-118.29721 15.6327,-118.29665 15.6285,-118.29717 15.6331,-118.29666 15.6311,-118.29666 15.6306,-118.29717 15.6311,-118.29665 15.6249,-118.29717 15.631,-118.29668 z m 31.2595,0 -15.6285,118.29668 -15.631,118.29717 -15.6311,118.29665 -15.6306,118.29717 -15.6311,118.29666 -15.6285,118.29666 -15.6311,118.29717 -15.6311,118.29665 -15.6285,118.29721 -2.0257,15.3282 h 15.6311 l 2.0257,-15.3282 15.6285,-118.29721 15.6327,-118.29665 15.631,-118.29717 15.6311,-118.29666 15.6306,-118.29666 15.6326,-118.29717 15.6311,-118.29665 15.6228,-118.29717 15.6311,-118.29668 z m 31.2622,0 -15.6311,118.29668 -15.629,118.29717 -15.629,118.29665 -15.6306,118.29717 -15.6306,118.29666 -15.631,118.29666 -15.6311,118.29717 -15.629,118.29665 -15.6306,118.29721 -2.0252,15.3282 h 15.6306 l 2.0252,-15.3282 15.631,-118.29721 15.6311,-118.29665 15.6306,-118.29717 15.6326,-118.29666 15.6311,-118.29666 15.6311,-118.29717 15.6306,-118.29665 15.6306,-118.29717 15.6233,-118.29668 z m 31.2617,0 -15.6311,118.29668 -15.629,118.29717 -15.6306,118.29665 -15.629,118.29717 -15.629,118.29666 -15.6306,118.29666 -15.6311,118.29717 -15.6306,118.29665 -15.6311,118.29721 -2.0252,15.3282 h 15.6306 l 2.0257,-15.3282 15.6306,-118.29721 15.6326,-118.29665 15.6311,-118.29717 15.6311,-118.29666 15.6306,-118.29666 15.6306,-118.29717 15.631,-118.29665 15.6311,-118.29717 15.6228,-118.29668 z m 31.2616,0 -15.6311,118.29668 -15.6305,118.29717 -15.6311,118.29665 -15.629,118.29717 -15.6306,118.29666 -15.629,118.29666 -15.629,118.29717 -15.6306,118.29665 -15.6311,118.29721 -2.0252,15.3282 h 15.6306 l 2.0257,-15.3282 15.6306,-118.29721 15.631,-118.29665 15.6306,-118.29717 15.6311,-118.29666 15.6311,-118.29666 15.6306,-118.29717 15.631,-118.29665 15.6208,-118.29717 15.6352,-118.29668 z m 31.2596,0 -15.6285,118.29668 -15.6311,118.29717 -15.6311,118.29665 -15.6305,118.29717 -15.6311,118.29666 -15.629,118.29666 -15.6306,118.29717 -15.629,118.29665 -15.629,118.29721 -2.0252,15.3282 h 15.629 l 2.0252,-15.3282 15.6305,-118.29721 15.6311,-118.29665 15.6306,-118.29717 15.6311,-118.29666 15.6311,-118.29666 15.6285,-118.29717 15.6347,-118.29665 15.6311,-118.29717 15.6233,-118.29668 z m 31.2622,0 -15.6311,118.29668 -15.6311,118.29717 -15.6285,118.29665 -15.6311,118.29717 -15.6311,118.29666 -15.6305,118.29666 -15.6311,118.29717 -15.629,118.29665 -15.6306,118.29721 -2.0257,15.3282 h 15.6311 l 2.0252,-15.3282 15.6311,-118.29721 15.6305,-118.29665 15.6306,-118.29717 15.6295,-118.29666 15.6347,-118.29666 15.6306,-118.29717 15.629,-118.29665 15.6275,-118.29717 15.6306,-118.29668 z m 31.2611,0 -15.6305,118.29668 -15.6291,118.29717 -15.631,118.29665 -15.6311,118.29717 -15.6285,118.29666 -15.6311,118.29666 -15.6311,118.29717 -15.6306,118.29665 -15.6305,118.29721 -2.0258,15.3282 h 15.6311 l 2.0252,-15.3282 15.6306,-118.29721 15.6295,-118.29665 15.6347,-118.29717 15.6306,-118.29666 15.629,-118.29666 15.6327,-118.29717 15.6311,-118.29665 15.629,-118.29717 4.2617,-32.26264 11.3694,-86.03404 h -15.627 z m 31.2617,0 -15.6306,118.29668 -15.6311,118.29717 -15.6305,118.29665 -15.6291,118.29717 -15.631,118.29666 -15.6311,118.29666 -15.6285,118.29717 -15.6311,118.29665 -15.6311,118.29721 -2.0247,15.3282 h 15.6264 l 2.0258,-15.3282 15.6347,-118.29721 15.6305,-118.29665 15.6291,-118.29717 15.6331,-118.29666 15.6306,-118.29666 11.6732,-88.35481 3.9563,-29.94236 15.6327,-118.29665 15.6305,-118.29717 15.629,-118.29668 h -15.629 z m 31.2601,0 -15.629,118.29668 -15.6311,118.29717 -15.6306,118.29665 -15.6311,118.29717 -15.6305,118.29666 -15.6291,118.29666 -15.631,118.29717 -15.6311,118.29665 -15.6285,118.29721 -2.0252,15.3282 h 15.6305 l 2.0252,-15.3282 15.6291,-118.29721 15.6331,-118.29665 15.6306,-118.29717 13.5997,-102.93842 2.0298,-15.35824 15.6327,-118.29666 15.6305,-118.29717 15.6311,-118.29665 5.6818,-43.01702 9.9467,-75.28015 15.6311,-118.29668 h -15.6269 z m 31.2617,0 -15.6311,118.29668 -15.6306,118.29717 -15.629,118.29665 -15.6311,118.29717 -15.6306,118.29666 -15.6311,118.29666 -15.6305,118.29717 -15.6291,118.29665 -15.631,118.29721 -2.0252,15.3282 h 15.631 l 2.0252,-15.3282 15.6306,-118.29721 11.2541,-85.18291 v 0.0114 l 4.3775,-33.12511 15.6327,-118.29717 15.6305,-118.29666 15.629,-118.29666 15.6311,-118.29717 15.6306,-118.29665 15.629,-118.29717 15.6347,-118.29671 h -0.01 -15.6264 z m 31.2616,0 -15.6311,118.29668 -7.8145,59.14884 -7.816,59.14833 -15.6311,118.29665 -15.6306,118.29717 -15.629,118.29666 -15.6311,118.29666 -15.6306,118.29717 -15.6311,118.29665 -15.6305,118.29721 -2.0257,15.3282 h 13.2813 2.3477 l 2.0257,-15.3282 15.6326,-118.29721 15.6306,-118.29665 15.629,-118.29717 15.6306,-118.29666 15.6311,-118.29666 7.8145,-59.14884 7.8166,-59.14833 7.8155,-59.14833 7.8171,-59.14832 15.6311,-118.29717 15.6331,-118.29668 h -15.6269 z m 31.2617,0 -15.6306,118.29668 -15.6311,118.29717 -15.6311,118.29665 -7.8145,59.14885 -7.816,59.14832 -15.6311,118.29666 -15.6306,118.29666 -15.629,118.29717 -15.6311,118.29665 -15.6306,118.29721 -2.0252,15.3282 h 15.627 l 2.0252,-15.3282 15.629,-118.29721 15.6306,-118.29665 15.6311,-118.29717 7.8145,-59.14833 7.8165,-59.14833 7.8156,-59.14833 7.8171,-59.14833 15.6311,-118.29717 15.6305,-118.29665 15.6332,-118.29717 15.6362,-118.29668 h -0.01 z m 31.2596,0 -15.6285,118.29668 -15.6291,118.29717 -15.631,118.29665 -15.6306,118.29717 -15.6306,118.29666 -7.8145,59.14833 -7.8166,59.14833 -15.6311,118.29717 -15.6305,118.29665 -15.6291,118.29721 -2.0257,15.3282 h 6e-4 15.6285 l 2.0257,-15.3282 15.6305,-118.29721 15.6332,-118.29665 15.6306,-118.29717 15.6326,-118.29666 15.6311,-118.29666 15.6311,-118.29717 15.6305,-118.29665 15.6327,-118.29717 6.5236,-49.39798 v -68.8987 h -6.5293 z m 6.5334,187.15811 -6.5314,49.43574 -15.629,118.29665 -15.6285,118.29717 -15.6311,118.29666 -15.6311,118.29666 -15.6305,118.29717 -7.8145,59.14832 -7.8161,59.14833 -15.6311,118.29721 -2.0252,15.3282 h 15.627 l 2.0257,-15.3282 7.8155,-59.1489 7.8171,-59.14831 15.6311,-118.29665 15.6306,-118.29717 15.6331,-118.29666 15.6285,-118.29666 15.6327,-118.29717 3.0184,-22.857 3.5088,-26.55549 v -118.28942 z m 0,236.59382 -6.5314,49.43574 -15.629,118.29666 -15.6285,118.29666 -15.6311,118.29717 -15.6311,118.29665 -15.6305,118.29721 -2.0252,15.3282 h 15.6285 l 2.0257,-15.3282 15.6306,-118.29721 15.6331,-118.29665 15.6285,-118.29717 15.6311,-118.29666 6.5293,-49.41559 v -118.28632 z m 0,236.59383 -6.5314,49.43523 -15.629,118.29717 -15.6285,118.29665 -15.6311,118.29721 -2.0252,15.3282 h 15.629 l 2.0247,-15.3282 15.6296,-118.29721 3.1259,-23.65954 12.5067,-94.63711 3.4515,-26.13898 3.0778,-23.29366 v -118.26979 z m 0,236.59383 -6.5314,49.43522 -15.629,118.29721 -2.0252,15.3282 h 15.629 l 2.0258,-15.3282 2.5889,-19.604 3.9419,-29.8338 v -118.26466 z" />
    <path
       id="path1"
       style="fill:url(#linearGradient3);fill-opacity:1;stroke-width:0.666323"
       d="M 6.5262166,-2159.999 0,-2110.5999 v 118.3576 l 6.5360352,-49.46 6.5236328,-49.3981 v 0 l 9.104871,-68.8971 h -9.104871 -6.5262167 -0.0031 z m 31.2668254,0 -15.628503,118.2967 -9.104871,68.9064 v -0.014 -0.03 L 6.5282837,-1923.4051 0,-1873.9921 v 118.3162 l 6.5324178,-49.4326 1.4304037,-10.8314 14.2017175,-107.4652 15.63057,-118.2972 15.62902,-118.2967 z m 31.261658,0 -15.630571,118.2967 -15.631087,118.2972 -15.628503,118.2966 -9.104871,68.9064 v -0.014 -0.031 L 6.5282837,-1686.8113 0,-1637.3983 v 118.3054 l 2.1543905,-16.3044 v 0.01 l 4.3769938,-33.1251 15.6331547,-118.2967 15.63057,-118.2971 15.62902,-118.2967 15.630571,-118.2972 15.631087,-118.2966 z m 31.26217,0 -15.631083,118.2967 -7.81451,59.1488 -7.816577,59.1484 -15.630571,118.2966 -15.631087,118.2972 -15.628503,118.2966 -9.104871,68.9059 v -0.014 -0.03 L 6.5282837,-1450.218 0,-1400.805 v 118.2987 l 2.1543905,-16.3024 v 0.013 l 4.3769938,-33.1252 15.6331547,-118.2971 15.63057,-118.2967 15.62902,-118.2966 15.630571,-118.2972 15.631087,-118.2967 15.629023,-118.2971 15.6347,-118.2967 z m 31.26115,0 -15.63058,118.2967 -15.63057,118.2972 -15.631083,118.2966 -7.81451,59.1489 -7.816577,59.1483 -15.630571,118.2966 -15.631087,118.2967 -15.628503,118.2972 -9.104871,68.9058 v -0.014 -0.03 L 6.5282837,-1213.6242 0,-1164.2112 v 84.2124 h 2.1543905 2.3486938 0.0031 l 2.0251994,-15.3282 15.6331543,-118.2972 15.63057,-118.2966 15.62902,-118.2972 15.630571,-118.2967 15.631087,-118.2966 15.629024,-118.2972 15.6347,-118.2966 15.63057,-118.2972 15.62902,-118.2967 z m 31.2601,0 -15.62902,118.2967 -15.63108,118.2972 -15.63058,118.2966 -15.63057,118.2972 -15.631083,118.2966 -7.81451,59.1484 -7.816577,59.1483 -15.630571,118.2972 -15.631087,118.2966 -15.628503,118.2972 -2.025717,15.3282 h 15.630571 l 2.025716,-15.3282 15.62902,-118.2972 15.630571,-118.2966 15.631087,-118.2972 15.629023,-118.2967 15.63418,-118.2966 15.63109,-118.2972 15.63109,-118.2966 15.63264,-118.2972 15.62902,-118.2967 z m 31.26166,0 -15.63057,118.2967 -15.63109,118.2972 -15.62902,118.2966 -15.63108,118.2972 -15.63058,118.2966 -15.63057,118.2967 -15.631083,118.2972 -7.81451,59.1483 -7.816577,59.1483 -15.630571,118.2972 -2.025716,15.3282 h 15.62902 l 2.0252,-15.3282 15.631087,-118.2972 15.62902,-118.2966 15.6347,-118.2972 15.63058,-118.2967 15.63108,-118.2966 15.63264,-118.2972 15.62902,-118.2966 15.63109,-118.2972 15.63057,-118.2967 z m 31.26166,0 -15.63109,118.2967 -15.6285,118.2972 -15.63109,118.2966 -15.63109,118.2972 -15.6285,118.2966 -15.63109,118.2967 -15.63109,118.2972 -15.63057,118.2966 -15.631083,118.2972 -2.024682,15.3282 h 15.626436 l 2.025719,-15.3282 15.6347,-118.2972 15.63057,-118.2966 15.63109,-118.2972 15.63264,-118.2967 15.62902,-118.2966 15.63108,-118.2972 15.63057,-118.2966 15.63109,-118.2972 15.63057,-118.2967 z m 31.26166,0 -15.63109,118.2967 -15.63057,118.2972 -15.63109,118.2966 -15.6285,118.2972 -15.63109,118.2966 -15.63109,118.2967 -15.6285,118.2972 -15.63109,118.2966 -15.63109,118.2972 -2.02468,15.3282 h 15.63057 l 2.0252,-15.3282 15.63109,-118.2972 15.63264,-118.2966 15.62902,-118.2972 15.63108,-118.2967 15.63057,-118.2966 15.63109,-118.2972 15.63057,-118.2966 15.63316,-118.2972 15.63057,-118.2967 z m 31.25959,0 -15.62851,118.2967 -15.63108,118.2972 -15.63109,118.2966 -15.63057,118.2972 -15.63109,118.2966 -15.6285,118.2967 -15.63109,118.2972 -15.63109,118.2966 -15.6285,118.2972 -2.02572,15.3282 h 15.63109 l 2.0252,-15.3282 15.62902,-118.2972 15.63109,-118.2966 15.63057,-118.2972 15.63109,-118.2967 15.63108,-118.2966 15.63212,-118.2972 15.63109,-118.2966 15.63315,-118.2972 15.62902,-118.2967 z m 31.26165,0 -15.63057,118.2967 -15.63108,118.2972 -15.62851,118.2966 -15.63108,118.2972 -15.63109,118.2966 -15.63057,118.2967 -15.63109,118.2972 -15.6285,118.2966 -15.63109,118.2972 -2.0252,15.3282 h 15.62902 l 2.0252,-15.3282 15.63057,-118.2972 15.63109,-118.2966 15.63057,-118.2972 15.63315,-118.2967 15.63109,-118.2966 15.63264,-118.2972 15.62902,-118.2966 15.63057,-118.2972 15.63109,-118.2967 z m 31.26218,0 -15.63109,118.2967 -15.6285,118.2972 -15.63109,118.2966 -15.63109,118.2972 -15.6285,118.2966 -15.63109,118.2967 -15.63057,118.2972 -15.63108,118.2966 -15.63109,118.2972 -2.0252,15.3282 h 15.63057 l 2.02572,-15.3282 15.63108,-118.2972 15.63212,-118.2966 15.63109,-118.2972 15.63315,-118.2967 15.62851,-118.2966 15.63109,-118.2972 15.63108,-118.2966 15.63264,-118.2972 15.62902,-118.2967 z m 31.26166,0 -15.63109,118.2967 -15.63057,118.2972 -15.63109,118.2966 -15.6285,118.2972 -15.63109,118.2966 -15.63109,118.2967 -15.6285,118.2972 -15.63109,118.2966 -15.63057,118.2972 -2.02571,15.3282 h 15.63057 l 2.02571,-15.3282 15.63109,-118.2972 15.63264,-118.2966 15.62902,-118.2972 15.63057,-118.2967 15.63109,-118.2966 15.63315,-118.2972 15.6285,-118.2966 15.62696,-118.2972 15.63108,-118.2967 z m 31.25959,0 -15.62851,118.2967 -15.63108,118.2972 -15.63109,118.2966 -15.63057,118.2972 -15.63109,118.2966 -15.6285,118.2967 -15.63109,118.2972 -15.63109,118.2966 -15.6285,118.2972 -2.02572,15.3282 h 15.63057 l 2.02572,-15.3282 15.62902,-118.2972 15.63109,-118.2966 15.63057,-118.2972 15.63264,-118.2967 15.62902,-118.2966 15.63263,-118.2972 15.63109,-118.2966 15.62902,-118.2972 15.63057,-118.2967 z m 31.26165,0 -15.63057,118.2967 -15.62902,118.2972 -15.62902,118.2966 -15.63057,118.2972 -15.63108,118.2966 -15.63057,118.2967 -15.63109,118.2972 -15.62902,118.2966 -15.63057,118.2972 -2.02572,15.3282 h 15.62902 l 2.02572,-15.3282 15.63057,-118.2972 15.63264,-118.2966 15.62902,-118.2972 15.63315,-118.2967 15.63057,-118.2966 15.62902,-118.2972 15.63057,-118.2966 15.63109,-118.2972 15.63109,-118.2967 z m 31.26218,0 -15.63109,118.2967 -15.62902,118.2972 -15.63057,118.2966 -15.62954,118.2972 -15.6285,118.2966 -15.63109,118.2967 -15.63057,118.2972 -15.63108,118.2966 -15.63109,118.2972 -2.02882,15.3282 h 15.63264 l 2.02572,-15.3282 15.6285,-118.2972 15.63315,-118.2966 15.63057,-118.2972 15.62902,-118.2967 15.63109,-118.2966 15.63057,-118.2972 15.63057,-118.2966 15.63109,-118.2972 15.62902,-118.2967 z m 31.26166,0 -15.63109,118.2967 -15.63057,118.2972 -15.63109,118.2966 -15.62902,118.2972 -15.63057,118.2966 -15.62954,118.2967 -15.6285,118.2972 -15.63109,118.2966 -15.63057,118.2972 -2.0252,15.3282 h 15.63057 l 2.0252,-15.3282 15.63109,-118.2972 15.6285,-118.2966 15.63109,-118.2972 15.63109,-118.2967 15.63057,-118.2966 15.63109,-118.2972 15.63108,-118.2966 15.62282,-118.2972 15.63471,-118.2967 z m 31.25959,0 -15.62902,118.2967 -15.63057,118.2972 -15.63109,118.2966 -15.63057,118.2972 -15.63109,118.2966 -15.62902,118.2967 -15.63057,118.2972 -15.62954,118.2966 -15.6285,118.2972 -2.02572,15.3282 h 15.62747 l 2.0252,-15.3282 15.63109,-118.2972 15.63057,-118.2966 15.63109,-118.2972 15.63057,-118.2967 15.63109,-118.2966 15.62902,-118.2972 15.6347,-118.2966 15.63057,-118.2972 15.62902,-118.2967 z m 31.26166,0 -15.63058,118.2967 -15.63108,118.2972 -15.62902,118.2966 -15.63057,118.2972 -15.63109,118.2966 -15.63057,118.2967 -15.63109,118.2972 -15.62902,118.2966 -15.63057,118.2972 -2.02571,15.3282 h 15.63108 l 2.0252,-15.3282 15.63057,-118.2972 15.63109,-118.2966 15.63109,-118.2972 15.62902,-118.2967 15.6347,-118.2966 15.63057,-118.2972 15.62902,-118.2966 15.63109,-118.2972 15.63109,-118.2967 z m 31.26165,0 -15.63108,118.2967 -15.62902,118.2972 -15.63057,118.2966 -15.63109,118.2972 -15.62851,118.2966 -15.63108,118.2967 -15.63057,118.2972 -15.63109,118.2966 -15.63109,118.2972 -2.0252,15.3282 h 15.63109 l 2.0252,-15.3282 15.63109,-118.2972 15.62902,-118.2966 15.6347,-118.2972 15.63057,-118.2967 15.62902,-118.2966 15.63109,-118.2972 15.63057,-118.2966 15.62902,-118.2972 15.6285,-118.2967 z m 31.26166,0 -15.63109,118.2967 -15.63057,118.2972 -15.63108,118.2966 -15.62902,118.2972 -15.63057,118.2966 -15.63109,118.2967 -15.62851,118.2972 -15.63108,118.2966 -15.63057,118.2972 -2.0252,15.3282 h 15.62643 l 2.02572,-15.3282 15.6347,-118.2972 15.63109,-118.2966 15.62851,-118.2972 15.63057,-118.2967 15.63108,-118.2966 15.62902,-118.2972 15.63264,-118.2966 15.63109,-118.2972 15.63108,-118.2967 z m 31.25959,0 -15.6285,118.2967 -15.63109,118.2972 -15.63109,118.2966 -15.63057,118.2972 -15.63108,118.2966 -15.62902,118.2967 -15.63057,118.2972 -15.63109,118.2966 -15.62851,118.2972 -2.0252,15.3282 h 15.63058 l 2.02571,-15.3282 15.62851,-118.2972 15.63057,-118.2966 15.63108,-118.2972 15.62902,-118.2967 15.63264,-118.2966 15.63109,-118.2972 15.63108,-118.2966 15.63058,-118.2972 15.63108,-118.2967 z m 31.26166,0 -15.63057,118.2967 -15.63109,118.2972 -15.6285,118.2966 -15.63109,118.2972 -15.63109,118.2966 -15.63057,118.2967 -15.63108,118.2972 -15.62902,118.2966 -15.63057,118.2972 -2.0252,15.3282 h 15.62902 l 2.0252,-15.3282 15.63057,-118.2972 15.62953,-118.2966 15.63212,-118.2972 15.63109,-118.2967 15.63109,-118.2966 15.63057,-118.2972 15.63109,-118.2966 15.63108,-118.2972 15.63057,-118.2967 z m 31.26217,0 -15.63108,118.2967 -7.81451,59.1488 -7.81658,59.1484 -15.63057,118.2966 -15.63109,118.2972 -15.6285,118.2966 -15.63109,118.2967 -15.63109,118.2972 -15.63057,118.2966 -15.63108,118.2972 -2.0252,15.3282 h 15.62902 l 2.0252,-15.3282 15.63263,-118.2972 15.63109,-118.2966 15.63109,-118.2972 15.63057,-118.2967 15.63109,-118.2966 15.63108,-118.2972 15.63057,-118.2966 15.63109,-118.2972 15.63057,-118.2967 z m 31.26166,0 -15.63109,118.2967 -15.63057,118.2972 -15.63108,118.2966 -7.81451,59.1489 -7.81658,59.1483 -15.63057,118.2966 -15.63109,118.2967 -15.6285,118.2972 -15.63109,118.2966 -15.63109,118.2972 -2.02468,15.3282 h 15.63057 l 2.0252,-15.3282 15.63109,-118.2972 15.63057,-118.2966 15.63109,-118.2972 15.63108,-118.2967 15.63057,-118.2966 15.63109,-118.2972 15.63057,-118.2966 15.63109,-118.2972 15.63057,-118.2967 z m 31.25959,0 -15.6285,118.2967 -15.63109,118.2972 -15.63109,118.2966 -15.63057,118.2972 -15.63108,118.2966 -7.81451,59.1484 -7.81658,59.1483 -15.63057,118.2972 -15.63109,118.2966 -15.6285,118.2972 -2.0252,15.3282 h 15.6285 l 2.0252,-15.3282 15.63109,-118.2972 15.63057,-118.2966 15.63109,-118.2972 15.63108,-118.2967 15.63057,-118.2966 15.63109,-118.2972 15.63109,-118.2966 15.63212,-118.2972 15.62954,-118.2967 z m 31.26166,0 -15.63057,118.2967 -15.63109,118.2972 -15.6285,118.2966 -15.63109,118.2972 -15.63109,118.2966 -15.63057,118.2967 -15.63108,118.2972 -7.81451,59.1483 -7.81658,59.1483 -15.63057,118.2972 -2.0252,15.3282 h 15.62902 l 2.0252,-15.3282 15.63109,-118.2972 15.63057,-118.2966 15.63057,-118.2972 15.63108,-118.2967 15.63057,-118.2966 15.63316,-118.2972 15.62902,-118.2966 15.63109,-118.2972 15.63212,-118.2967 z m 31.26217,0 -15.63108,118.2967 -15.62902,118.2972 -15.63057,118.2966 -15.63109,118.2972 -15.62902,118.2966 -15.63057,118.2967 -15.63109,118.2972 -15.63057,118.2966 -15.63109,118.2972 -2.02571,15.3282 h 15.62902 l 2.02571,-15.3282 15.63057,-118.2972 15.63109,-118.2966 15.63109,-118.2972 15.63212,-118.2967 15.62954,-118.2966 15.63057,-118.2972 15.63263,-118.2966 15.63316,-118.2972 15.63057,-118.2967 z m 31.26166,0 -15.63109,118.2967 -15.63057,118.2972 -15.63108,118.2966 -15.62902,118.2972 -15.63057,118.2966 -15.63109,118.2967 -15.62902,118.2972 -15.63057,118.2966 -15.63109,118.2972 -2.0252,15.3282 h 15.62851 l 2.02571,-15.3282 15.63109,-118.2972 15.63212,-118.2966 15.62954,-118.2972 15.63057,-118.2967 15.63263,-118.2966 15.63316,-118.2972 15.63057,-118.2966 15.63315,-118.2972 15.63109,-118.2967 z m 31.25959,0 -15.62902,118.2967 -15.63057,118.2972 -15.63109,118.2966 -15.63057,118.2972 -15.63108,118.2966 -15.62902,118.2967 -15.63057,118.2972 -15.63109,118.2966 -15.62902,118.2972 -2.0252,15.3282 h 15.63109 l 2.0252,-15.3282 15.62902,-118.2972 15.63057,-118.2966 15.63263,-118.2972 15.63316,-118.2967 15.63057,-118.2966 15.63315,-118.2972 15.63109,-118.2966 15.63109,-118.2972 15.63057,-118.2967 z m 31.26166,0 -15.63057,118.2967 -7.81451,59.1488 -7.81503,59.1484 -15.6285,118.2966 -15.63109,118.2972 -15.63057,118.2966 -15.63109,118.2967 -15.63108,118.2972 -15.62851,118.2966 -15.6347,118.2972 -2.02572,15.3282 h 15.62902 l 2.0252,-15.3282 15.63316,-118.2972 15.63263,-118.2966 15.63109,-118.2972 15.63264,-118.2967 15.63109,-118.2966 15.63057,-118.2972 15.63108,-118.2966 15.63057,-118.2972 15.63109,-118.2967 z m 31.26166,0 -15.63057,118.2967 -15.62902,118.2972 -15.63109,118.2966 -7.81451,59.1489 -7.81451,59.1483 -15.6285,118.2966 -15.63109,118.2967 -15.63057,118.2972 -15.63109,118.2966 -15.63109,118.2972 -2.0252,15.3282 h 15.63264 l 2.02572,-15.3282 15.63057,-118.2972 15.63315,-118.2966 15.63057,-118.2972 15.63109,-118.2967 15.63109,-118.2966 15.63057,-118.2972 15.63109,-118.2966 15.63263,-118.2972 15.63109,-118.2967 z m 31.26161,0 -15.63104,118.2967 -15.63057,118.2972 -15.63057,118.2966 -15.62902,118.2972 -15.63109,118.2966 -7.81451,59.1484 -7.81451,59.1483 -15.6285,118.2972 -15.63109,118.2966 -15.63057,118.2972 -2.02572,15.3282 h 15.63109 l 2.0252,-15.3282 15.63109,-118.2972 15.63057,-118.2966 15.63108,-118.2972 15.63057,-118.2967 15.63109,-118.2966 15.63264,-118.2972 15.63109,-118.2966 15.62897,-118.2972 15.6306,-118.2967 z m 31.2596,0 -15.6285,118.2967 -15.6311,118.2972 -15.63104,118.2966 -15.63057,118.2972 -15.63057,118.2966 -15.62902,118.2967 -15.63109,118.2972 -7.81451,59.1483 -7.81451,59.1483 -15.6285,118.2972 -2.02572,15.3282 h 15.62902 l 2.0252,-15.3282 15.63109,-118.2972 15.63108,-118.2966 15.63057,-118.2972 15.63264,-118.2967 15.63109,-118.2966 15.62904,-118.2972 15.6306,-118.2966 15.6331,-118.2972 15.6311,-118.2967 z m 31.2622,0 -15.6311,118.2967 -15.629,118.2972 -15.6285,118.2966 -15.6311,118.2972 -15.63056,118.2966 -15.63109,118.2967 -15.63263,118.2972 -15.62902,118.2966 -15.63109,118.2972 -2.0252,15.3282 h 15.62902 l 2.0252,-15.3282 15.63109,-118.2972 15.63263,-118.2966 15.63109,-118.2972 15.62846,-118.2967 15.6311,-118.2966 15.6285,-118.2972 15.6311,-118.2966 15.6311,-118.2972 15.6347,-118.2967 z m 31.2617,0 -15.6311,118.2967 -15.6285,118.2972 -15.6311,118.2966 -15.629,118.2972 -15.629,118.2966 -15.6306,118.2967 -15.63111,118.2972 -15.6347,118.2966 -15.63057,118.2972 -2.02572,15.3282 h 15.63264 l 2.02571,-15.3282 15.63109,-118.2972 15.62846,-118.2966 15.6311,-118.2972 15.6285,-118.2967 15.6311,-118.2966 15.6311,-118.2972 15.6306,-118.2966 15.629,-118.2972 15.6368,-118.2967 z m 31.2616,0 -15.6311,118.2967 -15.6305,118.2972 -15.6311,118.2966 -15.6285,118.2972 -15.6311,118.2966 -15.629,118.2967 -15.629,118.2972 -15.6306,118.2966 -15.63111,118.2972 -2.0252,15.3282 h 15.62691 l 2.0252,-15.3282 15.6311,-118.2972 15.6285,-118.2966 15.6311,-118.2972 15.6311,-118.2967 15.6306,-118.2966 15.629,-118.2972 15.6326,-118.2966 15.6291,-118.2972 15.6331,-118.2967 z m 31.2596,0 -15.6285,118.2967 -15.6311,118.2972 -15.6311,118.2966 -15.6305,118.2972 -15.6311,118.2966 -15.6285,118.2967 -15.6311,118.2972 -15.629,118.2966 -15.629,118.2972 -2.0252,15.3282 h 15.629 l 2.0252,-15.3282 15.6311,-118.2972 15.631,-118.2966 15.6306,-118.2972 15.629,-118.2967 15.6327,-118.2966 15.629,-118.2972 15.6326,-118.2966 15.6311,-118.2972 15.6249,-118.2967 z m 31.2622,0 -15.6311,118.2967 -15.6311,118.2972 -15.6285,118.2966 -15.6311,118.2972 -15.6311,118.2966 -15.6305,118.2967 -15.6311,118.2972 -15.6285,118.2966 -15.6311,118.2972 -2.0257,15.3282 h 15.6311 l 2.0257,-15.3282 15.6305,-118.2972 15.6291,-118.2966 15.6326,-118.2972 15.629,-118.2967 15.6327,-118.2966 15.6305,-118.2972 15.6296,-118.2966 15.629,-118.2972 15.6306,-118.2967 z m 31.2616,0 -15.631,118.2967 -7.8145,59.1488 -7.8161,59.1484 -15.6311,118.2966 -15.6311,118.2972 -15.6285,118.2966 -15.6311,118.2967 -15.6311,118.2972 -15.6305,118.2966 -15.6311,118.2972 -2.0252,15.3282 h 15.629 l 2.0252,-15.3282 15.6326,-118.2972 15.6291,-118.2966 15.6331,-118.2972 15.6306,-118.2967 15.629,-118.2966 15.6326,-118.2972 15.6311,-118.2966 15.6249,-118.2972 15.6352,-118.2967 z m 31.2617,0 -15.6306,118.2967 -15.6311,118.2972 -15.631,118.2966 -7.8145,59.1489 -7.8161,59.1483 -15.6311,118.2966 -15.6311,118.2967 -15.6285,118.2972 -15.6311,118.2966 -15.6311,118.2972 -2.0252,15.3282 h 15.6291 l 2.0252,-15.3282 15.6331,-118.2972 15.6306,-118.2966 15.629,-118.2972 15.6326,-118.2967 15.6311,-118.2966 15.629,-118.2972 15.6348,-118.2966 15.6305,-118.2972 15.627,-118.2967 z m 31.2596,0 -15.629,118.2967 -15.6306,118.2972 -15.6306,118.2966 -15.6311,118.2972 -15.631,118.2966 -7.8145,59.1484 -7.8161,59.1483 -15.6311,118.2972 -15.6311,118.2966 -15.6285,118.2972 -2.0257,15.3282 h 15.6306 l 2.0257,-15.3282 15.629,-118.2972 15.6326,-118.2966 15.6311,-118.2972 15.629,-118.2967 15.6348,-118.2966 15.6305,-118.2972 15.6311,-118.2966 15.6326,-118.2972 15.6291,-118.2967 z m 31.2617,0 -15.6306,118.2967 -15.6311,118.2972 -15.629,118.2966 -15.6306,118.2972 -15.6306,118.2966 -15.6311,118.2967 -15.631,118.2972 -7.8145,59.1483 -7.8161,59.1483 -15.6311,118.2972 -2.0257,15.3282 h 15.6311 l 2.0257,-15.3282 15.6306,-118.2972 15.6285,-118.2966 15.6352,-118.2972 15.6306,-118.2967 15.631,-118.2966 15.6332,-118.2972 15.6285,-118.2966 15.627,-118.2972 15.631,-118.2967 z m 31.2616,0 -15.6306,118.2967 -15.629,118.2972 -15.6311,118.2966 -15.6305,118.2972 -15.6291,118.2966 -15.631,118.2967 -15.6306,118.2972 -15.6311,118.2966 -15.6306,118.2972 -2.0252,15.3282 h 15.627 l 2.0252,-15.3282 15.6347,-118.2972 15.6306,-118.2966 15.631,-118.2972 15.6332,-118.2967 15.629,-118.2966 15.6321,-118.2972 15.6311,-118.2966 15.6311,-118.2972 15.6244,-118.2967 z m 31.2617,0 -15.6311,118.2967 -15.6306,118.2972 -15.6306,118.2966 -15.629,118.2972 -15.6311,118.2966 -15.6305,118.2967 -15.6291,118.2972 -15.631,118.2966 -15.6306,118.2972 -2.0252,15.3282 h 15.6306 l 2.0252,-15.3282 15.631,-118.2972 15.6332,-118.2966 15.629,-118.2972 15.6321,-118.2967 15.6311,-118.2966 15.6311,-118.2972 15.6306,-118.2966 15.6249,-118.2972 15.6311,-118.2967 z m 31.2601,0 -15.629,118.2967 -15.6311,118.2972 -15.6311,118.2966 -15.6306,118.2972 -15.6306,118.2966 -15.629,118.2967 -15.6311,118.2972 -15.6305,118.2966 -15.6291,118.2972 -2.0252,15.3282 h 15.6306 l 2.0257,-15.3282 15.6285,-118.2972 15.6332,-118.2966 15.6306,-118.2972 15.631,-118.2967 15.6311,-118.2966 15.6327,-118.2972 15.6311,-118.2966 15.6243,-118.2972 15.629,-118.2967 z m 31.2616,0 -15.6311,118.2967 -15.6305,118.2972 -15.629,118.2966 -15.6311,118.2972 -15.6311,118.2966 -15.6306,118.2967 -15.6306,118.2972 -15.629,118.2966 -15.6311,118.2972 -2.0252,15.3282 h 15.6311 l 2.0252,-15.3282 15.6311,-118.2972 15.6306,-118.2966 15.6311,-118.2972 15.6326,-118.2967 15.6306,-118.2966 15.6331,-118.2972 15.629,-118.2966 15.6249,-118.2972 15.6306,-118.2967 z m 31.2617,0 -15.6311,118.2967 -15.6285,118.2972 -15.6311,118.2966 -15.6311,118.2972 -15.6285,118.2966 -15.6311,118.2967 -15.6305,118.2972 -15.6311,118.2966 -15.6306,118.2972 -2.0257,15.3282 h 15.6311 l 2.0252,-15.3282 15.6311,-118.2972 15.6326,-118.2966 15.6306,-118.2972 15.6331,-118.2967 15.629,-118.2966 15.6327,-118.2972 15.6306,-118.2966 15.631,-118.2972 15.6229,-118.2967 z m 31.2617,0 -15.6311,118.2967 -15.6306,118.2972 -15.6311,118.2966 -15.6285,118.2972 -15.6311,118.2966 -15.6311,118.2967 -15.6285,118.2972 -15.6311,118.2966 -15.6305,118.2972 -2.0257,15.3282 h 15.631 l 2.0252,-15.3282 15.6311,-118.2972 15.6327,-118.2966 15.6285,-118.2972 15.6331,-118.2967 15.6311,-118.2966 15.6306,-118.2972 15.6311,-118.2966 15.6249,-118.2972 15.631,-118.2967 z m 31.2595,0 -15.6285,118.2967 -15.631,118.2972 -15.6311,118.2966 -15.6306,118.2972 -15.6311,118.2966 -15.6285,118.2967 -15.6311,118.2972 -15.6311,118.2966 -15.6285,118.2972 -2.0257,15.3282 h 15.6311 l 2.0257,-15.3282 15.6285,-118.2972 15.6327,-118.2966 15.631,-118.2972 15.6311,-118.2967 15.6306,-118.2966 15.6326,-118.2972 15.6311,-118.2966 15.6228,-118.2972 15.6311,-118.2967 z m 31.2622,0 -15.6311,118.2967 -15.629,118.2972 -15.629,118.2966 -15.6306,118.2972 -15.6306,118.2966 -15.631,118.2967 -15.6311,118.2972 -15.629,118.2966 -15.6306,118.2972 -2.0252,15.3282 h 15.6306 l 2.0252,-15.3282 15.631,-118.2972 15.6311,-118.2966 15.6306,-118.2972 15.6326,-118.2967 15.6311,-118.2966 15.6311,-118.2972 15.6306,-118.2966 15.6306,-118.2972 15.6233,-118.2967 z m 31.2617,0 -15.6311,118.2967 -15.629,118.2972 -15.6306,118.2966 -15.629,118.2972 -15.629,118.2966 -15.6306,118.2967 -15.6311,118.2972 -15.6306,118.2966 -15.6311,118.2972 -2.0252,15.3282 h 15.6306 l 2.0257,-15.3282 15.6306,-118.2972 15.6326,-118.2966 15.6311,-118.2972 15.6311,-118.2967 15.6306,-118.2966 15.6306,-118.2972 15.631,-118.2966 15.6311,-118.2972 15.6228,-118.2967 z m 31.2616,0 -15.6311,118.2967 -15.6305,118.2972 -15.6311,118.2966 -15.629,118.2972 -15.6306,118.2966 -15.629,118.2967 -15.629,118.2972 -15.6306,118.2966 -15.6311,118.2972 -2.0252,15.3282 h 15.6306 l 2.0257,-15.3282 15.6306,-118.2972 15.631,-118.2966 15.6306,-118.2972 15.6311,-118.2967 15.6311,-118.2966 15.6306,-118.2972 15.631,-118.2966 15.6208,-118.2972 15.6352,-118.2967 z m 31.2596,0 -15.6285,118.2967 -15.6311,118.2972 -15.6311,118.2966 -15.6305,118.2972 -15.6311,118.2966 -15.629,118.2967 -15.6306,118.2972 -15.629,118.2966 -15.629,118.2972 -2.0252,15.3282 h 15.629 l 2.0252,-15.3282 15.6305,-118.2972 15.6311,-118.2966 15.6306,-118.2972 15.6311,-118.2967 15.6311,-118.2966 15.6285,-118.2972 15.6347,-118.2966 15.6311,-118.2972 15.6233,-118.2967 z m 31.2622,0 -15.6311,118.2967 -15.6311,118.2972 -15.6285,118.2966 -15.6311,118.2972 -15.6311,118.2966 -15.6305,118.2967 -15.6311,118.2972 -15.629,118.2966 -15.6306,118.2972 -2.0257,15.3282 h 15.6311 l 2.0252,-15.3282 15.6311,-118.2972 15.6305,-118.2966 15.6306,-118.2972 15.6295,-118.2967 15.6347,-118.2966 15.6306,-118.2972 15.629,-118.2966 15.6275,-118.2972 15.6306,-118.2967 z m 31.2611,0 -15.6305,118.2967 -15.6291,118.2972 -15.631,118.2966 -15.6311,118.2972 -15.6285,118.2966 -15.6311,118.2967 -15.6311,118.2972 -15.6306,118.2966 -15.6305,118.2972 -2.0258,15.3282 h 15.6311 l 2.0252,-15.3282 15.6306,-118.2972 15.6295,-118.2966 15.6347,-118.2972 15.6306,-118.2967 15.629,-118.2966 15.6327,-118.2972 15.6311,-118.2966 15.629,-118.2972 4.2617,-32.2626 11.3694,-86.0341 h -15.627 z m 31.2617,0 -15.6306,118.2967 -15.6311,118.2972 -15.6305,118.2966 -15.6291,118.2972 -15.631,118.2966 -15.6311,118.2967 -15.6285,118.2972 -15.6311,118.2966 -15.6311,118.2972 -2.0247,15.3282 h 15.6264 l 2.0258,-15.3282 15.6347,-118.2972 15.6305,-118.2966 15.6291,-118.2972 15.6331,-118.2967 15.6306,-118.2966 11.6732,-88.3548 3.9563,-29.9424 15.6327,-118.2966 15.6305,-118.2972 15.629,-118.2967 h -15.629 z m 31.2601,0 -15.629,118.2967 -15.6311,118.2972 -15.6306,118.2966 -15.6311,118.2972 -15.6305,118.2966 -15.6291,118.2967 -15.631,118.2972 -15.6311,118.2966 -15.6285,118.2972 -2.0252,15.3282 h 15.6305 l 2.0252,-15.3282 15.6291,-118.2972 15.6331,-118.2966 15.6306,-118.2972 13.5997,-102.9384 2.0298,-15.3583 15.6327,-118.2966 15.6305,-118.2972 15.6311,-118.2966 5.6818,-43.0171 9.9467,-75.2801 15.6311,-118.2967 h -15.6269 z m 31.2617,0 -15.6311,118.2967 -15.6306,118.2972 -15.629,118.2966 -15.6311,118.2972 -15.6306,118.2966 -15.6311,118.2967 -15.6305,118.2972 -15.6291,118.2966 -15.631,118.2972 -2.0252,15.3282 h 15.631 l 2.0252,-15.3282 15.6306,-118.2972 11.2541,-85.1829 v 0.011 l 4.3775,-33.1251 15.6327,-118.2972 15.6305,-118.2966 15.629,-118.2967 15.6311,-118.2972 15.6306,-118.2966 15.629,-118.2972 15.6347,-118.2966 h -0.01 -15.6264 z m 31.2616,0 -15.6311,118.2967 -7.8145,59.1488 -7.816,59.1484 -15.6311,118.2966 -15.6306,118.2972 -15.629,118.2966 -15.6311,118.2967 -15.6306,118.2972 -15.6311,118.2966 -15.6305,118.2972 -2.0257,15.3282 h 13.2813 2.3477 l 2.0257,-15.3282 15.6326,-118.2972 15.6306,-118.2966 15.629,-118.2972 15.6306,-118.2967 15.6311,-118.2966 7.8145,-59.1489 7.8166,-59.1483 7.8155,-59.1483 7.8171,-59.1483 15.6311,-118.2972 15.6331,-118.2967 h -15.6269 z m 31.2617,0 -15.6306,118.2967 -15.6311,118.2972 -15.6311,118.2966 -7.8145,59.1489 -7.816,59.1483 -15.6311,118.2966 -15.6306,118.2967 -15.629,118.2972 -15.6311,118.2966 -15.6306,118.2972 -2.0252,15.3282 h 15.627 l 2.0252,-15.3282 15.629,-118.2972 15.6306,-118.2966 15.6311,-118.2972 7.8145,-59.1483 7.8165,-59.1484 7.8156,-59.1483 7.8171,-59.1483 15.6311,-118.2972 15.6305,-118.2966 15.6332,-118.2972 15.6362,-118.2967 h -0.01 z m 31.2596,0 -15.6285,118.2967 -15.6291,118.2972 -15.631,118.2966 -15.6306,118.2972 -15.6306,118.2966 -7.8145,59.1484 -7.8166,59.1483 -15.6311,118.2972 -15.6305,118.2966 -15.6291,118.2972 -2.0257,15.3282 h 6e-4 15.6285 l 2.0257,-15.3282 15.6305,-118.2972 15.6332,-118.2966 15.6306,-118.2972 15.6326,-118.2967 15.6311,-118.2966 15.6311,-118.2972 15.6305,-118.2966 15.6327,-118.2972 6.5236,-49.3981 v -68.8986 h -6.5293 z m 6.5334,187.1581 -6.5314,49.4358 -15.629,118.2966 -15.6285,118.2972 -15.6311,118.2966 -15.6311,118.2967 -15.6305,118.2972 -7.8145,59.1483 -7.8161,59.1483 -15.6311,118.2972 -2.0252,15.3282 h 15.627 l 2.0257,-15.3282 7.8155,-59.1489 7.8171,-59.1483 15.6311,-118.2966 15.6306,-118.2972 15.6331,-118.2967 15.6285,-118.2966 15.6327,-118.2972 3.0184,-22.857 3.5088,-26.5555 v -118.2894 z m 0,236.5938 -6.5314,49.4358 -15.629,118.2966 -15.6285,118.2967 -15.6311,118.2972 -15.6311,118.2966 -15.6305,118.2972 -2.0252,15.3282 h 15.6285 l 2.0257,-15.3282 15.6306,-118.2972 15.6331,-118.2966 15.6285,-118.2972 15.6311,-118.2967 6.5293,-49.4156 v -118.2863 z m 0,236.5939 -6.5314,49.4352 -15.629,118.2972 -15.6285,118.2966 -15.6311,118.2972 -2.0252,15.3282 h 15.629 l 2.0247,-15.3282 15.6296,-118.2972 3.1259,-23.6595 12.5067,-94.6371 3.4515,-26.139 3.0778,-23.2937 v -118.2698 z m 0,236.5938 -6.5314,49.4352 -15.629,118.2972 -2.0252,15.3282 h 15.629 l 2.0258,-15.3282 2.5889,-19.604 3.9419,-29.8338 v -118.2646 z" />
  </g>
</svg>
