<?xml version="1.0" encoding="UTF-8" standalone="no"?>
<!-- Created with Inkscape (http://www.inkscape.org/) -->

<svg
   width="512mm"
   height="512mm"
   viewBox="0 0 512 512"
   version="1.1"
   id="svg1"
   inkscape:export-filename="../Documents/HUD/fists.svg"
   inkscape:export-xdpi="96"
   inkscape:export-ydpi="96"
   inkscape:version="1.4.3 (0d15f75042, 2025-12-25)"
   sodipodi:docname="disguise_kit.svg"
   xml:space="preserve"
   xmlns:inkscape="http://www.inkscape.org/namespaces/inkscape"
   xmlns:sodipodi="http://sodipodi.sourceforge.net/DTD/sodipodi-0.dtd"
   xmlns="http://www.w3.org/2000/svg"
   xmlns:svg="http://www.w3.org/2000/svg"><sodipodi:namedview
     id="namedview1"
     pagecolor="#ffffff"
     bordercolor="#111111"
     borderopacity="1"
     inkscape:showpageshadow="0"
     inkscape:pageopacity="0"
     inkscape:pagecheckerboard="1"
     inkscape:deskcolor="#d1d1d1"
     inkscape:document-units="mm"
     inkscape:zoom="0.22627417"
     inkscape:cx="1557.8446"
     inkscape:cy="1199.8718"
     inkscape:window-width="1920"
     inkscape:window-height="1048"
     inkscape:window-x="0"
     inkscape:window-y="0"
     inkscape:window-maximized="1"
     inkscape:current-layer="layer1"
     showguides="false"><inkscape:page
       x="0"
       y="0"
       width="512"
       height="512"
       id="page2"
       margin="0"
       bleed="0" /></sodipodi:namedview><defs
     id="defs1" /><g
     inkscape:label="Layer 1"
     inkscape:groupmode="layer"
     id="layer1"><path
       id="path39"
       style="fill:#ffffff;stroke-width:0.113908"
       d="m 287.32471,157.57604 -70.1244,3.20394 -45.56363,33.46049 22.06945,117.82382 61.22624,42.35968 63.00546,-33.81654 22.4255,-116.75618 z m -35.39474,15.42748 57.10142,25.50129 -0.25166,64.18471 -40.02081,6.54431 -4.4018,14.84767 -18.8774,3.02049 -1.6397,-40.52156 41.27965,-5.78931 -2.76882,-26.17722 -27.14821,-16.69148 -27.97504,17.44648 4.78265,24.91889 -25.6744,-2.01332 -8.30595,-34.73534 z m -73.07668,24.5122 7.34684,1.83607 -7.46156,1.83709 z m 154.28516,6.19859 2.29598,3.67316 -6.88795,1.8371 z m -58.59074,91.89155 -1.37408,21.5992 -26.31209,2.74867 -9.81748,-22.1878 z m -71.56928,7.07244 -3.08456,7.95507 -2.75952,-4.54598 z m 102.76479,8.92917 8.60413,2.43499 -3.08457,4.54598 z" /></g></svg>
