<?xml version="1.0" encoding="UTF-8" standalone="no"?>
<!-- Created with Inkscape (http://www.inkscape.org/) -->

<svg
   width="128mm"
   height="128mm"
   viewBox="0 0 128 128"
   version="1.1"
   id="svg1"
   xml:space="preserve"
   sodipodi:docname="diamond_obj_house_blu.svg"
   inkscape:export-filename="pl_home_ylw.svg"
   inkscape:export-xdpi="96"
   inkscape:export-ydpi="96"
   inkscape:version="1.4.3 (0d15f75042, 2025-12-25)"
   xmlns:inkscape="http://www.inkscape.org/namespaces/inkscape"
   xmlns:sodipodi="http://sodipodi.sourceforge.net/DTD/sodipodi-0.dtd"
   xmlns="http://www.w3.org/2000/svg"
   xmlns:svg="http://www.w3.org/2000/svg"><sodipodi:namedview
     id="namedview1"
     pagecolor="#ffffff"
     bordercolor="#000000"
     borderopacity="0.25"
     inkscape:showpageshadow="2"
     inkscape:pageopacity="0.0"
     inkscape:pagecheckerboard="0"
     inkscape:deskcolor="#d1d1d1"
     inkscape:document-units="mm"
     inkscape:zoom="0.5"
     inkscape:cx="4"
     inkscape:cy="81"
     inkscape:window-width="1920"
     inkscape:window-height="1012"
     inkscape:window-x="0"
     inkscape:window-y="0"
     inkscape:window-maximized="1"
     inkscape:current-layer="svg1"><inkscape:page
       x="0"
       y="0"
       width="128"
       height="128"
       id="page2"
       margin="0"
       bleed="0" /></sodipodi:namedview><defs
     id="defs1" /><rect
     style="display:none;fill:#ebe2ca;fill-opacity:1;stroke-width:0.264583"
     id="rect2"
     width="128"
     height="128"
     x="-0.002112448"
     y="0.04319331" /><rect
     style="display:inline;fill:#f4e5c3;fill-opacity:1;stroke-width:0.264583"
     id="rect162"
     width="128"
     height="128"
     x="2.4868996e-14"
     y="2.4868996e-14" /><rect
     style="display:inline;fill:#e7c033;fill-opacity:1;stroke-width:0.204422"
     id="rect161"
     width="98.895325"
     height="98.895325"
     x="14.552338"
     y="14.552338" /><path
     id="path4"
     style="display:none;fill:#33302e;fill-opacity:1;stroke-width:0.238604"
     d="m 19.74792,6.2838907 -9.623702,18.4800063 42.416016,40.5691 -24.109639,35.467083 8.073409,13.1501 28.245304,-36.93986 46.740812,44.70579 6.38566,-13.72319 L 75.022066,63.575482 100.75073,29.926889 88.452254,12.504701 62.534456,50.631569 Z" /><path
     id="path3"
     style="display:none;fill:#33302e;fill-opacity:1;stroke-width:0.28315"
     d="m 75.49878,21.717569 -49.185629,1.725477 2.80448,82.839384 7.277075,-0.28835 -3.429248,-75.456894 34.671786,-1.00769 -28.62461,5.039485 1.003557,29.325859 0.01654,0.486792 1.293461,37.792008 24.832593,2.64118 h 0.0026 l 0.001,-0.0656 0.459404,0.0475 6.072498,-0.24029 1.162202,-34.327103 -6.768062,-0.0098 h -0.24908 l -18.754928,-0.02687 -0.914156,-6.888469 19.837032,-1.637109 0.196371,-0.01602 6.962882,-0.574642 z m -8.876978,83.079161 -0.460437,0.0181 v 5.2e-4 z m -0.463021,0.0181 -24.708569,0.97875 -5.055506,0.20051 29.766142,-1.17874 z m 22.818762,-58.352508 -5.112866,5.404838 4.67465,9.349817 -21.353218,1.762167 -0.205156,0.01705 -12.920658,1.066085 0.155546,4.555794 12.893787,0.0186 21.575428,0.03049 -5.843054,6.720004 3.651973,7.158219 15.192875,-16.653764 z" /><path
     id="rect12"
     style="display:none;fill:#33302e;fill-opacity:1;stroke:#9f9f9f;stroke-width:0"
     d="M 57.932647,23.077963 35.731317,42.35434 v 3.698966 l 22.20133,-17.660325 21.972797,17.96505 V 42.659065 Z M 85.64815,27.51328 v 3.12329 h 9.751314 V 27.51328 Z M 57.932647,32.092651 38.702392,47.209432 v 4.069145 4.647636 L 24.195067,59.813788 V 104.92204 H 38.702392 52.263155 V 88.591269 H 63.726709 V 104.92204 H 77.162917 104.56665 V 73.480821 L 77.162917,67.016779 v -2.693292 l 0.0027,7.02e-4 0.0027,-2.692588 -0.0054,-0.0014 V 47.209432 Z m 29.7529,0.448296 -1.359667,28.557204 8.569696,2.021201 L 93.36208,32.540947 Z M 54.318134,41.302768 H 61.67173 V 53.094279 H 54.318134 Z M 36.322977,50.849645 20.385998,56.23269 v 2.323819 l 15.936979,-4.316507 z m 43.466369,10.180955 -0.0027,3.911493 27.827374,6.759613 v -2.693292 z"
     sodipodi:nodetypes="ccccccccccccccccccccccccccccccccccccccccccccccccccccc"
     inkscape:label="red" /><path
     id="path13"
     style="display:none;fill:#33302e;fill-opacity:1;stroke:#9f9f9f;stroke-width:0"
     d="m 34.585965,21.677939 v 4.160634 h 11.871036 v -4.160634 z m 20.695495,4.416099 v 4.15993 h 11.871743 v -4.15993 z m -19.934025,1.67847 V 53.309874 H 45.69553 V 27.772508 Z m 20.696203,4.416098 V 53.309874 H 66.391733 V 32.188606 Z M 24.23787,55.244512 v 4.15993 h 0.761471 60.117357 0.76147 v -4.15993 h -0.76147 -60.117357 z m 0.761471,6.094568 v 33.501124 1.934638 h -2.593363 v 9.547218 h 17.884669 5.404883 v -9.547218 -1.934638 -5.653311 h 10.348108 10.348095 v 5.653311 1.934638 9.547218 h 18.724965 2.593349 14.870463 3.01351 v -9.546514 h -3.01351 V 96.774842 94.840204 72.476798 H 85.116698 V 70.542864 61.33908 Z m 4.433685,4.440731 h 7.380343 v 14.221597 h -7.380343 z m 11.070167,0 h 7.379634 v 14.221597 h -7.379634 z m 11.070153,0 h 7.379634 v 14.221597 h -7.379634 z m 11.070153,0 h 7.379634 v 14.221597 h -7.379634 z m 11.069458,0 H 81.0933 v 14.221597 h -7.380343 z m 13.338372,0.603123 v 4.15993 h 16.290651 v -4.15993 z"
     inkscape:label="blu" /><path
     id="path75"
     style="display:none;fill:#33302e;fill-opacity:1;stroke:#9f9f9f;stroke-width:0"
     d="m 92.370333,19.190849 -1.676355,10.224236 0.419439,6.094568 2.437131,8.532395 z m -3.752443,3.174665 -5.063559,0.646052 -0.700241,33.452563 h 2.046535 l 0.269539,-5.333099 3.340044,0.107669 0.538384,5.925666 1.993042,0.26954 z m -47.430662,0.431405 -7.657631,0.871255 -0.02887,1.914229 7.44228,-0.975411 z m 45.964729,1.513789 v 4.951661 l -1.676368,-0.03801 -0.418731,-4.494216 z m -47.370141,1.662282 -4.928436,0.637608 0.418731,6.76103 4.509705,-0.72417 z m 1.432145,0.728394 -0.15201,1.561645 11.312958,-0.418738 0.228725,2.209105 1.904371,0.266726 -0.952186,-3.618738 z m 52.505485,0.835364 v 0.612974 l 3.410425,2.551838 0.93952,0.06756 z m 0.01621,3.043764 0.134416,2.612361 1.238611,-0.457445 -0.02669,-1.589796 z m 10.756974,0.776952 -0.20971,0.952188 0.80369,0.0035 -0.0893,-0.936705 z m -8.818107,0.138642 0.135096,0.619308 7.939821,-0.107668 0.10772,-0.403959 z m -10.427628,0.05208 2.0951,0.228723 0.57145,8.570399 -2.475835,0.07601 z m -36.384437,1.023269 -18.16125,2.919903 -11.224274,6.746954 v 6.791292 l 11.224274,-7.502089 18.16125,-2.918496 18.16125,2.918496 11.224288,7.502089 V 42.238309 L 67.023704,35.491355 Z m 49.411052,0.296284 -0.938825,0.06756 -3.410425,2.538465 V 36.08674 Z M 48.862454,40.958873 33.4508,43.241872 23.9261,49.22032 h 49.872709 l -9.524701,-5.978448 z m 36.384437,1.597537 2.475835,0.03801 0.57145,6.513306 -2.780564,-0.07601 z M 23.9261,51.067693 v 1.846667 h 1.615833 V 65.057049 H 23.9261 l 3.232375,43.752101 h 8.723109 V 87.846229 h 29.786674 v 20.962921 h 8.130551 27.797851 L 105.15206,71.273367 94.863082,66.775632 78.216316,65.057049 H 73.798809 72.182975 V 52.91436 h 1.615834 v -1.846667 z m 4.515329,1.846667 h 8.036241 v 12.142689 h -8.036241 z m 10.935737,0 h 8.035547 v 12.142689 h -8.035547 z m 10.935043,0 h 8.035533 v 12.142689 h -8.035533 z m 10.935029,0 h 8.036242 v 12.142689 h -8.036242 z m 14.607966,4.916473 v 5.310578 h 2.39208 l 16.893781,1.762921 13.382005,5.806027 v -5.8947 L 95.141759,59.593753 78.247992,57.830833 Z m 5.278202,15.312427 h 5.027675 v 5.789839 h -5.027675 z m 8.45639,0 h 5.027674 v 5.789839 h -5.027674 z m -8.45639,9.44658 h 5.027675 v 5.789841 h -5.027675 z m 8.45639,0 h 5.027674 v 5.789841 h -5.027674 z"
     inkscape:label="grn" /><path
     id="rect104"
     style="display:inline;opacity:1;fill:#33302e;fill-opacity:1;stroke:#9f9f9f;stroke-width:0"
     d="m 78.157558,19.993487 v 5.127601 h 4.617373 v -5.127601 z m 0,5.775061 v 1.936749 h 4.617373 v -1.936749 z m -43.629656,0.612976 v 14.339829 h 0.93459 V 26.381524 Z m 1.461712,0 v 14.339829 h 0.935298 V 26.381524 Z m 48.99371,0.488409 v 5.127601 h 4.617373 v -5.127601 z m -28.427715,0.693909 v 9.114406 h 0.934604 v -9.114406 z m 1.461712,0 v 9.114406 h 0.935298 v -9.114406 z m -12.617716,0.353287 v 8.52184 h 0.935298 v -8.52184 z m 1.462406,0 v 8.52184 h 0.934604 v -8.52184 z m 31.295547,0.435629 v 14.455246 h 4.617373 V 28.352758 Z m -41.059526,2.478645 v 0.189311 h 8.238232 v -0.189311 z m 10.985717,0 v 0.189311 h 8.238219 v -0.189311 z m -10.856926,0.36103 v 0.128083 h 0.456741 l 0.739653,0.31458 v 0.2808 l -0.739653,0.313878 h -0.456741 v 0.128083 h 2.237958 5.742692 v -0.107669 h -0.45674 l -0.739654,-0.31458 v -0.280801 l 0.739654,-0.313879 h 0.45674 v -0.148493 h -5.742692 z m 10.985704,0 v 0.128083 h 0.45674 l 0.739654,0.31458 v 0.2808 l -0.739654,0.313878 h -0.45674 v 0.128083 h 7.98065 v -0.128083 h -0.45674 l -0.739654,-0.31458 v -0.280801 l 0.739654,-0.313877 h 0.45674 v -0.128083 z m -7.269841,0.128083 h 0.45674 l 0.739654,0.31458 v 0.2808 l -0.739654,0.313878 h -0.45674 l -0.738946,-0.31458 v -0.280801 z m 10.985704,0 h 0.45674 l 0.739654,0.31458 v 0.2808 l -0.739654,0.313878 h -0.45674 l -0.739654,-0.31458 v -0.280801 z m -14.830358,1.20906 v 0.189311 h 8.238232 v -0.189311 z m 10.985717,0 v 0.189311 h 8.238219 v -0.189311 z m 36.899575,0.153419 v 1.936751 h 4.617373 v -1.936751 z m 0,2.546208 v 7.578799 h 4.617373 V 35.229204 Z M 42.71546,37.859158 v 4.09448 h -9.406464 v 6.790588 h 27.216531 v -6.790588 -4.09448 z m 31.657965,7.433825 v 3.7989 h 10.609899 l 7.35079,2.212623 v 2.486388 21.762394 L 80.573566,84.13002 v 7.504905 h 1.620764 v 6.464043 h -1.723516 l -7.08e-4,9.907542 H 94.218071 104.62952 L 94.218071,53.790894 h -0.01893 l -1.634832,-8.497911 z m -10.184821,3.451243 v 59.262284 h 6.976374 V 96.483133 48.744226 Z m -34.96143,2.800967 -5.856693,1.641874 v 5.898219 h 5.962265 v 9.278382 h -5.962265 v 4.674378 h 39.20229 v -4.674378 h -7.991914 v -9.278382 h 7.991914 v -7.540093 z m 43.553651,0 V 73.038046 H 89.600697 V 53.187067 l -5.856693,-1.641874 z m -40.35998,7.540093 h 7.9919 v 9.278382 h -7.9919 z m 11.080013,0 h 7.9919 v 9.278382 h -7.9919 z m -9.39802,15.564374 v 7.04e-4 H 23.370481 l 10.732357,7.868043 H 62.572771 V 74.64966 Z m 38.677987,0 v 7.868747 h 6.087529 L 89.600697,74.64966 Z m -38.677987,9.48036 v 7.504905 H 62.572771 V 84.13002 Z m 38.677987,0 v 7.504905 h 6.087529 V 84.13002 Z m -40.293834,9.120739 v 1.61654 1.615835 h 1.615847 7.702654 v 11.523376 h 6.977082 V 96.483134 h 7.703362 6.086835 V 93.250759 H 34.102838 Z m 40.293834,0 v 3.232374 h 6.087529 1.615833 v -1.615835 -1.616539 h -1.615833 z m -38.677987,4.848209 v 9.907542 h 6.086821 v -9.907542 z m 38.677987,0 v 9.907542 h 6.086821 v -9.907542 z"
     inkscape:label="ylw" /></svg>
