<?xml version="1.0" encoding="UTF-8" standalone="no"?>
<!-- Created with Inkscape (http://www.inkscape.org/) -->

<svg
   width="128mm"
   height="128mm"
   viewBox="0 0 128 128"
   version="1.1"
   id="svg1"
   xml:space="preserve"
   xmlns="http://www.w3.org/2000/svg"
   xmlns:svg="http://www.w3.org/2000/svg"><defs
     id="defs1" /><rect
     style="display:none;fill:#ebe2ca;fill-opacity:1;stroke-width:0.264583"
     id="rect2"
     width="128"
     height="128"
     x="-0.002112448"
     y="0.04319331" /><path
     id="path4"
     style="display:none;fill:#33302e;fill-opacity:1;stroke-width:0.238604"
     d="m 19.74792,6.2838907 -9.623702,18.4800063 42.416016,40.5691 -24.109639,35.467083 8.073409,13.1501 28.245304,-36.93986 46.740812,44.70579 6.38566,-13.72319 L 75.022066,63.575482 100.75073,29.926889 88.452254,12.504701 62.534456,50.631569 Z" /><path
     id="path3"
     style="display:none;fill:#33302e;fill-opacity:1;stroke-width:0.28315"
     d="m 75.49878,21.717569 -49.185629,1.725477 2.80448,82.839384 7.277075,-0.28835 -3.429248,-75.456894 34.671786,-1.00769 -28.62461,5.039485 1.003557,29.325859 0.01654,0.486792 1.293461,37.792008 24.832593,2.64118 h 0.0026 l 0.001,-0.0656 0.459404,0.0475 6.072498,-0.24029 1.162202,-34.327103 -6.768062,-0.0098 h -0.24908 l -18.754928,-0.02687 -0.914156,-6.888469 19.837032,-1.637109 0.196371,-0.01602 6.962882,-0.574642 z m -8.876978,83.079161 -0.460437,0.0181 v 5.2e-4 z m -0.463021,0.0181 -24.708569,0.97875 -5.055506,0.20051 29.766142,-1.17874 z m 22.818762,-58.352508 -5.112866,5.404838 4.67465,9.349817 -21.353218,1.762167 -0.205156,0.01705 -12.920658,1.066085 0.155546,4.555794 12.893787,0.0186 21.575428,0.03049 -5.843054,6.720004 3.651973,7.158219 15.192875,-16.653764 z" /><g
     id="g156"
     transform="matrix(0.3882535,0,0,0.3882535,331.71024,-414.96846)"
     style="display:none"><path
       id="path119"
       style="opacity:1;fill:#34302e;fill-opacity:1"
       d="m -712.45703,1078.9824 -72.68164,63.1074 v 14.7969 13.3028 10.7167 l -8.9961,3.0391 -45.83398,15.4844 v 9.7461 8.6523 170.4864 h 127.51172 176.25586 v -128.3536 l 11.51758,2.7969 v -10.1797 l -47.61524,-13.6601 -1.42578,-27.9453 -4.1543,-81.4278 -0.7539,-14.7969 -0.36719,-7.1972 h 8.15039 v -11.8047 h -36.85547 v 11.8047 h 8.03516 l -5.79883,121.8535 -34.30664,-9.8418 v -61.0664 -14.7422 z" /><path
       id="rect12-4"
       style="display:inline;fill:#b14646;fill-opacity:1;stroke:#9f9f9f;stroke-width:0"
       d="m -712.45651,1078.9833 -83.91054,72.8556 v 13.9803 l 83.91054,-66.7477 83.04679,67.8994 v -13.9803 z m 104.75151,16.7634 v 11.8045 h 36.85536 v -11.8045 z m -104.75151,17.3078 -72.68128,57.1343 v 15.3795 17.5658 l -54.83084,14.6932 v 170.4879 h 54.83084 51.25328 v -61.7226 h 43.32682 v 61.7226 h 50.78251 103.57317 v -118.8329 l -103.57317,-24.431 v -10.1794 h 0.0102 l 0.0102,-10.1767 -0.0204,-0.01 v -54.5037 z m 112.45191,1.6944 -5.1389,107.9327 32.3894,7.6392 -5.79589,-115.5719 z m -126.11306,33.1155 h 27.79312 v 44.5663 h -27.79312 z m -68.0132,36.0827 -60.23425,20.3454 v 8.7829 l 60.23425,-16.3144 z m 164.28235,38.4792 -0.0102,14.7836 105.17433,25.5482 v -10.1794 z" /></g><g
     id="g155"
     transform="matrix(0.35457317,0,0,0.35457317,326.53897,-126.20792)"
     style="display:inline"><path
       id="path126"
       style="opacity:1;fill:#34302e;fill-opacity:1"
       d="m -647.39258,379.08398 -19.13867,2.44141 -2.68945,133.41211 -17.36524,-1.8125 h -16.8164 v 0 0 -44.50391 l 16.8164,11.24024 v -25.66797 l -16.8164,-10.10742 -25.60547,-15.39258 -44.0918,-7.08984 -6.81055,-26.13282 h -52.06054 v 0 -7.33984 l 4.39062,-0.57617 0.92188,-6.8418 -28.94141,3.29297 -0.10937,7.23633 4.83007,-0.63281 0.006,-0.002 -0.006,0.002 2.23815,35.24614 -17.6504,2.83789 -25.60546,15.39258 -16.81641,10.10742 v 25.66797 l 16.81641,-11.24024 -2.3e-4,71.81593 2.3e-4,4.8e-4 12.21679,165.36133 h 281.3418 l 14.10937,-149.23047 12.06836,5.23633 v -22.2793 l -50.57422,-19.73633 -15.0664,-1.57226 -6.1582,-89.45508 v 0 h 5.99804 l -1.58398,-23.03516 h -6.01172 z m 15.54883,16.78321 0.11328,2.35742 20.68946,15.49414 0.008,0.004 v 0 l -11.89183,-0.13086 -0.0137,0.0156 -7.5e-4,-0.0293 -0.0215,-1.31054 -8.26953,-3.50586 0.58789,12.37695 7.7832,-2.86133 -0.0391,-2.32422 34.94141,-0.42773 0.0254,-0.0137 0.008,-0.0312 0.31641,-1.4375 -20.16211,-0.27539 -24.05274,-17.89843 z m -152.5293,3.92383 2.1875,20.35156 -15.46289,-2.48633 -34.32226,5.51953 10e-4,-9.7e-4 -10e-4,-21.61231 z m 177.57617,15.96093 -3.23437,0.043 -20.15625,14.92578 0.10547,2.22266 z" /><path
       id="path75-1"
       style="display:inline;fill:#398239;fill-opacity:1;stroke:#9f9f9f;stroke-width:0"
       d="m -633.21002,367.08451 -6.33583,38.64279 1.58528,23.03458 9.21121,32.24843 z m -14.18246,11.99874 -19.13786,2.44177 -2.64658,126.43488 h 7.73494 l 1.01873,-20.15659 12.62378,0.40694 2.03484,22.39622 7.53276,1.01873 z m -179.2655,1.6305 -28.94222,3.29294 -0.10912,7.23488 28.1283,-3.68659 z m 173.72497,5.72141 v 18.71494 l -6.33588,-0.14366 -1.58261,-16.98601 z m -179.03676,6.28264 -18.62716,2.40986 1.58261,25.5535 17.04455,-2.73702 z m 5.41283,2.75299 -0.57452,5.90228 42.75763,-1.58263 0.86448,8.34937 7.19762,1.0081 -3.59881,-13.67712 z m 198.44593,3.15728 v 2.31675 l 12.8898,9.64474 3.55094,0.25535 z m 0.0613,11.50399 0.50803,9.87349 4.68136,-1.72893 -0.10087,-6.00867 z m 40.65628,2.93651 -0.79261,3.59882 3.03757,0.0132 -0.33751,-3.5403 z m -33.32828,0.524 0.5106,2.34069 30.00877,-0.40693 0.40713,-1.52677 z m -39.41151,0.19684 7.91849,0.86446 2.15981,32.39206 -9.35748,0.28729 z m -137.51598,3.86747 -68.64095,11.03586 -42.42245,25.5003 v 25.66787 l 42.42245,-28.35435 68.64095,-11.03054 68.64094,11.03054 42.42251,28.35435 v -25.66789 l -42.42252,-25.50029 z m 186.75043,1.11982 -3.54831,0.25534 -12.8898,9.5942 v 2.31676 z m -186.75045,30.58066 -58.24877,8.62866 -35.99886,22.59571 h 188.49528 l -35.99887,-22.59571 z m 137.51599,6.03794 9.35748,0.14366 2.15982,24.61722 -10.50922,-0.28729 z m -231.76362,32.16863 v 6.97952 h 6.10708 v 45.89362 h -6.10708 l 12.21685,165.3623 h 32.96923 v -79.23 h 112.57955 v 79.23 h 30.72965 105.06274 l 13.43773,-141.8675 -38.88747,-16.9994 -62.91691,-6.4954 h -16.69609 -6.10709 v -45.89362 h 6.10709 v -6.97952 z m 17.06581,6.97952 h 30.37319 v 45.89362 h -30.37319 z m 41.33192,0 h 30.37057 v 45.89362 h -30.37057 z m 41.32929,0 h 30.37052 v 45.89362 h -30.37052 z m 41.32925,0 h 30.37319 v 45.89362 h -30.37319 z m 55.21121,18.58195 v 20.07148 h 9.04093 l 63.85051,6.66299 50.57766,21.9441 v -22.2792 l -50.57504,-19.73637 -63.85045,-6.663 z m 19.94911,57.87377 h 19.00223 v 21.8828 h -19.00223 z m 31.96116,0 h 19.00223 v 21.8828 h -19.00223 z m -31.96116,35.7036 h 19.00223 v 21.8828 h -19.00223 z m 31.96116,0 h 19.00223 v 21.8828 h -19.00223 z" /></g><g
     id="g154"
     transform="matrix(0.36103958,0,0,0.36103958,187.34152,-133.76155)"
     style="display:none"><path
       id="path140"
       style="opacity:1;fill:#34302e;fill-opacity:1"
       d="m -288.11914,381.43164 v 86.22852 9.39257 h -14.30274 v 23.62891 h -52.33789 V 490.0957 448.95508 h -5.94531 v -38.91016 h -9.05859 v 12.34961 h -12.61133 -20.49414 v -11.01562 h -9.06055 v 11.01562 h -31.375 -0.65429 v -16.81836 h -9.06055 v 54.19727 4.6582 h -4.60547 v 36.25 h -15.42773 l -22.13672,6.20703 v 81.11719 l 40.56445,29.73828 v 96.33594 h 175.24609 91.31055 l -41.05469,-213.39844 -4.54687,-23.62891 h -11.19922 v -9.39257 -60.23828 h -17.45117 v 69.63085 h -8.34766 v -64.02734 -31.59375 z m -155.83984,48.0957 h 0.65429 31.13672 0.23828 v 14.06055 5.36719 h -10.14453 v 15.47656 h -21.88476 z m 41.08984,0 h 32.2207 0.88477 v 14.96485 4.46289 h -33.10547 z" /><path
       id="rect104-2"
       style="display:inline;fill:#e7c033;fill-opacity:1;stroke:#9f9f9f;stroke-width:0"
       d="m -288.11936,381.43181 v 19.37991 h 17.45149 v -19.37991 z m 0,21.827 v 7.31999 h 17.45149 v -7.31999 z m -164.89949,2.31676 v 54.19778 h 3.53231 v -54.19778 z m 5.52458,0 v 54.19778 h 3.53498 v -54.19778 z m 185.17308,1.84595 v 19.37991 h 17.45149 v -19.37991 z m -107.44333,2.62265 v 34.44815 h 3.53236 v -34.44815 z m 5.52458,0 v 34.44815 h 3.53498 v -34.44815 z m -47.68901,1.33526 v 32.20853 h 3.53498 v -32.20853 z m 5.5272,0 v 32.20853 h 3.53237 v -32.20853 z m 118.28239,1.64647 v 54.634 h 17.45149 v -54.634 z m -155.18561,9.36811 v 0.7155 h 31.13662 v -0.7155 z m 41.52082,0 v 0.7155 h 31.13657 v -0.7155 z m -41.03406,1.36452 v 0.48409 h 1.72627 l 2.79554,1.18897 v 1.06129 l -2.79554,1.18631 h -1.72627 v 0.48409 h 8.45843 21.70466 v -0.40693 h -1.72626 l -2.79554,-1.18897 v -1.06129 l 2.79554,-1.18632 h 1.72626 v -0.56123 h -21.70466 z m 41.52078,0 v 0.48409 h 1.72626 l 2.79554,1.18897 v 1.06129 l -2.79554,1.18631 h -1.72626 v 0.48409 h 30.16308 v -0.48409 h -1.72626 l -2.79554,-1.18896 v -1.0613 l 2.79554,-1.18631 h 1.72626 v -0.48409 z m -27.47657,0.48409 h 1.72626 l 2.79555,1.18897 v 1.06129 l -2.79555,1.18631 h -1.72626 l -2.79287,-1.18896 v -1.0613 z m 41.52077,0 h 1.72626 l 2.79555,1.18897 v 1.06129 l -2.79555,1.18631 h -1.72626 l -2.79554,-1.18896 v -1.0613 z m -56.05174,4.56968 v 0.71551 h 31.13662 v -0.71551 z m 41.52082,0 v 0.71551 h 31.13657 v -0.71551 z m 139.46296,0.57985 v 7.32001 h 17.45149 v -7.32001 z m 0,9.62347 v 28.64428 h 17.45149 v -28.64428 z m -159.75256,9.93998 v 15.4752 h -35.55199 v 25.66522 h 102.86563 V 464.4308 448.9556 Z m 119.65215,28.09635 V 491.41 h 40.10041 l 27.78251,8.36267 v 9.39737 82.25153 l -44.44931,32.416 v 28.365 h 6.12572 v 24.4311 h -6.51408 l -0.003,37.4458 h 51.96081 39.35036 l -39.35036,-204.90943 h -0.0716 l -6.17889,-32.11809 z m -38.49381,13.04407 v 223.98345 h 26.3674 v -43.5529 -180.43055 z m -132.13769,10.58633 -22.13553,6.20551 v 22.29248 h 22.53454 v 35.06793 h -22.53454 v 17.6669 h 148.16614 v -17.6669 h -30.20566 v -35.06793 h 30.20566 v -28.49799 z m 164.61223,0 v 81.23282 h 63.57117 v -75.02731 l -22.13554,-6.20551 z m -152.54166,28.49799 h 30.20561 v 35.06793 h -30.20561 z m 41.87721,0 h 30.20561 v 35.06793 h -30.20561 z m -35.52007,58.82603 v 0 h -40.56324 l 40.56324,29.7375 h 107.6029 v -29.7401 z m 146.18452,0 v 29.7401 h 23.00798 l 40.56319,-29.7401 z m -146.18452,35.8312 v 28.365 h 107.6029 v -28.365 z m 146.18452,0 v 28.365 h 23.00798 v -28.365 z m -152.29166,34.4721 v 6.1098 6.1071 h 6.10714 29.11239 v 43.5529 h 26.37007 v -43.5529 h 29.11507 23.00537 v -12.2169 h -107.6029 z m 152.29166,0 v 12.2169 h 23.00798 6.10709 v -6.1071 -6.1098 h -6.10709 z m -146.18452,18.324 v 37.4458 h 23.00531 v -37.4458 z m 146.18452,0 v 37.4458 h 23.0053 v -37.4458 z" /></g><g
     id="g158"
     transform="matrix(1.1571659,0,0,1.1571659,-705.04196,-1092.1316)"
     style="display:none"><path
       id="path157"
       style="opacity:1;fill:#34302e;fill-opacity:1"
       d="m 629.45898,952.31445 v 2.3711 33.68554 l -12.68945,5.09961 v 45.8223 L 642.14648,1051 h 25.37696 l 44.37304,-41.498 v -7.4747 h -21.4121 v -8.5566 l -22.96094,-2.15429 v -5.31836 -25.89844 -2.37109 h -12.6875 v 28.26953 4.1289 l -12.68946,-1.1914 v -34.25 -2.3711 H 639.75 636.125 Z" /><path
       id="path158"
       style="display:inline;fill:#4d7690;fill-opacity:1;stroke:#9f9f9f;stroke-width:0"
       d="m 628.52447,947.21234 v 5.10161 h 14.55585 v -5.10161 z m 25.37609,5.41484 v 5.10077 h 14.55672 v -5.10077 z m -24.4424,2.05811 v 31.31301 h 12.68847 v -31.31301 z m 25.37696,5.41484 v 25.89817 h 12.68847 V 960.10013 Z M 615.836,988.3705 v 5.1007 h 0.93369 73.7138 0.93368 v -5.1007 h -0.93368 -73.7138 z m 0.93369,7.4729 v 41.0779 2.3722 h -3.1799 V 1051 h 21.92956 6.62728 v -11.7065 -2.3722 -6.9319 h 12.68849 12.68847 v 6.9319 2.3722 V 1051 h 22.9599 3.17987 18.23364 3.69506 v -11.7056 H 711.897 v 0 -2.3722 -27.4212 h -21.41351 v -2.3714 -11.2853 z m 5.43642,5.4451 h 9.04952 v 17.438 h -9.04952 z m 13.57386,0 h 9.04865 v 17.438 h -9.04865 z m 13.57383,0 h 9.04865 v 17.438 h -9.04865 z m 13.57383,0 h 9.04865 v 17.438 h -9.04865 z m 13.57299,0 h 9.04952 v 17.438 h -9.04952 z m 16.35504,0.7395 v 5.1008 h 19.97503 v -5.1008 z" /></g></svg>
