<?xml version="1.0" encoding="UTF-8" standalone="no"?>
<!-- Created with Inkscape (http://www.inkscape.org/) -->

<svg
   width="1024mm"
   height="1024mm"
   viewBox="0 0 1024 1024"
   version="1.1"
   id="svg1"
   sodipodi:docname="hud_logo.svg"
   inkscape:version="1.4.3 (0d15f75042, 2025-12-25)"
   xmlns:inkscape="http://www.inkscape.org/namespaces/inkscape"
   xmlns:sodipodi="http://sodipodi.sourceforge.net/DTD/sodipodi-0.dtd"
   xmlns="http://www.w3.org/2000/svg"
   xmlns:svg="http://www.w3.org/2000/svg">
  <sodipodi:namedview
     id="namedview1"
     pagecolor="#ffffff"
     bordercolor="#000000"
     borderopacity="0.25"
     inkscape:showpageshadow="2"
     inkscape:pageopacity="0.0"
     inkscape:pagecheckerboard="0"
     inkscape:deskcolor="#d1d1d1"
     inkscape:document-units="mm"
     inkscape:zoom="0.077557755"
     inkscape:cx="1179.766"
     inkscape:cy="2417.5532"
     inkscape:window-width="1920"
     inkscape:window-height="1048"
     inkscape:window-x="0"
     inkscape:window-y="0"
     inkscape:window-maximized="1"
     inkscape:current-layer="layer1" />
  <defs
     id="defs1" />
  <g
     id="layer1">
    <rect
       style="fill:#33302e;fill-opacity:1;stroke:#e9d5d7;stroke-width:1.415;stroke-opacity:0"
       id="rect6"
       width="170.43085"
       height="170.43085"
       x="-170.43085"
       y="0.70749837" />
    <rect
       style="fill:#f4e5c3;fill-opacity:1;stroke:#e9d5d7;stroke-width:1.415;stroke-opacity:0"
       id="rect7"
       width="170.43085"
       height="170.43085"
       x="-170.43085"
       y="171.13834" />
    <rect
       style="fill:#4c738c;fill-opacity:1;stroke:#e9d5d7;stroke-width:1.415;stroke-opacity:0"
       id="rect8"
       width="170.43085"
       height="170.43085"
       x="-170.43085"
       y="341.56918" />
    <rect
       style="fill:#3c803c;fill-opacity:1;stroke:#e9d5d7;stroke-width:1.415;stroke-opacity:0"
       id="rect9"
       width="170.43085"
       height="170.43085"
       x="-170.43085"
       y="512" />
    <rect
       style="fill:#b73a3c;fill-opacity:1;stroke:#e9d5d7;stroke-width:1.415;stroke-opacity:0"
       id="rect10"
       width="170.43085"
       height="170.43085"
       x="-170.43085"
       y="682.43085" />
    <rect
       style="fill:#e6be36;fill-opacity:1;stroke:#e9d5d7;stroke-width:1.415;stroke-opacity:0"
       id="rect11"
       width="170.43085"
       height="170.43085"
       x="-170.43085"
       y="852.86169" />
    <path
       id="path1"
       style="fill:#33302e;fill-opacity:1;stroke-width:0.264583"
       d="M 969.91858 286.01407 L 147.13417 350.38171 L 49.183561 612.04946 L 146.00814 627.55498 L 0 729.10227 L 0 749.00338 L 171.73267 631.67462 L 171.73319 631.67462 L 242.83324 643.06101 L 0 767.64617 L 0 812.92816 L 282.67784 649.44201 L 835.58621 737.98596 L 904.15153 689.01066 L 969.91858 286.01407 z " />
    <path
       id="path174"
       style="fill:#f4e5c3;fill-opacity:1;stroke-width:0.264583"
       d="m 958.02445,308.74358 -145.87637,7.34632 -5.62446,29.01115 -20.10937,13.00437 -4.0013,-42.01552 -72.763,2.0991 0.17466,12.94339 -29.9098,-13.99294 -51.07388,-1.57407 -50.8615,9.35137 -3.63544,-9.01443 -198.80492,15.55253 -18.51101,-8.71833 -49.32516,-1.39888 -16.20883,16.69201 -30.31752,-15.29313 -45.47733,1.74925 -40.53189,22.64461 -53.92023,-25.79274 -73.462695,15.39183 -20.289718,72.76351 14.51746,53.52284 51.872286,28.56001 41.990197,1.82211 38.15168,-15.37477 65.04151,16.44344 9.95753,0.0708 52.03093,-16.51424 -1.50895,16.87339 69.55183,0.49454 5.29063,-31.52417 23.79855,31.73139 52.42884,0.37311 9.85521,-17.94826 10.84585,18.09502 91.06731,0.64802 v -18.74304 l 41.06209,16.51682 47.98829,1.73168 67.30959,-18.2485 78.36007,19.97501 61.21952,-19.97501 -3.14865,19.62516 66.81608,0.34985 v -30.08499 l 29.03544,40.57995 45.47733,-41.27965 -31.13454,-39.52988 29.03544,-17.49093 -7.69617,-69.96472 z m -154.78642,53.30372 -2.25722,11.64374 -12.06025,10.72957 -1.36581,-14.34227 z m -3.94136,20.33054 -4.28759,22.1139 -4.01009,1.75131 -1.55546,-16.33388 z" />
    <path
       style="fill:#33302e;fill-opacity:1;stroke-width:0.264583"
       d="m 437.71483,661.57854 0.98944,31.66239 452.67326,-16.3259 45.51468,-44.03053 -6.98886,-101.67104 -35.06274,-19.04182 H 477.78754 Z"
       id="path16" />
    <path
       id="text168"
       style="font-style:normal;font-variant:normal;font-weight:normal;font-stretch:normal;font-size:192.498px;font-family:'tf2 build';-inkscape-font-specification:'tf2 build';writing-mode:lr-tb;direction:ltr;fill:#33302e;fill-opacity:1;stroke-width:4.01036"
       d="M 239.39934 340.26347 C 232.94514 340.26347 226.71062 341.10942 220.69506 342.8013 C 214.74216 344.43051 209.16525 346.74916 203.96429 349.75695 C 198.826 352.76473 194.12644 356.39913 189.86541 360.66016 C 185.66705 364.92118 182.06352 369.62074 179.05574 374.75904 C 176.04796 379.89733 173.69843 385.44285 172.00656 391.39575 C 170.37734 397.34865 169.56278 403.52091 169.56278 409.91245 C 169.56278 416.30398 170.37734 422.41398 172.00656 428.24156 C 173.69843 434.06914 176.04796 439.52049 179.05574 444.59612 C 182.06352 449.67175 185.66705 454.30854 189.86541 458.5069 C 194.12644 462.6426 198.826 466.18335 203.96429 469.12847 C 209.16525 472.07359 214.74216 474.36085 220.69506 475.99007 C 226.71062 477.61928 232.94514 478.43385 239.39934 478.43385 C 246.22951 478.43385 252.74654 477.61928 258.95009 475.99007 C 265.15363 474.36085 270.88749 472.07359 276.1511 469.12847 C 281.47738 466.18335 286.30199 462.6426 290.62567 458.5069 C 294.94936 454.30854 298.61515 449.67175 301.62293 444.59612 C 304.69338 439.52049 307.04342 434.06914 308.67263 428.24156 C 310.36451 422.35132 311.21046 416.24132 311.21046 409.91245 C 311.21046 403.52091 310.36451 397.34865 308.67263 391.39575 C 307.04342 385.44285 304.69338 379.89733 301.62293 374.75904 C 298.61515 369.62074 294.94936 364.92118 290.62567 360.66016 C 286.30199 356.39913 281.47738 352.76473 276.1511 349.75695 C 270.88749 346.74916 265.15363 344.43051 258.95009 342.8013 C 252.74654 341.10942 246.22951 340.26347 239.39934 340.26347 z M 119.65213 341.20346 C 111.25541 341.20346 103.51679 342.11219 96.435974 343.92939 C 89.355156 345.7466 82.932297 348.31584 77.167383 351.63693 C 71.465131 354.89536 66.452193 358.81175 62.128507 363.38609 C 57.867484 367.89776 54.327245 372.9107 51.50745 378.42496 C 48.687655 383.87657 46.619599 389.73546 45.303695 396.00167 C 43.98779 402.20522 43.4866 408.62808 43.79991 415.27026 C 43.79991 421.28582 44.739513 427.01916 46.619377 432.47076 C 48.561902 437.92236 51.193927 442.99808 54.515019 447.69774 C 57.898773 452.33473 61.877941 456.5645 66.452275 460.38689 C 71.026609 464.14661 75.976768 467.37399 81.303048 470.06847 C 86.691989 472.76294 92.331673 474.83048 98.221912 476.2717 C 104.17481 477.71293 110.15874 478.43385 116.1743 478.43385 C 119.30741 478.43385 122.59757 478.30829 126.04399 478.05764 C 129.55306 477.80699 132.99914 477.36858 136.38289 476.74196 C 139.76664 476.05268 142.96264 475.11256 145.97042 473.92198 C 149.04086 472.7314 151.70376 471.22731 153.95959 469.41011 L 153.95959 442.24639 C 150.6385 444.3769 146.65985 445.94325 142.02286 446.94585 C 137.44852 447.94844 132.6234 448.41876 127.54777 448.3561 C 122.5348 448.23077 117.49047 447.60402 112.41484 446.47611 C 107.33921 445.28553 102.67104 443.53084 98.410014 441.21235 C 94.211652 438.89385 90.608636 436.04262 87.600854 432.65886 C 84.593073 429.21245 82.650056 425.2338 81.772786 420.72212 C 80.895517 415.33318 80.958295 410.50806 81.960889 406.24704 C 82.963482 401.98601 84.59261 398.25744 86.848446 395.06167 C 89.166944 391.80324 91.893136 389.07757 95.026241 386.8844 C 98.222009 384.62856 101.51165 382.8111 104.89541 381.43253 C 108.27916 379.9913 111.5688 378.95753 114.76457 378.33091 C 118.023 377.70429 120.87423 377.39092 123.31805 377.39092 C 127.32843 376.95228 131.3076 376.92089 135.25531 377.29687 C 139.26569 377.61018 142.96235 378.17415 146.34611 378.98875 C 149.72986 379.7407 152.70665 380.64943 155.27579 381.71469 C 157.9076 382.71728 159.88149 383.6574 161.1974 384.53467 L 161.1974 350.2272 C 160.75876 349.78857 159.38023 349.09904 157.06173 348.15911 C 154.74323 347.15652 151.70418 346.15414 147.94446 345.15154 C 144.24739 344.08629 139.95485 343.17756 135.06721 342.42561 C 130.24223 341.611 125.10373 341.20346 119.65213 341.20346 z M 905.81086 341.76777 L 869.05962 343.74129 L 872.72554 477.49385 L 907.5968 475.61386 L 906.56327 426.64321 L 949.70586 475.61386 L 968.03445 459.16525 L 932.4113 423.1659 C 935.04311 422.85259 937.80018 422.38227 940.68263 421.75565 C 943.62775 421.06637 946.50986 420.18903 949.32965 419.12377 C 952.14945 417.99585 954.84425 416.6801 957.4134 415.17621 C 960.0452 413.60966 962.36386 411.79271 964.36904 409.72486 C 966.81287 407.21838 968.72398 404.80556 970.10254 402.48706 C 971.48111 400.1059 972.48349 397.72499 973.11011 395.34383 C 973.79939 392.96267 974.17555 390.54985 974.23821 388.10603 C 974.36353 385.6622 974.33214 383.06208 974.14416 380.30495 C 973.83085 376.16925 972.79708 372.19008 971.04254 368.3677 C 969.288 364.48265 967.03212 361.00467 964.27499 357.93422 C 961.58052 354.80112 958.51008 352.13822 955.06367 349.94505 C 951.61725 347.75187 948.04511 346.24779 944.34804 345.43318 C 936.01398 343.61598 928.62013 342.55082 922.16593 342.23751 C 915.7744 341.9242 910.32253 341.76777 905.81086 341.76777 z M 564.42808 342.51966 L 445.99655 346.18507 L 446.93654 374.66499 L 486.03752 372.78551 L 487.9175 477.49385 L 522.60118 476.17765 L 520.90929 371.65742 L 565.36807 369.87148 L 564.42808 342.51966 z M 319.57584 342.70776 L 319.57584 477.49385 L 355.7633 477.49385 L 353.88331 395.90762 L 410.65504 475.80197 L 436.03333 473.82793 L 433.96524 342.89535 L 402.9475 344.1175 L 406.98963 428.42915 L 346.92766 342.70776 L 319.57584 342.70776 z M 725.43841 342.70776 C 725.43841 354.17493 725.4698 364.32584 725.53246 373.1612 C 725.65778 381.9339 725.81421 389.64164 726.0022 396.28382 C 726.19018 402.92601 726.44078 408.62795 726.75409 413.39027 C 727.0674 418.15259 727.41216 422.25732 727.78813 425.70373 C 728.16411 429.08749 728.60252 431.96959 729.10382 434.35075 C 729.60511 436.66925 730.16908 438.7373 730.7957 440.5545 C 731.67297 442.93566 732.89508 445.5363 734.46163 448.3561 C 736.09084 451.11323 738.12751 453.90168 740.57133 456.72148 C 743.01516 459.47861 745.96004 462.1729 749.40645 464.8047 C 752.85287 467.43651 756.89482 469.75516 761.53181 471.76035 C 766.23147 473.76554 771.55778 475.39467 777.51068 476.64791 C 783.52624 477.83849 790.29335 478.43385 797.8128 478.43385 C 805.52024 478.43385 812.6954 477.36817 819.33759 475.23766 C 825.97977 473.10715 831.83866 470.16227 836.91429 466.40254 C 842.05258 462.64281 846.25096 458.25662 849.50939 453.24365 C 852.83048 448.16802 854.99219 442.71615 855.99478 436.88858 C 856.49608 433.8808 856.93449 430.9673 857.31046 428.14751 C 857.68643 425.26505 857.99981 422.13184 858.25046 418.74808 C 858.5011 415.30167 858.68944 411.47944 858.81476 407.28108 C 858.94009 403.02006 859.03374 398.03799 859.0964 392.33574 C 859.22172 386.63349 859.2845 380.02281 859.2845 372.50336 C 859.34716 364.92125 859.37855 356.14835 859.37855 346.18507 L 857.12288 346.27912 L 851.48291 346.27912 L 844.15157 346.27912 L 836.82024 346.27912 C 834.5644 346.21646 832.65329 346.18507 831.08674 346.18507 L 828.83055 346.18507 C 828.83055 357.08828 828.98749 367.33388 829.3008 376.92118 C 829.61411 386.44582 829.73915 395.2182 829.67649 403.23895 C 829.61383 411.2597 829.2068 418.46625 828.45486 424.85779 C 827.70291 431.18666 826.23021 436.60662 824.03704 441.11829 C 821.90653 445.5673 818.86748 449.04528 814.91977 451.55177 C 810.97205 454.05825 805.83356 455.46817 799.50469 455.78148 C 793.17581 456.09479 787.97506 455.49944 783.90202 453.99554 C 779.89165 452.42899 776.66426 449.82836 774.22044 446.19395 C 771.83928 442.49689 770.11651 437.70316 769.05125 431.81292 C 767.98599 425.92268 767.29647 418.74804 766.98316 410.28865 C 766.66985 401.7666 766.57568 391.92855 766.70101 380.77469 C 766.88899 369.62084 766.98316 356.93206 766.98316 342.70776 L 725.43841 342.70776 z M 920.5681 372.59741 C 924.89178 372.84806 928.58897 373.63124 931.65941 374.94714 C 934.79252 376.20038 937.23621 378.01784 938.99075 380.399 C 940.80795 382.7175 941.93589 385.69377 942.37452 389.32817 C 942.68783 393.33855 942.12386 396.56541 940.68263 399.00924 C 939.30407 401.45306 937.39296 403.36469 934.94913 404.74325 C 932.56797 406.12182 929.87317 407.06142 926.86539 407.56272 C 923.85761 408.06402 920.94412 408.346 918.12432 408.40866 C 915.30453 408.40866 912.76667 408.31501 910.51083 408.12703 C 908.255 407.93904 906.68813 407.84487 905.81086 407.84487 L 905.81086 372.78551 C 911.32513 372.34688 916.24441 372.2841 920.5681 372.59741 z M 239.39934 376.26334 C 245.22692 376.26334 250.61601 377.20294 255.56631 379.0828 C 260.51662 380.90001 264.77777 383.46925 268.34951 386.79034 C 271.98391 390.04877 274.80376 393.99655 276.80894 398.63355 C 278.87679 403.20788 279.91056 408.25221 279.91056 413.76648 C 279.91056 418.77944 278.87679 423.57318 276.80894 428.14751 C 274.80376 432.65918 271.98391 436.66922 268.34951 440.1783 C 264.77777 443.62472 260.51662 446.38178 255.56631 448.44963 C 250.61601 450.51748 245.22692 451.55177 239.39934 451.55177 C 234.07306 451.55177 229.06012 450.51748 224.36047 448.44963 C 219.72347 446.38178 215.65065 443.62472 212.14157 440.1783 C 208.69516 436.66922 205.96948 432.65918 203.96429 428.14751 C 201.95911 423.57318 200.95621 418.77944 200.95621 413.76648 C 200.95621 408.25221 201.95911 403.20788 203.96429 398.63355 C 205.96948 393.99655 208.69516 390.04877 212.14157 386.79034 C 215.65065 383.46925 219.72347 380.90001 224.36047 379.0828 C 229.06012 377.20294 234.07306 376.26334 239.39934 376.26334 z " />
    <path
       id="text169"
       style="font-style:normal;font-variant:normal;font-weight:normal;font-stretch:normal;font-size:207.971px;font-family:'tf2 build';-inkscape-font-specification:'tf2 build';writing-mode:lr-tb;direction:ltr;fill:#f4e5c3;fill-opacity:1;stroke-width:4.33273"
       d="M 825.95217 518.32237 C 823.44731 518.32237 820.33354 518.39006 816.6101 518.52546 C 812.88666 518.66085 808.8583 518.86393 804.52557 519.13472 C 800.19284 519.33782 795.72474 519.64268 791.12122 520.04888 C 786.58539 520.38737 782.25268 520.79351 778.12305 521.26741 L 780.15393 663.53676 C 782.72649 663.94295 786.34871 664.21372 791.01993 664.34911 C 795.01417 664.48451 800.29455 664.5181 806.86134 664.4504 C 813.42814 664.3827 821.72101 664.07835 831.74045 663.53676 C 840.33821 663.19826 848.66518 662.04701 856.72135 660.08374 C 864.77752 658.12047 872.2581 655.41285 879.16339 651.96021 C 886.06868 648.43986 892.26314 644.20843 897.74675 639.26641 C 903.23036 634.25669 907.69898 628.57016 911.15162 622.20647 C 914.60426 615.84277 916.93985 608.80191 918.15843 601.08424 C 919.37701 593.29887 919.13983 584.9383 917.44736 576.00205 C 915.75489 567.0658 912.91137 559.44931 908.91713 553.15332 C 904.99059 546.78962 900.35353 541.47565 895.00532 537.21062 C 889.65711 532.94559 883.86878 529.56054 877.64049 527.05568 C 871.41219 524.55083 865.18362 522.65497 858.95532 521.36869 C 852.72702 520.08241 846.73563 519.27013 840.98123 518.93163 C 835.29452 518.52544 830.2849 518.32237 825.95217 518.32237 z M 622.95732 519.13472 C 622.95732 531.52362 622.99091 542.49104 623.05861 552.03659 C 623.19401 561.51443 623.36349 569.84141 623.56659 577.01749 C 623.76969 584.19358 624.04045 590.35394 624.37894 595.49905 C 624.71744 600.64417 625.08948 605.07868 625.49567 608.80212 C 625.90186 612.45786 626.37621 615.57214 626.91781 618.1447 C 627.4594 620.64956 628.06861 622.88335 628.7456 624.84661 C 629.69339 627.41917 631.01309 630.22859 632.70557 633.27504 C 634.46574 636.25379 636.66646 639.26628 639.30671 642.31273 C 641.94697 645.29148 645.12843 648.2027 648.85187 651.04605 C 652.57531 653.8894 656.94213 656.39447 661.95184 658.56084 C 667.02926 660.7272 672.78348 662.48716 679.21487 663.84113 C 685.71397 665.12741 693.02558 665.77073 701.14945 665.77073 C 709.47641 665.77073 717.22776 664.61947 724.40385 662.31771 C 731.57993 660.01595 737.90977 656.83449 743.39338 652.77256 C 748.94469 648.71063 753.48048 643.97177 757.00082 638.55586 C 760.58886 633.07225 762.92445 627.18213 764.00763 620.88613 C 764.54922 617.63659 765.02305 614.48871 765.42925 611.44226 C 765.83544 608.32812 766.17441 604.94307 766.44521 601.28733 C 766.716 597.56389 766.91907 593.43425 767.05447 588.89842 C 767.18987 584.2949 767.29115 578.91272 767.35885 572.75212 C 767.49424 566.59152 767.56193 559.44939 767.56193 551.32552 C 767.62963 543.13396 767.66374 533.65624 767.66374 522.89211 L 765.22616 522.9934 L 759.13351 522.9934 L 751.21254 522.9934 L 743.2921 522.9934 C 740.85494 522.9257 738.79012 522.89211 737.09764 522.89211 L 734.66058 522.89211 C 734.66058 534.67172 734.82955 545.74043 735.16805 556.09836 C 735.50654 566.38859 735.64192 575.8663 735.57422 584.53176 C 735.50652 593.19722 735.06679 600.98267 734.25441 607.88796 C 733.44202 614.72555 731.85103 620.58156 729.48157 625.45588 C 727.17981 630.2625 723.89604 634.01959 719.63101 636.72754 C 715.36598 639.4355 709.81483 640.9588 702.97725 641.29729 C 696.13966 641.63578 690.52082 640.99298 686.12039 639.36821 C 681.78766 637.67574 678.30082 634.86632 675.66057 630.93978 C 673.08801 626.94555 671.22626 621.76644 670.07538 615.40275 C 668.9245 609.03905 668.1799 601.28719 667.84141 592.14784 C 667.50291 582.94079 667.40163 572.31233 667.53703 560.26193 C 667.74013 548.21152 667.84141 534.50237 667.84141 519.13472 L 622.95732 519.13472 z M 608.23264 519.5409 L 573.90916 520.86123 L 576.65111 597.83483 L 508.20774 599.66262 L 508.20774 522.68903 L 464.74476 522.68903 L 464.94785 664.75529 L 508.41083 664.75529 L 508.41083 623.32319 L 577.66655 621.90157 L 578.88508 662.92749 L 612.5993 661.40407 L 608.23264 519.5409 z M 828.89721 559.65266 C 832.28215 559.58496 835.83617 559.75393 839.55961 560.16012 C 843.28305 560.56632 846.90527 561.27733 850.42561 562.29281 C 854.01365 563.24059 857.43229 564.56082 860.68183 566.25329 C 863.99908 567.94576 866.91029 570.11186 869.41515 572.75212 C 871.98771 575.32468 874.08612 578.40538 875.71089 581.99342 C 877.33566 585.58146 878.28333 589.74469 878.55413 594.48361 C 879.02802 601.86279 877.87728 608.32802 875.10162 613.87933 C 872.32597 619.36294 868.12864 623.86514 862.50963 627.38548 C 856.89062 630.90582 849.95156 633.41037 841.69229 634.89975 C 833.50073 636.32142 824.22608 636.69398 813.86815 636.01699 L 812.04036 561.37917 C 814.07132 560.90528 816.54229 560.49862 819.45334 560.16012 C 822.36439 559.82163 825.51226 559.65266 828.89721 559.65266 z " />
  </g>
</svg>
