<?xml version="1.0" encoding="UTF-8" standalone="no"?>
<!-- Created with Inkscape (http://www.inkscape.org/) -->

<svg
   width="1024mm"
   height="1024mm"
   viewBox="0 0 1024 1024"
   version="1.1"
   id="svg1"
   sodipodi:docname="hud_logo.svg"
   inkscape:version="1.4.3 (0d15f75, 2025-12-25)"
   xmlns:inkscape="http://www.inkscape.org/namespaces/inkscape"
   xmlns:sodipodi="http://sodipodi.sourceforge.net/DTD/sodipodi-0.dtd"
   xmlns="http://www.w3.org/2000/svg"
   xmlns:svg="http://www.w3.org/2000/svg">
  <sodipodi:namedview
     id="namedview1"
     pagecolor="#ffffff"
     bordercolor="#000000"
     borderopacity="0.25"
     inkscape:showpageshadow="2"
     inkscape:pageopacity="0.0"
     inkscape:pagecheckerboard="0"
     inkscape:deskcolor="#d1d1d1"
     inkscape:document-units="mm"
     inkscape:zoom="0.10968323"
     inkscape:cx="2830.8795"
     inkscape:cy="1955.6317"
     inkscape:window-width="1920"
     inkscape:window-height="1009"
     inkscape:window-x="1912"
     inkscape:window-y="-8"
     inkscape:window-maximized="1"
     inkscape:current-layer="svg1"
     showguides="false" />
  <defs
     id="defs1" />
  <g
     id="layer1">
    <path
       id="path2"
       style="fill:#f4e5c3;fill-opacity:1;stroke-width:0.264583"
       d="M 945.04774 300.83073 L 122.26334 365.19838 L 24.312728 626.86613 L 121.13731 642.37164 L 4.9288981 723.19358 L -24.870833 743.91893 L -24.870833 763.82004 L 0 746.82832 L 0 758.19145 L 182.41212 652.18448 L 217.96241 657.87767 L -24.870833 782.46283 L -24.870833 827.74482 L 257.807 664.25868 L 353.80734 679.63242 L 252.08487 817.90667 L 281.65671 818.21517 L 394.23795 686.10696 L 404.69881 687.78231 L 311.94737 819.92205 L 86.251583 817.56663 L 120.44071 947.71838 L 826.29892 954.46164 L 797.09605 824.98479 L 332.6722 820.13805 L 418.26233 689.95427 L 810.71537 752.80263 L 879.2807 703.82732 L 945.04774 300.83073 z " />
    <rect
       style="fill:#33302e;fill-opacity:1;stroke:#e9d5d7;stroke-width:1.415;stroke-opacity:0"
       id="rect6"
       width="170.43085"
       height="170.43085"
       x="-170.43085"
       y="0.70749837" />
    <rect
       style="fill:#f4e5c3;fill-opacity:1;stroke:#e9d5d7;stroke-width:1.415;stroke-opacity:0"
       id="rect7"
       width="170.43085"
       height="170.43085"
       x="-170.43085"
       y="171.13834" />
    <rect
       style="fill:#4c738c;fill-opacity:1;stroke:#e9d5d7;stroke-width:1.415;stroke-opacity:0"
       id="rect8"
       width="170.43085"
       height="170.43085"
       x="-170.43085"
       y="341.56918" />
    <rect
       style="fill:#3c803c;fill-opacity:1;stroke:#e9d5d7;stroke-width:1.415;stroke-opacity:0"
       id="rect9"
       width="170.43085"
       height="170.43085"
       x="-170.43085"
       y="512" />
    <rect
       style="fill:#b73a3c;fill-opacity:1;stroke:#e9d5d7;stroke-width:1.415;stroke-opacity:0"
       id="rect10"
       width="170.43085"
       height="170.43085"
       x="-170.43085"
       y="682.43085" />
    <rect
       style="fill:#e6be36;fill-opacity:1;stroke:#e9d5d7;stroke-width:1.415;stroke-opacity:0"
       id="rect11"
       width="170.43085"
       height="170.43085"
       x="-170.43085"
       y="852.86169" />
    <path
       id="path1"
       style="fill:#33302e;fill-opacity:1;stroke-width:0.264583"
       d="M 969.91858,286.01407 147.13417,350.38171 49.183561,612.04946 v 0 0 0 0 l 786.402649,125.9365 v 0 0 0 0 0 l 68.56532,-48.9753 z"
       sodipodi:nodetypes="ccccccccccccccc" />
    <path
       style="fill:#f4e5c3;fill-opacity:1;stroke-width:0.264583"
       d="M 35.580682,501.74792 992.03765,511.39693 1024,274.99646 12.664311,322.63839 Z"
       id="path18"
       sodipodi:nodetypes="ccccc" />
    <path
       style="fill:#33302e;fill-opacity:1;stroke-width:0.264583"
       d="M 436.90879,505.52131 416.1015,693.24093 948.51909,676.06217 v 0 L 932.65373,514.35956 v 0 z"
       id="path16"
       sodipodi:nodetypes="ccccccc" />
    <path
       id="text168"
       style="font-style:normal;font-variant:normal;font-weight:normal;font-stretch:normal;font-size:192.498px;font-family:'tf2 build';-inkscape-font-specification:'tf2 build';writing-mode:lr-tb;direction:ltr;fill:#33302e;fill-opacity:1;stroke-width:4.01036"
       d="M 239.39934 340.26347 C 232.94514 340.26347 226.71062 341.10942 220.69506 342.8013 C 214.74216 344.43051 209.16525 346.74916 203.96429 349.75695 C 198.826 352.76473 194.12644 356.39913 189.86541 360.66016 C 185.66705 364.92118 182.06352 369.62074 179.05574 374.75904 C 176.04796 379.89733 173.69843 385.44285 172.00656 391.39575 C 170.37734 397.34865 169.56278 403.52091 169.56278 409.91245 C 169.56278 416.30398 170.37734 422.41398 172.00656 428.24156 C 173.69843 434.06914 176.04796 439.52049 179.05574 444.59612 C 182.06352 449.67175 185.66705 454.30854 189.86541 458.5069 C 194.12644 462.6426 198.826 466.18335 203.96429 469.12847 C 209.16525 472.07359 214.74216 474.36085 220.69506 475.99007 C 226.71062 477.61928 232.94514 478.43385 239.39934 478.43385 C 246.22951 478.43385 252.74654 477.61928 258.95009 475.99007 C 265.15363 474.36085 270.88749 472.07359 276.1511 469.12847 C 281.47738 466.18335 286.30199 462.6426 290.62567 458.5069 C 294.94936 454.30854 298.61515 449.67175 301.62293 444.59612 C 304.69338 439.52049 307.04342 434.06914 308.67263 428.24156 C 310.36451 422.35132 311.21046 416.24132 311.21046 409.91245 C 311.21046 403.52091 310.36451 397.34865 308.67263 391.39575 C 307.04342 385.44285 304.69338 379.89733 301.62293 374.75904 C 298.61515 369.62074 294.94936 364.92118 290.62567 360.66016 C 286.30199 356.39913 281.47738 352.76473 276.1511 349.75695 C 270.88749 346.74916 265.15363 344.43051 258.95009 342.8013 C 252.74654 341.10942 246.22951 340.26347 239.39934 340.26347 z M 119.65213 341.20346 C 111.25541 341.20346 103.51679 342.11219 96.435974 343.92939 C 89.355156 345.7466 82.932297 348.31584 77.167383 351.63693 C 71.465131 354.89536 66.452193 358.81175 62.128507 363.38609 C 57.867484 367.89776 54.327245 372.9107 51.50745 378.42496 C 48.687655 383.87657 46.619599 389.73546 45.303695 396.00167 C 43.98779 402.20522 43.4866 408.62808 43.79991 415.27026 C 43.79991 421.28582 44.739513 427.01916 46.619377 432.47076 C 48.561902 437.92236 51.193927 442.99808 54.515019 447.69774 C 57.898773 452.33473 61.877941 456.5645 66.452275 460.38689 C 71.026609 464.14661 75.976768 467.37399 81.303048 470.06847 C 86.691989 472.76294 92.331673 474.83048 98.221912 476.2717 C 104.17481 477.71293 110.15874 478.43385 116.1743 478.43385 C 119.30741 478.43385 122.59757 478.30829 126.04399 478.05764 C 129.55306 477.80699 132.99914 477.36858 136.38289 476.74196 C 139.76664 476.05268 142.96264 475.11256 145.97042 473.92198 C 149.04086 472.7314 151.70376 471.22731 153.95959 469.41011 L 153.95959 442.24639 C 150.6385 444.3769 146.65985 445.94325 142.02286 446.94585 C 137.44852 447.94844 132.6234 448.41876 127.54777 448.3561 C 122.5348 448.23077 117.49047 447.60402 112.41484 446.47611 C 107.33921 445.28553 102.67104 443.53084 98.410014 441.21235 C 94.211652 438.89385 90.608636 436.04262 87.600854 432.65886 C 84.593073 429.21245 82.650056 425.2338 81.772786 420.72212 C 80.895517 415.33318 80.958295 410.50806 81.960889 406.24704 C 82.963482 401.98601 84.59261 398.25744 86.848446 395.06167 C 89.166944 391.80324 91.893136 389.07757 95.026241 386.8844 C 98.222009 384.62856 101.51165 382.8111 104.89541 381.43253 C 108.27916 379.9913 111.5688 378.95753 114.76457 378.33091 C 118.023 377.70429 120.87423 377.39092 123.31805 377.39092 C 127.32843 376.95228 131.3076 376.92089 135.25531 377.29687 C 139.26569 377.61018 142.96235 378.17415 146.34611 378.98875 C 149.72986 379.7407 152.70665 380.64943 155.27579 381.71469 C 157.9076 382.71728 159.88149 383.6574 161.1974 384.53467 L 161.1974 350.2272 C 160.75876 349.78857 159.38023 349.09904 157.06173 348.15911 C 154.74323 347.15652 151.70418 346.15414 147.94446 345.15154 C 144.24739 344.08629 139.95485 343.17756 135.06721 342.42561 C 130.24223 341.611 125.10373 341.20346 119.65213 341.20346 z M 905.81086 341.76777 L 869.05962 343.74129 L 872.72554 477.49385 L 907.5968 475.61386 L 906.56327 426.64321 L 949.70586 475.61386 L 968.03445 459.16525 L 932.4113 423.1659 C 935.04311 422.85259 937.80018 422.38227 940.68263 421.75565 C 943.62775 421.06637 946.50986 420.18903 949.32965 419.12377 C 952.14945 417.99585 954.84425 416.6801 957.4134 415.17621 C 960.0452 413.60966 962.36386 411.79271 964.36904 409.72486 C 966.81287 407.21838 968.72398 404.80556 970.10254 402.48706 C 971.48111 400.1059 972.48349 397.72499 973.11011 395.34383 C 973.79939 392.96267 974.17555 390.54985 974.23821 388.10603 C 974.36353 385.6622 974.33214 383.06208 974.14416 380.30495 C 973.83085 376.16925 972.79708 372.19008 971.04254 368.3677 C 969.288 364.48265 967.03212 361.00467 964.27499 357.93422 C 961.58052 354.80112 958.51008 352.13822 955.06367 349.94505 C 951.61725 347.75187 948.04511 346.24779 944.34804 345.43318 C 936.01398 343.61598 928.62013 342.55082 922.16593 342.23751 C 915.7744 341.9242 910.32253 341.76777 905.81086 341.76777 z M 564.42808 342.51966 L 445.99655 346.18507 L 446.93654 374.66499 L 486.03752 372.78551 L 487.9175 477.49385 L 522.60118 476.17765 L 520.90929 371.65742 L 565.36807 369.87148 L 564.42808 342.51966 z M 319.57584 342.70776 L 319.57584 477.49385 L 355.7633 477.49385 L 353.88331 395.90762 L 410.65504 475.80197 L 436.03333 473.82793 L 433.96524 342.89535 L 402.9475 344.1175 L 406.98963 428.42915 L 346.92766 342.70776 L 319.57584 342.70776 z M 725.43841 342.70776 C 725.43841 354.17493 725.4698 364.32584 725.53246 373.1612 C 725.65778 381.9339 725.81421 389.64164 726.0022 396.28382 C 726.19018 402.92601 726.44078 408.62795 726.75409 413.39027 C 727.0674 418.15259 727.41216 422.25732 727.78813 425.70373 C 728.16411 429.08749 728.60252 431.96959 729.10382 434.35075 C 729.60511 436.66925 730.16908 438.7373 730.7957 440.5545 C 731.67297 442.93566 732.89508 445.5363 734.46163 448.3561 C 736.09084 451.11323 738.12751 453.90168 740.57133 456.72148 C 743.01516 459.47861 745.96004 462.1729 749.40645 464.8047 C 752.85287 467.43651 756.89482 469.75516 761.53181 471.76035 C 766.23147 473.76554 771.55778 475.39467 777.51068 476.64791 C 783.52624 477.83849 790.29335 478.43385 797.8128 478.43385 C 805.52024 478.43385 812.6954 477.36817 819.33759 475.23766 C 825.97977 473.10715 831.83866 470.16227 836.91429 466.40254 C 842.05258 462.64281 846.25096 458.25662 849.50939 453.24365 C 852.83048 448.16802 854.99219 442.71615 855.99478 436.88858 C 856.49608 433.8808 856.93449 430.9673 857.31046 428.14751 C 857.68643 425.26505 857.99981 422.13184 858.25046 418.74808 C 858.5011 415.30167 858.68944 411.47944 858.81476 407.28108 C 858.94009 403.02006 859.03374 398.03799 859.0964 392.33574 C 859.22172 386.63349 859.2845 380.02281 859.2845 372.50336 C 859.34716 364.92125 859.37855 356.14835 859.37855 346.18507 L 857.12288 346.27912 L 851.48291 346.27912 L 844.15157 346.27912 L 836.82024 346.27912 C 834.5644 346.21646 832.65329 346.18507 831.08674 346.18507 L 828.83055 346.18507 C 828.83055 357.08828 828.98749 367.33388 829.3008 376.92118 C 829.61411 386.44582 829.73915 395.2182 829.67649 403.23895 C 829.61383 411.2597 829.2068 418.46625 828.45486 424.85779 C 827.70291 431.18666 826.23021 436.60662 824.03704 441.11829 C 821.90653 445.5673 818.86748 449.04528 814.91977 451.55177 C 810.97205 454.05825 805.83356 455.46817 799.50469 455.78148 C 793.17581 456.09479 787.97506 455.49944 783.90202 453.99554 C 779.89165 452.42899 776.66426 449.82836 774.22044 446.19395 C 771.83928 442.49689 770.11651 437.70316 769.05125 431.81292 C 767.98599 425.92268 767.29647 418.74804 766.98316 410.28865 C 766.66985 401.7666 766.57568 391.92855 766.70101 380.77469 C 766.88899 369.62084 766.98316 356.93206 766.98316 342.70776 L 725.43841 342.70776 z M 920.5681 372.59741 C 924.89178 372.84806 928.58897 373.63124 931.65941 374.94714 C 934.79252 376.20038 937.23621 378.01784 938.99075 380.399 C 940.80795 382.7175 941.93589 385.69377 942.37452 389.32817 C 942.68783 393.33855 942.12386 396.56541 940.68263 399.00924 C 939.30407 401.45306 937.39296 403.36469 934.94913 404.74325 C 932.56797 406.12182 929.87317 407.06142 926.86539 407.56272 C 923.85761 408.06402 920.94412 408.346 918.12432 408.40866 C 915.30453 408.40866 912.76667 408.31501 910.51083 408.12703 C 908.255 407.93904 906.68813 407.84487 905.81086 407.84487 L 905.81086 372.78551 C 911.32513 372.34688 916.24441 372.2841 920.5681 372.59741 z M 239.39934 376.26334 C 245.22692 376.26334 250.61601 377.20294 255.56631 379.0828 C 260.51662 380.90001 264.77777 383.46925 268.34951 386.79034 C 271.98391 390.04877 274.80376 393.99655 276.80894 398.63355 C 278.87679 403.20788 279.91056 408.25221 279.91056 413.76648 C 279.91056 418.77944 278.87679 423.57318 276.80894 428.14751 C 274.80376 432.65918 271.98391 436.66922 268.34951 440.1783 C 264.77777 443.62472 260.51662 446.38178 255.56631 448.44963 C 250.61601 450.51748 245.22692 451.55177 239.39934 451.55177 C 234.07306 451.55177 229.06012 450.51748 224.36047 448.44963 C 219.72347 446.38178 215.65065 443.62472 212.14157 440.1783 C 208.69516 436.66922 205.96948 432.65918 203.96429 428.14751 C 201.95911 423.57318 200.95621 418.77944 200.95621 413.76648 C 200.95621 408.25221 201.95911 403.20788 203.96429 398.63355 C 205.96948 393.99655 208.69516 390.04877 212.14157 386.79034 C 215.65065 383.46925 219.72347 380.90001 224.36047 379.0828 C 229.06012 377.20294 234.07306 376.26334 239.39934 376.26334 z " />
    <path
       id="text169"
       style="font-style:normal;font-variant:normal;font-weight:normal;font-stretch:normal;font-size:207.971px;font-family:'tf2 build';-inkscape-font-specification:'tf2 build';writing-mode:lr-tb;direction:ltr;fill:#f4e5c3;fill-opacity:1;stroke-width:4.33273"
       d="M 825.95217 518.32237 C 823.44731 518.32237 820.33354 518.39006 816.6101 518.52546 C 812.88666 518.66085 808.8583 518.86393 804.52557 519.13472 C 800.19284 519.33782 795.72474 519.64268 791.12122 520.04888 C 786.58539 520.38737 782.25268 520.79351 778.12305 521.26741 L 780.15393 663.53676 C 782.72649 663.94295 786.34871 664.21372 791.01993 664.34911 C 795.01417 664.48451 800.29455 664.5181 806.86134 664.4504 C 813.42814 664.3827 821.72101 664.07835 831.74045 663.53676 C 840.33821 663.19826 848.66518 662.04701 856.72135 660.08374 C 864.77752 658.12047 872.2581 655.41285 879.16339 651.96021 C 886.06868 648.43986 892.26314 644.20843 897.74675 639.26641 C 903.23036 634.25669 907.69898 628.57016 911.15162 622.20647 C 914.60426 615.84277 916.93985 608.80191 918.15843 601.08424 C 919.37701 593.29887 919.13983 584.9383 917.44736 576.00205 C 915.75489 567.0658 912.91137 559.44931 908.91713 553.15332 C 904.99059 546.78962 900.35353 541.47565 895.00532 537.21062 C 889.65711 532.94559 883.86878 529.56054 877.64049 527.05568 C 871.41219 524.55083 865.18362 522.65497 858.95532 521.36869 C 852.72702 520.08241 846.73563 519.27013 840.98123 518.93163 C 835.29452 518.52544 830.2849 518.32237 825.95217 518.32237 z M 622.95732 519.13472 C 622.95732 531.52362 622.99091 542.49104 623.05861 552.03659 C 623.19401 561.51443 623.36349 569.84141 623.56659 577.01749 C 623.76969 584.19358 624.04045 590.35394 624.37894 595.49905 C 624.71744 600.64417 625.08948 605.07868 625.49567 608.80212 C 625.90186 612.45786 626.37621 615.57214 626.91781 618.1447 C 627.4594 620.64956 628.06861 622.88335 628.7456 624.84661 C 629.69339 627.41917 631.01309 630.22859 632.70557 633.27504 C 634.46574 636.25379 636.66646 639.26628 639.30671 642.31273 C 641.94697 645.29148 645.12843 648.2027 648.85187 651.04605 C 652.57531 653.8894 656.94213 656.39447 661.95184 658.56084 C 667.02926 660.7272 672.78348 662.48716 679.21487 663.84113 C 685.71397 665.12741 693.02558 665.77073 701.14945 665.77073 C 709.47641 665.77073 717.22776 664.61947 724.40385 662.31771 C 731.57993 660.01595 737.90977 656.83449 743.39338 652.77256 C 748.94469 648.71063 753.48048 643.97177 757.00082 638.55586 C 760.58886 633.07225 762.92445 627.18213 764.00763 620.88613 C 764.54922 617.63659 765.02305 614.48871 765.42925 611.44226 C 765.83544 608.32812 766.17441 604.94307 766.44521 601.28733 C 766.716 597.56389 766.91907 593.43425 767.05447 588.89842 C 767.18987 584.2949 767.29115 578.91272 767.35885 572.75212 C 767.49424 566.59152 767.56193 559.44939 767.56193 551.32552 C 767.62963 543.13396 767.66374 533.65624 767.66374 522.89211 L 765.22616 522.9934 L 759.13351 522.9934 L 751.21254 522.9934 L 743.2921 522.9934 C 740.85494 522.9257 738.79012 522.89211 737.09764 522.89211 L 734.66058 522.89211 C 734.66058 534.67172 734.82955 545.74043 735.16805 556.09836 C 735.50654 566.38859 735.64192 575.8663 735.57422 584.53176 C 735.50652 593.19722 735.06679 600.98267 734.25441 607.88796 C 733.44202 614.72555 731.85103 620.58156 729.48157 625.45588 C 727.17981 630.2625 723.89604 634.01959 719.63101 636.72754 C 715.36598 639.4355 709.81483 640.9588 702.97725 641.29729 C 696.13966 641.63578 690.52082 640.99298 686.12039 639.36821 C 681.78766 637.67574 678.30082 634.86632 675.66057 630.93978 C 673.08801 626.94555 671.22626 621.76644 670.07538 615.40275 C 668.9245 609.03905 668.1799 601.28719 667.84141 592.14784 C 667.50291 582.94079 667.40163 572.31233 667.53703 560.26193 C 667.74013 548.21152 667.84141 534.50237 667.84141 519.13472 L 622.95732 519.13472 z M 608.23264 519.5409 L 573.90916 520.86123 L 576.65111 597.83483 L 508.20774 599.66262 L 508.20774 522.68903 L 464.74476 522.68903 L 464.94785 664.75529 L 508.41083 664.75529 L 508.41083 623.32319 L 577.66655 621.90157 L 578.88508 662.92749 L 612.5993 661.40407 L 608.23264 519.5409 z M 828.89721 559.65266 C 832.28215 559.58496 835.83617 559.75393 839.55961 560.16012 C 843.28305 560.56632 846.90527 561.27733 850.42561 562.29281 C 854.01365 563.24059 857.43229 564.56082 860.68183 566.25329 C 863.99908 567.94576 866.91029 570.11186 869.41515 572.75212 C 871.98771 575.32468 874.08612 578.40538 875.71089 581.99342 C 877.33566 585.58146 878.28333 589.74469 878.55413 594.48361 C 879.02802 601.86279 877.87728 608.32802 875.10162 613.87933 C 872.32597 619.36294 868.12864 623.86514 862.50963 627.38548 C 856.89062 630.90582 849.95156 633.41037 841.69229 634.89975 C 833.50073 636.32142 824.22608 636.69398 813.86815 636.01699 L 812.04036 561.37917 C 814.07132 560.90528 816.54229 560.49862 819.45334 560.16012 C 822.36439 559.82163 825.51226 559.65266 828.89721 559.65266 z " />
    <path
       style="fill:#33302e;fill-opacity:1;stroke-width:0.304066"
       d="m 136.06545,933.43069 -34.18894,-130.15155 710.84452,7.41797 29.20304,129.47718 z"
       id="path3" />
    <path
       id="text3"
       style="font-style:italic;font-variant:normal;font-weight:600;font-stretch:normal;font-size:118.933px;font-family:'VALVE Oracle';-inkscape-font-specification:'VALVE Oracle Semi-Bold Italic';writing-mode:lr-tb;direction:ltr;fill:#f4e5c3;fill-opacity:1;stroke-width:1.59284"
       d="m 780.78741,834.73965 -0.24406,-0.009 -18.24783,1.64126 c -0.37242,0.0635 -0.62297,0.13154 -0.75142,0.20408 -0.0471,0.0756 0.0145,0.30973 0.1854,0.70261 l 26.43907,52.23656 c 0.20488,0.47146 0.55152,0.71627 1.03944,0.73439 l 13.27103,-0.667 c 0.48792,0.0181 0.62967,-0.20831 0.42463,-0.67976 l -20.97422,-53.19294 c -0.27339,-0.6286 -0.65426,-0.95239 -1.14207,-0.97026 z m -44.28268,3.76419 -31.60155,-1.17403 3.81136,14.6524 c 5.5277,0.26381 11.01167,0.69414 16.45201,1.29141 6.38546,0.70101 11.29796,1.69501 14.73814,2.98239 0.55627,0.17528 0.92246,0.18882 1.09806,0.0407 0.14145,-0.22667 0.17366,-0.61199 0.0971,-1.15599 l -2.81156,-15.29499 c -0.0895,-0.38986 -0.3485,-0.70906 -0.7763,-0.95688 -0.34648,-0.24478 -0.68197,-0.37296 -1.00725,-0.38504 z m -36.65522,-1.36148 -17.74932,-0.65959 c -0.65059,-0.0242 -0.90722,0.1212 -0.77053,0.4355 l 0.3268,0.47569 c 0.43603,0.63464 1.11546,2.01297 2.03814,4.13452 1.77706,4.08596 3.17134,8.11902 4.1823,12.09921 l 13.24526,51.97844 c 0.12371,0.46843 2.0547,2.24101 5.79294,5.31752 3.70406,2.99793 5.7589,4.50419 6.16552,4.51929 l 9.19741,0.34166 z m -114.43473,-5.52625 -25.83938,-0.33196 2.8144,10.50403 9.00665,0.0915 c 0.48792,0.0181 1.61307,0.94936 3.37492,2.79285 1.80901,1.76795 2.82033,3.08108 3.03359,3.93938 l 2.47597,9.83218 c 0.17908,0.77972 -0.20676,1.73217 -1.15795,2.85644 -0.86986,1.12729 -1.6134,1.71777 -2.2298,1.77218 l -8.74335,0.21356 2.9084,10.85413 10.96106,0.71892 c 0.48792,0.0181 1.61285,0.94884 3.37471,2.79234 1.76185,1.8435 2.76651,3.23389 3.01394,4.17077 l 3.03291,11.94055 c 0.17909,0.77971 -0.17906,1.88713 -1.07487,3.32268 -0.84865,1.36001 -1.51674,2.03118 -2.00466,2.01306 l -10.82423,-0.77733 3.27104,12.20889 15.16973,0.56331 c 1.78904,0.0664 3.97226,-0.43256 6.54986,-1.49642 2.65892,-1.06085 5.06338,-2.24692 7.21318,-3.55859 2.11562,-1.39026 3.16981,-2.27865 3.16158,-2.66549 -0.0411,-1.9342 -0.77418,-5.82697 -2.1987,-11.6779 -1.45871,-5.9295 -2.71762,-10.11221 -3.777,-12.54807 -0.30752,-0.70719 -0.53608,-1.14053 -0.6858,-1.30071 -0.78252,-0.87944 -2.96679,-2.31382 -6.55189,-4.30235 -3.50377,-1.9855 -6.06651,-3.27885 -7.68819,-3.88024 l -0.20477,-0.4712 c 0.92049,-0.27503 2.76202,-1.55964 5.52473,-3.85353 2.72854,-2.37248 4.06493,-3.7143 4.00956,-4.02559 l -2.32601,-13.0742 c -0.17909,-0.77973 -1.25568,-2.52039 -3.2308,-5.22219 -2.00929,-2.78036 -4.0962,-5.37018 -6.2599,-7.76976 -2.08239,-2.39655 -3.44859,-3.60707 -4.09916,-3.63123 z m 50.8203,3.16337 -19.88299,-0.73871 c -0.65059,-0.0242 -0.8901,0.16055 -0.71922,0.55343 l 0.15353,0.35329 c 0.75657,1.1877 1.59621,2.84246 2.51889,4.96401 1.64032,3.77166 2.93147,7.56904 3.87409,11.39209 l 10.29566,40.50465 c 1.80866,7.1021 2.88373,13.71332 3.22512,19.83325 0.008,0.38684 0.0868,0.65985 0.2365,0.82003 0.19682,0.0846 0.53919,0.13604 1.02712,0.15416 l 20.10821,0.74716 -20.0024,-78.32068 c -0.14968,-0.16017 -0.42809,-0.24757 -0.83471,-0.26268 z m -81.5241,-3.5575 -21.79469,-0.28003 c -0.65058,-0.0242 -0.90745,0.12067 -0.77075,0.43498 l 0.32701,0.47619 c 0.40186,0.55608 1.09412,1.77987 2.07692,3.67174 1.06413,1.89488 1.98926,3.74591 2.77525,5.55316 0.75178,1.72868 1.3135,3.29604 1.68472,4.70136 l 13.54183,49.90182 c 0.68696,2.49933 1.22552,6.03696 1.61534,10.61254 0.14841,1.62897 0.25669,2.52199 0.32504,2.67914 0.17106,0.39288 0.54116,0.5998 1.11041,0.62095 l 18.31757,0.6802 z m -58.51133,-1.64378 -10.07344,-0.37409 1.02592,16.65322 13.79861,28.30994 -12.0817,-0.44858 0.82323,13.36617 17.76315,0.65931 c 1.70045,3.54197 3.29404,7.38937 4.77996,11.54183 1.48593,4.15245 2.43796,6.89361 2.85627,8.22337 0.17106,0.39288 0.58159,0.60123 1.23216,0.62539 l 19.76125,0.73426 c 0.48791,0.0181 0.81929,-0.0471 0.9949,-0.19518 0.17563,-0.14809 0.14413,-0.49692 -0.0951,-1.04695 l -0.1025,-0.23588 L 501.7063,839.755 c -1.47422,-2.8378 -2.92914,-5.90634 -4.36443,-9.20653 -0.2734,-0.62861 -0.65415,-0.95214 -1.14209,-0.97027 z m -13.57195,-0.50409 -15.58127,-0.57862 c -0.48792,-0.0181 -0.75558,0.0106 -0.80275,0.0861 -0.0471,0.0756 -0.0499,0.34567 -0.008,0.81109 0.1272,1.39624 0.12069,4.14054 -0.0198,8.23259 l -0.20901,3.93466 -1.08198,63.7384 c 0.0294,0.61955 0.4504,0.944 1.26362,0.9742 l 19.24517,0.71489 z m -40.9538,-1.5214 -59.40505,-2.20619 c -0.3253,-0.0121 -0.64027,0.0919 -0.94434,0.31257 -0.22277,0.22364 -0.28905,0.53077 -0.19951,0.92063 l 4.73849,14.20703 c 0.12372,0.46844 0.26059,0.78279 0.41027,0.94296 0.231,0.1632 0.50891,0.25057 0.8342,0.26266 l 0.48827,0.0184 c 5.77164,-0.48194 11.37621,-0.75111 16.81413,-0.80647 l 5.1e-4,10e-6 0.0609,-2.9e-4 c 0.57877,-0.006 1.15605,-0.009 1.73112,-0.01 l 19.39493,0.72085 c 1.03692,0.0694 2.12418,0.15446 3.26096,0.2553 l 0.0159,10e-4 5.3e-4,3e-5 c 4.55114,0.40417 9.90173,1.06032 16.05209,1.96846 0.5221,0.0967 0.83017,0.0694 0.92447,-0.0817 0.14144,-0.22667 0.19132,-0.57261 0.14893,-1.03803 l -2.52353,-14.35651 c -0.0554,-0.31129 -0.28002,-0.55178 -0.67368,-0.721 -0.4278,-0.24782 -0.80445,-0.37797 -1.12974,-0.39005 z m -110.32798,-5.60543 c -1.21982,-0.0453 -3.15784,0.92637 -5.81329,2.91503 -2.55721,1.97857 -4.98971,4.15283 -7.29803,6.52212 l 13.94169,7.93581 c 0.16169,-0.88698 0.45414,-1.32274 0.87632,-1.30706 2.35832,0.0876 7.32093,0.73618 14.88729,1.94491 7.6135,1.13315 15.45513,2.69987 23.52587,4.70039 0.99704,0.26895 1.31459,-0.1057 0.95165,-1.12418 l -4.54454,-16.51951 c -0.0895,-0.38987 -0.45316,-0.67404 -1.09077,-0.85234 -14.43498,-2.46882 -26.24688,-3.87385 -35.43619,-4.21517 z m -37.27032,0.12317 -17.32137,-0.64339 c -0.48793,-0.0181 -0.77889,0.0485 -0.87318,0.19963 -0.0471,0.0756 0.0145,0.30972 0.18541,0.70261 2.67852,5.97481 4.98388,12.74755 6.91627,20.31809 l 5.88039,23.1785 -37.60627,-42.79806 7.73386,30.04741 29.4434,33.83971 c 1.11604,1.27836 2.27656,2.75128 3.48214,4.4195 1.25273,1.59268 2.46491,3.1842 3.63631,4.77384 l 2.91131,3.93489 15.73557,0.58431 c 0.7319,0.0272 0.96115,-0.27363 0.68777,-0.90224 -2.74688,-6.13196 -5.0584,-12.82742 -6.9354,-20.08667 l -9.35527,-36.41134 c -1.86403,-7.41338 -2.97316,-14.1028 -3.32755,-20.0686 -0.008,-0.38683 -0.128,-0.66183 -0.35902,-0.82502 -0.14969,-0.16017 -0.42779,-0.24807 -0.8344,-0.26317 z m -47.81565,-1.77571 -15.73662,-0.58437 c -0.40661,-0.0151 -0.65736,0.0524 -0.75164,0.20357 -0.0943,0.15111 -0.0626,0.50047 0.0953,1.04748 l 14.27594,55.7274 c 1.86404,7.41339 3.00057,14.25827 3.41032,20.53534 0.008,0.38684 0.087,0.66037 0.23671,0.82054 0.19681,0.0846 0.53918,0.13605 1.02711,0.15418 l 18.54121,0.68856 c 0.7319,0.0272 0.96138,-0.27311 0.68799,-0.90172 -2.847,-6.36229 -5.18514,-13.20775 -7.01432,-20.53553 l -0.0556,-0.0206 z m -38.05948,-1.41395 -20.58781,-0.76457 23.98795,78.12085 c 0.33351,0.39892 0.94764,0.61502 1.84218,0.64824 l 14.88151,0.55252 c 0.81321,0.0302 1.08291,-0.26917 0.80952,-0.89778 -2.88358,-6.44627 -5.28057,-13.338 -7.19175,-20.67583 l -9.32308,-36.06198 c -1.74032,-6.94495 -2.81538,-13.55617 -3.22513,-19.83326 -0.0424,-0.46541 -0.16218,-0.7404 -0.35902,-0.82502 -0.14969,-0.16017 -0.4278,-0.24807 -0.8344,-0.26317 z m -41.3519,-1.5355 -20.98107,-0.77943 c -0.81322,-0.0302 -1.08291,0.26917 -0.80952,0.89778 2.8494,6.3677 5.1955,13.14139 7.03833,20.32207 l 12.9567,51.03993 c 0.1791,0.77971 2.45315,1.86956 6.82204,3.26875 4.36889,1.39918 9.13403,2.69693 14.29493,3.89361 5.19506,1.27525 8.36167,1.9339 9.50017,1.97619 1.21981,0.0453 2.89653,-0.97443 5.02988,-3.05978 1.27614,-1.1999 2.56235,-2.68199 3.85885,-4.44591 l -4.16462,-11.74256 c -0.1255,0.16321 -0.25672,0.3325 -0.39368,0.50759 -1.64543,2.10349 -2.63052,3.14934 -2.9558,3.13726 -1.30113,-0.0483 -4.18983,-0.6196 -8.66598,-1.71354 -4.39483,-1.09091 -6.67124,-1.90961 -6.82912,-2.45662 l -10.28281,-39.92442 c -1.74032,-6.94495 -2.81538,-13.55617 -3.22513,-19.83324 -0.0424,-0.46541 -0.16218,-0.74041 -0.35902,-0.82503 -0.14969,-0.16017 -0.42758,-0.24755 -0.83417,-0.26265 z m 149.14791,16.66381 c -0.79687,1.08127 -1.20817,1.91892 -1.23404,2.51335 -0.0389,0.46239 0.59044,2.92084 1.88777,7.37551 l 2.60523,9.02555 c 0.0484,0.11122 0.12449,0.23489 0.22778,0.37087 l 64.6968,36.82641 c 0.0819,-0.195 0.15197,-0.38477 0.20974,-0.56941 0.38194,-1.14542 0.0762,-4.05582 -0.91699,-8.73112 -0.91193,-4.67228 -1.6585,-7.67636 -2.23946,-9.01215 -0.17943,-0.41292 -0.61046,-0.91163 -1.29276,-1.49569 l -7.4e-4,-5.5e-4 -34.98185,-19.86045 c -6.7e-4,-3.6e-4 -0.001,-7.5e-4 -0.002,-10e-4 -0.7945,-0.43302 -1.58748,-0.86591 -2.37894,-1.2988 -3.07646,-1.68268 -5.62976,-3.14965 -7.66008,-4.40071 l -5.3e-4,-3e-5 z m 110.56211,11.74347 -14.17228,-0.49256 -5.19985,-0.18108 9.71455,38.37428 c 1.20302,4.60578 2.30548,11.37246 3.3079,20.29999 0.0554,0.31127 0.15808,0.54692 0.30767,0.70709 0.19681,0.0846 0.49876,0.13461 0.90536,0.14971 l 20.98054,0.77941 c 0.48792,0.0181 0.75559,-0.0106 0.80272,-0.0862 0.0943,-0.15111 0.0559,-0.42321 -0.11496,-0.81608 -2.67853,-5.97481 -4.98389,-12.74755 -6.91627,-20.31809 z m 313.34897,22.09942 -3.55707,0.0998 c -4.90521,0.12704 -9.55334,0.10911 -13.94469,-0.054 l -9.64468,-0.35837 3.83748,14.75333 9.46047,0.3516 c 3.09021,0.11478 7.64802,0.47721 13.67403,1.08757 l 4.25005,0.39027 c 1.05719,0.0393 1.42129,-0.41124 1.09253,-1.35113 l -3.45501,-13.46371 c -0.16612,-0.93385 -0.73726,-1.41914 -1.71312,-1.45539 z m 59.40695,30.25222 c -0.2235,-0.008 -0.41455,0.0812 -0.57305,0.26865 l -9.2289,10.78964 c -0.44551,0.4473 -0.29836,0.87775 0.44173,1.29177 l 18.4218,12.28006 c 0.57748,0.40799 1.02527,0.42492 1.34234,0.0502 l 9.38231,-10.43587 c 0.44554,-0.44729 0.29815,-0.87826 -0.44194,-1.29228 l -18.57576,-12.63387 c -0.28875,-0.20399 -0.5449,-0.30997 -0.76853,-0.31827 z m -115.25522,-2.75646 c -0.16262,-0.006 -0.3489,0.0256 -0.55869,0.0951 -2.82158,1.0548 -6.56309,1.65033 -11.22434,1.78643 -3.34532,0.041 -7.58333,-0.0102 -12.71441,-0.15329 l 3.68906,16.51646 26.28724,0.97626 c 0.32529,0.0121 0.5996,-0.0939 0.82237,-0.31753 0.30409,-0.22063 0.41101,-0.5258 0.32147,-0.91566 l -5.44916,-16.66869 c -0.21327,-0.8583 -0.6042,-1.29793 -1.17354,-1.31907 z m 67.23685,3.65708 -0.43697,0.0995 c -2.82158,1.0548 -7.3417,1.69862 -13.56104,1.93146 -5.13806,0.19743 -10.40484,0.22751 -15.80061,0.0903 l 3.8423,14.77227 31.16675,1.15749 c 0.3253,0.0121 0.59931,-0.0934 0.82207,-0.31705 0.30409,-0.22063 0.41132,-0.5263 0.32178,-0.91615 l -5.0585,-15.49435 c -0.37594,-0.86433 -0.80788,-1.30542 -1.29581,-1.32354 z m -426.128,-22.42209 c -0.57898,-0.0608 -0.73993,0.35315 -0.48335,1.24205 l 5.04943,18.50942 c 0.0895,0.38986 0.45317,0.67402 1.09076,0.85232 15.56749,4.52087 27.90527,6.95054 37.01326,7.28884 0.81321,0.0302 2.49998,-0.87394 5.06112,-2.71149 2.56116,-1.83754 4.97914,-3.91231 7.25393,-6.22433 0.89803,-0.92341 1.66006,-1.78807 2.28593,-2.59433 l -14.18731,-8.05498 c -0.10037,0.48929 -0.33547,0.90684 -0.70586,1.25245 -0.31705,0.37476 -0.71957,0.55317 -1.20749,0.53504 l -0.24406,-0.009 c -5.45674,-0.58921 -11.22365,-1.61513 -17.30027,-3.07774 -5.99531,-1.4596 -13.71441,-3.75613 -23.15812,-6.88995 -0.1781,-0.0646 -0.33418,-0.10382 -0.46779,-0.11785 z" />
  </g>
</svg>
