<?xml version="1.0" encoding="UTF-8" standalone="no"?>
<!-- Created with Inkscape (http://www.inkscape.org/) -->

<svg
   width="1024mm"
   height="1024mm"
   viewBox="0 0 1024 1024"
   version="1.1"
   id="svg1"
   sodipodi:docname="tf2c_logo.svg"
   inkscape:version="1.4.3 (0d15f75042, 2025-12-25)"
   xmlns:inkscape="http://www.inkscape.org/namespaces/inkscape"
   xmlns:sodipodi="http://sodipodi.sourceforge.net/DTD/sodipodi-0.dtd"
   xmlns="http://www.w3.org/2000/svg"
   xmlns:svg="http://www.w3.org/2000/svg">
  <sodipodi:namedview
     id="namedview1"
     pagecolor="#ffffff"
     bordercolor="#000000"
     borderopacity="0.25"
     inkscape:showpageshadow="2"
     inkscape:pageopacity="0.0"
     inkscape:pagecheckerboard="0"
     inkscape:deskcolor="#d1d1d1"
     inkscape:document-units="mm"
     inkscape:zoom="0.15511551"
     inkscape:cx="1511.7766"
     inkscape:cy="2246.7128"
     inkscape:window-width="1920"
     inkscape:window-height="1048"
     inkscape:window-x="0"
     inkscape:window-y="0"
     inkscape:window-maximized="1"
     inkscape:current-layer="svg1" />
  <defs
     id="defs1" />
  <rect
     style="fill:#33302e;fill-opacity:1;stroke:#e9d5d7;stroke-width:1.415;stroke-opacity:0"
     id="rect6"
     width="170.43085"
     height="170.43085"
     x="-170.43085"
     y="0.70749837" />
  <rect
     style="fill:#f4e5c3;fill-opacity:1;stroke:#e9d5d7;stroke-width:1.415;stroke-opacity:0"
     id="rect7"
     width="170.43085"
     height="170.43085"
     x="-170.43085"
     y="171.13834" />
  <rect
     style="fill:#4c738c;fill-opacity:1;stroke:#e9d5d7;stroke-width:1.415;stroke-opacity:0"
     id="rect8"
     width="170.43085"
     height="170.43085"
     x="-170.43085"
     y="341.56918" />
  <rect
     style="fill:#3c803c;fill-opacity:1;stroke:#e9d5d7;stroke-width:1.415;stroke-opacity:0"
     id="rect9"
     width="170.43085"
     height="170.43085"
     x="-170.43085"
     y="512" />
  <rect
     style="fill:#b73a3c;fill-opacity:1;stroke:#e9d5d7;stroke-width:1.415;stroke-opacity:0"
     id="rect10"
     width="170.43085"
     height="170.43085"
     x="-170.43085"
     y="682.43085" />
  <rect
     style="fill:#e6be36;fill-opacity:1;stroke:#e9d5d7;stroke-width:1.415;stroke-opacity:0"
     id="rect11"
     width="170.43085"
     height="170.43085"
     x="-170.43085"
     y="852.86169" />
  <path
     style="fill:#33302e;fill-opacity:1;stroke-width:0.264583"
     d="m 37.6321,743.2175 c -0.099,2.79859 -5.0347,-347.64844 -5.0347,-347.64844 l 984.8198,-114.80323 -58.03285,409.84106 v 0 z"
     id="path4" />
  <path
     style="fill:#33302e;fill-opacity:1;stroke-width:0.264583"
     d="m 109.55854,401.80468 -2.79859,-74.16253 136.63705,3.98106 h 692.47108 l 35.12544,151.36899 -85.58739,38.09384 H 110.25819 Z"
     id="path7" />
  <path
     id="text4"
     style="font-style:normal;font-variant:normal;font-weight:normal;font-stretch:normal;font-size:158.138px;font-family:compacta;-inkscape-font-specification:compacta;writing-mode:lr-tb;direction:ltr;fill:#f4e5c3;fill-opacity:1;stroke-width:3.29453"
     d="M 465.5783 354.26882 C 459.60694 354.26882 454.99947 354.60317 451.7564 355.27237 C 448.51334 355.8901 446.04269 357.0999 444.34394 358.90161 C 442.69667 360.65183 441.58946 363.09697 441.02321 366.23708 C 440.50844 369.37719 440.25116 373.9331 440.25116 379.90446 L 440.25116 458.587 C 440.25116 466.20562 440.84331 471.79115 442.02728 475.34308 C 443.21126 478.89501 445.52776 481.28858 448.97673 482.52404 C 452.4257 483.75949 458.06227 484.37715 465.88681 484.37715 C 473.50544 484.37715 479.03941 483.73397 482.48838 482.44704 C 485.93735 481.16011 488.22781 478.76653 489.36031 475.26608 C 490.49281 471.76563 491.05943 466.20562 491.05943 458.587 L 491.05943 379.90446 C 491.05943 372.23435 490.46729 366.64883 489.28331 363.14838 C 488.09934 359.64793 485.78284 357.30591 482.33387 356.12193 C 478.93637 354.88648 473.35136 354.26882 465.5783 354.26882 z M 740.77546 354.26882 C 734.95853 354.26882 730.42814 354.60317 727.18507 355.27237 C 723.99348 355.8901 721.52283 357.07438 719.7726 358.82461 C 718.07386 360.52336 716.88957 363.04557 716.22037 366.39159 C 715.60264 369.73761 715.29381 374.24197 715.29381 379.90446 L 715.29381 398.20463 C 715.29381 403.04349 715.98907 407.03279 717.37895 410.1729 C 718.76884 413.31301 721.39417 416.01541 725.25496 418.28041 L 739.38536 426.54244 C 741.49593 427.72642 742.83437 428.83362 743.40062 429.86317 C 743.96687 430.84123 744.24966 432.41091 744.24966 434.57296 L 744.24966 461.75321 C 744.24966 465.45957 743.19453 467.31256 741.08396 467.31256 C 739.79703 467.31256 738.87054 466.87509 738.30429 465.99998 C 737.73804 465.07339 737.45473 463.65787 737.45473 461.75321 L 737.45473 430.4807 L 715.29381 430.4807 L 715.29381 458.81902 C 715.29381 464.48152 715.57712 468.95984 716.14337 472.25438 C 716.76109 475.49744 717.94486 477.99414 719.69509 479.74436 C 721.44531 481.44311 723.91649 482.65292 727.10807 483.3736 C 730.29966 484.0428 734.80402 484.37715 740.62094 484.37715 C 746.64378 484.37715 751.27677 484.06832 754.51984 483.45059 C 757.81438 482.78139 760.31055 481.57158 762.0093 479.82136 C 763.70805 478.01966 764.81526 475.57452 765.33003 472.48589 C 765.8448 469.34578 766.10208 464.79038 766.10208 458.81902 L 766.10208 432.02479 C 766.10208 428.83321 765.81876 426.1308 765.25251 423.91728 C 764.73774 421.70376 763.70813 419.64453 762.16381 417.73988 C 760.67098 415.83522 758.56071 414.11087 755.83242 412.56655 L 742.39655 404.84506 C 740.2345 403.6096 738.87054 402.47688 738.30429 401.44733 C 737.73804 400.36631 737.45473 398.77059 737.45473 396.66003 L 737.45473 376.73824 C 737.45473 373.13484 738.51038 371.33341 740.62094 371.33341 C 741.90787 371.33341 742.83437 371.74535 743.40062 372.56899 C 743.96687 373.39263 744.24966 374.78211 744.24966 376.73824 L 744.24966 399.28571 L 766.10208 399.28571 L 766.10208 379.90446 C 766.10208 372.33731 765.53597 366.82886 764.40347 363.37989 C 763.32245 359.87944 761.05699 357.48586 757.60802 356.19893 C 754.15905 354.912 748.54851 354.26882 740.77546 354.26882 z M 801.00382 354.26882 C 795.1869 354.26882 790.6565 354.60317 787.41344 355.27237 C 784.22185 355.8901 781.75119 357.07438 780.00097 358.82461 C 778.30222 360.52336 777.11793 363.04557 776.44873 366.39159 C 775.831 369.73761 775.52217 374.24197 775.52217 379.90446 L 775.52217 398.20463 C 775.52217 403.04349 776.21743 407.03279 777.60732 410.1729 C 778.9972 413.31301 781.62253 416.01541 785.48332 418.28041 L 799.61372 426.54244 C 801.72429 427.72642 803.06273 428.83362 803.62898 429.86317 C 804.19523 430.84123 804.47854 432.41091 804.47854 434.57296 L 804.47854 461.75321 C 804.47854 465.45957 803.42289 467.31256 801.31233 467.31256 C 800.0254 467.31256 799.0989 466.87509 798.53265 465.99998 C 797.9664 465.07339 797.68309 463.65787 797.68309 461.75321 L 797.68309 430.4807 L 775.52217 430.4807 L 775.52217 458.81902 C 775.52217 464.48152 775.80548 468.95984 776.37173 472.25438 C 776.98946 475.49744 778.17323 477.99414 779.92345 479.74436 C 781.67368 481.44311 784.14485 482.65292 787.33644 483.3736 C 790.52803 484.0428 795.03238 484.37715 800.84931 484.37715 C 806.87214 484.37715 811.50514 484.06832 814.7482 483.45059 C 818.04274 482.78139 820.53944 481.57158 822.23818 479.82136 C 823.93693 478.01966 825.04362 475.57452 825.55839 472.48589 C 826.07317 469.34578 826.33044 464.79038 826.33044 458.81902 L 826.33044 432.02479 C 826.33044 428.83321 826.04713 426.1308 825.48088 423.91728 C 824.96611 421.70376 823.9365 419.64453 822.39218 417.73988 C 820.89934 415.83522 818.78908 414.11087 816.06078 412.56655 L 802.62491 404.84506 C 800.46287 403.6096 799.0989 402.47688 798.53265 401.44733 C 797.9664 400.36631 797.68309 398.77059 797.68309 396.66003 L 797.68309 376.73824 C 797.68309 373.13484 798.73874 371.33341 800.84931 371.33341 C 802.13624 371.33341 803.06273 371.74535 803.62898 372.56899 C 804.19523 373.39263 804.47854 374.78211 804.47854 376.73824 L 804.47854 399.28571 L 826.33044 399.28571 L 826.33044 379.90446 C 826.33044 372.33731 825.76433 366.82886 824.63184 363.37989 C 823.55081 359.87944 821.28588 357.48586 817.8369 356.19893 C 814.38793 354.912 808.77688 354.26882 801.00382 354.26882 z M 891.57762 354.42333 C 883.70161 354.42333 878.039 355.06651 874.59003 356.35344 C 871.14105 357.64037 868.87611 359.98239 867.79509 363.37989 C 866.76555 366.77738 866.251 372.33739 866.251 380.05897 L 866.251 399.28571 L 888.1029 399.28571 L 888.1029 377.04727 C 888.1029 375.19409 888.36017 373.80409 888.87494 372.8775 C 889.38972 371.95091 890.23913 371.48792 891.42311 371.48792 C 892.81299 371.48792 893.74001 371.92539 894.2033 372.8005 C 894.66659 373.62414 894.89783 375.03966 894.89783 377.04727 L 894.89783 395.19293 C 894.89783 399.72293 893.8427 404.25281 891.73213 408.7828 L 866.63702 466.07698 L 866.63702 483.45059 L 917.21326 483.45059 L 917.21326 466.07698 L 890.65106 466.07698 L 913.43003 414.03364 C 915.95242 408.21672 917.21326 402.37392 917.21326 396.50551 L 917.21326 380.05897 C 917.21326 372.23444 916.54404 366.59735 915.20564 363.14838 C 913.91871 359.64793 911.55065 357.33143 908.10168 356.19893 C 904.6527 355.01495 899.14477 354.42333 891.57762 354.42333 z M 129.68924 355.04086 L 129.68924 372.10545 L 140.49943 372.10545 L 140.49943 483.45059 L 162.42885 483.45059 L 162.42885 372.10545 L 173.23904 372.10545 L 173.23904 355.04086 L 129.68924 355.04086 z M 180.18848 355.04086 L 180.18848 483.45059 L 215.24423 483.45059 L 215.24423 466.54052 L 202.1179 466.54052 L 202.1179 421.44663 L 215.24423 421.44663 L 215.24423 404.53603 L 202.1179 404.53603 L 202.1179 371.79643 L 215.24423 371.79643 L 215.24423 355.04086 L 180.18848 355.04086 z M 235.39752 355.04086 L 222.73421 483.45059 L 243.89157 483.45059 L 245.51318 456.11635 L 254.62425 456.11635 L 256.24586 483.45059 L 277.55774 483.45059 L 264.5854 355.04086 L 235.39752 355.04086 z M 286.28278 355.04086 L 286.28278 483.45059 L 305.89554 483.45059 L 305.0465 407.54773 L 306.35908 407.54773 L 314.6981 483.45059 L 326.28086 483.45059 L 334.61989 407.54773 L 335.93247 407.54773 L 335.79552 421.03425 L 339.90948 409.73055 L 349.42622 398.3886 L 354.69618 395.34589 L 354.69618 355.04086 L 329.13753 355.04086 L 321.03002 416.58181 L 319.94895 416.58181 L 311.84143 355.04086 L 286.28278 355.04086 z M 396.31534 355.04086 L 396.31534 393.81834 L 404.23166 398.3886 L 413.74839 409.73055 L 418.24476 422.08328 L 418.24476 421.44663 L 431.3716 421.44663 L 431.3716 404.53603 L 418.24476 404.53603 L 418.24476 371.79643 L 431.3716 371.79643 L 431.3716 355.04086 L 396.31534 355.04086 z M 501.32909 355.04086 L 501.32909 483.45059 L 523.2585 483.45059 L 523.2585 430.17168 C 523.56736 430.1202 523.85016 430.09468 524.10754 430.09468 C 524.36493 430.0432 524.67376 430.01716 525.0341 430.01716 C 526.93876 430.01716 528.2772 430.45515 529.04936 431.33026 C 529.82152 432.20537 530.20795 433.7235 530.20795 435.88554 L 530.20795 483.45059 L 552.05984 483.45059 L 552.05984 439.8238 C 552.05984 434.21278 551.36458 429.88862 549.9747 426.85146 C 548.58481 423.76283 545.95948 421.49789 542.09869 420.05653 C 544.98142 418.71812 547.14376 417.12241 548.58512 415.26923 C 550.02648 413.36457 550.95298 411.09963 551.36479 408.47429 C 551.82809 405.84895 552.05984 402.32265 552.05984 397.89561 L 552.05984 381.13953 C 552.05984 374.13863 551.49374 368.81089 550.36124 365.15601 C 549.22874 361.44965 546.98932 358.85035 543.6433 357.35752 C 540.29728 355.8132 535.14974 355.04086 528.20032 355.04086 L 501.32909 355.04086 z M 558.70026 355.04086 L 558.70026 372.10545 L 569.51046 372.10545 L 569.51046 483.45059 L 591.43987 483.45059 L 591.43987 372.10545 L 602.25006 372.10545 L 602.25006 355.04086 L 558.70026 355.04086 z M 609.19951 355.04086 L 609.19951 483.45059 L 631.12892 483.45059 L 631.12892 430.17168 C 631.43778 430.1202 631.72058 430.09468 631.97796 430.09468 C 632.23535 430.0432 632.54418 430.01716 632.90452 430.01716 C 634.80918 430.01716 636.14762 430.45515 636.91978 431.33026 C 637.69194 432.20537 638.07837 433.7235 638.07837 435.88554 L 638.07837 483.45059 L 659.93026 483.45059 L 659.93026 439.8238 C 659.93026 434.21278 659.23552 429.88862 657.84563 426.85146 C 656.45575 423.76283 653.83042 421.49789 649.96963 420.05653 C 652.85235 418.71812 655.01418 417.12241 656.45554 415.26923 C 657.8969 413.36457 658.8234 411.09963 659.23521 408.47429 C 659.69851 405.84895 659.93026 402.32265 659.93026 397.89561 L 659.93026 381.13953 C 659.93026 374.13863 659.36416 368.81089 658.23166 365.15601 C 657.09916 361.44965 654.85974 358.85035 651.51372 357.35752 C 648.1677 355.8132 643.02016 355.04086 636.07074 355.04086 L 609.19951 355.04086 z M 670.74045 355.04086 L 670.74045 483.45059 L 705.79671 483.45059 L 705.79671 466.54052 L 692.66986 466.54052 L 692.66986 421.44663 L 705.79671 421.44663 L 705.79671 404.53603 L 692.66986 404.53603 L 692.66986 371.79643 L 705.79671 371.79643 L 705.79671 355.04086 L 670.74045 355.04086 z M 465.42379 371.33341 C 466.81367 371.33341 467.76569 371.77088 468.28046 372.64599 C 468.79523 373.46962 469.05251 374.88515 469.05251 376.89276 L 469.05251 461.75321 C 469.05251 463.65787 468.79523 465.04735 468.28046 465.92247 C 467.81717 466.7461 466.96775 467.15805 465.7323 467.15805 C 464.44537 467.15805 463.51887 466.7461 462.95262 465.92247 C 462.38637 465.04735 462.10358 463.65787 462.10358 461.75321 L 462.10358 376.89276 C 462.10358 375.03958 462.36085 373.64958 462.87562 372.72299 C 463.39039 371.7964 464.23981 371.33341 465.42379 371.33341 z M 523.2585 371.79643 L 524.72559 371.79643 C 527.29945 371.79643 528.84361 372.31149 529.35839 373.34104 C 529.92464 374.3191 530.20795 376.50696 530.20795 379.90446 L 530.20795 404.53603 C 530.20795 407.10989 529.87308 408.86028 529.20387 409.78687 C 528.58615 410.71346 527.2477 411.17645 525.18861 411.17645 C 524.93123 411.12498 524.64792 411.09945 524.33905 411.09945 C 524.08167 411.04798 523.7218 411.02246 523.2585 411.02246 L 523.2585 371.79643 z M 631.12892 371.79643 L 632.59601 371.79643 C 635.16987 371.79643 636.71403 372.31149 637.2288 373.34104 C 637.79505 374.3191 638.07837 376.50696 638.07837 379.90446 L 638.07837 404.53603 C 638.07837 407.10989 637.7435 408.86028 637.07429 409.78687 C 636.45657 410.71346 635.11812 411.17645 633.05903 411.17645 C 632.80165 411.12498 632.51885 411.09945 632.20999 411.09945 C 631.9526 411.04798 631.59221 411.02246 631.12892 411.02246 L 631.12892 371.79643 z M 249.75995 380.52199 L 250.37748 380.52199 L 253.69769 439.05175 L 246.28523 439.05175 L 249.75995 380.52199 z M 418.24476 440.0088 L 413.74839 452.36154 L 404.23166 463.70348 L 396.31534 468.27374 L 396.31534 483.45059 L 418.24476 483.45059 L 418.24476 440.0088 z M 335.59709 440.51316 L 335.16042 483.45059 L 354.69618 483.45059 L 354.69618 466.74619 L 349.42622 463.70348 L 339.90948 452.36154 L 335.59709 440.51316 z " />
  <path
     id="path8"
     style="fill:#f4e5c3;fill-opacity:1;stroke-width:0.264583"
     d="m 946.51432,501.87169 -65.63579,6.74739 -36.49958,-6.47764 -32.44346,0.93948 -18.64233,6.06507 -20.55715,-5.9705 -37.24654,1.04128 -4.68498,7.71684 -6.4518,-7.50445 -56.09219,1.06918 -80.03336,1.52549 -3.78323,14.06219 -8.04602,-8.73693 -100.65174,-3.18172 -0.006,5.2e-4 -8.62376,11.91813 -11.1342,-11.54193 -102.17103,1.94769 -12.10727,9.59424 -7.18457,-9.22682 -94.41026,-2.05208 -1.80248,3.88607 -3.99252,15.59698 -21.38525,0.64286 -1.3746,-15.72979 -2.82205,0.0537 -57.98406,1.10536 -8.17107,5.72368 -16.14736,-10.55865 v 0 l -92.262006,-3.9893 -23.965989,20.61785 9.106145,132.45343 10.88409,11.37863 63.160255,2.47376 15.276065,-0.19793 v -5.1e-4 l 33.70131,-9.44904 24.46724,8.6956 113.08353,-1.46451 12.28608,-12.12071 12.91962,11.79411 38.39395,-0.69867 12.70422,-11.44529 14.68024,11.29182 90.99342,-1.17874 6.61975,-13.26121 11.92227,13.02091 94.58182,-1.22525 8.39535,-14.53968 14.65787,14.36037 106.2712,-1.58182 10.44689,-18.19682 h 10.49497 l 12.02396,17.96169 -0.0389,5.2e-4 262.27627,-3.50315 10.14501,-20.28971 -4.3392,-116.8616 z m -733.18729,32.62643 19.53731,0.45424 -0.99064,3.86901 -18.19424,-0.29145 z m 17.91829,6.77789 -3.82303,14.93552 -11.87369,3.71037 -1.61024,-18.43144 z"
     sodipodi:nodetypes="cccccccccccccccccccccccccccccccccccccccccccccccccccccccccccccccccccccc" />
  <path
     id="text7"
     style="font-style:normal;font-variant:normal;font-weight:normal;font-stretch:normal;font-size:150.73px;font-family:compacta;-inkscape-font-specification:compacta;writing-mode:lr-tb;direction:ltr;fill:#33302e;fill-opacity:1;stroke-width:3.1402"
     d="M 61.373515 524.11788 C 40.422045 524.11788 32.282784 531.50366 32.282784 553.35951 L 32.282784 621.79099 C 32.282784 640.18005 41.477155 648.16871 61.373515 648.16871 L 80.921676 648.16871 L 80.921676 613.92583 C 80.851347 613.19461 80.817806 612.39976 80.817806 611.54097 L 80.817806 560.59421 C 80.817806 559.73541 80.851347 558.94108 80.921676 558.20986 L 80.921676 524.11788 L 61.373515 524.11788 z M 86.796252 524.11788 L 86.796252 551.70173 C 86.813097 551.70164 86.829969 551.70121 86.846895 551.70121 C 91.519525 551.70121 93.02688 554.56501 93.02688 560.59421 L 93.02688 569.48772 L 141.5619 569.48772 L 141.5619 553.35951 C 141.5619 530.75001 133.12089 524.11788 111.26504 524.11788 L 86.796252 524.11788 z M 384.5388 524.11788 C 364.9439 524.11788 354.69411 532.10636 354.69411 547.02863 L 354.69411 560.14204 C 354.69411 574.15993 360.87416 579.4357 374.1384 584.86198 L 407.29865 598.27666 C 413.74509 600.91384 415.34979 602.412 415.43459 610.10695 L 415.4594 610.10695 L 415.4594 648.16871 L 433.82727 648.16871 C 454.17582 648.16871 463.67196 640.02897 463.67196 621.94137 L 463.67196 608.37579 C 463.67196 594.20717 460.95875 586.82124 450.40765 582.29934 L 411.82086 566.02075 C 406.39458 563.7598 403.22913 562.40293 403.22913 557.7303 C 403.22913 557.5479 403.23483 557.36898 403.24619 557.19286 L 403.24619 524.11788 L 384.5388 524.11788 z M 409.12076 524.11788 L 409.12076 551.70276 C 413.08319 551.77907 415.13693 554.63872 415.13693 559.99166 L 415.13693 561.49854 L 463.67196 561.49854 L 463.67196 547.02863 C 463.67196 532.10636 453.42217 524.11788 433.82727 524.11788 L 409.12076 524.11788 z M 502.86181 524.11788 C 483.26691 524.11788 473.01712 532.10636 473.01712 547.02863 L 473.01712 560.14204 C 473.01712 574.15993 479.19717 579.4357 492.46141 584.86198 L 525.62166 598.27666 C 532.0681 600.91384 533.6728 602.412 533.7576 610.10695 L 533.75863 610.10695 L 533.75863 610.2072 C 533.76039 610.39691 533.76122 610.59024 533.76122 610.78752 C 533.76122 610.93562 533.76038 611.08178 533.75863 611.22626 L 533.75863 648.16871 L 552.15028 648.16871 C 572.49883 648.16871 581.99497 640.02897 581.99497 621.94137 L 581.99497 608.37579 C 581.99497 594.20717 579.28176 586.82124 568.73066 582.29934 L 530.14387 566.02075 C 524.84999 563.81496 521.708 562.46991 521.55783 558.06671 L 521.54543 558.06671 L 521.54543 524.11788 L 502.86181 524.11788 z M 527.42 524.11788 L 527.42 551.70224 C 531.398 551.76756 533.45994 554.62802 533.45994 559.99166 L 533.45994 561.49854 L 581.99497 561.49854 L 581.99497 547.02863 C 581.99497 532.10636 571.74518 524.11788 552.15028 524.11788 L 527.42 524.11788 z M 152.26357 524.87132 L 152.26357 647.26437 L 199.77954 647.26437 L 199.77954 524.87132 L 152.26357 524.87132 z M 253.70493 524.87132 L 232.15069 647.26437 L 279.04808 647.26437 L 288.00258 577.18441 L 289.3565 566.19335 L 283.60543 524.87132 L 253.70493 524.87132 z M 287.62999 524.87132 L 291.05045 552.44173 L 291.08611 552.15338 L 292.97488 567.95138 L 296.18916 593.85781 L 295.78608 593.75497 L 289.75596 593.75497 L 286.47347 620.73575 L 297.86864 620.73575 L 300.58217 647.26437 L 350.02153 647.26437 L 328.46729 524.87132 L 287.62999 524.87132 z M 592.24447 524.87132 L 592.24447 647.26437 L 640.02605 647.26437 L 640.02605 524.87132 L 592.24447 524.87132 z M 651.17989 524.87132 L 651.17989 647.26437 L 698.40698 647.26437 L 698.40698 524.87132 L 651.17989 524.87132 z M 704.28208 524.87132 L 704.28208 552.75644 L 728.35399 552.75644 L 728.35399 524.87132 L 704.28208 524.87132 z M 738.4526 524.87132 L 738.4526 647.26437 L 786.23418 647.26437 L 786.23418 524.87132 L 738.4526 524.87132 z M 797.38802 524.87132 L 797.38802 647.26437 L 843.60897 647.26437 L 843.60897 524.87132 L 797.38802 524.87132 z M 849.48355 524.87132 L 849.48355 552.75644 L 874.56212 552.75644 L 874.56212 524.87132 L 849.48355 524.87132 z M 885.26379 524.87132 L 885.26379 647.26437 L 932.60354 647.26437 L 932.60354 524.87132 L 885.26379 524.87132 z M 938.47863 524.87132 L 938.47863 552.75696 C 943.62953 552.80504 945.25445 555.23143 945.25445 561.49854 L 945.25445 610.48625 C 945.25445 616.75512 943.77642 619.18107 938.47863 619.22784 L 938.47863 647.26437 L 963.49261 647.26437 C 985.64992 647.26437 993.78947 640.17972 993.78947 617.72095 L 993.78947 551.24904 C 993.78947 531.9556 984.44408 524.87132 963.49261 524.87132 L 938.47863 524.87132 z M 704.28208 566.17164 L 704.28208 594.05625 L 726.06318 594.05625 L 726.06318 566.17164 L 704.28208 566.17164 z M 849.48355 566.17164 L 849.48355 594.05625 L 872.50178 594.05625 L 872.50178 566.17164 L 849.48355 566.17164 z M 93.02688 597.37232 L 93.02688 611.54097 C 93.02688 617.57017 91.218065 620.43396 86.846895 620.43396 C 86.829969 620.43396 86.813097 620.43405 86.796252 620.43396 L 86.796252 648.16871 L 111.26504 648.16871 C 132.21651 648.16871 141.5619 641.08443 141.5619 621.79099 L 141.5619 597.37232 L 93.02688 597.37232 z M 354.69411 602.94976 L 354.69411 625.10706 C 354.69411 640.18006 364.9439 648.16871 384.5388 648.16871 L 409.58482 648.16871 L 409.58482 620.28204 C 409.52671 620.28314 409.46822 620.28359 409.40912 620.28359 C 405.18868 620.28359 403.53041 617.57017 403.53041 611.54097 L 403.53041 602.94976 L 354.69411 602.94976 z M 473.01712 602.94976 L 473.01712 625.10706 C 473.01712 640.18006 483.26691 648.16871 502.86181 648.16871 L 527.88406 648.16871 L 527.88406 620.28204 C 527.83375 620.28286 527.78317 620.28359 527.73213 620.28359 C 523.51169 620.28359 521.85342 617.57017 521.85342 611.54097 L 521.85342 602.94976 L 473.01712 602.94976 z M 205.65411 619.37925 L 205.65411 647.26437 L 229.43767 647.26437 L 229.43767 619.37925 L 205.65411 619.37925 z M 849.48355 619.37925 L 849.48355 647.26437 L 874.56212 647.26437 L 874.56212 619.37925 L 849.48355 619.37925 z " />
  <path
     id="path25"
     style="fill:#f4e5c3;fill-opacity:1;stroke-width:0.0955853"
     d="m 380.82691,398.60385 -7.88598,-0.4489 -11.01509,3.31336 -9.21748,6.88085 -6.30807,9.6186 -0.3477,1.47563 22.66258,5.3399 0.55636,-0.84839 2.88807,-2.15598 3.45125,-1.03807 z m 6.90901,1.62795 -5.21609,22.13701 2.62475,2.4697 1.62145,3.21859 0.11916,1.00752 22.6628,5.33996 0.3477,-1.47563 -1.35012,-11.42308 -5.17594,-10.27232 -8.37678,-7.88261 z m -43.31127,26.12057 -0.6624,2.81118 1.35012,11.4231 5.17572,10.27227 8.377,7.88266 7.25688,3.1189 5.21602,-22.13677 -2.62469,-2.46993 -1.62172,-3.2184 -0.29053,-2.45767 z m 41.31867,9.73579 -1.35723,2.06939 -2.88779,2.15583 -3.45132,1.03829 -5.21602,22.13675 7.88594,0.44915 11.01487,-3.3134 9.21771,-6.88082 6.30806,-9.61859 0.66239,-2.8112 z" />
</svg>
