<?xml version="1.0" encoding="UTF-8" standalone="no"?>
<!-- Created with Inkscape (http://www.inkscape.org/) -->

<svg
   width="128mm"
   height="128mm"
   viewBox="0 0 128 128"
   version="1.1"
   id="svg1"
   xml:space="preserve"
   sodipodi:docname="civ_cane.svg"
   inkscape:export-filename="civ_cane.svg"
   inkscape:export-xdpi="96"
   inkscape:export-ydpi="96"
   inkscape:version="1.4.3 (0d15f75042, 2025-12-25)"
   xmlns:inkscape="http://www.inkscape.org/namespaces/inkscape"
   xmlns:sodipodi="http://sodipodi.sourceforge.net/DTD/sodipodi-0.dtd"
   xmlns="http://www.w3.org/2000/svg"
   xmlns:svg="http://www.w3.org/2000/svg"><sodipodi:namedview
     id="namedview1"
     pagecolor="#ffffff"
     bordercolor="#000000"
     borderopacity="0.25"
     inkscape:showpageshadow="2"
     inkscape:pageopacity="0.0"
     inkscape:pagecheckerboard="0"
     inkscape:deskcolor="#d1d1d1"
     inkscape:document-units="mm"
     inkscape:zoom="1.3125439"
     inkscape:cx="74.283227"
     inkscape:cy="227.8019"
     inkscape:window-width="1920"
     inkscape:window-height="1058"
     inkscape:window-x="0"
     inkscape:window-y="0"
     inkscape:window-maximized="1"
     inkscape:current-layer="svg1" /><defs
     id="defs1" /><rect
     style="display:none;fill:#ebe2ca;fill-opacity:1;stroke-width:0.264583"
     id="rect2"
     width="128"
     height="128"
     x="-0.002112448"
     y="0.04319331" /><rect
     style="display:none;fill:#b14646;fill-opacity:1;stroke-width:0.145254"
     id="rect1"
     width="70.270889"
     height="70.270889"
     x="55.374226"
     y="-35.135445"
     transform="rotate(45)" /><g
     id="g2"
     transform="matrix(0.50022639,0,0,0.50022639,14.053029,-0.06006845)"
     style="display:inline"><rect
       style="fill:#33302e;fill-opacity:1;stroke:#e9d5d7;stroke-width:0.353827;stroke-opacity:0"
       id="rect6"
       width="42.617168"
       height="42.617168"
       x="-70.714729"
       y="0.29699984" /><rect
       style="fill:#ebe2ca;fill-opacity:1;stroke:#e9d5d7;stroke-width:0.353827;stroke-opacity:0"
       id="rect7"
       width="42.617168"
       height="42.617168"
       x="-70.714729"
       y="42.914165" /><rect
       style="fill:#4c738c;fill-opacity:1;stroke:#e9d5d7;stroke-width:0.353827;stroke-opacity:0"
       id="rect8"
       width="42.617168"
       height="42.617168"
       x="-70.714729"
       y="85.531326" /><rect
       style="fill:#3c803c;fill-opacity:1;stroke:#e9d5d7;stroke-width:0.353827;stroke-opacity:0"
       id="rect9"
       width="42.617168"
       height="42.617168"
       x="-70.714729"
       y="128.1485" /><rect
       style="fill:#b14646;fill-opacity:1;stroke:#e9d5d7;stroke-width:0.353827;stroke-opacity:0"
       id="rect10"
       width="42.617168"
       height="42.617168"
       x="-70.714729"
       y="170.76567" /><rect
       style="display:inline;fill:#e6be36;fill-opacity:1;stroke:#e9d5d7;stroke-width:0.353827;stroke-opacity:0"
       id="rect11"
       width="42.617168"
       height="42.617168"
       x="-70.714729"
       y="213.38283" /></g><path
     style="display:none;fill:#33302e;fill-opacity:1;stroke-width:0.264583"
     d="M 19.570715,6.2839644 9.9472405,24.763727"
     id="path5" /><path
     id="path4"
     style="display:none;fill:#33302e;fill-opacity:1;stroke-width:0.238604"
     d="m 19.74792,6.2838907 -9.623702,18.4800063 42.416016,40.5691 -24.109639,35.467083 8.073409,13.1501 28.245304,-36.93986 46.740812,44.70579 6.38566,-13.72319 L 75.022066,63.575482 100.75073,29.926889 88.452254,12.504701 62.534456,50.631569 Z" /><path
     id="path3"
     style="display:none;fill:#33302e;fill-opacity:1;stroke-width:0.28315"
     d="m 75.49878,21.717569 -49.185629,1.725477 2.80448,82.839384 7.277075,-0.28835 -3.429248,-75.456894 34.671786,-1.00769 -28.62461,5.039485 1.003557,29.325859 0.01654,0.486792 1.293461,37.792008 24.832593,2.64118 h 0.0026 l 0.001,-0.0656 0.459404,0.0475 6.072498,-0.24029 1.162202,-34.327103 -6.768062,-0.0098 h -0.24908 l -18.754928,-0.02687 -0.914156,-6.888469 19.837032,-1.637109 0.196371,-0.01602 6.962882,-0.574642 z m -8.876978,83.079161 -0.460437,0.0181 v 5.2e-4 z m -0.463021,0.0181 -24.708569,0.97875 -5.055506,0.20051 29.766142,-1.17874 z m 22.818762,-58.352508 -5.112866,5.404838 4.67465,9.349817 -21.353218,1.762167 -0.205156,0.01705 -12.920658,1.066085 0.155546,4.555794 12.893787,0.0186 21.575428,0.03049 -5.843054,6.720004 3.651973,7.158219 15.192875,-16.653764 z" /><path
     id="path1"
     style="display:none;fill:#33302e;fill-opacity:1;stroke-width:0.264583"
     d="M 63.917576,34.370284 36.28257,68.432288 43.876939,67.769279 48.075133,93.629716 H 58.861554 L 57.147963,77.603821 70.553347,76.797668 69.142063,93.629716 h 9.775631 l 4.761983,-29.334127 8.037752,-0.701249 z" /><rect
     style="display:none;fill:#ffffff;fill-opacity:1;stroke-width:0.187089"
     id="rect12"
     width="90.509666"
     height="90.509666"
     x="45.254837"
     y="-45.254833"
     transform="rotate(45)" /><path
     id="path73"
     style="fill:#ebe2ca;fill-opacity:1;stroke-width:0.239241"
     d="m 53.158142,4.6599513 -2.847215,15.3089327 8.587132,4.949814 7.550784,-0.628754 -0.377654,4.150701 -5.434696,10.301643 -6.104026,4.031527 1.164057,7.576977 -6.961413,9.419978 1.817859,7.642272 -6.90868,3.581099 -0.373205,14.725268 -5.345755,6.379067 3.734495,17.148794 -0.904578,4.01362 -4.738032,7.24791 9.152496,2.83125 -0.06432,-8.73348 10.913775,-5.84128 -0.302054,-12.107559 6.501279,-5.752113 -0.351106,-12.385389 5.662901,-6.529919 -3.172677,-8.061374 7.234119,-8.121147 -3.078025,-7.494557 3.896221,-4.309995 -0.859105,-13.867545 2.806618,-5.025139 0.01046,-0.103392 7.502147,1.783188 8.839525,10.499615 1.273313,-14.581824 -8.615178,-6.593801 -21.87769,-2.282781 z" /><path
     id="path75"
     style="fill:#b14646;fill-opacity:1;stroke-width:0.239241"
     d="M 55.555265 11.337809 L 54.274723 18.530135 L 59.750875 20.561536 L 80.033875 22.704557 L 87.481482 27.154415 L 86.650525 22.747965 L 80.509814 18.081584 L 59.656824 16.877523 L 55.555265 11.337809 z M 68.081116 31.122131 L 63.025094 40.528792 L 66.435738 46.407503 L 69.863436 43.150854 L 68.081116 31.122131 z M 61.798295 41.447083 L 58.24554 44.106352 L 59.274935 52.343058 L 58.33029 53.477873 L 62.505745 60.673299 L 67.78501 54.886056 L 61.798295 41.447083 z M 57.164469 54.879854 L 52.743551 60.195809 L 54.501583 68.844893 L 58.457931 77.031474 L 63.903593 70.994116 L 62.42513 66.688436 L 62.42358 66.684819 L 57.164469 54.879854 z M 53.523348 70.123368 L 48.277157 73.553133 L 47.998621 85.904317 L 51.683667 93.529175 L 58.247607 89.277755 L 58.331323 81.922648 L 53.523348 70.123368 z M 47.659106 88.208569 L 42.305945 94.553918 L 44.664457 110.21343 L 51.34467 105.88811 L 50.766927 95.833944 L 47.659106 88.208569 z " /><rect
     style="display:inline;fill:#b14646;fill-opacity:1;stroke-width:0.204422"
     id="rect1-5"
     width="98.895325"
     height="98.895325"
     x="-221.19167"
     y="-152.66458" /></svg>
