<?xml version="1.0" encoding="UTF-8" standalone="no"?>
<!-- Created with Inkscape (http://www.inkscape.org/) -->

<svg
   width="128mm"
   height="128mm"
   viewBox="0 0 128 128"
   version="1.1"
   id="svg1"
   xml:space="preserve"
   xmlns="http://www.w3.org/2000/svg"
   xmlns:svg="http://www.w3.org/2000/svg"><defs
     id="defs1" /><rect
     style="display:none;fill:#ebe2ca;fill-opacity:1;stroke-width:0.264583"
     id="rect2"
     width="128"
     height="128"
     x="-0.002112448"
     y="0.04319331" /><rect
     style="display:none;fill:#b14646;fill-opacity:1;stroke-width:0.145254"
     id="rect1"
     width="70.270889"
     height="70.270889"
     x="55.374226"
     y="-35.135445"
     transform="rotate(45)" /><g
     id="g2"
     transform="matrix(0.50022639,0,0,0.50022639,14.053029,-0.06006845)"
     style="display:inline"><rect
       style="fill:#33302e;fill-opacity:1;stroke:#e9d5d7;stroke-width:0.353827;stroke-opacity:0"
       id="rect6"
       width="42.617168"
       height="42.617168"
       x="-70.714729"
       y="0.29699984" /><rect
       style="fill:#ebe2ca;fill-opacity:1;stroke:#e9d5d7;stroke-width:0.353827;stroke-opacity:0"
       id="rect7"
       width="42.617168"
       height="42.617168"
       x="-70.714729"
       y="42.914165" /><rect
       style="fill:#4c738c;fill-opacity:1;stroke:#e9d5d7;stroke-width:0.353827;stroke-opacity:0"
       id="rect8"
       width="42.617168"
       height="42.617168"
       x="-70.714729"
       y="85.531326" /><rect
       style="fill:#3c803c;fill-opacity:1;stroke:#e9d5d7;stroke-width:0.353827;stroke-opacity:0"
       id="rect9"
       width="42.617168"
       height="42.617168"
       x="-70.714729"
       y="128.1485" /><rect
       style="fill:#b14646;fill-opacity:1;stroke:#e9d5d7;stroke-width:0.353827;stroke-opacity:0"
       id="rect10"
       width="42.617168"
       height="42.617168"
       x="-70.714729"
       y="170.76567" /><rect
       style="display:inline;fill:#e6be36;fill-opacity:1;stroke:#e9d5d7;stroke-width:0.353827;stroke-opacity:0"
       id="rect11"
       width="42.617168"
       height="42.617168"
       x="-70.714729"
       y="213.38283" /></g><path
     style="display:none;fill:#33302e;fill-opacity:1;stroke-width:0.264583"
     d="M 19.570715,6.2839644 9.9472405,24.763727"
     id="path5" /><path
     id="path4"
     style="display:none;fill:#33302e;fill-opacity:1;stroke-width:0.238604"
     d="m 19.74792,6.2838907 -9.623702,18.4800063 42.416016,40.5691 -24.109639,35.467083 8.073409,13.1501 28.245304,-36.93986 46.740812,44.70579 6.38566,-13.72319 L 75.022066,63.575482 100.75073,29.926889 88.452254,12.504701 62.534456,50.631569 Z" /><path
     id="path3"
     style="display:none;fill:#33302e;fill-opacity:1;stroke-width:0.28315"
     d="m 75.49878,21.717569 -49.185629,1.725477 2.80448,82.839384 7.277075,-0.28835 -3.429248,-75.456894 34.671786,-1.00769 -28.62461,5.039485 1.003557,29.325859 0.01654,0.486792 1.293461,37.792008 24.832593,2.64118 h 0.0026 l 0.001,-0.0656 0.459404,0.0475 6.072498,-0.24029 1.162202,-34.327103 -6.768062,-0.0098 h -0.24908 l -18.754928,-0.02687 -0.914156,-6.888469 19.837032,-1.637109 0.196371,-0.01602 6.962882,-0.574642 z m -8.876978,83.079161 -0.460437,0.0181 v 5.2e-4 z m -0.463021,0.0181 -24.708569,0.97875 -5.055506,0.20051 29.766142,-1.17874 z m 22.818762,-58.352508 -5.112866,5.404838 4.67465,9.349817 -21.353218,1.762167 -0.205156,0.01705 -12.920658,1.066085 0.155546,4.555794 12.893787,0.0186 21.575428,0.03049 -5.843054,6.720004 3.651973,7.158219 15.192875,-16.653764 z" /><path
     id="path1"
     style="display:none;fill:#33302e;fill-opacity:1;stroke-width:0.264583"
     d="M 63.917576,34.370284 36.28257,68.432288 43.876939,67.769279 48.075133,93.629716 H 58.861554 L 57.147963,77.603821 70.553347,76.797668 69.142063,93.629716 h 9.775631 l 4.761983,-29.334127 8.037752,-0.701249 z" /><rect
     style="display:none;fill:#ffffff;fill-opacity:1;stroke-width:0.187089"
     id="rect12"
     width="90.509666"
     height="90.509666"
     x="45.254837"
     y="-45.254833"
     transform="rotate(45)" /><path
     id="path73"
     style="fill:#ebe2ca;fill-opacity:1;stroke-width:0.239241"
     d="m 53.158142,4.6599513 -2.847215,15.3089327 8.587132,4.949814 7.550784,-0.628754 -0.377654,4.150701 -5.434696,10.301643 -6.104026,4.031527 1.164057,7.576977 -6.961413,9.419978 1.817859,7.642272 -6.90868,3.581099 -0.373205,14.725268 -5.345755,6.379067 3.734495,17.148794 -0.904578,4.01362 -4.738032,7.24791 9.152496,2.83125 -0.06432,-8.73348 10.913775,-5.84128 -0.302054,-12.107559 6.501279,-5.752113 -0.351106,-12.385389 5.662901,-6.529919 -3.172677,-8.061374 7.234119,-8.121147 -3.078025,-7.494557 3.896221,-4.309995 -0.859105,-13.867545 2.806618,-5.025139 0.01046,-0.103392 7.502147,1.783188 8.839525,10.499615 1.273313,-14.581824 -8.615178,-6.593801 -21.87769,-2.282781 z" /><path
     id="path75"
     style="fill:#e6be36;fill-opacity:1;stroke-width:0.239241"
     d="m 55.555265,11.337809 -1.280542,7.192326 5.476152,2.031401 20.283,2.143021 7.447607,4.449858 -0.830957,-4.40645 -6.140711,-4.666381 -20.85299,-1.204061 z m 12.525851,19.784322 -5.056022,9.406661 3.410644,5.878711 3.427698,-3.256649 z m -6.282821,10.324952 -3.552755,2.659269 1.029395,8.236706 -0.944645,1.134815 4.175455,7.195426 5.279265,-5.787243 z m -4.633826,13.432771 -4.420918,5.315955 1.758032,8.649084 3.956348,8.186581 5.445662,-6.037358 -1.478463,-4.30568 -0.0016,-0.0036 z m -3.641121,15.243514 -5.246191,3.429765 -0.278536,12.351184 3.685046,7.624858 6.56394,-4.25142 0.08372,-7.355107 z m -5.864242,18.085201 -5.353161,6.345349 2.358512,15.659512 6.680213,-4.32532 -0.577743,-10.054166 z" /></svg>
