<?xml version="1.0" encoding="UTF-8" standalone="no"?>
<!-- Created with Inkscape (http://www.inkscape.org/) -->

<svg
   width="128mm"
   height="128mm"
   viewBox="0 0 128 128"
   version="1.1"
   id="svg1"
   xml:space="preserve"
   xmlns="http://www.w3.org/2000/svg"
   xmlns:svg="http://www.w3.org/2000/svg"><defs
     id="defs1" /><rect
     style="display:none;fill:#ebe2ca;fill-opacity:1;stroke-width:0.264583"
     id="rect2"
     width="128"
     height="128"
     x="-0.002112448"
     y="0.04319331" /><rect
     style="display:none;fill:#b14646;fill-opacity:1;stroke-width:0.145254"
     id="rect1"
     width="70.270889"
     height="70.270889"
     x="55.374226"
     y="-35.135445"
     transform="rotate(45)" /><g
     id="g2"
     transform="matrix(0.50022639,0,0,0.50022639,14.053029,-0.06006845)"
     style="display:inline"><rect
       style="fill:#33302e;fill-opacity:1;stroke:#e9d5d7;stroke-width:0.353827;stroke-opacity:0"
       id="rect6"
       width="42.617168"
       height="42.617168"
       x="-70.714729"
       y="0.29699984" /><rect
       style="fill:#ebe2ca;fill-opacity:1;stroke:#e9d5d7;stroke-width:0.353827;stroke-opacity:0"
       id="rect7"
       width="42.617168"
       height="42.617168"
       x="-70.714729"
       y="42.914165" /><rect
       style="fill:#4c738c;fill-opacity:1;stroke:#e9d5d7;stroke-width:0.353827;stroke-opacity:0"
       id="rect8"
       width="42.617168"
       height="42.617168"
       x="-70.714729"
       y="85.531326" /><rect
       style="fill:#3c803c;fill-opacity:1;stroke:#e9d5d7;stroke-width:0.353827;stroke-opacity:0"
       id="rect9"
       width="42.617168"
       height="42.617168"
       x="-70.714729"
       y="128.1485" /><rect
       style="fill:#b14646;fill-opacity:1;stroke:#e9d5d7;stroke-width:0.353827;stroke-opacity:0"
       id="rect10"
       width="42.617168"
       height="42.617168"
       x="-70.714729"
       y="170.76567" /><rect
       style="display:inline;fill:#e6be36;fill-opacity:1;stroke:#e9d5d7;stroke-width:0.353827;stroke-opacity:0"
       id="rect11"
       width="42.617168"
       height="42.617168"
       x="-70.714729"
       y="213.38283" /></g><path
     style="display:none;fill:#33302e;fill-opacity:1;stroke-width:0.264583"
     d="M 19.570715,6.2839644 9.9472405,24.763727"
     id="path5" /><path
     id="path4"
     style="display:none;fill:#33302e;fill-opacity:1;stroke-width:0.238604"
     d="m 19.74792,6.2838907 -9.623702,18.4800063 42.416016,40.5691 -24.109639,35.467083 8.073409,13.1501 28.245304,-36.93986 46.740812,44.70579 6.38566,-13.72319 L 75.022066,63.575482 100.75073,29.926889 88.452254,12.504701 62.534456,50.631569 Z" /><path
     id="path3"
     style="display:none;fill:#33302e;fill-opacity:1;stroke-width:0.28315"
     d="m 75.49878,21.717569 -49.185629,1.725477 2.80448,82.839384 7.277075,-0.28835 -3.429248,-75.456894 34.671786,-1.00769 -28.62461,5.039485 1.003557,29.325859 0.01654,0.486792 1.293461,37.792008 24.832593,2.64118 h 0.0026 l 0.001,-0.0656 0.459404,0.0475 6.072498,-0.24029 1.162202,-34.327103 -6.768062,-0.0098 h -0.24908 l -18.754928,-0.02687 -0.914156,-6.888469 19.837032,-1.637109 0.196371,-0.01602 6.962882,-0.574642 z m -8.876978,83.079161 -0.460437,0.0181 v 5.2e-4 z m -0.463021,0.0181 -24.708569,0.97875 -5.055506,0.20051 29.766142,-1.17874 z m 22.818762,-58.352508 -5.112866,5.404838 4.67465,9.349817 -21.353218,1.762167 -0.205156,0.01705 -12.920658,1.066085 0.155546,4.555794 12.893787,0.0186 21.575428,0.03049 -5.843054,6.720004 3.651973,7.158219 15.192875,-16.653764 z" /><path
     id="path1"
     style="display:none;fill:#33302e;fill-opacity:1;stroke-width:0.264583"
     d="M 63.917576,34.370284 36.28257,68.432288 43.876939,67.769279 48.075133,93.629716 H 58.861554 L 57.147963,77.603821 70.553347,76.797668 69.142063,93.629716 h 9.775631 l 4.761983,-29.334127 8.037752,-0.701249 z" /><rect
     style="display:none;fill:#ffffff;fill-opacity:1;stroke-width:0.187089"
     id="rect12"
     width="90.509666"
     height="90.509666"
     x="45.254837"
     y="-45.254833"
     transform="rotate(45)" /><path
     id="path13"
     style="fill:#ebe2ca;fill-opacity:1;stroke-width:0.264583"
     d="m 77.926281,4.6599514 -9.166882,6.0724976 -3.221509,8.276498 -0.155546,-0.06046 -3.842659,3.0825 -7.527189,-1.467611 -7.735446,8.030001 1.283643,2.333191 0.07803,0.02997 -1.685685,6.408394 10e-4,5.17e-4 -6.887952,0.372587 -8.088912,68.039254 0.729671,1.56787 -2.816882,15.99489 8.928654,-14.69833 2.849955,-1.65985 h 5.17e-4 l 38.594543,-53.597244 -5.586222,-5.711279 4.659147,-5.022949 0.655258,0.249597 1.69292,-0.376721 -1.410249,-12.126909 -5.735568,-3.519165 -0.776696,-5.056022 -0.265617,-0.103353 2.17661,-6.08645 4.221964,-1.856217 10.899594,7.996928 -1.300179,11.838554 -3.773414,1.65933 -0.627351,2.498038 2.256193,5.132504 10.203511,-3.269568 2.556428,-20.532597 z" /><path
     id="path2"
     style="fill:#3c803c;fill-opacity:1;stroke-width:0.264583"
     d="m 56.737622,24.933879 -6.157764,4.484997 1.070736,1.612822 22.32887,8.163842 2.034501,-1.159102 -1.177706,-7.407817 z m -6.384623,9.650573 -0.906922,5.392436 18.797303,7.659998 3.779614,-5.140255 z m -6.702433,8.844422 -7.887374,61.411236 34.975126,-49.985577 -2.11615,-3.728971 -18.319812,-6.185153 z" /></svg>
