<?xml version="1.0" encoding="UTF-8" standalone="no"?>
<!-- Created with Inkscape (http://www.inkscape.org/) -->

<svg
   width="512mm"
   height="512mm"
   viewBox="0 0 512 512"
   version="1.1"
   id="svg1"
   xml:space="preserve"
   xmlns="http://www.w3.org/2000/svg"
   xmlns:svg="http://www.w3.org/2000/svg"><defs
     id="defs1" /><g
     id="layer1"><path
       style="display:none;fill:#4c738c;fill-opacity:1;stroke:#e9d5d7;stroke-width:1.53201;stroke-opacity:0"
       d="M 475.76268,344.87517 V 204.97242 L 43.006639,168.72821 90.849117,344.15017 Z"
       id="path34" /><path
       id="path29"
       style="display:none;fill:#ffffff;fill-opacity:1;stroke:#e9d5d7;stroke-width:1.53201;stroke-opacity:0"
       d="m 114.91585,174.02926 282.42978,28.87195 V 338.01792 L 153.78481,319.08908 Z" /><path
       style="display:none;fill:#33302e;fill-opacity:1;stroke:#e9d5d7;stroke-width:1.53201;stroke-opacity:0"
       d="m 376.84276,315.72793 -1.53768,-95.85072 -234.75736,-28.70397 29.21646,112.25302 z"
       id="path35" /><g
       id="g2"
       transform="translate(357.69137,-31.888745)"
       style="display:none"><path
         id="path25"
         style="fill:#f4e5c3;fill-opacity:1;stroke:#e9d5d7;stroke-width:2.10113;stroke-opacity:0"
         d="m -219.37259,225.31352 v 0 h 202.650904 z m 0,0 11.6905,125.15045 H 15.784829 L -16.721686,225.31352 Z" /><path
         style="fill:#33302e;fill-opacity:1;stroke:#e9d5d7;stroke-width:1.53201;stroke-opacity:0"
         d="m -12.135711,334.93537 -23.19629,-93.14764 -163.461459,-1.81225 7.97371,94.235 z"
         id="path38" /></g><g
       id="g6"
       style="display:none"><path
         style="fill:#33302e;fill-opacity:1;stroke:#9f9f9f;stroke-width:0"
         d="M 512.00001,292.78986 H 19.715736 L 6.3463813e-7,219.21015 H 500.0682 Z"
         id="path52" /></g><path
       style="display:none;fill:#33302e;fill-opacity:1;stroke:#9f9f9f;stroke-width:0"
       d="M 426.81812,342.26133 V 218.17827 L 85.181892,169.73869 104.05067,322.79483 Z"
       id="path45" /><g
       id="g22"
       style="display:none"><path
         style="fill:#f4e5c3;fill-opacity:1;stroke:#9f9f9f;stroke-width:0"
         d="M -1e-4,156.38851 H 512.00012 L 474.18172,355.61149 25.21205,347.85392 Z"
         id="path9" /><path
         style="fill:#b14646;fill-opacity:1;stroke:#9f9f9f;stroke-width:0"
         d="M 51.77028,327.63353 28.11437,175.78245 H 481.69126 L 452.52521,333.7933 Z"
         id="path10" /></g><g
       id="g23"
       style="display:none"><path
         style="fill:#f4e5c3;fill-opacity:1;stroke:#9f9f9f;stroke-width:0"
         d="M 512.0001,355.61149 H -1e-4 L 37.8183,156.3885 486.788,164.14608 Z"
         id="path12" /><path
         style="fill:#4d7690;fill-opacity:1;stroke:#9f9f9f;stroke-width:0"
         d="m 460.2298,184.36647 23.6557,151.85108 H 30.3088 l 29.166,-158.01084 z"
         id="path14-5" /></g><g
       id="g24"
       style="display:none"><path
         style="fill:#f4e5c3;fill-opacity:1;stroke:#9f9f9f;stroke-width:0"
         d="M 512.00018,355.61149 H -1.6e-4 l 37.81839,-199.22299 448.96979,7.75758 z"
         id="path15-6" /><path
         style="fill:#398239;fill-opacity:1;stroke:#9f9f9f;stroke-width:0"
         d="m 460.22988,184.36647 23.65576,151.85109 H 30.30869 L 59.47474,178.20671 Z"
         id="path16-2" /></g><g
       id="g21"
       transform="translate(1.2712077e-4,-0.09857288)"
       style="display:none"><path
         id="rect11"
         style="fill:#f4e5c3;fill-opacity:1;stroke:#9f9f9f;stroke-width:0"
         d="M 0,152.32249 56.740723,359.87467 H 455.25903 L 511.99976,152.32249 H 455.25903 56.740723 Z" /><path
         id="path21"
         style="fill:#666666;fill-opacity:1;stroke:#9f9f9f;stroke-width:0"
         d="M 33.608892,174.98056 76.670322,337.2166 H 436.79107 l 43.9298,-162.23604 v 0 z" /></g><circle
       style="display:none;fill:#ffffff;fill-opacity:1;stroke:#9f9f9f;stroke-width:0"
       id="circle91"
       cx="256"
       cy="256"
       r="180.2648" /><path
       id="path109"
       style="display:none;fill:#f4e5c3;fill-opacity:1;stroke:#9f9f9f;stroke-width:0"
       d="m 164.88724,91.887174 -12.70904,91.328246 37.85786,1.4347 18.3552,-53.34589 90.05548,6.88316 20.6495,51.05133 45.31445,2.58072 -16.52675,-91.830128 z M 63.843593,200.99718 l 20.6498,213.37963 230.659227,4.14106 28.10667,-205.8512 z m 319.513767,13.35429 -32.08579,204.82884 52.14412,0.93253 44.74073,-203.05474 z" /><path
       id="path125"
       style="display:none;fill:#ffffff;fill-opacity:1;stroke:#9f9f9f;stroke-width:0"
       d="M 256,1.696494e-5 196.6893,102.73828 256,86.842736 315.31071,102.73828 Z" /><g
       id="g10"
       style="display:none"><path
         style="fill:#f4e5c3;fill-opacity:1;stroke:#9f9f9f;stroke-width:0"
         d="M 28.90379,495.51539 4e-5,88.77947 511.99996,6.68151 358.59403,505.31849 Z"
         id="path88-8" /><path
         style="display:inline;fill:#398239;fill-opacity:1;stroke:#9f9f9f;stroke-width:0"
         d="M 340.22728,480.50243 476.27392,36.73097 28.14302,108.32112 47.53981,474.74066 Z"
         id="path102-2" /></g><g
       id="g8"
       style="display:none"><path
         id="rect24"
         style="fill:#f4e5c3;fill-opacity:1;stroke-width:0.305958"
         d="m 23.3212,52.63205 28.9037,406.7359 h 407.5503 l 28.9037,-406.7359 z" /><path
         id="path26"
         style="display:inline;fill:#b14646;fill-opacity:1;stroke-width:0.27723"
         d="m 43.1299,73.4915 26.443,365.017 h 372.8542 l 26.443,-365.017 z" /></g><g
       id="g28"
       transform="matrix(1,0,0,-1,1180.4635,475.85273)"
       style="display:none"><path
         id="path27"
         style="opacity:1;fill:#f4e5c3;fill-opacity:1;stroke-width:0.305958"
         d="m -1157.1423,16.484782 28.9037,406.735898 h 407.55029 l 28.90366,-406.735898 z" /><path
         id="path28"
         style="opacity:1;fill:#e7c033;fill-opacity:1;stroke-width:0.27723"
         d="m -1137.3336,37.344233 26.443,365.016997 h 372.85422 l 26.443,-365.016997 z" /></g><path
       style="fill:#f4e5c3;fill-opacity:1;stroke-width:0.264583"
       d="m -453.71331,255.81178 v 0 l 54.36791,-56.96086 -87.85603,-6.4935 L -512.00003,25.38473 0,4.34082 l -29.54882,196.37045 -94.66693,1.63287 51.25872,53.76427 v 0 l -183.04284,251.55078 v 0 z"
       id="path40" /><g
       id="g33"
       style="display:none"><path
         id="path32"
         style="fill:#f4e5c3;fill-opacity:1;stroke-width:0.264583"
         d="M 512.00014,77.681176 -1.3e-4,156.02472 v 278.29412 h 401.9982 z" /><path
         style="fill:#b14646;fill-opacity:1;stroke-width:0.264583"
         d="M -1.3e-4,186.65019 471.98044,114.30809 379.47217,409.19519 0,408.224 Z"
         id="path33" /></g><path
       id="path66"
       style="fill:#f4e5c3;fill-opacity:1;stroke-width:0.264583"
       d="M 256.00025,1.2e-4 183.42742,94.670827 140.55976,111.10187 133.94517,78.028949 20.67043,39.168789 31.86303,218.65551 -1.4e-4,222.7488 l 17.5395,162.76629 61.73525,1.50172 -12.5982,31.60427 28.61531,66.55304 67.29408,26.82576 66.55305,-28.61531 5.8322,-14.63063 h 47.70665 l 7.18457,17.34571 62.52797,25.90023 62.52796,-25.90023 25.89971,-62.52797 -16.08377,-38.83019 67.22531,-1.6154 20.0407,-184.38151 L 458.05976,97.045876 308.40377,46.768842 296.33009,51.396466 Z" /><path
       id="path69"
       style="fill:#4d7690;fill-opacity:1;stroke-width:0.247815"
       d="m 322.66337,86.987834 6.21409,118.125086 86.86447,-5.89163 -5.75521,-90.6849 z m -23.4704,2.127002 -101.60879,36.890254 5.66271,87.62876 105.23078,-7.13755 z m -242.57486,4.297929 13.7728,129.231905 44.11462,-2.99207 -7.54837,-109.16594 z m 129.13062,40.387715 -54.20703,20.22047 1.07487,18.2826 55.39404,-1.5322 z m 241.09846,0.33745 3.91966,64.0643 16.24345,-1.10174 8.37158,-17.74776 z m -245.22534,47.28806 -57.0482,2.34611 2.04432,31.99598 56.56192,-8.87284 z M 479.71683,218.2532 30.5551,247.48553 42.24793,362.0775 l 161.79839,-0.45165 11.33884,43.59062 h -12.19564 l -7.29516,-17.61185 -35.96731,-14.89831 -35.96731,14.89831 -14.89832,35.96732 14.89832,35.96731 35.96731,14.89832 35.96731,-14.89832 7.88841,-19.04432 h 104.75175 l 7.8884,19.04432 35.96732,14.89832 35.96731,-14.89832 14.89832,-35.96731 -14.89832,-35.96732 -35.96731,-14.89831 -35.96732,14.89831 -7.29516,17.61185 h -12.85089 l 14.1397,-43.86761 151.17579,-0.4408 z" /></g></svg>
