<?xml version="1.0" encoding="UTF-8" standalone="no"?>
<!-- Created with Inkscape (http://www.inkscape.org/) -->

<svg
   width="512mm"
   height="512mm"
   viewBox="0 0 512 512"
   version="1.1"
   id="svg1"
   xml:space="preserve"
   sodipodi:docname="pl_cart_blu.svg"
   inkscape:export-filename="pl_cart_red.svg"
   inkscape:export-xdpi="96"
   inkscape:export-ydpi="96"
   xmlns:inkscape="http://www.inkscape.org/namespaces/inkscape"
   xmlns:sodipodi="http://sodipodi.sourceforge.net/DTD/sodipodi-0.dtd"
   xmlns="http://www.w3.org/2000/svg"
   xmlns:svg="http://www.w3.org/2000/svg"><sodipodi:namedview
     id="namedview1"
     pagecolor="#ffffff"
     bordercolor="#000000"
     borderopacity="0.25"
     inkscape:showpageshadow="2"
     inkscape:pageopacity="0.0"
     inkscape:pagecheckerboard="0"
     inkscape:deskcolor="#d1d1d1"
     inkscape:document-units="mm"><inkscape:page
       x="0"
       y="0"
       width="512"
       height="512"
       id="page2"
       margin="0"
       bleed="0" /></sodipodi:namedview><defs
     id="defs1" /><g
     id="g20"
     transform="translate(708.71994)"><path
       id="path8"
       style="fill:#34302e;fill-opacity:1;stroke-width:7.19213"
       d="m -424.01132,0 -71.92843,176.91943 -18.36839,5.33508 v 3.5109 l -71.08817,21.1031 -22.56864,6.69675 v -4.10983 l -0.11783,-49.88688 -51.51881,-21.36872 5.94899,151.53804 -33.42484,-0.0103 34.71313,170.44852 h 143.49408 l 0.0501,0.12299 h 112.20142 l 0.0501,-0.12299 h 21.23126 122.26281 l 34.71313,-170.44852 -48.70659,0.0196 18.90066,-33.75918 -26.7379,-49.32619 -15.85227,-27.98692 -69.6314,-22.18469 z" /><path
       id="path11"
       style="opacity:1;fill:#4d7690;fill-opacity:1;stroke-width:10.3209"
       d="m -424.01132,0 -64.37179,158.32625 28.85096,-8.34367 22.03018,-6.37067 27.74197,-8.02277 18.01854,-5.21105 1.79214,0.56431 -0.002,0.001 21.99814,6.94376 z m -235.59131,138.31197 5.40846,136.23716 46.3858,-0.0785 -0.29508,-114.78938 z m 278.9344,11.83029 -1.73065,124.08235 91.33551,-0.10853 0.31471,-95.32803 z m -24.71219,0.59014 -108.92875,31.52676 -0.17725,92.12254 110.64958,-0.12764 z m -121.86956,38.86275 -58.14736,17.38601 -0.13797,19.20555 58.08792,2.26188 z m 252.35358,17.17001 -0.35398,67.32147 h 17.08113 l 10.00094,-17.98598 z m -319.87246,30.86788 -0.0884,33.63154 59.81857,-5.32991 0.14728,-26.77717 z m -92.30961,52.21748 34.71313,170.44852 h 5.1e-4 122.26282 168.18147 108.84503 l 34.71364,-170.44852 h -34.71364 -399.28983 z" /></g></svg>
