<?xml version="1.0" encoding="UTF-8" standalone="no"?>
<!-- Created with Inkscape (http://www.inkscape.org/) -->

<svg
   width="512mm"
   height="512mm"
   viewBox="0 0 512 512"
   version="1.1"
   id="svg1"
   xml:space="preserve"
   sodipodi:docname="pl_cart_blu.svg"
   inkscape:export-filename="pl_cart_grn.svg"
   inkscape:export-xdpi="96"
   inkscape:export-ydpi="96"
   xmlns:inkscape="http://www.inkscape.org/namespaces/inkscape"
   xmlns:sodipodi="http://sodipodi.sourceforge.net/DTD/sodipodi-0.dtd"
   xmlns="http://www.w3.org/2000/svg"
   xmlns:svg="http://www.w3.org/2000/svg"><sodipodi:namedview
     id="namedview1"
     pagecolor="#ffffff"
     bordercolor="#000000"
     borderopacity="0.25"
     inkscape:showpageshadow="2"
     inkscape:pageopacity="0.0"
     inkscape:pagecheckerboard="0"
     inkscape:deskcolor="#d1d1d1"
     inkscape:document-units="mm"><inkscape:page
       x="0"
       y="0"
       width="512"
       height="512"
       id="page2"
       margin="0"
       bleed="0" /></sodipodi:namedview><defs
     id="defs1" /><path
     id="path164"
     style="fill:#34302e;fill-opacity:1;stroke-width:7.19213"
     d="m 49.116899,51.706405 5.94899,151.538035 -33.424833,-0.01 34.713127,170.44851 H 199.84827 l 49.21818,121.06342 h 13.8653 l 49.21819,-121.06342 h 21.23126 122.26282 l 34.71313,-170.44851 -48.70659,0.0196 18.90066,-33.75918 -26.73791,-49.32619 -15.85226,-27.98692 -89.90976,-28.64528 -24.722,0.589628 -108.91893,31.635279 v 3.510896 l -71.08817,21.103107 -22.56865,6.69675 V 122.962 l -0.11782,-49.886874 z" /><path
     id="rect161"
     style="fill:#e7c033;fill-opacity:1;stroke-width:10.3209"
     d="m 49.118224,51.701191 5.408522,136.236829 46.385874,-0.0786 -0.29505,-114.789431 z m 278.934466,11.830011 -1.73074,124.082318 91.33589,-0.10825 0.31468,-95.328405 z m -24.71231,0.589988 -108.92848,31.527025 -0.17723,92.122645 110.6494,-0.12789 z m -121.86964,38.863 -58.147,17.3861 -0.13796,19.20531 58.088,2.26177 z m 252.35376,17.16976 -0.35395,67.32187 h 17.08114 l 10.00114,-17.98591 z m -319.87239,30.86816 -0.0886,33.63145 59.81874,-5.32992 0.14752,-26.77732 z m -92.309442,52.21722 34.7132,170.4485 H 178.61888 333.38257 455.64558 l 34.7133,-170.4485 H 455.64558 56.355868 Z M 206.26155,389.45134 256.0007,511.79305 305.7399,389.45134 Z" /></svg>
