<?xml version="1.0" encoding="UTF-8" standalone="no"?>
<!-- Created with Inkscape (http://www.inkscape.org/) -->

<svg
   width="128mm"
   height="128mm"
   viewBox="0 0 128 128"
   version="1.1"
   id="svg1"
   xml:space="preserve"
   xmlns="http://www.w3.org/2000/svg"
   xmlns:svg="http://www.w3.org/2000/svg"><defs
     id="defs1" /><rect
     style="display:none;fill:#ebe2ca;fill-opacity:1;stroke-width:0.264583"
     id="rect2"
     width="128"
     height="128"
     x="-0.002112448"
     y="0.04319331" /><path
     id="path4"
     style="display:none;fill:#33302e;fill-opacity:1;stroke-width:0.238604"
     d="m 19.74792,6.2838907 -9.623702,18.4800063 42.416016,40.5691 -24.109639,35.467083 8.073409,13.1501 28.245304,-36.93986 46.740812,44.70579 6.38566,-13.72319 L 75.022066,63.575482 100.75073,29.926889 88.452254,12.504701 62.534456,50.631569 Z" /><path
     id="path3"
     style="display:none;fill:#33302e;fill-opacity:1;stroke-width:0.28315"
     d="m 75.49878,21.717569 -49.185629,1.725477 2.80448,82.839384 7.277075,-0.28835 -3.429248,-75.456894 34.671786,-1.00769 -28.62461,5.039485 1.003557,29.325859 0.01654,0.486792 1.293461,37.792008 24.832593,2.64118 h 0.0026 l 0.001,-0.0656 0.459404,0.0475 6.072498,-0.24029 1.162202,-34.327103 -6.768062,-0.0098 h -0.24908 l -18.754928,-0.02687 -0.914156,-6.888469 19.837032,-1.637109 0.196371,-0.01602 6.962882,-0.574642 z m -8.876978,83.079161 -0.460437,0.0181 v 5.2e-4 z m -0.463021,0.0181 -24.708569,0.97875 -5.055506,0.20051 29.766142,-1.17874 z m 22.818762,-58.352508 -5.112866,5.404838 4.67465,9.349817 -21.353218,1.762167 -0.205156,0.01705 -12.920658,1.066085 0.155546,4.555794 12.893787,0.0186 21.575428,0.03049 -5.843054,6.720004 3.651973,7.158219 15.192875,-16.653764 z" /><g
     id="g158"
     transform="matrix(1.1571659,0,0,1.1571659,-705.57113,-1077.314)"
     style="display:inline"><path
       id="path157"
       style="opacity:1;fill:#34302e;fill-opacity:1"
       d="m 629.45898,952.31445 v 2.3711 33.68554 l -12.68945,5.09961 v 45.8223 L 642.14648,1051 h 25.37696 l 44.37304,-41.498 v -7.4747 h -21.4121 v -8.5566 l -22.96094,-2.15429 v -5.31836 -25.89844 -2.37109 h -12.6875 v 28.26953 4.1289 l -12.68946,-1.1914 v -34.25 -2.3711 H 639.75 636.125 Z" /><path
       id="path158"
       style="display:inline;fill:#4d7690;fill-opacity:1;stroke:#9f9f9f;stroke-width:0"
       d="m 628.52447,947.21234 v 5.10161 h 14.55585 v -5.10161 z m 25.37609,5.41484 v 5.10077 h 14.55672 v -5.10077 z m -24.4424,2.05811 v 31.31301 h 12.68847 v -31.31301 z m 25.37696,5.41484 v 25.89817 h 12.68847 V 960.10013 Z M 615.836,988.3705 v 5.1007 h 0.93369 73.7138 0.93368 v -5.1007 h -0.93368 -73.7138 z m 0.93369,7.4729 v 41.0779 2.3722 h -3.1799 V 1051 h 21.92956 6.62728 v -11.7065 -2.3722 -6.9319 h 12.68849 12.68847 v 6.9319 2.3722 V 1051 h 22.9599 3.17987 18.23364 3.69506 v -11.7056 H 711.897 v 0 -2.3722 -27.4212 h -21.41351 v -2.3714 -11.2853 z m 5.43642,5.4451 h 9.04952 v 17.438 h -9.04952 z m 13.57386,0 h 9.04865 v 17.438 h -9.04865 z m 13.57383,0 h 9.04865 v 17.438 h -9.04865 z m 13.57383,0 h 9.04865 v 17.438 h -9.04865 z m 13.57299,0 h 9.04952 v 17.438 h -9.04952 z m 16.35504,0.7395 v 5.1008 h 19.97503 v -5.1008 z" /></g><rect
     style="fill:#f4e4c3;fill-opacity:1;stroke-width:0.264583"
     id="rect3"
     width="128"
     height="128"
     x="0"
     y="0" /><rect
     style="fill:#386e36;fill-opacity:1;stroke-width:0.187088"
     id="rect4"
     width="90.509666"
     height="90.509666"
     x="18.745167"
     y="18.745167" /><path
     id="path6"
     style="display:inline;fill:#34302e;fill-opacity:1;stroke:#9f9f9f;stroke-width:0"
     d="m 102.01965,3.950395 -2.246525,13.70169 0.562105,8.16745 3.26605,11.43443 z m -5.028725,4.25443 -6.78578,0.86579 -0.9384,44.83041 h 2.7426 l 0.36121,-7.14698 4.47606,0.14429 0.7215,7.94109 2.670915,0.36122 z m -63.56274,0.57813 -10.26214,1.16759 -0.0387,2.56529 9.97354,-1.30716 z m 61.59821,2.02866 v 6.63582 l -2.24653,-0.0509 -0.56115,-6.02279 z m -63.48163,2.22766 -6.60469,0.85447 0.56115,9.06058 6.04354,-0.97047 z m 1.91925,0.97613 -0.20371,2.09279 15.1607,-0.56116 0.30653,2.96047 2.55208,0.35744 -1.27604,-4.84954 z m 70.363595,1.11949 v 0.82146 l 4.57038,3.41976 1.25906,0.0905 z m 0.0217,4.079 0.18014,3.50088 1.65988,-0.61303 -0.0358,-2.13052 z m 14.41564,1.04121 -0.28105,1.27605 1.07705,0.005 -0.11967,-1.2553 z m -11.81732,0.1858 0.18104,0.82994 10.64031,-0.14428 0.14435,-0.54135 z m -13.974265,0.0698 2.80769,0.30652 0.76581,11.48535 -3.31792,0.10187 z m -48.75948,1.3713 -24.33823,3.91302 -15.04187,9.04173 v 9.10113 l 15.04187,-10.05369 24.33823,-3.91113 24.33824,3.91113 15.04188,10.05369 v -9.10114 l -15.04188,-9.04172 z m 66.216705,0.39706 -1.25815,0.0905 -4.57038,3.40184 v 0.82147 z m -66.216705,10.84308 -20.65345,3.05949 -12.76423,8.01184 h 66.83537 l -12.76424,-8.01184 z m 48.75948,2.1409 3.31791,0.0509 0.76581,8.72861 -3.72628,-0.10187 z m -82.17716,11.40613 v 2.47475 h 2.1654 v 16.27265 h -2.1654 l 4.33176,58.633025 h 11.69001 V 95.956775 h 39.91769 V 124.0496 h 10.89591 37.252415 l 4.76466,-50.302405 -13.78845,-6.02753 -22.308645,-2.30309 h -5.91998 -2.16541 v -16.27265 h 2.16541 v -2.47475 z m 6.05107,2.47475 h 10.76952 v 16.27265 h -10.76952 z m 14.65519,0 h 10.76859 v 16.27265 h -10.76859 z m 14.65426,0 h 10.76857 v 16.27265 h -10.76857 z m 14.65425,0 h 10.76951 v 16.27265 h -10.76951 z m 19.57641,6.58866 v 7.11681 h 3.20567 l 22.639675,2.36252 17.93348,7.78078 v -7.8996 l -17.93255,-6.99799 -22.639655,-2.36252 z m 7.07342,20.52049 h 6.73768 v 7.75905 h -6.73768 z m 11.33257,0 h 6.737675 v 7.75905 h -6.737675 z m -11.33257,12.65953 h 6.73768 v 7.75906 h -6.73768 z m 11.33257,0 h 6.737675 v 7.75906 h -6.737675 z" /></svg>
