<?xml version="1.0" encoding="UTF-8" standalone="no"?>
<!-- Created with Inkscape (http://www.inkscape.org/) -->

<svg
   width="128mm"
   height="128mm"
   viewBox="0 0 128 128"
   version="1.1"
   id="svg1"
   xml:space="preserve"
   xmlns="http://www.w3.org/2000/svg"
   xmlns:svg="http://www.w3.org/2000/svg"><defs
     id="defs1" /><rect
     style="display:none;fill:#ebe2ca;fill-opacity:1;stroke-width:0.264583"
     id="rect2"
     width="128"
     height="128"
     x="-0.002112448"
     y="0.04319331" /><path
     id="path4"
     style="display:none;fill:#33302e;fill-opacity:1;stroke-width:0.238604"
     d="m 19.74792,6.2838907 -9.623702,18.4800063 42.416016,40.5691 -24.109639,35.467083 8.073409,13.1501 28.245304,-36.93986 46.740812,44.70579 6.38566,-13.72319 L 75.022066,63.575482 100.75073,29.926889 88.452254,12.504701 62.534456,50.631569 Z" /><path
     id="path3"
     style="display:none;fill:#33302e;fill-opacity:1;stroke-width:0.28315"
     d="m 75.49878,21.717569 -49.185629,1.725477 2.80448,82.839384 7.277075,-0.28835 -3.429248,-75.456894 34.671786,-1.00769 -28.62461,5.039485 1.003557,29.325859 0.01654,0.486792 1.293461,37.792008 24.832593,2.64118 h 0.0026 l 0.001,-0.0656 0.459404,0.0475 6.072498,-0.24029 1.162202,-34.327103 -6.768062,-0.0098 h -0.24908 l -18.754928,-0.02687 -0.914156,-6.888469 19.837032,-1.637109 0.196371,-0.01602 6.962882,-0.574642 z m -8.876978,83.079161 -0.460437,0.0181 v 5.2e-4 z m -0.463021,0.0181 -24.708569,0.97875 -5.055506,0.20051 29.766142,-1.17874 z m 22.818762,-58.352508 -5.112866,5.404838 4.67465,9.349817 -21.353218,1.762167 -0.205156,0.01705 -12.920658,1.066085 0.155546,4.555794 12.893787,0.0186 21.575428,0.03049 -5.843054,6.720004 3.651973,7.158219 15.192875,-16.653764 z" /><g
     id="g158"
     transform="matrix(1.1571659,0,0,1.1571659,-705.57113,-1077.314)"
     style="display:inline"><path
       id="path157"
       style="opacity:1;fill:#34302e;fill-opacity:1"
       d="m 629.45898,952.31445 v 2.3711 33.68554 l -12.68945,5.09961 v 45.8223 L 642.14648,1051 h 25.37696 l 44.37304,-41.498 v -7.4747 h -21.4121 v -8.5566 l -22.96094,-2.15429 v -5.31836 -25.89844 -2.37109 h -12.6875 v 28.26953 4.1289 l -12.68946,-1.1914 v -34.25 -2.3711 H 639.75 636.125 Z" /><path
       id="path158"
       style="display:inline;fill:#4d7690;fill-opacity:1;stroke:#9f9f9f;stroke-width:0"
       d="m 628.52447,947.21234 v 5.10161 h 14.55585 v -5.10161 z m 25.37609,5.41484 v 5.10077 h 14.55672 v -5.10077 z m -24.4424,2.05811 v 31.31301 h 12.68847 v -31.31301 z m 25.37696,5.41484 v 25.89817 h 12.68847 V 960.10013 Z M 615.836,988.3705 v 5.1007 h 0.93369 73.7138 0.93368 v -5.1007 h -0.93368 -73.7138 z m 0.93369,7.4729 v 41.0779 2.3722 h -3.1799 V 1051 h 21.92956 6.62728 v -11.7065 -2.3722 -6.9319 h 12.68849 12.68847 v 6.9319 2.3722 V 1051 h 22.9599 3.17987 18.23364 3.69506 v -11.7056 H 711.897 v 0 -2.3722 -27.4212 h -21.41351 v -2.3714 -11.2853 z m 5.43642,5.4451 h 9.04952 v 17.438 h -9.04952 z m 13.57386,0 h 9.04865 v 17.438 h -9.04865 z m 13.57383,0 h 9.04865 v 17.438 h -9.04865 z m 13.57383,0 h 9.04865 v 17.438 h -9.04865 z m 13.57299,0 h 9.04952 v 17.438 h -9.04952 z m 16.35504,0.7395 v 5.1008 h 19.97503 v -5.1008 z" /></g><rect
     style="fill:#f4e4c3;fill-opacity:1;stroke-width:0.264583"
     id="rect3"
     width="128"
     height="128"
     x="0"
     y="0" /><rect
     style="fill:#4d7690;fill-opacity:1;stroke-width:0.187088"
     id="rect4"
     width="90.509666"
     height="90.509666"
     x="18.745167"
     y="18.745167" /><path
     id="path10"
     style="display:inline;fill:#34302e;fill-opacity:1;stroke:#9f9f9f;stroke-width:0"
     d="m 22.265125,3.9502295 v 5.903409 h 16.84354 v -5.903409 z m 29.36435,6.2658685 v 5.902437 h 16.84454 v -5.902437 z m -28.28391,2.381575 v 36.234346 h 14.68266 V 12.597673 Z m 29.36535,6.265867 v 29.968479 h 14.68267 V 18.86354 Z M 7.582465,51.577048 v 5.902356 h 1.08043 85.2991 1.08042 v -5.902356 h -1.08042 -85.2991 z m 1.08043,8.647385 v 47.533947 2.74503 h -3.67967 v 13.54636 h 25.37614 7.66886 v -13.54636 -2.74503 -8.02136 h 14.68269 14.68267 v 8.02136 2.74503 13.54636 h 26.56841 3.67964 21.099335 4.2758 v -13.54532 h -4.2758 v 0 -2.74503 -31.730877 H 93.961995 V 73.28444 60.225476 Z m 6.29084,6.300884 h 10.4718 v 20.178659 h -10.4718 z m 15.70721,0 h 10.47079 v 20.178659 h -10.47079 z m 15.70717,0 h 10.47079 v 20.178659 h -10.47079 z m 15.70718,0 h 10.47079 v 20.178659 h -10.47079 z m 15.7062,0 h 10.47179 v 20.178659 h -10.47179 z m 18.92549,0.855725 v 5.902471 h 23.114425 v -5.902471 z" /></svg>
