<?xml version="1.0" encoding="UTF-8" standalone="no"?>
<!-- Created with Inkscape (http://www.inkscape.org/) -->

<svg
   width="128mm"
   height="128mm"
   viewBox="0 0 128 128"
   version="1.1"
   id="svg1"
   xml:space="preserve"
   xmlns="http://www.w3.org/2000/svg"
   xmlns:svg="http://www.w3.org/2000/svg"><defs
     id="defs1" /><rect
     style="display:none;fill:#ebe2ca;fill-opacity:1;stroke-width:0.264583"
     id="rect2"
     width="128"
     height="128"
     x="-0.002112448"
     y="0.04319331" /><path
     id="path4"
     style="display:none;fill:#33302e;fill-opacity:1;stroke-width:0.238604"
     d="m 19.74792,6.2838907 -9.623702,18.4800063 42.416016,40.5691 -24.109639,35.467083 8.073409,13.1501 28.245304,-36.93986 46.740812,44.70579 6.38566,-13.72319 L 75.022066,63.575482 100.75073,29.926889 88.452254,12.504701 62.534456,50.631569 Z" /><path
     id="path3"
     style="display:none;fill:#33302e;fill-opacity:1;stroke-width:0.28315"
     d="m 75.49878,21.717569 -49.185629,1.725477 2.80448,82.839384 7.277075,-0.28835 -3.429248,-75.456894 34.671786,-1.00769 -28.62461,5.039485 1.003557,29.325859 0.01654,0.486792 1.293461,37.792008 24.832593,2.64118 h 0.0026 l 0.001,-0.0656 0.459404,0.0475 6.072498,-0.24029 1.162202,-34.327103 -6.768062,-0.0098 h -0.24908 l -18.754928,-0.02687 -0.914156,-6.888469 19.837032,-1.637109 0.196371,-0.01602 6.962882,-0.574642 z m -8.876978,83.079161 -0.460437,0.0181 v 5.2e-4 z m -0.463021,0.0181 -24.708569,0.97875 -5.055506,0.20051 29.766142,-1.17874 z m 22.818762,-58.352508 -5.112866,5.404838 4.67465,9.349817 -21.353218,1.762167 -0.205156,0.01705 -12.920658,1.066085 0.155546,4.555794 12.893787,0.0186 21.575428,0.03049 -5.843054,6.720004 3.651973,7.158219 15.192875,-16.653764 z" /><g
     id="g158"
     transform="matrix(1.1571659,0,0,1.1571659,-705.57113,-1077.314)"
     style="display:inline"><path
       id="path157"
       style="opacity:1;fill:#34302e;fill-opacity:1"
       d="m 629.45898,952.31445 v 2.3711 33.68554 l -12.68945,5.09961 v 45.8223 L 642.14648,1051 h 25.37696 l 44.37304,-41.498 v -7.4747 h -21.4121 v -8.5566 l -22.96094,-2.15429 v -5.31836 -25.89844 -2.37109 h -12.6875 v 28.26953 4.1289 l -12.68946,-1.1914 v -34.25 -2.3711 H 639.75 636.125 Z" /><path
       id="path158"
       style="display:inline;fill:#4d7690;fill-opacity:1;stroke:#9f9f9f;stroke-width:0"
       d="m 628.52447,947.21234 v 5.10161 h 14.55585 v -5.10161 z m 25.37609,5.41484 v 5.10077 h 14.55672 v -5.10077 z m -24.4424,2.05811 v 31.31301 h 12.68847 v -31.31301 z m 25.37696,5.41484 v 25.89817 h 12.68847 V 960.10013 Z M 615.836,988.3705 v 5.1007 h 0.93369 73.7138 0.93368 v -5.1007 h -0.93368 -73.7138 z m 0.93369,7.4729 v 41.0779 2.3722 h -3.1799 V 1051 h 21.92956 6.62728 v -11.7065 -2.3722 -6.9319 h 12.68849 12.68847 v 6.9319 2.3722 V 1051 h 22.9599 3.17987 18.23364 3.69506 v -11.7056 H 711.897 v 0 -2.3722 -27.4212 h -21.41351 v -2.3714 -11.2853 z m 5.43642,5.4451 h 9.04952 v 17.438 h -9.04952 z m 13.57386,0 h 9.04865 v 17.438 h -9.04865 z m 13.57383,0 h 9.04865 v 17.438 h -9.04865 z m 13.57383,0 h 9.04865 v 17.438 h -9.04865 z m 13.57299,0 h 9.04952 v 17.438 h -9.04952 z m 16.35504,0.7395 v 5.1008 h 19.97503 v -5.1008 z" /></g><rect
     style="fill:#f4e4c3;fill-opacity:1;stroke-width:0.264583"
     id="rect3"
     width="128"
     height="128"
     x="0"
     y="0" /><rect
     style="fill:#e7c033;fill-opacity:1;stroke-width:0.187088"
     id="rect4"
     width="90.509666"
     height="90.509666"
     x="18.745167"
     y="18.745167" /><path
     id="path8"
     style="display:inline;fill:#34302e;fill-opacity:1;stroke:#9f9f9f;stroke-width:0"
     d="m 83.318845,3.950514 v 6.99692 h 6.30068 v -6.99692 z m 0,7.88041 v 2.64281 h 6.30068 v -2.64281 z m -59.53525,0.83644 v 19.56755 h 1.27531 v -19.56755 z m 1.9946,0 v 19.56755 h 1.27626 v -19.56755 z m 66.85481,0.66646 v 6.99692 h 6.30068 v -6.99692 z m -38.7913,0.94688 v 12.43715 h 1.27532 v -12.43715 z m 1.9946,0 v 12.43715 h 1.27626 v -12.43715 z m -17.21763,0.48209 v 11.62855 h 1.27627 v -11.62855 z m 1.99554,0 v 11.62855 h 1.27533 v -11.62855 z m 42.70463,0.59444 v 19.72503 h 6.30068 v -19.72503 z m -56.02815,3.38226 v 0.25832 h 11.24155 v -0.25832 z m 14.99066,0 v 0.25832 h 11.24153 v -0.25832 z m -14.81492,0.49264 v 0.17478 h 0.62325 l 1.0093,0.42926 v 0.38317 l -1.0093,0.42831 h -0.62325 v 0.17477 h 3.05383 7.83624 v -0.14692 h -0.62325 l -1.0093,-0.42926 v -0.38317 l 1.0093,-0.42831 h 0.62325 v -0.20262 h -7.83624 z m 14.99064,0 v 0.17478 h 0.62325 l 1.0093,0.42926 v 0.38317 l -1.0093,0.42831 h -0.62325 v 0.17477 h 10.89007 v -0.17477 h -0.62325 l -1.0093,-0.42927 v -0.38317 l 1.0093,-0.4283 h 0.62325 v -0.17478 z m -9.92012,0.17478 h 0.62324 l 1.00931,0.42926 v 0.38317 l -1.00931,0.42831 h -0.62324 l -1.00834,-0.42927 v -0.38317 z m 14.99064,0 h 0.62324 l 1.00931,0.42926 v 0.38317 l -1.00931,0.42831 h -0.62324 l -1.0093,-0.42927 v -0.38317 z m -20.2369,1.64983 v 0.25833 h 11.24155 v -0.25833 z m 14.99066,0 v 0.25833 h 11.24153 v -0.25833 z m 50.35165,0.20935 v 2.64281 h 6.30068 v -2.64281 z m 0,3.47446 v 10.34171 h 6.30068 v -10.34171 z m -57.677,3.58872 v 5.58716 h -12.83567 v 9.26616 h 37.13856 v -9.26616 -5.58716 z m 43.19916,10.1439 v 5.18382 h 14.47784 l 10.030575,3.01925 v 3.39283 29.696055 L 86.615625,91.468588 v 10.240892 h 2.21163 v 8.82059 h -2.35184 l -0.001,13.51942 h 18.759905 14.20704 L 105.23432,50.069074 h -0.0258 l -2.23083,-11.5959 z m -13.89779,4.70942 v 80.866896 h 9.51968 V 108.32516 43.182594 Z m -47.70693,3.82209 -7.9918,2.24043 v 8.04847 h 8.13586 v 12.660908 h -8.13586 v 6.378451 h 53.49384 V 69.954492 H 51.147045 V 57.293584 h 10.90544 v -10.2889 z m 59.43153,0 v 29.328259 h 22.95171 V 49.245114 l -7.99181,-2.24043 z m -55.07358,10.2889 h 10.90542 v 12.660908 h -10.90542 z m 15.11933,0 h 10.90542 v 12.660908 h -10.90542 z m -12.82415,21.238523 v 0 H 8.558645 l 14.64493,10.736414 h 38.84891 V 78.531168 Z m 52.7784,0 V 89.26946 h 8.30679 l 14.64492,-10.737353 z m -52.7784,12.936481 v 10.240892 h 38.84891 V 91.468588 Z m 52.7784,0 v 10.240892 h 8.30679 V 91.468588 Z m -54.98332,12.445792 v 2.20588 2.2049 h 2.20492 10.51073 v 15.72433 h 9.52063 v -15.72433 h 10.5117 8.30585 v -4.41078 h -38.84891 z m 54.98332,0 v 4.41078 h 8.30679 2.2049 v -2.2049 -2.20588 h -2.2049 z m -52.7784,6.61569 v 13.51942 h 8.30583 v -13.51942 z m 52.7784,0 v 13.51942 h 8.30582 v -13.51942 z" /></svg>
