<?xml version="1.0" encoding="UTF-8" standalone="no"?>
<!-- Created with Inkscape (http://www.inkscape.org/) -->

<svg
   width="512mm"
   height="512mm"
   viewBox="0 0 512 512"
   version="1.1"
   id="svg1"
   xml:space="preserve"
   inkscape:export-filename="sniper.svg"
   inkscape:export-xdpi="96"
   inkscape:export-ydpi="96"
   sodipodi:docname="demo.svg"
   inkscape:version="1.4.3 (0d15f75042, 2025-12-25)"
   xmlns:inkscape="http://www.inkscape.org/namespaces/inkscape"
   xmlns:sodipodi="http://sodipodi.sourceforge.net/DTD/sodipodi-0.dtd"
   xmlns="http://www.w3.org/2000/svg"
   xmlns:svg="http://www.w3.org/2000/svg"><sodipodi:namedview
     id="namedview1"
     pagecolor="#ffffff"
     bordercolor="#000000"
     borderopacity="0.25"
     inkscape:showpageshadow="2"
     inkscape:pageopacity="0.0"
     inkscape:pagecheckerboard="0"
     inkscape:deskcolor="#d1d1d1"
     inkscape:document-units="mm"
     inkscape:zoom="0.056568542"
     inkscape:cx="5948.5358"
     inkscape:cy="114.90485"
     inkscape:window-width="1920"
     inkscape:window-height="1012"
     inkscape:window-x="0"
     inkscape:window-y="0"
     inkscape:window-maximized="1"
     inkscape:current-layer="layer1"><inkscape:page
       x="0"
       y="0"
       width="512"
       height="512"
       id="page2"
       margin="0"
       bleed="0" /></sodipodi:namedview><defs
     id="defs1" /><g
     inkscape:label="Layer 1"
     inkscape:groupmode="layer"
     id="layer1"><path
       id="path6"
       style="display:inline;fill:#ffffff;fill-opacity:1;stroke-width:1.50996"
       d="M 255.99846,1e-4 105.52961,48.8907 12.53115,176.888 v 158.2209 l 92.99846,127.9937 150.46885,48.8973 150.47919,-48.8973 92.9912,-127.9937 V 176.888 L 406.47765,48.8907 Z m 0,42.3804 125.5639,40.7996 77.59629,106.8059 V 322.011 L 381.56596,428.8163 255.99846,469.6128 130.43816,428.8163 52.84187,322.011 V 189.986 L 130.43816,83.1801 Z m 107.5841,50.5204 -2.019,25.6982 3.6014,6.5015 18.11,-10.8298 -8.3117,-15.4963 z m -2.019,25.6982 -9.3617,-22.9449 -9.2072,23.7128 c 0.3052,-0.3958 11.0318,11.8912 11.0645,11.9233 z m 24.0714,0.072 -16.4615,13.6669 9.3695,16.9157 13.92729,-13.1532 z m -48.151,5.7025 -13.4147,15.6745 17.5798,12.2303 6.6099,-11.1792 z m -67.369,19.4515 -11.1833,27.0247 33.0941,34.2289 -36.0294,-27.1358 -37.2153,-12.0923 -74.42747,24.1846 -45.99719,63.3109 v 78.2598 l 45.99719,63.3109 74.42747,24.183 74.4322,-24.183 45.9946,-63.3109 v -78.2598 l -12.6421,-17.401 26.9105,-16.1138 -33.5081,-55.5749 z m 49.3292,0.8578 -3.021,5.5248 20.3673,16.3287 3.0199,-5.1077 z m 78.13839,0.5421 -18.07279,10.2268 8.907,16.0802 -4.1527,10.281 23.73339,10.757 5.6467,-21.4049 -24.95659,0.3627 c 2.515,-0.53 21.41109,-8.8517 21.48029,-8.8625 z m -12.98059,42.537 -12.0752,21.0328 19.6086,12.2194 8.96329,-24.5613 z m -11.884,28.7393 -7.4182,18.3653 17.139,8.6212 3.4903,-16.2714 z m 9.7208,26.9865 -13.95,2.5698 6.7913,15.9696 14.134,-1.4686 z m 24.31689,-4.5465 -16.00109,28.9284 -33.0538,-0.6066 28.9285,16.0016 -0.6067,33.0538 16.00159,-28.929 33.0538,0.6067 -28.929,-16.0011 z m -81.37019,35.6645 2.9368,55.4354 -43.3199,58.739 -69.0185,20.1915 59.4734,-23.8626 40.7499,-55.0679 z" /><path
       id="path56"
       style="display:none;fill:#f4e5c3;fill-opacity:1;stroke-width:1.50996"
       d="m 255.99845,1.5e-4 -150.4689,48.8906 -92.9984,127.9973 v 158.2208 l 92.9984,127.9938 150.4689,48.8972 150.4791,-48.8972 92.9913,-127.9938 v -158.2208 l -92.9913,-127.9973 z m 0,42.3804 125.5639,40.7995 77.5963,106.8059 v 132.025 l -77.5927,106.8054 -125.5675,40.7965 -125.5603,-40.7965 -77.5963,-106.8054 v -132.025 l 77.5963,-106.8059 z m 5e-4,44.7683 -99.2487,32.2497 -61.3353,84.4238 v 104.3585 l 61.3353,84.4238 99.2487,32.2471 99.2539,-32.2471 61.3326,-84.4238 v -104.3585 l -61.3357,-84.4238 z m -11.1668,36.3833 v 64.7692 l -30.7578,9.9947 -25.9095,35.6629 v 10.8743 h -61.5988 v -30.8891 l 49.4373,-68.047 z m 22.3356,5e-4 68.8289,22.3645 49.4373,68.047 v 30.8891 h -61.5983 v -10.8743 l -25.9101,-35.6629 -30.7578,-9.9942 z m -22.3356,94.7064 v 26.5942 h -28.1957 v -1.6231 l 15.0348,-20.6944 z m 22.3356,0 13.161,4.2767 15.0347,20.6944 v 1.6231 h -28.1957 z m -140.6017,48.9293 h 61.5988 v 10.8743 l 25.9095,35.6629 30.7578,9.9937 v 64.7697 l -68.8288,-22.3635 -49.4373,-68.047 z m 90.0704,0 h 28.1957 v 26.5932 l -13.1609,-4.2762 -15.0348,-20.6944 z m 50.5313,0 h 28.1957 v 1.6226 l -15.0342,20.6944 -13.1615,4.2762 z m 56.6679,0 h 61.5983 v 30.8901 l -49.4347,68.047 -68.8315,22.363 v -64.7697 l 30.7594,-9.9932 25.9085,-35.6629 z" /><path
       id="path69"
       style="display:none;fill:#f4e5c3;fill-opacity:1;stroke:#ffffff;stroke-width:0;stroke-dasharray:none;stroke-opacity:0"
       d="m 255.99845,1.5e-4 -150.4688,48.8905 -92.9985,127.9974 v 158.2208 l 92.9985,127.9937 150.4688,48.8973 150.4792,-48.8973 92.9912,-127.9937 v -158.2208 l -92.9912,-127.9974 z m 0,42.3803 125.564,40.7996 77.5962,106.8059 v 132.025 l -77.5926,106.8053 -125.5676,40.7965 -125.5603,-40.7965 -77.5963,-106.8053 v -132.025 l 77.5963,-106.8059 z m -62.2726,61.9052 v 89.4402 h -89.4401 v 124.5489 h 89.4401 v 89.4401 h 124.5489 v -89.4401 h 89.44 v -124.5489 h -89.44 v -89.4402 z" /><path
       id="path70"
       style="display:none;fill:#f4e5c3;fill-opacity:1;stroke-width:1.50996"
       d="m 255.99844,1.5e-4 -150.46889,48.8905 -92.9984,127.9974 v 158.2208 l 92.9984,127.9938 150.46889,48.8972 150.47918,-48.8972 92.99123,-127.9938 V 176.88805 L 406.47762,48.89065 Z m 0,42.3803 125.56391,40.7996 77.59629,106.8059 v 132.025 l -77.59268,106.8054 -125.56752,40.7965 -125.56029,-40.7965 -77.5963,-106.8054 v -132.025 l 77.5963,-106.8059 z m 19.20244,35.9338 -82.96913,129.2262 -1.4681,95.451 -42.586,-94.7167 -30.1041,118.2124 38.1806,69.0186 71.83074,28.2969 -25.08324,-44.7967 42.31372,17.6521 13.2395,-97.8663 57.36962,46.9862 -0.70745,64.7796 62.04324,-23.1284 20.56774,-98.6709 -80.76613,-84.4373 z m 39.58983,81.7598 7.00939,38.4199 5.19193,5.1919 6.48953,-4.9325 z m -156.56206,14.0431 -6.2409,13.2163 6.2409,14.3174 z" /><path
       id="path72"
       style="display:none;fill:#f4e5c3;fill-opacity:1;stroke-width:1.50996"
       d="M 255.99845,1e-4 105.52955,48.8907 12.53115,176.888 v 158.2209 l 92.9984,127.9937 150.4689,48.8973 150.4792,-48.8973 92.9912,-127.9937 V 176.888 L 406.47765,48.8907 Z m 0,42.3804 125.5639,40.7996 77.5963,106.8059 V 322.011 L 381.56595,428.8163 255.99845,469.6128 130.43815,428.8163 52.84185,322.011 V 189.986 l 77.5963,-106.8059 z m 118.1674,84.1902 -18.6035,5.393 29.8308,26.4045 2.5445,-19.8577 z m -21.0659,15.799 -57.0931,15.1138 -28.1694,16.4264 74.8435,70.3601 13.0592,-31.4854 16.5649,-52.894 z m -89.3206,42.8439 -11.5714,14.0989 63.6008,63.5357 14.5805,-13.2928 z m -21.3992,17.1504 -40.7236,72.5982 40.3458,38.6653 72.6059,-38.2876 z m -18.9658,0.8852 -144.8532,126.1624 95.9554,-66.1898 -37.5465,45.422 68.7916,-66.9747 z m -38.6845,72.9899 -23.9137,26.9033 55.8617,58.4765 27.6494,-27.65 z m 125.4864,17.7937 -16.8873,5.8741 -96.1853,119.6811 z m -151.4527,22.0023 -49.2492,48.9154 27.9259,46.6597 11.7688,3.2452 53.6701,-54.3124 c -0.4421,0.3767 -44.1029,-44.4948 -44.1156,-44.5079 z" /><path
       id="path81"
       style="display:none;fill:#f4e5c3;fill-opacity:1;stroke-width:1.50996"
       d="m 255.9984,1.5e-4 -150.4688,48.8905 -92.9985,127.9974 v 158.2208 l 92.9985,127.9938 150.4688,48.8972 150.4792,-48.8972 92.9913,-127.9938 V 176.88805 L 406.4776,48.89065 Z m 0,42.3803 125.564,40.7996 77.5963,106.8059 v 132.025 l -77.5927,106.8054 -125.5675,40.7965 -125.5603,-40.7965 -77.5963,-106.8054 v -132.025 l 77.5963,-106.8059 z m 112.2232,50.5008 -151.2538,91.4131 15.4192,82.2347 88.2922,-12.115 -30.471,-21.1093 43.3204,-12.4819 4.222,-18.356 -89.2101,25.3313 -4.4054,24.046 -0.3674,-66.0812 128.4919,-58.0052 z m -5.3232,48.4601 -114.3383,48.2916 1.5581,14.2772 111.495,-40.3582 z m -2.8427,28.0433 -111.4956,41.5349 3.2453,11.8112 103.188,-30.3723 z m -30.3723,92.5447 -107.4715,13.7583 -20.2484,52.4382 56.5914,19.4691 74.5029,-55.8121 z m -129.7864,72.7005 -18.356,42.4026 -36.5285,23.3117 2.3864,8.8114 69.202,-12.4825 37.6297,-42.2186 z m 103.4453,25.7395 c 0,0 -61.3003,40.2938 -67.4036,43.1503 l 66.0461,-29.0127 z m 83.1981,29.346 -150.8146,13.8979 136.018,-0.7121 z" /><path
       id="path91"
       style="display:none;fill:#f4e5c3;fill-opacity:1;stroke-width:1.50996"
       d="M 255.99845,1e-4 105.52965,48.8907 12.53115,176.888 v 158.2209 l 92.9985,127.9937 150.4688,48.8973 150.4792,-48.8973 92.9912,-127.9937 V 176.888 L 406.47765,48.8907 Z m 0,42.3804 125.5639,40.7995 77.5963,106.8059 v 132.025 l -77.5927,106.8054 -125.5675,40.7965 -125.5603,-40.7965 -77.5963,-106.8054 V 189.9859 L 130.43815,83.18 Z m 76.7524,70.7869 -31.8063,16.2057 -16.2057,31.8063 2.5052,15.8151 4.4814,4.4813 43.2806,43.2806 15.815,2.5053 31.8064,-16.2057 16.2057,-31.8064 -3.3667,-21.2591 -32.952,32.952 -26.5209,-15.8404 -14.9355,-25.616 32.952,-32.952 z m -52.1808,78.0748 -49.7142,43.5239 -43.9555,49.4704 47.2317,35.0072 45.7492,-39.362 37.5564,-44.7755 z m -119.3911,93.4971 -31.8058,16.2052 -16.2058,31.8064 3.3668,21.2591 32.9519,-32.952 26.5209,15.8404 14.9355,25.616 -32.952,32.952 21.2592,3.3667 31.8063,-16.2057 16.2052,-31.8058 -2.5047,-15.8151 -47.7625,-47.7624 z" /><path
       id="path105"
       style="display:none;fill:#f4e5c3;fill-opacity:1;stroke-width:1.50996"
       d="m 255.99845,1e-4 -150.4688,48.8906 -92.9985,127.9974 v 158.2208 l 92.9985,127.9937 150.4688,48.8973 150.4792,-48.8973 92.9912,-127.9937 V 176.8881 L 406.47765,48.8907 Z m 0,42.3804 125.5639,40.7996 19.4991,26.8392 12.6576,17.4227 6.6414,9.141 14.7185,20.2593 24.0797,33.1437 v 132.025 l -26.1069,35.9358 -9.5752,13.1795 -8.1235,11.1823 -8.8398,12.1682 -24.9473,34.3395 -125.5675,40.7965 -125.5603,-40.7965 -17.7741,-24.4641 L 93.51225,377.991 81.83905,361.9238 52.84185,322.011 V 189.986 l 22.8632,-31.4694 15.935,-21.9336 8.5421,-11.7579 13.6922,-18.8459 16.5638,-22.7991 z m -35.4697,69.8562 -52.2087,54.1393 -59.6785,33.5489 40.8694,5.1852 24.7028,-13.7754 -9.6097,16.4119 49.81664,30.8381 26.73786,-27.046 4.0426,5.4105 -17.83405,22.12834 37.13639,44.55877 22.96336,-17.74591 4.1816,5.6735 -22.99677,30.31128 40.76518,33.08329 21.50779,-16.70127 4.5005,4.6049 -20.8024,21.9537 33.7814,35.3146 62.5864,-47.7707 8.0656,-42.9317 -20.8158,-24.9789 -14.0502,1.3007 11.7083,-31.2229 -20.5548,-28.361 -28.882,-9.6268 -15.6109,-41.6311 -34.8661,-8.3266 -28.3611,-34.3447 z m -94.7534,9.964 -14.2648,15.4151 14.4116,13.6376 -27.3844,-11.7186 -18.4717,19.961 48.9769,11.0009 20.6152,-12.6132 z m 265.8927,-1.6234 -36.3985,54.8387 5.0581,11.7186 70.8601,-29.0258 -15.1924,-18.7316 -34.9125,22.3495 23.1317,-25.6795 z m -291.4224,84.0672 -17.6624,84.6326 41.9483,36.7977 19.8908,-7.1148 -24.5887,-50.2176 25.6067,-54.9041 z m 58.9892,12.2732 -31.335,53.5161 24.4584,46.3145 56.9025,-67.4176 z m 58.8062,31.7122 -67.7648,79.0469 45.5342,34.0847 63.085,-65.9856 v -5e-4 z m 39.7129,62.1037 -50.2352,58.0533 48.6564,23.1568 48.2152,-47.5294 z m -120.5185,26.7821 -42.5899,20.5303 10.5197,13.1372 17.6367,-10.3043 -6.8733,11.2664 8.4315,10.5296 22.0677,-37.6233 z m 266.4346,13.9488 -16.5044,15.1293 11.6755,18.0007 c -0.063,-0.1268 4.329,-4.8633 9.6588,-10.5405 l -4.6682,-7.1176 13.7734,2.9378 c 6.2717,-6.6419 11.9892,-12.6566 12.0158,-12.6845 z m -96.5517,1.2707 -41.8362,44.1523 37.9884,17.6935 36.7693,-28.0649 z"
       sodipodi:nodetypes="ccccccccccccccccccccccccccccccccccccccccccccccccccccccccccccccccccccccccccccccccccccccccccccccccccccccccccccccccccccccccccccccc" /><path
       id="path106"
       style="display:none;fill:#f4e5c3;fill-opacity:1;stroke-width:1.50996"
       d="M 255.9984,1.235e-4 105.5296,48.890673 12.5311,176.88803 V 335.10886 L 105.5296,463.1026 255.9984,511.99988 406.4776,463.1026 499.4689,335.10886 V 176.88803 L 406.4776,48.890674 Z m 0,42.3803595 125.564,40.79957 77.5963,106.805887 V 322.01095 L 381.566,428.81632 255.9984,469.6128 130.4382,428.81632 52.8419,322.01095 V 189.98594 L 130.4382,83.180053 Z m 113.7321,62.163127 -94.664,152.40516 12.0179,3.90416 h 5e-4 l 6.5113,-7.64243 -5.7516,-4.54339 9.2754,0.40669 h 5e-4 l 66.6259,-78.20453 z m 0,0 -47.7816,40.92205 -69.2102,103.96058 -13.8328,4.02456 -1.9414,17.38963 8.1685,-3.14244 24.8083,12.75581 1.3673,9.30331 16.2461,-8.95605 -5.5687,-13.96348 -14.4436,-7.25124 z m -125.0662,166.60481 -111.4899,108.98612 26.5927,40.63162 92.8512,-143.32355 z m 11.8592,9.84746 -76.0967,144.34365 52.416,-5.06739 34.5358,-137.21437 z m -103.9043,96.70986 10.2588,0.22531 2.618,11.80083 -10.3508,-0.40979 z m 59.8987,17.99167 10.9621,1.29295 -4.7801,10.96212 -12.8229,-3.3998 z" /><path
       id="path107"
       style="display:none;fill:#f4e5c3;fill-opacity:1;stroke-width:1.50996"
       d="M 255.99845,1.235e-4 105.52955,48.890673 12.53115,176.88803 v 158.22083 l 92.9984,127.99374 150.4689,48.89728 150.4792,-48.89728 92.9912,-127.99374 V 176.88803 L 406.47765,48.890674 Z m 0,42.3803595 125.5639,40.79957 77.5963,106.805887 v 132.02501 l -77.5927,106.80537 -103.4087,33.59692 -22.1573,7.19956 h -5e-4 -0.001 L 130.43815,428.81632 52.84185,322.01095 V 189.98594 l 77.5963,-106.805887 z m 3.5889,18.518761 -6.7613,0.695569 -8.9277,25.01139 h 24.2032 z m -27.5466,30.63948 -93.8972,33.099776 -72.8389,81.209 v 16.64601 l 67.0765,-26.1121 38.2261,-62.76051 71.7687,-42.082176 z m 10.3352,0 -66.3608,45.882466 -43.634,58.96022 123.6188,19.88664 123.6188,-19.88664 -43.2206,-58.96022 -66.1541,-45.882466 z m 27.8681,0 71.5621,42.082176 37.8126,62.76051 67.0766,26.1121 V 205.8475 l -72.839,-81.209 -93.277,-33.099776 z m -22.3123,132.470456 2.7249,122.68037 v 7.14943 l 14.966,2.00608 -0.04,-10.94662 -0.4393,-120.88926 -8.6061,2.83756 z m -7.4104,136.55136 5.5542,52.43607 -31.935,-4.99504 -4.3393,-30.08602 -16.0807,2.7063 1.1384,48.45078 58.6698,19.13217 16.4301,-6.36654 4.3769,-77.22216 z"
       sodipodi:nodetypes="cccccccccccccccccccccccccccccccccccccccccccccccccccccccccccccccccccccccc" /></g></svg>
