<?xml version="1.0" encoding="UTF-8" standalone="no"?>
<!-- Created with Inkscape (http://www.inkscape.org/) -->

<svg
   width="512mm"
   height="512mm"
   viewBox="0 0 512 512"
   version="1.1"
   id="svg1"
   inkscape:version="1.4.3 (0d15f75, 2025-12-25)"
   sodipodi:docname="nemesis_mask.svg"
   inkscape:export-filename="health_panel_mask_ed.svg"
   inkscape:export-xdpi="96"
   inkscape:export-ydpi="96"
   xml:space="preserve"
   xmlns:inkscape="http://www.inkscape.org/namespaces/inkscape"
   xmlns:sodipodi="http://sodipodi.sourceforge.net/DTD/sodipodi-0.dtd"
   xmlns="http://www.w3.org/2000/svg"
   xmlns:svg="http://www.w3.org/2000/svg"><sodipodi:namedview
     id="namedview1"
     pagecolor="#ffffff"
     bordercolor="#111111"
     borderopacity="1"
     inkscape:showpageshadow="0"
     inkscape:pageopacity="0"
     inkscape:pagecheckerboard="1"
     inkscape:deskcolor="#d1d1d1"
     inkscape:document-units="mm"
     inkscape:zoom="0.22627416"
     inkscape:cx="1049.6117"
     inkscape:cy="917.02915"
     inkscape:window-width="1920"
     inkscape:window-height="1009"
     inkscape:window-x="1912"
     inkscape:window-y="-8"
     inkscape:window-maximized="1"
     inkscape:current-layer="layer1"
     showgrid="false"><inkscape:page
       x="0"
       y="0"
       width="512"
       height="512"
       id="page2"
       margin="0"
       bleed="0" /></sodipodi:namedview><defs
     id="defs1"><style
       id="style1" /></defs><g
     inkscape:label="Layer 1"
     inkscape:groupmode="layer"
     id="layer1"><path
       id="path132"
       style="fill:#33302e;fill-opacity:1;stroke-width:0.173536"
       d="m 278.37965,64.6404 -90.21905,119.6593 -97.8168,-48.4333 31.6224,67.3434 -22.4537,13.6379 -59.111,-3.7961 8.4057,10.0326 L 0,213.5939 l 74.5666,52.6033 -5.9654,25.4882 5.3651,8.8524 -48.2005,39.5087 87.7845,-1.1401 24.1945,11.8899 -2.3672,-12.1733 29.6436,-0.385 0.381,0.085 8.1345,25.7593 9.8835,-0.2203 37.0294,83.4976 16.77135,-84.6961 0.96869,-0.022 2.16684,-10.9999 6.04869,1.3219 2.71321,13.1291 44.67383,3.4514 6.34053,-4.8387 82.71125,18.076 -44.75755,-61.8082 12.51192,-2.1733 v 11.9306 l 50.16295,-17.6248 12.7441,-43.9265 -8.67683,-13.5575 85.68373,-24.4036 -37.05957,-3.1603 58.54727,-32.3625 -125.48497,11.0073 -15.58035,-11.5476 -65.07625,-13.8287 -13.64229,4.7682 -1.10392,-9.6896 20.16923,-22.4649 -23.60438,-7.6891 z" /><path
       id="path68"
       style="fill:#ebe2ca;fill-opacity:1;stroke-width:0.126989"
       d="m 269.33757,89.2971 -62.11507,93.1209 29.12328,-6.1454 4.49378,-38.2054 32.11536,10.9678 z m -22.15783,58.8021 -7.45587,82.6306 44.09808,-65.9557 z m -134.11174,10.0309 22.1176,42.3747 11.7822,-9.9219 34.9332,5.1676 z m 114.0928,31.9102 -21.486,7.5649 31.06062,38.3465 z m 78.6164,7.9747 -36.46599,12.6592 -17.29403,16.0781 -11.99979,17.7167 -1.04696,10.5932 6.62492,-6.5578 -4.40904,8.909 36.6081,-19.2804 -39.87095,27.5228 1.04697,-10.5926 -1.04748,10.5926 -3.74241,6.1655 2.32802,8.3773 4.32635,6.9009 1.71979,2.7424 6.04563,9.6434 -0.5979,7.5132 -4.83794,9.3984 -0.46561,0.9044 6.57479,5.673 1.45056,-0.2408 15.52929,10.5125 -0.89917,6.5795 -3.30161,1.1782 -6.0508,-1.5183 -3.88813,-0.9751 2.07223,3.0902 2.03191,13.1248 28.50576,-0.033 19.50733,-9.0356 0.22014,-15.7551 -3.38997,2.8923 -11.42049,-3.253 -2.95279,-10.0123 -4.67569,-4.5413 -3.43545,1.5125 3.3259,-3.7196 10e-4,-0.01 0.03,-0.028 7.04246,6.2135 2.43758,6.1666 10.19937,1.4981 7.89358,-10.9296 29.29434,-9.9839 6.93652,1.4831 5.24568,-4.2245 6.66729,-3.746 6.13864,-1.5043 5.01985,-0.3101 3.48144,3.0562 0.42168,4.2354 -0.32349,1.4929 -3.47886,5.0322 -6.05389,5.6426 8.93124,-4.7935 h 5.1e-4 l 14.15986,-11.6215 11.72642,-22.9764 -8.58036,-25.6801 56.4348,-17.6144 h -39.30561 l 36.4293,-21.8576 -64.67305,6.2115 -0.71417,-2.1378 -0.19896,-0.065 0.0181,-0.086 -37.28403,-16.0874 z m -136.6423,8.9137 -33.0176,5.0524 -34.9865,18.9435 0.025,0.083 -0.1886,0.081 -40.7056,-8.4108 18.0232,10.3533 -31.8275,-1.9172 47.208,30.6664 -7.3019,30.6922 13.4431,21.4033 14.8306,10.1095 h 5e-4 l 9.1333,3.9015 -6.3991,-4.98 -3.8333,-4.6085 -0.4455,-1.4289 0.043,-4.1703 3.1316,-3.2855 4.9264,-0.1339 6.1215,0.9338 6.8332,3.0763 5.4865,3.6659 6.6409,-2.0505 29.4582,7.1949 8.6542,9.9798 9.8232,-2.3492 1.8428,-6.2312 6.3324,-6.6766 0.032,0.024 v 0.01 l 3.5698,3.3414 -3.485,-1.1777 -4.1677,4.839 -2.0108,10.0278 -10.8623,4.1682 -3.5606,-2.5275 1.5855,15.3572 19.8246,7.1205 27.8226,-2.4484 0.84129,-12.9858 1.75338,-3.1962 -3.70985,1.2904 -5.77332,2.0081 -3.3243,-0.8624 -1.4506,-6.3433 14.24154,-11.6107 1.43608,0.1091 5.92316,-6.1087 -0.53279,-0.8418 -5.53919,-8.7514 -1.23765,-7.2807 4.73511,-9.2961 -2.84479,-4.2669 -2.9192,2.1895 -0.51883,1.3948 -5.76864,5.7242 0.9028,7.353 -12.9134,11.7827 -12.0582,-6.1727 1.1115,-18.8738 7.7975,-15.2952 21.4235,12.3791 2.63084,-0.9503 -3.67161,-5.5067 -0.81235,-3.3228 -16.44348,-8.9482 11.1255,1.9166 -37.5843,-34.1276 40.4554,31.1568 5.27255,-5.9439 1.1777,-18.6867 -10.76055,-13.1909 -18.2759,-14.1867 z m 112.68201,39.0555 -6.09369,17.3601 17.18035,4.3703 2.15801,24.2161 15.23834,7.335 55.45502,-18.4832 -23.42131,10.7813 -33.09928,10.3906 -19.62257,-6.3738 -0.0801,-25.7648 -18.63762,-5.409 z m -85.12501,5.674 12.2633,17.029 -17.7188,6.9008 2.1637,25.1515 -18.5958,7.9277 -33.2067,-7.2606 -23.7955,-8.4842 55.7284,13.2136 14.2332,-8.4842 -5e-4,-23.8213 16.3866,-5.7598 z m 72.44981,19.9073 9.31313,14.842 2.84013,19.0857 -11.69799,7.3685 -14.19552,-10.8076 0.25115,-7.5566 -6.38255,-5.2974 -0.65423,-1.3704 -4.78834,-2.9657 4.6576,1.2268 z M 80.6152,312.9527 52.5033,332.383 97.9785,330.5227 80.2018,324.1148 Z m 238.89708,10.6526 7.01611,25.5782 -16.51682,8.77 53.34971,11.8391 z m -68.38446,0.339 -1.06195,0.2604 10.89081,9.5111 v 5e-4 l 3.42305,5.4648 0.8723,-5.2189 z m -17.70176,1.1281 -12.91286,11.0055 1.3048,5.0172 2.8654,-5.6311 h 6e-4 l 9.8004,-10.2304 z m -38.30876,45.098 22.812,52.4536 10.9622,-51.5953 -22.0824,8.5866 z" /></g></svg>
