<?xml version="1.0" encoding="UTF-8" standalone="no"?>
<!-- Created with Inkscape (http://www.inkscape.org/) -->

<svg
   width="1920mm"
   height="1080mm"
   viewBox="0 0 1920 1080"
   version="1.1"
   id="svg1"
   inkscape:export-filename="line_pattern_gradient.svg"
   inkscape:export-xdpi="96"
   inkscape:export-ydpi="96"
   inkscape:version="1.4.3 (0d15f75042, 2025-12-25)"
   sodipodi:docname="line_pattern_gradient.svg"
   xmlns:inkscape="http://www.inkscape.org/namespaces/inkscape"
   xmlns:sodipodi="http://sodipodi.sourceforge.net/DTD/sodipodi-0.dtd"
   xmlns="http://www.w3.org/2000/svg"
   xmlns:svg="http://www.w3.org/2000/svg">
  <sodipodi:namedview
     id="namedview1"
     pagecolor="#ffffff"
     bordercolor="#000000"
     borderopacity="0.25"
     inkscape:showpageshadow="2"
     inkscape:pageopacity="0.0"
     inkscape:pagecheckerboard="0"
     inkscape:deskcolor="#d1d1d1"
     inkscape:document-units="mm"
     inkscape:zoom="0.063701487"
     inkscape:cx="4607.4278"
     inkscape:cy="-792.76014"
     inkscape:window-width="1920"
     inkscape:window-height="1012"
     inkscape:window-x="0"
     inkscape:window-y="0"
     inkscape:window-maximized="1"
     inkscape:current-layer="layer1">
    <inkscape:page
       x="0"
       y="0"
       width="1920"
       height="1080"
       id="page2"
       margin="0"
       bleed="0" />
  </sodipodi:namedview>
  <defs
     id="defs1" />
  <g
     inkscape:label="Layer 1"
     inkscape:groupmode="layer"
     id="layer1">
    <path
       id="path1"
       style="fill:#f4e5c3;fill-opacity:1;stroke-width:0.666323"
       d="M 6.5262166,2e-5 0,49.39912 V 167.75671 L 6.5360352,118.29668 13.059668,68.89862 v 0 l 9.104871,-68.8971 h -9.104871 -6.5262167 -0.0031 z m 31.2668254,0 -15.628503,118.29666 -9.104871,68.90638 v -0.0145 -0.0305 L 6.5282837,236.59385 0,286.00685 V 404.32314 L 6.5324178,354.8905 7.9628215,344.05912 22.164539,236.59385 37.795109,118.29668 53.424129,2e-5 Z M 69.0547,2e-5 53.424129,118.29668 37.793042,236.59385 22.164539,354.8905 13.059668,423.79689 v -0.0145 -0.0305 L 6.5282837,473.18767 0,522.60068 v 118.30544 l 2.1543905,-16.30443 v 0.008 L 6.5313843,591.48458 22.164539,473.18792 37.795109,354.89075 53.424129,236.5941 69.0547,118.29693 84.685787,2.7e-4 Z m 31.26217,0 -15.631083,118.29666 -7.81451,59.14884 L 69.0547,236.59385 53.424129,354.8905 37.793042,473.18767 22.164539,591.48433 13.059668,660.3902 v -0.0145 -0.03 L 6.5282837,709.78099 0,759.19399 v 118.29872 l 2.1543905,-16.30236 v 0.0129 L 6.5313843,828.07814 22.164539,709.78097 37.795109,591.48431 53.424129,473.18765 69.0547,354.89048 84.685787,236.59383 100.31481,118.29666 115.94951,0 Z m 31.26115,0 L 115.94744,118.29668 100.31687,236.59385 84.685787,354.8905 76.871277,414.03935 69.0547,473.18767 53.424129,591.48433 37.793042,709.78099 22.164539,828.07816 13.059668,896.98403 v -0.0145 -0.03 L 6.5282837,946.37481 0,995.78782 v 84.21238 h 2.1543905 2.3486938 0.0031 L 6.5313837,1064.672 22.164538,946.37481 37.795108,828.07816 53.424128,709.78099 69.054699,591.48433 84.685786,473.18767 100.31481,354.8905 115.94951,236.59385 131.58008,118.29668 147.2091,2e-5 Z m 31.2601,0 L 147.2091,118.29668 131.57802,236.59385 115.94744,354.8905 100.31687,473.18767 84.685787,591.48433 76.871277,650.63266 69.0547,709.78099 53.424129,828.07816 37.793042,946.37481 22.164539,1064.672 20.138822,1080.0002 H 35.769393 L 37.795109,1064.672 53.424129,946.37481 69.0547,828.07816 84.685787,709.78099 100.31481,591.48433 115.94899,473.18767 131.58008,354.8905 147.21117,236.59385 162.84381,118.29668 178.47283,2e-5 Z m 31.26166,0 -15.63057,118.29666 -15.63109,118.29717 -15.62902,118.29665 -15.63108,118.29717 -15.63058,118.29666 -15.63057,118.29666 -15.631083,118.29717 -7.81451,59.14832 -7.816577,59.14833 -15.630571,118.29719 -2.025716,15.3282 h 15.62902 l 2.0252,-15.3282 L 84.68372,946.37481 100.31274,828.07816 115.94744,709.78099 131.57802,591.48433 147.2091,473.18767 162.84174,354.8905 178.47076,236.59385 194.10185,118.29668 209.73242,2e-5 Z m 31.26166,0 -15.63109,118.29666 -15.6285,118.29717 -15.63109,118.29665 -15.63109,118.29717 -15.6285,118.29666 -15.63109,118.29666 -15.63109,118.29717 -15.63057,118.29665 -15.631083,118.29719 -2.024682,15.3282 H 98.289091 L 100.31481,1064.672 115.94951,946.37481 131.58008,828.07816 147.21117,709.78099 162.84381,591.48433 178.47283,473.18767 194.10391,354.8905 209.73448,236.59385 225.36557,118.29668 240.99614,2e-5 Z m 31.26166,0 -15.63109,118.29666 -15.63057,118.29717 -15.63109,118.29665 -15.6285,118.29717 -15.63109,118.29666 -15.63109,118.29666 -15.6285,118.29717 -15.63109,118.29665 -15.63109,118.29719 -2.02468,15.3282 h 15.63057 l 2.0252,-15.3282 L 147.21117,946.37481 162.84381,828.07816 178.47283,709.78099 194.10391,591.48433 209.73448,473.18767 225.36557,354.8905 240.99614,236.59385 256.6293,118.29668 272.25987,2e-5 Z m 31.25959,0 -15.62851,118.29666 -15.63108,118.29717 -15.63109,118.29665 -15.63057,118.29717 -15.63109,118.29666 -15.6285,118.29666 -15.63109,118.29717 -15.63109,118.29665 -15.6285,118.29719 -2.02572,15.3282 h 15.63109 l 2.0252,-15.3282 L 178.47076,946.37481 194.10185,828.07816 209.73242,709.78099 225.36351,591.48433 240.99459,473.18767 256.62671,354.8905 272.2578,236.59385 287.89095,118.29668 303.51997,2e-5 Z m 31.26165,0 -15.63057,118.29666 -15.63108,118.29717 -15.62851,118.29665 -15.63108,118.29717 -15.63109,118.29666 -15.63057,118.29666 -15.63109,118.29717 -15.6285,118.29665 -15.63109,118.29719 -2.0252,15.3282 h 15.62902 l 2.0252,-15.3282 L 209.73035,946.37481 225.36144,828.07816 240.99201,709.78099 256.62516,591.48433 272.25625,473.18767 287.88889,354.8905 303.51791,236.59385 319.14848,118.29668 334.77957,2e-5 Z m 31.26218,0 -15.63109,118.29666 -15.6285,118.29717 -15.63109,118.29665 -15.63109,118.29717 -15.6285,118.29666 -15.63109,118.29666 -15.63057,118.29717 -15.63108,118.29665 -15.63109,118.29719 -2.0252,15.3282 h 15.63057 L 225.36351,1064.672 240.99459,946.37481 256.62671,828.07816 272.2578,709.78099 287.89095,591.48433 303.51946,473.18767 319.15055,354.8905 334.78163,236.59385 350.41427,118.29668 366.04329,2e-5 Z m 31.26166,0 -15.63109,118.29666 -15.63057,118.29717 -15.63109,118.29665 -15.6285,118.29717 -15.63109,118.29666 -15.63109,118.29666 -15.6285,118.29717 -15.63109,118.29665 -15.63057,118.29719 -2.02571,15.3282 h 15.63057 L 256.62516,1064.672 272.25625,946.37481 287.88889,828.07816 303.51791,709.78099 319.14848,591.48433 334.77957,473.18767 350.41272,354.8905 366.04122,236.59385 381.66818,118.29668 397.29926,2e-5 Z m 31.25959,0 -15.62851,118.29666 -15.63108,118.29717 -15.63109,118.29665 -15.63057,118.29717 -15.63109,118.29666 -15.6285,118.29666 -15.63109,118.29717 -15.63109,118.29665 -15.6285,118.29719 -2.02572,15.3282 H 285.8611 L 287.88682,1064.672 303.51584,946.37481 319.14693,828.07816 334.7775,709.78099 350.41014,591.48433 366.03916,473.18767 381.67179,354.8905 397.30288,236.59385 412.9319,118.29668 428.56247,2e-5 Z m 31.26165,0 -15.63057,118.29666 -15.62902,118.29717 -15.62902,118.29665 -15.63057,118.29717 -15.63108,118.29666 -15.63057,118.29666 -15.63109,118.29717 -15.62902,118.29665 -15.63057,118.29719 -2.02572,15.3282 h 15.62902 L 319.14693,1064.672 334.7775,946.37481 350.41014,828.07816 366.03916,709.78099 381.67231,591.48433 397.30288,473.18767 412.9319,354.8905 428.56247,236.59385 444.19356,118.29668 459.82465,2e-5 Z m 31.26218,0 -15.63109,118.29666 -15.62902,118.29717 -15.63057,118.29665 -15.62954,118.29717 -15.6285,118.29666 -15.63109,118.29666 -15.63057,118.29717 -15.63108,118.29665 -15.63109,118.29719 -2.02882,15.3282 h 15.63264 l 2.02572,-15.3282 15.6285,-118.29719 L 381.67024,828.07816 397.30081,709.78099 412.92983,591.48433 428.56092,473.18767 444.19149,354.8905 459.82206,236.59385 475.45315,118.29668 491.08217,2e-5 Z m 31.26166,0 -15.63109,118.29666 -15.63057,118.29717 -15.63109,118.29665 -15.62902,118.29717 -15.63057,118.29666 -15.62954,118.29666 -15.6285,118.29717 -15.63109,118.29665 -15.63057,118.29719 -2.0252,15.3282 h 15.63057 l 2.0252,-15.3282 15.63109,-118.29719 15.6285,-118.29665 L 428.56247,709.78099 444.19356,591.48433 459.82413,473.18767 475.45522,354.8905 491.0863,236.59385 506.70912,118.29668 522.34383,2e-5 Z m 31.25959,0 -15.62902,118.29666 -15.63057,118.29717 -15.63109,118.29665 -15.63057,118.29717 -15.63109,118.29666 -15.62902,118.29666 -15.63057,118.29717 -15.62954,118.29665 -15.6285,118.29719 -2.02572,15.3282 h 15.62747 l 2.0252,-15.3282 L 428.56092,946.37481 444.19149,828.07816 459.82258,709.78099 475.45315,591.48433 491.08424,473.18767 506.71326,354.8905 522.34796,236.59385 537.97853,118.29668 553.60755,2e-5 Z m 31.26166,0 -15.63058,118.29666 -15.63108,118.29717 -15.62902,118.29665 -15.63057,118.29717 -15.63109,118.29666 -15.63057,118.29666 -15.63109,118.29717 -15.62902,118.29665 -15.63057,118.29719 -2.02571,15.3282 h 15.63108 l 2.0252,-15.3282 15.63057,-118.29719 15.63109,-118.29665 15.63109,-118.29717 15.62902,-118.29666 15.6347,-118.29666 L 537.97853,354.8905 553.60755,236.59385 569.23864,118.29668 584.86973,2e-5 Z m 31.26165,0 -15.63108,118.29666 -15.62902,118.29717 -15.63057,118.29665 -15.63109,118.29717 -15.62851,118.29666 -15.63108,118.29666 -15.63057,118.29717 -15.63109,118.29665 -15.63109,118.29719 -2.0252,15.3282 h 15.63109 l 2.0252,-15.3282 15.63109,-118.29719 15.62902,-118.29665 15.6347,-118.29717 L 537.97853,591.48433 553.60755,473.18767 569.23864,354.8905 584.86921,236.59385 600.49823,118.29668 616.12673,2e-5 Z m 31.26166,0 -15.63109,118.29666 -15.63057,118.29717 -15.63108,118.29665 -15.62902,118.29717 -15.63057,118.29666 -15.63109,118.29666 -15.62851,118.29717 -15.63108,118.29665 -15.63057,118.29719 -2.0252,15.3282 h 15.62643 l 2.02572,-15.3282 15.6347,-118.29719 L 537.97698,828.07816 553.60549,709.78099 569.23606,591.48433 584.86714,473.18767 600.49616,354.8905 616.1288,236.59385 631.75989,118.29668 647.39097,2e-5 Z m 31.25959,0 -15.6285,118.29666 -15.63109,118.29717 -15.63109,118.29665 -15.63057,118.29717 -15.63108,118.29666 -15.62902,118.29666 -15.63057,118.29717 -15.63109,118.29665 -15.62851,118.29719 -2.0252,15.3282 h 15.63058 L 537.97698,1064.672 553.60549,946.37481 569.23606,828.07816 584.86714,709.78099 600.49616,591.48433 616.1288,473.18767 631.75989,354.8905 647.39097,236.59385 663.02155,118.29668 678.65263,2e-5 Z m 31.26166,0 -15.63057,118.29666 -15.63109,118.29717 -15.6285,118.29665 -15.63109,118.29717 -15.63109,118.29666 -15.63057,118.29666 -15.63108,118.29717 -15.62902,118.29665 -15.63057,118.29719 -2.0252,15.3282 h 15.62902 l 2.0252,-15.3282 L 584.86508,946.37481 600.49461,828.07816 616.12673,709.78099 631.75782,591.48433 647.38891,473.18767 663.01948,354.8905 678.65057,236.59385 694.28165,118.29668 709.91222,2e-5 Z m 31.26217,0 -15.63108,118.29666 -7.81451,59.14884 -7.81658,59.14833 -15.63057,118.29665 -15.63109,118.29717 -15.6285,118.29666 -15.63109,118.29666 -15.63109,118.29717 -15.63057,118.29665 -15.63108,118.29719 -2.0252,15.3282 H 598.4689 L 600.4941,1064.672 616.12673,946.37481 631.75782,828.07816 647.38891,709.78099 663.01948,591.48433 678.65057,473.18767 694.28165,354.8905 709.91222,236.59385 725.54331,118.29668 741.17388,2e-5 Z m 31.26166,0 -15.63109,118.29666 -15.63057,118.29717 -15.63108,118.29665 -7.81451,59.14885 -7.81658,59.14832 -15.63057,118.29666 -15.63109,118.29666 -15.6285,118.29717 -15.63109,118.29665 -15.63109,118.29719 -2.02468,15.3282 h 15.63057 l 2.0252,-15.3282 L 647.38891,946.37481 663.01948,828.07816 678.65057,709.78099 694.28165,591.48433 709.91222,473.18767 725.54331,354.8905 741.17388,236.59385 756.80497,118.29668 772.43554,2e-5 Z m 31.25959,0 -15.6285,118.29666 -15.63109,118.29717 -15.63109,118.29665 -15.63057,118.29717 -15.63108,118.29666 -7.81451,59.14833 -7.81658,59.14833 -15.63057,118.29717 -15.63109,118.29665 -15.6285,118.29719 -2.0252,15.3282 h 15.6285 l 2.0252,-15.3282 L 678.6485,946.37481 694.27907,828.07816 709.91016,709.78099 725.54124,591.48433 741.17181,473.18767 756.8029,354.8905 772.43399,236.59385 788.06611,118.29668 803.69565,2e-5 Z m 31.26166,0 -15.63057,118.29666 -15.63109,118.29717 -15.6285,118.29665 -15.63109,118.29717 -15.63109,118.29666 -15.63057,118.29666 -15.63108,118.29717 -7.81451,59.14832 -7.81658,59.14833 -15.63057,118.29719 -2.0252,15.3282 h 15.62902 l 2.0252,-15.3282 L 709.90861,946.37481 725.53918,828.07816 741.16975,709.78099 756.80083,591.48433 772.4314,473.18767 788.06456,354.8905 803.69358,236.59385 819.32467,118.29668 834.95679,2e-5 Z m 31.26217,0 -15.63108,118.29666 -15.62902,118.29717 -15.63057,118.29665 -15.63109,118.29717 -15.62902,118.29666 -15.63057,118.29666 -15.63109,118.29717 -15.63057,118.29665 -15.63109,118.29719 -2.02571,15.3282 h 15.62902 L 725.54124,1064.672 741.17181,946.37481 756.8029,828.07816 772.43399,709.78099 788.06611,591.48433 803.69565,473.18767 819.32622,354.8905 834.95885,236.59385 850.59201,118.29668 866.22258,2e-5 Z m 31.26166,0 -15.63109,118.29666 -15.63057,118.29717 -15.63108,118.29665 -15.62902,118.29717 -15.63057,118.29666 -15.63109,118.29666 -15.62902,118.29717 -15.63057,118.29665 -15.63109,118.29719 -2.0252,15.3282 h 15.62851 L 756.8029,1064.672 772.43399,946.37481 788.06611,828.07816 803.69565,709.78099 819.32622,591.48433 834.95885,473.18767 850.59201,354.8905 866.22258,236.59385 881.85573,118.29668 897.48682,2e-5 Z m 31.25959,0 -15.62902,118.29666 -15.63057,118.29717 -15.63109,118.29665 -15.63057,118.29717 -15.63108,118.29666 -15.62902,118.29666 -15.63057,118.29717 -15.63109,118.29665 -15.62902,118.29719 -2.0252,15.3282 h 15.63109 l 2.0252,-15.3282 L 803.69565,946.37481 819.32622,828.07816 834.95885,709.78099 850.59201,591.48433 866.22258,473.18767 881.85573,354.8905 897.48682,236.59385 913.11791,118.29668 928.74848,2e-5 Z m 31.26166,0 -15.63057,118.29666 -7.81451,59.14884 -7.81503,59.14833 -15.6285,118.29665 -15.63109,118.29717 -15.63057,118.29666 -15.63109,118.29666 -15.63108,118.29717 -15.62851,118.29665 -15.6347,118.29719 -2.02572,15.3282 h 15.62902 l 2.0252,-15.3282 L 834.95524,946.37481 850.58787,828.07816 866.21896,709.78099 881.8516,591.48433 897.48269,473.18767 913.11326,354.8905 928.74434,236.59385 944.37491,118.29668 960.006,2e-5 Z m 31.26166,0 -15.63057,118.29666 -15.62902,118.29717 -15.63109,118.29665 -7.81451,59.14885 -7.81451,59.14832 -15.6285,118.29666 -15.63109,118.29666 -15.63057,118.29717 -15.63109,118.29665 -15.63109,118.29719 -2.0252,15.3282 h 15.63264 L 850.59201,1064.672 866.22258,946.37481 881.85573,828.07816 897.4863,709.78099 913.11739,591.48433 928.74848,473.18767 944.37905,354.8905 960.01014,236.59385 975.64277,118.29668 991.27386,2e-5 Z m 31.26161,0 -15.63104,118.29666 -15.63057,118.29717 -15.63057,118.29665 -15.62902,118.29717 -15.63109,118.29666 -7.81451,59.14833 -7.81451,59.14833 -15.6285,118.29717 -15.63109,118.29665 -15.63057,118.29719 -2.02572,15.3282 H 879.8264 L 881.8516,1064.672 897.48269,946.37481 913.11326,828.07816 928.74434,709.78099 944.37491,591.48433 960.006,473.18767 975.63864,354.8905 991.26973,236.59385 1006.8987,118.29668 1022.5293,2e-5 Z m 31.2596,0 -15.6285,118.29666 -15.6311,118.29717 -15.63104,118.29665 -15.63057,118.29717 -15.63057,118.29666 -15.62902,118.29666 -15.63109,118.29717 -7.81451,59.14832 -7.81451,59.14833 -15.6285,118.29719 -2.02572,15.3282 h 15.62902 l 2.0252,-15.3282 15.63109,-118.29719 15.63108,-118.29665 15.63057,-118.29717 15.63264,-118.29666 15.63109,-118.29666 15.62904,-118.29717 15.6306,-118.29665 15.6331,-118.29717 L 1053.7915,2e-5 Z m 31.2622,0 -15.6311,118.29666 -15.629,118.29717 -15.6285,118.29665 -15.6311,118.29717 -15.63056,118.29666 -15.63109,118.29666 -15.63263,118.29717 -15.62902,118.29665 -15.63109,118.29719 -2.0252,15.3282 h 15.62902 l 2.0252,-15.3282 15.63109,-118.29719 15.63263,-118.29665 15.63109,-118.29717 15.62846,-118.29666 15.6311,-118.29666 15.6285,-118.29717 15.6311,-118.29665 15.6311,-118.29717 L 1085.049,2e-5 Z m 31.2617,0 -15.6311,118.29666 -15.6285,118.29717 -15.6311,118.29665 -15.629,118.29717 -15.629,118.29666 -15.6306,118.29666 -15.63111,118.29717 -15.6347,118.29665 -15.63057,118.29719 -2.02572,15.3282 h 15.63264 l 2.02571,-15.3282 15.63109,-118.29719 15.62846,-118.29665 15.6311,-118.29717 15.6285,-118.29666 15.6311,-118.29666 15.6311,-118.29717 15.6306,-118.29665 15.629,-118.29717 L 1116.3107,2e-5 Z m 31.2616,0 -15.6311,118.29666 -15.6305,118.29717 -15.6311,118.29665 -15.6285,118.29717 -15.6311,118.29666 -15.629,118.29666 -15.629,118.29717 -15.6306,118.29665 -15.63111,118.29719 -2.0252,15.3282 h 15.62691 l 2.0252,-15.3282 15.6311,-118.29719 15.6285,-118.29665 15.6311,-118.29717 15.6311,-118.29666 15.6306,-118.29666 15.629,-118.29717 15.6326,-118.29665 15.6291,-118.29717 L 1147.5687,2e-5 Z m 31.2596,0 -15.6285,118.29666 -15.6311,118.29717 -15.6311,118.29665 -15.6305,118.29717 -15.6311,118.29666 -15.6285,118.29666 -15.6311,118.29717 -15.629,118.29665 -15.629,118.29719 -2.0252,15.3282 h 15.629 l 2.0252,-15.3282 15.6311,-118.29719 15.631,-118.29665 15.6306,-118.29717 15.629,-118.29666 15.6327,-118.29666 15.629,-118.29717 15.6326,-118.29665 15.6311,-118.29717 L 1178.8283,2e-5 Z m 31.2622,0 -15.6311,118.29666 -15.6311,118.29717 -15.6285,118.29665 -15.6311,118.29717 -15.6311,118.29666 -15.6305,118.29666 -15.6311,118.29717 -15.6285,118.29665 -15.6311,118.29719 -2.0257,15.3282 h 15.6311 l 2.0257,-15.3282 15.6305,-118.29719 15.6291,-118.29665 15.6326,-118.29717 15.629,-118.29666 15.6327,-118.29666 15.6305,-118.29717 15.6296,-118.29665 15.629,-118.29717 L 1210.09,2e-5 Z m 31.2616,0 -15.631,118.29666 -7.8145,59.14884 -7.8161,59.14833 -15.6311,118.29665 -15.6311,118.29717 -15.6285,118.29666 -15.6311,118.29666 -15.6311,118.29717 -15.6305,118.29665 -15.6311,118.29719 -2.0252,15.3282 h 15.629 l 2.0252,-15.3282 15.6326,-118.29719 15.6291,-118.29665 15.6331,-118.29717 15.6306,-118.29666 15.629,-118.29666 15.6326,-118.29717 15.6311,-118.29665 15.6249,-118.29717 L 1241.3521,2e-5 Z m 31.2617,0 -15.6306,118.29666 -15.6311,118.29717 -15.631,118.29665 -7.8145,59.14885 -7.8161,59.14832 -15.6311,118.29666 -15.6311,118.29666 -15.6285,118.29717 -15.6311,118.29665 -15.6311,118.29719 -2.0252,15.3282 h 15.6291 l 2.0252,-15.3282 15.6331,-118.29719 15.6306,-118.29665 15.629,-118.29717 15.6326,-118.29666 15.6311,-118.29666 15.629,-118.29717 15.6348,-118.29665 15.6305,-118.29717 L 1272.6133,2e-5 Z m 31.2596,0 -15.629,118.29666 -15.6306,118.29717 -15.6306,118.29665 -15.6311,118.29717 -15.631,118.29666 -7.8145,59.14833 -7.8161,59.14833 -15.6311,118.29717 -15.6311,118.29665 -15.6285,118.29719 -2.0257,15.3282 h 15.6306 l 2.0257,-15.3282 15.629,-118.29719 15.6326,-118.29665 15.6311,-118.29717 15.629,-118.29666 15.6348,-118.29666 15.6305,-118.29717 15.6311,-118.29665 L 1288.25,118.29668 1303.8791,2e-5 Z m 31.2617,0 -15.6306,118.29666 -15.6311,118.29717 -15.629,118.29665 -15.6306,118.29717 -15.6306,118.29666 -15.6311,118.29666 -15.631,118.29717 -7.8145,59.14832 -7.8161,59.14833 -15.6311,118.29719 -2.0257,15.3282 h 15.6311 l 2.0257,-15.3282 15.6306,-118.29719 15.6285,-118.29665 15.6352,-118.29717 15.6306,-118.29666 15.631,-118.29666 15.6332,-118.29717 15.6285,-118.29665 15.627,-118.29717 L 1335.135,2e-5 Z m 31.2616,0 -15.6306,118.29666 -15.629,118.29717 -15.6311,118.29665 -15.6305,118.29717 -15.6291,118.29666 -15.631,118.29666 -15.6306,118.29717 -15.6311,118.29665 -15.6306,118.29719 -2.0252,15.3282 h 15.627 l 2.0252,-15.3282 15.6347,-118.29719 15.6306,-118.29665 15.631,-118.29717 15.6332,-118.29666 15.629,-118.29666 15.6321,-118.29717 15.6311,-118.29665 15.6311,-118.29717 L 1366.3962,2e-5 Z m 31.2617,0 -15.6311,118.29666 -15.6306,118.29717 -15.6306,118.29665 -15.629,118.29717 -15.6311,118.29666 -15.6305,118.29666 -15.6291,118.29717 -15.631,118.29665 -15.6306,118.29719 -2.0252,15.3282 h 15.6306 l 2.0252,-15.3282 15.631,-118.29719 15.6332,-118.29665 15.629,-118.29717 15.6321,-118.29666 15.6311,-118.29666 15.6311,-118.29717 15.6306,-118.29665 15.6249,-118.29717 L 1397.6584,2e-5 Z m 31.2601,0 -15.629,118.29666 -15.6311,118.29717 -15.6311,118.29665 -15.6306,118.29717 -15.6306,118.29666 -15.629,118.29666 -15.6311,118.29717 -15.6305,118.29665 -15.6291,118.29719 -2.0252,15.3282 h 15.6306 l 2.0257,-15.3282 15.6285,-118.29719 15.6332,-118.29665 15.6306,-118.29717 15.631,-118.29666 15.6311,-118.29666 15.6327,-118.29717 15.6311,-118.29665 15.6243,-118.29717 L 1428.9179,2e-5 Z m 31.2616,0 -15.6311,118.29666 -15.6305,118.29717 -15.629,118.29665 -15.6311,118.29717 -15.6311,118.29666 -15.6306,118.29666 -15.6306,118.29717 -15.629,118.29665 -15.6311,118.29719 -2.0252,15.3282 h 15.6311 l 2.0252,-15.3282 15.6311,-118.29719 15.6306,-118.29665 15.6311,-118.29717 15.6326,-118.29666 15.6306,-118.29666 15.6331,-118.29717 15.629,-118.29665 L 1444.549,118.29668 1460.1796,2e-5 Z m 31.2617,0 -15.6311,118.29666 -15.6285,118.29717 -15.6311,118.29665 -15.6311,118.29717 -15.6285,118.29666 -15.6311,118.29666 -15.6305,118.29717 -15.6311,118.29665 -15.6306,118.29719 -2.0257,15.3282 h 15.6311 l 2.0252,-15.3282 15.6311,-118.29719 15.6326,-118.29665 15.6306,-118.29717 15.6331,-118.29666 15.629,-118.29666 15.6327,-118.29717 15.6306,-118.29665 15.631,-118.29717 L 1491.4413,2e-5 Z m 31.2617,0 -15.6311,118.29666 -15.6306,118.29717 -15.6311,118.29665 -15.6285,118.29717 -15.6311,118.29666 -15.6311,118.29666 -15.6285,118.29717 -15.6311,118.29665 -15.6305,118.29719 -2.0257,15.3282 h 15.631 l 2.0252,-15.3282 15.6311,-118.29719 15.6327,-118.29665 15.6285,-118.29717 15.6331,-118.29666 15.6311,-118.29666 15.6306,-118.29717 15.6311,-118.29665 15.6249,-118.29717 L 1522.7034,2e-5 Z m 31.2595,0 -15.6285,118.29666 -15.631,118.29717 -15.6311,118.29665 -15.6306,118.29717 -15.6311,118.29666 -15.6285,118.29666 -15.6311,118.29717 -15.6311,118.29665 -15.6285,118.29719 -2.0257,15.3282 h 15.6311 l 2.0257,-15.3282 15.6285,-118.29719 15.6327,-118.29665 15.631,-118.29717 15.6311,-118.29666 15.6306,-118.29666 15.6326,-118.29717 15.6311,-118.29665 15.6228,-118.29717 L 1553.963,2e-5 Z m 31.2622,0 -15.6311,118.29666 -15.629,118.29717 -15.629,118.29665 -15.6306,118.29717 -15.6306,118.29666 -15.631,118.29666 -15.6311,118.29717 -15.629,118.29665 -15.6306,118.29719 -2.0252,15.3282 h 15.6306 l 2.0252,-15.3282 15.631,-118.29719 15.6311,-118.29665 15.6306,-118.29717 15.6326,-118.29666 15.6311,-118.29666 15.6311,-118.29717 15.6306,-118.29665 15.6306,-118.29717 L 1585.2247,2e-5 Z m 31.2617,0 -15.6311,118.29666 -15.629,118.29717 -15.6306,118.29665 -15.629,118.29717 -15.629,118.29666 -15.6306,118.29666 -15.6311,118.29717 -15.6306,118.29665 -15.6311,118.29719 -2.0252,15.3282 h 15.6306 l 2.0257,-15.3282 15.6306,-118.29719 15.6326,-118.29665 15.6311,-118.29717 15.6311,-118.29666 15.6306,-118.29666 15.6306,-118.29717 15.631,-118.29665 15.6311,-118.29717 L 1616.4863,2e-5 Z m 31.2616,0 -15.6311,118.29666 -15.6305,118.29717 -15.6311,118.29665 -15.629,118.29717 -15.6306,118.29666 -15.629,118.29666 -15.629,118.29717 -15.6306,118.29665 -15.6311,118.29719 -2.0252,15.3282 h 15.6306 l 2.0257,-15.3282 15.6306,-118.29719 15.631,-118.29665 15.6306,-118.29717 15.6311,-118.29666 15.6311,-118.29666 15.6306,-118.29717 15.631,-118.29665 15.6208,-118.29717 L 1647.7485,2e-5 Z m 31.2596,0 -15.6285,118.29666 -15.6311,118.29717 -15.6311,118.29665 -15.6305,118.29717 -15.6311,118.29666 -15.629,118.29666 -15.6306,118.29717 -15.629,118.29665 -15.629,118.29719 -2.0252,15.3282 h 15.629 l 2.0252,-15.3282 15.6305,-118.29719 15.6311,-118.29665 15.6306,-118.29717 15.6311,-118.29666 15.6311,-118.29666 15.6285,-118.29717 15.6347,-118.29665 15.6311,-118.29717 L 1679.0081,2e-5 Z m 31.2622,0 -15.6311,118.29666 -15.6311,118.29717 -15.6285,118.29665 -15.6311,118.29717 -15.6311,118.29666 -15.6305,118.29666 -15.6311,118.29717 -15.629,118.29665 -15.6306,118.29719 -2.0257,15.3282 h 15.6311 l 2.0252,-15.3282 15.6311,-118.29719 15.6305,-118.29665 15.6306,-118.29717 15.6295,-118.29666 15.6347,-118.29666 15.6306,-118.29717 15.629,-118.29665 15.6275,-118.29717 L 1710.2698,2e-5 Z m 31.2611,0 -15.6305,118.29666 -15.6291,118.29717 -15.631,118.29665 -15.6311,118.29717 -15.6285,118.29666 -15.6311,118.29666 -15.6311,118.29717 -15.6306,118.29665 -15.6305,118.29719 -2.0258,15.3282 h 15.6311 l 2.0252,-15.3282 15.6306,-118.29719 15.6295,-118.29665 15.6347,-118.29717 15.6306,-118.29666 15.629,-118.29666 15.6327,-118.29717 15.6311,-118.29665 15.629,-118.29717 4.2617,-32.26263 L 1741.5356,2e-5 h -15.627 z m 31.2617,0 -15.6306,118.29666 -15.6311,118.29717 -15.6305,118.29665 -15.6291,118.29717 -15.631,118.29666 -15.6311,118.29666 -15.6285,118.29717 -15.6311,118.29665 -15.6311,118.29719 -2.0247,15.3282 h 15.6264 l 2.0258,-15.3282 15.6347,-118.29719 15.6305,-118.29665 15.6291,-118.29717 15.6331,-118.29666 15.6306,-118.29666 11.6732,-88.35481 3.9563,-29.94236 15.6327,-118.29665 15.6305,-118.29717 L 1772.7951,2e-5 h -15.629 z m 31.2601,0 -15.629,118.29666 -15.6311,118.29717 -15.6306,118.29665 -15.6311,118.29717 -15.6305,118.29666 -15.6291,118.29666 -15.631,118.29717 -15.6311,118.29665 -15.6285,118.29719 -2.0252,15.3282 h 15.6305 l 2.0252,-15.3282 15.6291,-118.29719 15.6331,-118.29665 15.6306,-118.29717 13.5997,-102.93842 2.0298,-15.35824 15.6327,-118.29666 15.6305,-118.29717 15.6311,-118.29665 5.6818,-43.01702 9.9467,-75.28015 L 1804.0568,2e-5 h -15.6269 z m 31.2617,0 -15.6311,118.29666 -15.6306,118.29717 -15.629,118.29665 -15.6311,118.29717 -15.6306,118.29666 -15.6311,118.29666 -15.6305,118.29717 -15.6291,118.29665 -15.631,118.29719 -2.0252,15.3282 h 15.631 l 2.0252,-15.3282 15.6306,-118.29719 11.2541,-85.18291 v 0.0114 l 4.3775,-33.12511 15.6327,-118.29717 15.6305,-118.29666 15.629,-118.29666 15.6311,-118.29717 15.6306,-118.29665 15.629,-118.29717 L 1835.3205,5e-5 h -0.01 -15.6264 z m 31.2616,0 -15.6311,118.29666 -7.8145,59.14884 -7.816,59.14833 -15.6311,118.29665 -15.6306,118.29717 -15.629,118.29666 -15.6311,118.29666 -15.6306,118.29717 -15.6311,118.29665 -15.6305,118.29719 -2.0257,15.3282 h 13.2813 2.3477 l 2.0257,-15.3282 15.6326,-118.29719 15.6306,-118.29665 15.629,-118.29717 15.6306,-118.29666 15.6311,-118.29666 7.8145,-59.14884 7.8166,-59.14833 7.8155,-59.14833 7.8171,-59.14832 15.6311,-118.29717 L 1866.5806,2e-5 h -15.6269 z m 31.2617,0 -15.6306,118.29666 -15.6311,118.29717 -15.6311,118.29665 -7.8145,59.14885 -7.816,59.14832 -15.6311,118.29666 -15.6306,118.29666 -15.629,118.29717 -15.6311,118.29665 -15.6306,118.29719 -2.0252,15.3282 h 15.627 l 2.0252,-15.3282 15.629,-118.29719 15.6306,-118.29665 15.6311,-118.29717 7.8145,-59.14833 7.8165,-59.14833 7.8156,-59.14833 7.8171,-59.14833 15.6311,-118.29717 15.6305,-118.29665 15.6332,-118.29717 L 1897.8438,2e-5 h -0.01 z m 31.2596,0 -15.6285,118.29666 -15.6291,118.29717 -15.631,118.29665 -15.6306,118.29717 -15.6306,118.29666 -7.8145,59.14833 -7.8166,59.14833 -15.6311,118.29717 -15.6305,118.29665 -15.6291,118.29719 -2.0257,15.3282 h 6e-4 15.6285 l 2.0257,-15.3282 15.6305,-118.29719 15.6332,-118.29665 15.6306,-118.29717 15.6326,-118.29666 15.6311,-118.29666 15.6311,-118.29717 15.6305,-118.29665 15.6327,-118.29717 6.5236,-49.39806 V 2e-5 h -6.5293 z m 6.5334,187.15809 -6.5314,49.43574 -15.629,118.29665 -15.6285,118.29717 -15.6311,118.29666 -15.6311,118.29666 -15.6305,118.29717 -7.8145,59.14832 -7.8161,59.14833 -15.6311,118.29719 -2.0252,15.3282 h 15.627 l 2.0257,-15.3282 7.8155,-59.1489 7.8171,-59.14829 15.6311,-118.29665 15.6306,-118.29717 15.6331,-118.29666 15.6285,-118.29666 15.6327,-118.29717 3.0184,-22.857 3.5088,-26.55549 V 187.18859 Z m 0,236.59382 -6.5314,49.43574 -15.629,118.29666 -15.6285,118.29666 -15.6311,118.29717 -15.6311,118.29665 -15.6305,118.29719 -2.0252,15.3282 h 15.6285 l 2.0257,-15.3282 15.6306,-118.29719 15.6331,-118.29665 15.6285,-118.29717 15.6311,-118.29666 6.5293,-49.41559 V 423.78242 Z m 0,236.59383 -6.5314,49.43523 -15.629,118.29717 -15.6285,118.29665 -15.6311,118.29719 -2.0252,15.3282 h 15.629 l 2.0247,-15.3282 15.6296,-118.29719 3.1259,-23.65954 12.5067,-94.63711 3.4515,-26.13898 3.0778,-23.29366 V 660.37573 Z m 0,236.59383 -6.5314,49.43522 -15.629,118.29719 -2.0252,15.3282 h 15.629 l 2.0258,-15.3282 2.5889,-19.604 3.9419,-29.8338 V 896.96956 Z" />
  </g>
</svg>
