<?xml version="1.0" encoding="UTF-8" standalone="no"?>
<!-- Created with Inkscape (http://www.inkscape.org/) -->

<svg
   width="1920mm"
   height="1080mm"
   viewBox="0 0 1920 1080"
   version="1.1"
   id="svg1"
   sodipodi:docname="weapon_selection.svg"
   inkscape:version="1.4.3 (0d15f75042, 2025-12-25)"
   xmlns:inkscape="http://www.inkscape.org/namespaces/inkscape"
   xmlns:sodipodi="http://sodipodi.sourceforge.net/DTD/sodipodi-0.dtd"
   xmlns:xlink="http://www.w3.org/1999/xlink"
   xmlns="http://www.w3.org/2000/svg"
   xmlns:svg="http://www.w3.org/2000/svg">
  <sodipodi:namedview
     id="namedview1"
     pagecolor="#ffffff"
     bordercolor="#000000"
     borderopacity="0.25"
     inkscape:showpageshadow="2"
     inkscape:pageopacity="0.0"
     inkscape:pagecheckerboard="0"
     inkscape:deskcolor="#d1d1d1"
     inkscape:document-units="mm"
     inkscape:zoom="0.088388348"
     inkscape:cx="4989.3454"
     inkscape:cy="1238.8511"
     inkscape:window-width="1920"
     inkscape:window-height="1012"
     inkscape:window-x="0"
     inkscape:window-y="0"
     inkscape:window-maximized="1"
     inkscape:current-layer="layer1">
    <inkscape:page
       x="0"
       y="0"
       width="1920"
       height="1080"
       id="page2"
       margin="0"
       bleed="0" />
  </sodipodi:namedview>
  <defs
     id="defs1">
    <linearGradient
       inkscape:collect="always"
       xlink:href="#linearGradient214"
       id="linearGradient215"
       x1="1169.1644"
       y1="186.60959"
       x2="1169.1644"
       y2="286.16766"
       gradientUnits="userSpaceOnUse"
       gradientTransform="translate(7.809826e-6,0.19649642)" />
    <linearGradient
       id="linearGradient214"
       inkscape:collect="always">
      <stop
         style="stop-color:#1e1c19;stop-opacity:1;"
         offset="0"
         id="stop214" />
      <stop
         style="stop-color:#1e1c19;stop-opacity:0;"
         offset="1"
         id="stop215" />
    </linearGradient>
  </defs>
  <g
     inkscape:label="Layer 1"
     inkscape:groupmode="layer"
     id="layer1">
    <path
       id="rect39-7"
       style="fill:#33302e;fill-opacity:1;stroke-width:0.934785"
       d="M 1414.185 186.80565 L 1414.185 186.80617 L 192.74999 186.80617 L 184.00582 186.80617 L 0 186.80617 L 0 292.75784 L 1414.185 292.75784 L 1414.185 940.86143 L 1815.4654 940.86143 L 1815.4654 292.75784 L 1920.0001 292.75784 L 1920.0001 186.80617 L 1815.4654 186.80617 L 1815.4654 186.80565 L 1454.4699 186.80565 L 1452.6426 186.80565 L 1414.185 186.80565 z " />
    <path
       id="rect213"
       style="opacity:0.5;fill:url(#linearGradient215);fill-opacity:1;stroke-width:1.55097"
       d="m 0,186.80565 v 99.55878 h 1433.4138 362.8244 123.7619 v -99.55878 h -123.7619 -362.8244 z" />
    <path
       id="path72"
       style="fill:#ebe2ca;fill-opacity:1;stroke-width:1.01095"
       d="M 0 178.06148 L 0 186.80617 L 1920.0001 186.80617 L 1920.0001 178.06148 L 0 178.06148 z M 30.773832 210.95095 L 25.358142 218.17221 L 44.674792 233.15631 L 24.996924 249.58425 L 29.149125 255.18081 L 52.076408 231.35074 L 30.773832 210.95095 z M 66.879639 210.95095 L 61.463949 218.17221 L 80.780599 233.15631 L 61.10273 249.58425 L 65.254932 255.18081 L 88.182214 231.35074 L 66.879639 210.95095 z M 1855.1467 210.95198 L 1832.4489 234.54331 L 1853.5385 254.73897 L 1858.9 247.59006 L 1839.7766 232.75634 L 1859.2576 216.49273 L 1855.1467 210.95198 z M 1890.8913 210.95198 L 1868.1935 234.54331 L 1889.2826 254.73897 L 1894.6446 247.59006 L 1875.5212 232.75634 L 1895.0022 216.49273 L 1890.8913 210.95198 z M 1414.294 280.18083 L 1407.9735 286.36443 L 1414.294 292.54803 L 1414.2946 292.54855 L 1420.6125 286.36495 L 1420.613 286.36495 L 1420.613 286.36443 L 1414.2946 280.18083 L 1414.294 280.18083 z M 1439.571 280.18083 L 1433.4138 286.2063 L 1433.2526 286.36443 L 1433.2521 286.36495 L 1433.4138 286.5236 L 1433.4138 286.52308 L 1433.4138 286.52205 L 1439.571 292.54803 L 1445.8916 286.36443 L 1439.571 280.18083 z M 1464.8506 280.18083 L 1458.5301 286.36443 L 1464.8506 292.54803 L 1471.1686 286.36443 L 1464.8506 280.18083 z M 1490.1276 280.18083 L 1483.8092 286.36443 L 1490.1276 292.54803 L 1496.4482 286.36443 L 1490.1276 280.18083 z M 1515.4072 280.18083 L 1509.0867 286.36443 L 1515.4072 292.54803 L 1521.7273 286.36443 L 1515.4072 280.18083 z M 1540.6863 280.18083 L 1534.3663 286.36443 L 1540.6863 292.54803 L 1547.0048 286.36443 L 1540.6863 280.18083 z M 1565.9638 280.18083 L 1559.6433 286.36443 L 1565.9638 292.54803 L 1572.2839 286.36443 L 1565.9638 280.18083 z M 1591.2429 280.18083 L 1584.9229 286.36443 L 1591.2429 292.54803 L 1597.5614 286.36443 L 1591.2429 280.18083 z M 1616.5205 280.18083 L 1610.202 286.36443 L 1616.5205 292.54803 L 1622.8405 286.36443 L 1616.5205 280.18083 z M 1641.7995 280.18083 L 1635.4795 286.36443 L 1641.7995 292.54803 L 1648.118 286.36443 L 1641.7995 280.18083 z M 1667.0771 280.18083 L 1660.7586 286.36443 L 1667.0791 292.54803 L 1673.3971 286.36443 L 1667.0771 280.18083 z M 1692.3561 280.18083 L 1686.0377 286.36443 L 1692.3582 292.54803 L 1698.6767 286.36443 L 1692.3561 280.18083 z M 1717.6357 280.18083 L 1711.3152 286.36443 L 1717.6357 292.54803 L 1723.9537 286.36443 L 1717.6357 280.18083 z M 1742.9127 280.18083 L 1736.5948 286.36443 L 1742.9148 292.54803 L 1749.2333 286.36443 L 1742.9148 280.18083 L 1742.9127 280.18083 z M 1768.1923 280.18083 L 1761.8739 286.36443 L 1768.1923 292.54803 L 1774.5108 286.36443 L 1768.1923 280.18083 z M 1793.4699 280.18083 L 1787.1514 286.36443 L 1793.4714 292.54803 L 1796.2382 289.84019 L 1796.2382 289.84122 L 1796.2382 289.84174 L 1799.7904 286.36495 L 1799.7909 286.36495 L 1799.7909 286.36443 L 1796.2382 282.88816 L 1793.4714 280.18083 L 1793.4699 280.18083 z M 0 280.18135 L 0 292.54855 L 6.3200277 286.36495 L 0 280.18135 z M 25.279077 280.18135 L 18.959049 286.36495 L 25.279077 292.54855 L 31.597555 286.36495 L 25.279077 280.18135 z M 50.556604 280.18135 L 44.23606 286.36495 L 50.556604 292.54855 L 56.877148 286.36495 L 50.556604 280.18135 z M 75.835681 280.18135 L 69.515653 286.36495 L 75.835681 292.54855 L 82.154159 286.36495 L 75.835681 280.18135 z M 101.11321 280.18135 L 94.794731 286.36495 L 101.11321 292.54855 L 107.43375 286.36495 L 101.11321 280.18135 z M 126.39229 280.18135 L 120.07226 286.36495 L 126.39229 292.54855 L 132.71076 286.36495 L 126.39229 280.18135 z M 151.66981 280.18135 L 145.35133 286.36495 L 151.66981 292.54855 L 157.99036 286.36495 L 151.66981 280.18135 z M 176.94889 280.18135 L 170.62886 286.36495 L 176.94889 292.54855 L 183.26943 286.36495 L 176.94889 280.18135 z M 202.22848 280.18135 L 195.90794 286.36495 L 202.22848 292.54855 L 208.54696 286.36495 L 202.22848 280.18135 z M 227.50601 280.18135 L 221.18547 286.36495 L 227.50601 292.54855 L 233.82604 286.36495 L 227.50601 280.18135 z M 252.78509 280.18135 L 246.46454 286.36495 L 252.78509 292.54855 L 259.10356 286.36495 L 252.78509 280.18135 z M 278.06261 280.18135 L 271.74414 286.36495 L 278.06261 292.54855 L 284.38264 286.36495 L 278.06261 280.18135 z M 303.34169 280.18135 L 297.02166 286.36495 L 303.34169 292.54855 L 309.66017 286.36495 L 303.34169 280.18135 z M 328.61922 280.18135 L 322.30074 286.36495 L 328.61922 292.54855 L 334.93925 286.36495 L 328.61922 280.18135 z M 353.8983 280.18135 L 347.57775 286.36495 L 353.8983 292.54855 L 360.21884 286.36495 L 353.8983 280.18135 z M 379.17737 280.18135 L 372.85734 286.36495 L 379.17737 292.54855 L 385.49585 286.36495 L 379.17737 280.18135 z M 404.4549 280.18135 L 398.13487 286.36495 L 404.4549 292.54855 L 410.77544 286.36495 L 404.4549 280.18135 z M 429.73449 280.18135 L 423.41395 286.36495 L 429.73449 292.54855 L 436.05245 286.36495 L 429.73449 280.18135 z M 455.0115 280.18135 L 448.69303 286.36495 L 455.0115 292.54855 L 461.33205 286.36495 L 455.0115 280.18135 z M 480.2911 280.18135 L 473.97055 286.36495 L 480.2911 292.54855 L 486.60906 286.36495 L 480.2911 280.18135 z M 505.56811 280.18135 L 499.25015 286.36495 L 505.56811 292.54855 L 511.88865 286.36495 L 505.56811 280.18135 z M 530.8477 280.18135 L 524.52716 286.36495 L 530.8477 292.54855 L 537.16773 286.36495 L 530.8477 280.18135 z M 556.12678 280.18135 L 549.80623 286.36495 L 556.12678 292.54855 L 562.44526 286.36495 L 556.12678 280.18135 z M 581.40431 280.18135 L 575.08376 286.36495 L 581.40431 292.54855 L 587.72433 286.36495 L 581.40431 280.18135 z M 606.68338 280.18135 L 600.36335 286.36495 L 606.68338 292.54855 L 613.00186 286.36495 L 606.68338 280.18135 z M 631.96091 280.18135 L 625.64243 286.36495 L 631.96091 292.54855 L 638.28094 286.36495 L 631.96091 280.18135 z M 657.23999 280.18135 L 650.91996 286.36495 L 657.23999 292.54855 L 663.55846 286.36495 L 657.23999 280.18135 z M 682.51751 280.18135 L 676.19904 286.36495 L 682.51751 292.54855 L 688.83754 286.36495 L 682.51751 280.18135 z M 707.79659 280.18135 L 701.47656 286.36495 L 707.79659 292.54855 L 714.11713 286.36495 L 707.79659 280.18135 z M 733.07618 280.18135 L 726.75564 286.36495 L 733.07618 292.54855 L 739.39414 286.36495 L 733.07618 280.18135 z M 758.35319 280.18135 L 752.03317 286.36495 L 758.35319 292.54855 L 764.67374 286.36495 L 758.35319 280.18135 z M 783.63279 280.18135 L 777.31224 286.36495 L 783.63279 292.54855 L 789.95127 286.36495 L 783.63279 280.18135 z M 808.91031 280.18135 L 802.59184 286.36495 L 808.91031 292.54855 L 815.23034 286.36495 L 808.91031 280.18135 z M 834.18939 280.18135 L 827.86885 286.36495 L 834.18939 292.54855 L 840.50787 286.36495 L 834.18939 280.18135 z M 859.46692 280.18135 L 853.14844 286.36495 L 859.46847 292.54855 L 865.78695 286.36495 L 859.46692 280.18135 z M 884.746 280.18135 L 878.42752 286.36495 L 884.74806 292.54855 L 891.06602 286.36495 L 884.746 280.18135 z M 910.02507 280.18135 L 903.70505 286.36495 L 910.02507 292.54855 L 916.34355 286.36495 L 910.02507 280.18135 z M 935.3026 280.18135 L 928.98412 286.36495 L 935.30467 292.54855 L 941.62263 286.36495 L 935.30467 280.18135 L 935.3026 280.18135 z M 960.58168 280.18135 L 954.26372 286.36495 L 960.58168 292.54855 L 966.90015 286.36495 L 960.58168 280.18135 z M 985.8592 280.18135 L 979.54073 286.36495 L 985.86127 292.54855 L 992.17975 286.36495 L 985.86127 280.18135 L 985.8592 280.18135 z M 1011.1383 280.18135 L 1004.8203 286.36495 L 1011.1383 292.54855 L 1017.4568 286.36495 L 1011.1383 280.18135 z M 1036.4158 280.18135 L 1030.0978 286.36495 L 1036.4179 292.54855 L 1042.7364 286.36495 L 1036.4179 280.18135 L 1036.4158 280.18135 z M 1061.6954 280.18135 L 1055.3769 286.36495 L 1061.697 292.54855 L 1068.0154 286.36495 L 1061.697 280.18135 L 1061.6954 280.18135 z M 1086.9745 280.18135 L 1080.6539 286.36495 L 1086.9745 292.54855 L 1093.2945 286.36495 L 1086.9745 280.18135 z M 1112.2536 280.18135 L 1105.9335 286.36495 L 1112.2536 292.54855 L 1118.572 286.36495 L 1112.2536 280.18135 z M 1137.5311 280.18135 L 1131.2126 286.36495 L 1137.5311 292.54855 L 1143.8516 286.36495 L 1137.5311 280.18135 z M 1162.8102 280.18135 L 1156.4901 286.36495 L 1162.8102 292.54855 L 1169.1286 286.36495 L 1162.8102 280.18135 z M 1188.0877 280.18135 L 1181.7692 286.36495 L 1188.0877 292.54855 L 1194.4082 286.36495 L 1188.0877 280.18135 z M 1212.0661 280.18135 L 1205.746 286.36495 L 1212.0661 292.54855 L 1212.7167 291.9119 L 1213.5037 291.14244 L 1218.3866 286.36495 L 1213.5037 281.58798 L 1212.7172 280.818 L 1212.7167 280.81852 L 1212.0661 280.18135 z M 1237.3457 280.18135 L 1231.0251 286.36495 L 1237.3457 292.54855 L 1243.6641 286.36495 L 1237.3457 280.18135 z M 1262.6227 280.18135 L 1256.3026 286.36495 L 1262.6227 292.54855 L 1268.9432 286.36495 L 1262.6227 280.18135 z M 1287.9023 280.18135 L 1281.5817 286.36495 L 1287.9023 292.54855 L 1294.2207 286.36495 L 1287.9023 280.18135 z M 1313.1793 280.18135 L 1306.8613 286.36495 L 1313.1793 292.54855 L 1319.4998 286.36495 L 1313.1793 280.18135 z M 1338.4589 280.18135 L 1332.1383 286.36495 L 1338.4589 292.54855 L 1344.7773 286.36495 L 1338.4589 280.18135 z M 1363.7359 280.18135 L 1357.4179 286.36495 L 1363.7359 292.54855 L 1370.0564 286.36495 L 1363.7359 280.18135 z M 1389.0155 280.18135 L 1382.6949 286.36495 L 1389.0155 292.54855 L 1395.3355 286.36495 L 1389.0155 280.18135 z M 1818.75 280.18135 L 1812.4294 286.36495 L 1818.75 292.54855 L 1825.0684 286.36495 L 1818.75 280.18135 z M 1844.027 280.18135 L 1837.709 286.36495 L 1844.027 292.54855 L 1850.3475 286.36495 L 1844.027 280.18135 z M 1869.3066 280.18135 L 1862.986 286.36495 L 1869.3066 292.54855 L 1875.625 286.36495 L 1869.3066 280.18135 z M 1894.5836 280.18135 L 1888.2656 286.36495 L 1894.5836 292.54855 L 1900.9041 286.36495 L 1894.5836 280.18135 z M 1919.8632 280.18135 L 1913.5426 286.36495 L 1919.8632 292.54855 L 1920.0001 292.41574 L 1920.0001 280.31416 L 1919.8632 280.18135 z " />
  </g>
</svg>
